M48
; DRILL file {KiCad 9.0.2-9.0.2-0~ubuntu22.04.1} date 2025-06-19T17:06:21+1000
; FORMAT={-:-/ absolute / metric / decimal}
; #@! TF.CreationDate,2025-06-19T17:06:21+10:00
; #@! TF.GenerationSoftware,Kicad,Pcbnew,9.0.2-9.0.2-0~ubuntu22.04.1
; #@! TF.FileFunction,Plated,1,4,PTH
FMAT,2
METRIC
; #@! TA.AperFunction,Plated,PTH,ViaDrill
T1C0.300
; #@! TA.AperFunction,Plated,PTH,ComponentDrill
T2C1.000
; #@! TA.AperFunction,Plated,PTH,ComponentDrill
T3C1.600
; #@! TA.AperFunction,Plated,PTH,ComponentDrill
T4C2.700
%
G90
G05
T1
X86.04Y-75.87
X86.88Y-67.73
X87.0Y-73.0
X87.8Y-66.0
X88.43Y-64.31
X88.858Y-83.963
X89.8Y-85.3
X89.98Y-62.01
X91.0Y-67.2
X91.5Y-74.0
X91.567Y-87.33
X91.7Y-70.4
X91.7Y-71.2
X91.8Y-82.7
X91.94Y-59.81
X92.6Y-73.1
X93.1Y-88.6
X93.89Y-72.89
X94.351Y-70.4
X94.4Y-59.2
X94.6Y-68.9
X95.43Y-74.514
X95.713Y-71.709
X96.2Y-67.5
X96.5Y-70.1
X96.8Y-77.6
X96.88Y-69.019
X97.0Y-90.5
X97.5Y-68.45
X97.53Y-56.85
X97.59Y-59.07
X97.825Y-67.6
X98.254Y-72.996
X98.275Y-68.425
X98.481Y-79.056
X98.95Y-84.6
X99.2Y-67.2
X99.25Y-71.773
X99.4Y-87.619
X99.4Y-88.5
X99.471Y-73.341
X99.5Y-76.75
X99.6Y-83.6
X99.63Y-61.31
X99.85Y-84.6
X99.86Y-74.096
X100.4Y-62.2
X100.4Y-70.7
X100.427Y-67.172
X100.6Y-87.6
X100.6Y-88.5
X100.85Y-82.9
X101.0Y-72.55
X101.0Y-73.3
X101.025Y-90.5
X101.36Y-66.44
X102.0Y-82.709
X102.3Y-65.7
X102.47Y-56.85
X103.0Y-64.6
X103.275Y-74.934
X103.35Y-90.5
X103.625Y-72.875
X103.7Y-72.1
X103.747Y-76.474
X103.94Y-65.59
X104.1Y-79.0
X104.6Y-81.2
X105.08Y-66.81
X105.21Y-67.8
X105.725Y-90.525
X105.8Y-81.1
X106.0Y-71.25
X106.0Y-72.75
X106.106Y-75.326
X106.25Y-76.675
X106.502Y-75.903
X106.6Y-80.9
X106.725Y-74.382
X106.761Y-75.081
X107.0Y-68.6
X107.401Y-77.943
X107.52Y-56.87
X107.825Y-90.5
X107.869Y-76.653
X108.5Y-78.1
X108.992Y-72.2
X109.0Y-76.8
X109.0Y-83.6
X109.005Y-70.541
X109.4Y-84.6
X109.5Y-78.1
X109.6Y-87.6
X109.6Y-88.6
X109.706Y-80.648
X110.733Y-77.788
X110.8Y-84.6
X110.8Y-87.6
X110.8Y-88.6
X110.9Y-71.2
X110.9Y-72.1
X110.9Y-73.0
X110.9Y-73.9
X111.0Y-90.7
X111.7Y-73.0
X111.7Y-73.9
X111.75Y-71.2
X111.75Y-72.1
X112.15Y-60.75
X112.34Y-58.85
X112.39Y-56.8
X112.6Y-71.2
X112.6Y-72.1
X112.6Y-73.0
X112.6Y-73.9
X113.1Y-76.776
X113.1Y-77.85
X113.1Y-79.1
X113.84Y-67.248
X113.95Y-69.3
X113.979Y-70.248
X114.306Y-76.75
X114.4Y-79.1
X115.0Y-67.2
X115.23Y-57.76
X115.6Y-79.1
X116.5Y-67.2
X116.7Y-74.5
X116.8Y-73.6
X117.2Y-71.6
X117.2Y-76.3
X117.28Y-59.34
X117.3Y-78.1
X117.3Y-81.2
X117.3Y-82.2
X117.3Y-83.2
X117.375Y-77.34
X119.33Y-61.34
X119.6Y-72.5
X119.8Y-76.3
X119.8Y-77.2
X119.8Y-78.0
X119.8Y-79.0
X119.8Y-80.0
X119.8Y-81.2
X119.8Y-82.1
X119.8Y-83.1
X120.0Y-73.4
X120.3Y-65.3
X120.3Y-66.2
X120.3Y-67.0
X120.5Y-69.9
X121.2Y-63.8
X122.625Y-69.8
X122.625Y-70.6
X122.675Y-68.125
X123.0Y-80.07
X123.423Y-73.486
X123.45Y-70.85
X123.5Y-74.4
X123.5Y-75.1
X123.5Y-75.8
X123.63Y-77.79
T2
X86.871Y-77.433
X87.74Y-79.82
X88.609Y-82.207
X89.353Y-76.533
X90.221Y-78.919
X91.09Y-81.306
X91.602Y-85.527
X93.547Y-87.16
X95.493Y-88.792
X102.52Y-88.885
X105.06Y-88.885
X107.6Y-88.885
T3
X100.0Y-58.0
X105.0Y-58.0
X110.0Y-58.0
X114.4Y-88.9
X117.65Y-86.35
T4
X95.808Y-64.558
X95.808Y-82.942
X114.192Y-64.558
X114.25Y-83.0
M30
