%TF.GenerationSoftware,KiCad,Pcbnew,9.0.2-9.0.2-0~ubuntu22.04.1*%
%TF.CreationDate,2025-06-19T17:06:25+10:00*%
%TF.ProjectId,bldc_driver,626c6463-5f64-4726-9976-65722e6b6963,rev?*%
%TF.SameCoordinates,Original*%
%TF.FileFunction,Copper,L2,Inr*%
%TF.FilePolarity,Positive*%
%FSLAX46Y46*%
G04 Gerber Fmt 4.6, Leading zero omitted, Abs format (unit mm)*
G04 Created by KiCad (PCBNEW 9.0.2-9.0.2-0~ubuntu22.04.1) date 2025-06-19 17:06:25*
%MOMM*%
%LPD*%
G01*
G04 APERTURE LIST*
G04 Aperture macros list*
%AMRoundRect*
0 Rectangle with rounded corners*
0 $1 Rounding radius*
0 $2 $3 $4 $5 $6 $7 $8 $9 X,Y pos of 4 corners*
0 Add a 4 corners polygon primitive as box body*
4,1,4,$2,$3,$4,$5,$6,$7,$8,$9,$2,$3,0*
0 Add four circle primitives for the rounded corners*
1,1,$1+$1,$2,$3*
1,1,$1+$1,$4,$5*
1,1,$1+$1,$6,$7*
1,1,$1+$1,$8,$9*
0 Add four rect primitives between the rounded corners*
20,1,$1+$1,$2,$3,$4,$5,0*
20,1,$1+$1,$4,$5,$6,$7,0*
20,1,$1+$1,$6,$7,$8,$9,0*
20,1,$1+$1,$8,$9,$2,$3,0*%
%AMRotRect*
0 Rectangle, with rotation*
0 The origin of the aperture is its center*
0 $1 length*
0 $2 width*
0 $3 Rotation angle, in degrees counterclockwise*
0 Add horizontal line*
21,1,$1,$2,0,0,$3*%
G04 Aperture macros list end*
%ADD10C,0.100000*%
%ADD11C,0.150000*%
%ADD12C,0.300000*%
%ADD13C,0.400000*%
%TA.AperFunction,ComponentPad*%
%ADD14RoundRect,0.250002X-1.499998X-1.499998X1.499998X-1.499998X1.499998X1.499998X-1.499998X1.499998X0*%
%TD*%
%TA.AperFunction,ComponentPad*%
%ADD15C,3.100000*%
%TD*%
%TA.AperFunction,ComponentPad*%
%ADD16RotRect,1.700000X1.700000X200.000000*%
%TD*%
%TA.AperFunction,ComponentPad*%
%ADD17C,1.700000*%
%TD*%
%TA.AperFunction,ComponentPad*%
%ADD18R,1.700000X1.700000*%
%TD*%
%TA.AperFunction,ComponentPad*%
%ADD19RoundRect,0.250002X-2.071034X0.459137X-0.459137X-2.071034X2.071034X-0.459137X0.459137X2.071034X0*%
%TD*%
%TA.AperFunction,ComponentPad*%
%ADD20RoundRect,0.250002X0.000000X-2.121318X2.121318X0.000000X0.000000X2.121318X-2.121318X0.000000X0*%
%TD*%
%TA.AperFunction,ComponentPad*%
%ADD21RotRect,1.700000X1.700000X230.000000*%
%TD*%
%TA.AperFunction,ViaPad*%
%ADD22C,0.600000*%
%TD*%
G04 APERTURE END LIST*
D10*
D11*
X177002200Y-166007200D02*
X285002200Y-166007200D01*
X285002200Y-198007200D01*
X177002200Y-198007200D01*
X177002200Y-166007200D01*
D10*
D11*
X10000000Y-10000000D02*
X287002200Y-10000000D01*
X287002200Y-200007200D01*
X10000000Y-200007200D01*
X10000000Y-10000000D01*
D10*
D11*
X12000000Y-12000000D02*
X285002200Y-12000000D01*
X285002200Y-198007200D01*
X12000000Y-198007200D01*
X12000000Y-12000000D01*
D10*
D11*
X60000000Y-12000000D02*
X60000000Y-10000000D01*
D10*
D11*
X110000000Y-12000000D02*
X110000000Y-10000000D01*
D10*
D11*
X160000000Y-12000000D02*
X160000000Y-10000000D01*
D10*
D11*
X210000000Y-12000000D02*
X210000000Y-10000000D01*
D10*
D11*
X260000000Y-12000000D02*
X260000000Y-10000000D01*
D10*
D11*
X36089160Y-11593604D02*
X35346303Y-11593604D01*
X35717731Y-11593604D02*
X35717731Y-10293604D01*
X35717731Y-10293604D02*
X35593922Y-10479319D01*
X35593922Y-10479319D02*
X35470112Y-10603128D01*
X35470112Y-10603128D02*
X35346303Y-10665033D01*
D10*
D11*
X85346303Y-10417414D02*
X85408207Y-10355509D01*
X85408207Y-10355509D02*
X85532017Y-10293604D01*
X85532017Y-10293604D02*
X85841541Y-10293604D01*
X85841541Y-10293604D02*
X85965350Y-10355509D01*
X85965350Y-10355509D02*
X86027255Y-10417414D01*
X86027255Y-10417414D02*
X86089160Y-10541223D01*
X86089160Y-10541223D02*
X86089160Y-10665033D01*
X86089160Y-10665033D02*
X86027255Y-10850747D01*
X86027255Y-10850747D02*
X85284398Y-11593604D01*
X85284398Y-11593604D02*
X86089160Y-11593604D01*
D10*
D11*
X135284398Y-10293604D02*
X136089160Y-10293604D01*
X136089160Y-10293604D02*
X135655826Y-10788842D01*
X135655826Y-10788842D02*
X135841541Y-10788842D01*
X135841541Y-10788842D02*
X135965350Y-10850747D01*
X135965350Y-10850747D02*
X136027255Y-10912652D01*
X136027255Y-10912652D02*
X136089160Y-11036461D01*
X136089160Y-11036461D02*
X136089160Y-11345985D01*
X136089160Y-11345985D02*
X136027255Y-11469795D01*
X136027255Y-11469795D02*
X135965350Y-11531700D01*
X135965350Y-11531700D02*
X135841541Y-11593604D01*
X135841541Y-11593604D02*
X135470112Y-11593604D01*
X135470112Y-11593604D02*
X135346303Y-11531700D01*
X135346303Y-11531700D02*
X135284398Y-11469795D01*
D10*
D11*
X185965350Y-10726938D02*
X185965350Y-11593604D01*
X185655826Y-10231700D02*
X185346303Y-11160271D01*
X185346303Y-11160271D02*
X186151064Y-11160271D01*
D10*
D11*
X236027255Y-10293604D02*
X235408207Y-10293604D01*
X235408207Y-10293604D02*
X235346303Y-10912652D01*
X235346303Y-10912652D02*
X235408207Y-10850747D01*
X235408207Y-10850747D02*
X235532017Y-10788842D01*
X235532017Y-10788842D02*
X235841541Y-10788842D01*
X235841541Y-10788842D02*
X235965350Y-10850747D01*
X235965350Y-10850747D02*
X236027255Y-10912652D01*
X236027255Y-10912652D02*
X236089160Y-11036461D01*
X236089160Y-11036461D02*
X236089160Y-11345985D01*
X236089160Y-11345985D02*
X236027255Y-11469795D01*
X236027255Y-11469795D02*
X235965350Y-11531700D01*
X235965350Y-11531700D02*
X235841541Y-11593604D01*
X235841541Y-11593604D02*
X235532017Y-11593604D01*
X235532017Y-11593604D02*
X235408207Y-11531700D01*
X235408207Y-11531700D02*
X235346303Y-11469795D01*
D10*
D11*
X285965350Y-10293604D02*
X285717731Y-10293604D01*
X285717731Y-10293604D02*
X285593922Y-10355509D01*
X285593922Y-10355509D02*
X285532017Y-10417414D01*
X285532017Y-10417414D02*
X285408207Y-10603128D01*
X285408207Y-10603128D02*
X285346303Y-10850747D01*
X285346303Y-10850747D02*
X285346303Y-11345985D01*
X285346303Y-11345985D02*
X285408207Y-11469795D01*
X285408207Y-11469795D02*
X285470112Y-11531700D01*
X285470112Y-11531700D02*
X285593922Y-11593604D01*
X285593922Y-11593604D02*
X285841541Y-11593604D01*
X285841541Y-11593604D02*
X285965350Y-11531700D01*
X285965350Y-11531700D02*
X286027255Y-11469795D01*
X286027255Y-11469795D02*
X286089160Y-11345985D01*
X286089160Y-11345985D02*
X286089160Y-11036461D01*
X286089160Y-11036461D02*
X286027255Y-10912652D01*
X286027255Y-10912652D02*
X285965350Y-10850747D01*
X285965350Y-10850747D02*
X285841541Y-10788842D01*
X285841541Y-10788842D02*
X285593922Y-10788842D01*
X285593922Y-10788842D02*
X285470112Y-10850747D01*
X285470112Y-10850747D02*
X285408207Y-10912652D01*
X285408207Y-10912652D02*
X285346303Y-11036461D01*
D10*
D11*
X60000000Y-198007200D02*
X60000000Y-200007200D01*
D10*
D11*
X110000000Y-198007200D02*
X110000000Y-200007200D01*
D10*
D11*
X160000000Y-198007200D02*
X160000000Y-200007200D01*
D10*
D11*
X210000000Y-198007200D02*
X210000000Y-200007200D01*
D10*
D11*
X260000000Y-198007200D02*
X260000000Y-200007200D01*
D10*
D11*
X36089160Y-199600804D02*
X35346303Y-199600804D01*
X35717731Y-199600804D02*
X35717731Y-198300804D01*
X35717731Y-198300804D02*
X35593922Y-198486519D01*
X35593922Y-198486519D02*
X35470112Y-198610328D01*
X35470112Y-198610328D02*
X35346303Y-198672233D01*
D10*
D11*
X85346303Y-198424614D02*
X85408207Y-198362709D01*
X85408207Y-198362709D02*
X85532017Y-198300804D01*
X85532017Y-198300804D02*
X85841541Y-198300804D01*
X85841541Y-198300804D02*
X85965350Y-198362709D01*
X85965350Y-198362709D02*
X86027255Y-198424614D01*
X86027255Y-198424614D02*
X86089160Y-198548423D01*
X86089160Y-198548423D02*
X86089160Y-198672233D01*
X86089160Y-198672233D02*
X86027255Y-198857947D01*
X86027255Y-198857947D02*
X85284398Y-199600804D01*
X85284398Y-199600804D02*
X86089160Y-199600804D01*
D10*
D11*
X135284398Y-198300804D02*
X136089160Y-198300804D01*
X136089160Y-198300804D02*
X135655826Y-198796042D01*
X135655826Y-198796042D02*
X135841541Y-198796042D01*
X135841541Y-198796042D02*
X135965350Y-198857947D01*
X135965350Y-198857947D02*
X136027255Y-198919852D01*
X136027255Y-198919852D02*
X136089160Y-199043661D01*
X136089160Y-199043661D02*
X136089160Y-199353185D01*
X136089160Y-199353185D02*
X136027255Y-199476995D01*
X136027255Y-199476995D02*
X135965350Y-199538900D01*
X135965350Y-199538900D02*
X135841541Y-199600804D01*
X135841541Y-199600804D02*
X135470112Y-199600804D01*
X135470112Y-199600804D02*
X135346303Y-199538900D01*
X135346303Y-199538900D02*
X135284398Y-199476995D01*
D10*
D11*
X185965350Y-198734138D02*
X185965350Y-199600804D01*
X185655826Y-198238900D02*
X185346303Y-199167471D01*
X185346303Y-199167471D02*
X186151064Y-199167471D01*
D10*
D11*
X236027255Y-198300804D02*
X235408207Y-198300804D01*
X235408207Y-198300804D02*
X235346303Y-198919852D01*
X235346303Y-198919852D02*
X235408207Y-198857947D01*
X235408207Y-198857947D02*
X235532017Y-198796042D01*
X235532017Y-198796042D02*
X235841541Y-198796042D01*
X235841541Y-198796042D02*
X235965350Y-198857947D01*
X235965350Y-198857947D02*
X236027255Y-198919852D01*
X236027255Y-198919852D02*
X236089160Y-199043661D01*
X236089160Y-199043661D02*
X236089160Y-199353185D01*
X236089160Y-199353185D02*
X236027255Y-199476995D01*
X236027255Y-199476995D02*
X235965350Y-199538900D01*
X235965350Y-199538900D02*
X235841541Y-199600804D01*
X235841541Y-199600804D02*
X235532017Y-199600804D01*
X235532017Y-199600804D02*
X235408207Y-199538900D01*
X235408207Y-199538900D02*
X235346303Y-199476995D01*
D10*
D11*
X285965350Y-198300804D02*
X285717731Y-198300804D01*
X285717731Y-198300804D02*
X285593922Y-198362709D01*
X285593922Y-198362709D02*
X285532017Y-198424614D01*
X285532017Y-198424614D02*
X285408207Y-198610328D01*
X285408207Y-198610328D02*
X285346303Y-198857947D01*
X285346303Y-198857947D02*
X285346303Y-199353185D01*
X285346303Y-199353185D02*
X285408207Y-199476995D01*
X285408207Y-199476995D02*
X285470112Y-199538900D01*
X285470112Y-199538900D02*
X285593922Y-199600804D01*
X285593922Y-199600804D02*
X285841541Y-199600804D01*
X285841541Y-199600804D02*
X285965350Y-199538900D01*
X285965350Y-199538900D02*
X286027255Y-199476995D01*
X286027255Y-199476995D02*
X286089160Y-199353185D01*
X286089160Y-199353185D02*
X286089160Y-199043661D01*
X286089160Y-199043661D02*
X286027255Y-198919852D01*
X286027255Y-198919852D02*
X285965350Y-198857947D01*
X285965350Y-198857947D02*
X285841541Y-198796042D01*
X285841541Y-198796042D02*
X285593922Y-198796042D01*
X285593922Y-198796042D02*
X285470112Y-198857947D01*
X285470112Y-198857947D02*
X285408207Y-198919852D01*
X285408207Y-198919852D02*
X285346303Y-199043661D01*
D10*
D11*
X10000000Y-60000000D02*
X12000000Y-60000000D01*
D10*
D11*
X10000000Y-110000000D02*
X12000000Y-110000000D01*
D10*
D11*
X10000000Y-160000000D02*
X12000000Y-160000000D01*
D10*
D11*
X10690476Y-35222176D02*
X11309523Y-35222176D01*
X10566666Y-35593604D02*
X10999999Y-34293604D01*
X10999999Y-34293604D02*
X11433333Y-35593604D01*
D10*
D11*
X11092857Y-84912652D02*
X11278571Y-84974557D01*
X11278571Y-84974557D02*
X11340476Y-85036461D01*
X11340476Y-85036461D02*
X11402380Y-85160271D01*
X11402380Y-85160271D02*
X11402380Y-85345985D01*
X11402380Y-85345985D02*
X11340476Y-85469795D01*
X11340476Y-85469795D02*
X11278571Y-85531700D01*
X11278571Y-85531700D02*
X11154761Y-85593604D01*
X11154761Y-85593604D02*
X10659523Y-85593604D01*
X10659523Y-85593604D02*
X10659523Y-84293604D01*
X10659523Y-84293604D02*
X11092857Y-84293604D01*
X11092857Y-84293604D02*
X11216666Y-84355509D01*
X11216666Y-84355509D02*
X11278571Y-84417414D01*
X11278571Y-84417414D02*
X11340476Y-84541223D01*
X11340476Y-84541223D02*
X11340476Y-84665033D01*
X11340476Y-84665033D02*
X11278571Y-84788842D01*
X11278571Y-84788842D02*
X11216666Y-84850747D01*
X11216666Y-84850747D02*
X11092857Y-84912652D01*
X11092857Y-84912652D02*
X10659523Y-84912652D01*
D10*
D11*
X11402380Y-135469795D02*
X11340476Y-135531700D01*
X11340476Y-135531700D02*
X11154761Y-135593604D01*
X11154761Y-135593604D02*
X11030952Y-135593604D01*
X11030952Y-135593604D02*
X10845238Y-135531700D01*
X10845238Y-135531700D02*
X10721428Y-135407890D01*
X10721428Y-135407890D02*
X10659523Y-135284080D01*
X10659523Y-135284080D02*
X10597619Y-135036461D01*
X10597619Y-135036461D02*
X10597619Y-134850747D01*
X10597619Y-134850747D02*
X10659523Y-134603128D01*
X10659523Y-134603128D02*
X10721428Y-134479319D01*
X10721428Y-134479319D02*
X10845238Y-134355509D01*
X10845238Y-134355509D02*
X11030952Y-134293604D01*
X11030952Y-134293604D02*
X11154761Y-134293604D01*
X11154761Y-134293604D02*
X11340476Y-134355509D01*
X11340476Y-134355509D02*
X11402380Y-134417414D01*
D10*
D11*
X10659523Y-185593604D02*
X10659523Y-184293604D01*
X10659523Y-184293604D02*
X10969047Y-184293604D01*
X10969047Y-184293604D02*
X11154761Y-184355509D01*
X11154761Y-184355509D02*
X11278571Y-184479319D01*
X11278571Y-184479319D02*
X11340476Y-184603128D01*
X11340476Y-184603128D02*
X11402380Y-184850747D01*
X11402380Y-184850747D02*
X11402380Y-185036461D01*
X11402380Y-185036461D02*
X11340476Y-185284080D01*
X11340476Y-185284080D02*
X11278571Y-185407890D01*
X11278571Y-185407890D02*
X11154761Y-185531700D01*
X11154761Y-185531700D02*
X10969047Y-185593604D01*
X10969047Y-185593604D02*
X10659523Y-185593604D01*
D10*
D11*
X287002200Y-60000000D02*
X285002200Y-60000000D01*
D10*
D11*
X287002200Y-110000000D02*
X285002200Y-110000000D01*
D10*
D11*
X287002200Y-160000000D02*
X285002200Y-160000000D01*
D10*
D11*
X285692676Y-35222176D02*
X286311723Y-35222176D01*
X285568866Y-35593604D02*
X286002199Y-34293604D01*
X286002199Y-34293604D02*
X286435533Y-35593604D01*
D10*
D11*
X286095057Y-84912652D02*
X286280771Y-84974557D01*
X286280771Y-84974557D02*
X286342676Y-85036461D01*
X286342676Y-85036461D02*
X286404580Y-85160271D01*
X286404580Y-85160271D02*
X286404580Y-85345985D01*
X286404580Y-85345985D02*
X286342676Y-85469795D01*
X286342676Y-85469795D02*
X286280771Y-85531700D01*
X286280771Y-85531700D02*
X286156961Y-85593604D01*
X286156961Y-85593604D02*
X285661723Y-85593604D01*
X285661723Y-85593604D02*
X285661723Y-84293604D01*
X285661723Y-84293604D02*
X286095057Y-84293604D01*
X286095057Y-84293604D02*
X286218866Y-84355509D01*
X286218866Y-84355509D02*
X286280771Y-84417414D01*
X286280771Y-84417414D02*
X286342676Y-84541223D01*
X286342676Y-84541223D02*
X286342676Y-84665033D01*
X286342676Y-84665033D02*
X286280771Y-84788842D01*
X286280771Y-84788842D02*
X286218866Y-84850747D01*
X286218866Y-84850747D02*
X286095057Y-84912652D01*
X286095057Y-84912652D02*
X285661723Y-84912652D01*
D10*
D11*
X286404580Y-135469795D02*
X286342676Y-135531700D01*
X286342676Y-135531700D02*
X286156961Y-135593604D01*
X286156961Y-135593604D02*
X286033152Y-135593604D01*
X286033152Y-135593604D02*
X285847438Y-135531700D01*
X285847438Y-135531700D02*
X285723628Y-135407890D01*
X285723628Y-135407890D02*
X285661723Y-135284080D01*
X285661723Y-135284080D02*
X285599819Y-135036461D01*
X285599819Y-135036461D02*
X285599819Y-134850747D01*
X285599819Y-134850747D02*
X285661723Y-134603128D01*
X285661723Y-134603128D02*
X285723628Y-134479319D01*
X285723628Y-134479319D02*
X285847438Y-134355509D01*
X285847438Y-134355509D02*
X286033152Y-134293604D01*
X286033152Y-134293604D02*
X286156961Y-134293604D01*
X286156961Y-134293604D02*
X286342676Y-134355509D01*
X286342676Y-134355509D02*
X286404580Y-134417414D01*
D10*
D11*
X285661723Y-185593604D02*
X285661723Y-184293604D01*
X285661723Y-184293604D02*
X285971247Y-184293604D01*
X285971247Y-184293604D02*
X286156961Y-184355509D01*
X286156961Y-184355509D02*
X286280771Y-184479319D01*
X286280771Y-184479319D02*
X286342676Y-184603128D01*
X286342676Y-184603128D02*
X286404580Y-184850747D01*
X286404580Y-184850747D02*
X286404580Y-185036461D01*
X286404580Y-185036461D02*
X286342676Y-185284080D01*
X286342676Y-185284080D02*
X286280771Y-185407890D01*
X286280771Y-185407890D02*
X286156961Y-185531700D01*
X286156961Y-185531700D02*
X285971247Y-185593604D01*
X285971247Y-185593604D02*
X285661723Y-185593604D01*
D10*
D11*
X200458026Y-193793328D02*
X200458026Y-192293328D01*
X200458026Y-192293328D02*
X200815169Y-192293328D01*
X200815169Y-192293328D02*
X201029455Y-192364757D01*
X201029455Y-192364757D02*
X201172312Y-192507614D01*
X201172312Y-192507614D02*
X201243741Y-192650471D01*
X201243741Y-192650471D02*
X201315169Y-192936185D01*
X201315169Y-192936185D02*
X201315169Y-193150471D01*
X201315169Y-193150471D02*
X201243741Y-193436185D01*
X201243741Y-193436185D02*
X201172312Y-193579042D01*
X201172312Y-193579042D02*
X201029455Y-193721900D01*
X201029455Y-193721900D02*
X200815169Y-193793328D01*
X200815169Y-193793328D02*
X200458026Y-193793328D01*
X202600884Y-193793328D02*
X202600884Y-193007614D01*
X202600884Y-193007614D02*
X202529455Y-192864757D01*
X202529455Y-192864757D02*
X202386598Y-192793328D01*
X202386598Y-192793328D02*
X202100884Y-192793328D01*
X202100884Y-192793328D02*
X201958026Y-192864757D01*
X202600884Y-193721900D02*
X202458026Y-193793328D01*
X202458026Y-193793328D02*
X202100884Y-193793328D01*
X202100884Y-193793328D02*
X201958026Y-193721900D01*
X201958026Y-193721900D02*
X201886598Y-193579042D01*
X201886598Y-193579042D02*
X201886598Y-193436185D01*
X201886598Y-193436185D02*
X201958026Y-193293328D01*
X201958026Y-193293328D02*
X202100884Y-193221900D01*
X202100884Y-193221900D02*
X202458026Y-193221900D01*
X202458026Y-193221900D02*
X202600884Y-193150471D01*
X203100884Y-192793328D02*
X203672312Y-192793328D01*
X203315169Y-192293328D02*
X203315169Y-193579042D01*
X203315169Y-193579042D02*
X203386598Y-193721900D01*
X203386598Y-193721900D02*
X203529455Y-193793328D01*
X203529455Y-193793328D02*
X203672312Y-193793328D01*
X204743741Y-193721900D02*
X204600884Y-193793328D01*
X204600884Y-193793328D02*
X204315170Y-193793328D01*
X204315170Y-193793328D02*
X204172312Y-193721900D01*
X204172312Y-193721900D02*
X204100884Y-193579042D01*
X204100884Y-193579042D02*
X204100884Y-193007614D01*
X204100884Y-193007614D02*
X204172312Y-192864757D01*
X204172312Y-192864757D02*
X204315170Y-192793328D01*
X204315170Y-192793328D02*
X204600884Y-192793328D01*
X204600884Y-192793328D02*
X204743741Y-192864757D01*
X204743741Y-192864757D02*
X204815170Y-193007614D01*
X204815170Y-193007614D02*
X204815170Y-193150471D01*
X204815170Y-193150471D02*
X204100884Y-193293328D01*
X205458026Y-193650471D02*
X205529455Y-193721900D01*
X205529455Y-193721900D02*
X205458026Y-193793328D01*
X205458026Y-193793328D02*
X205386598Y-193721900D01*
X205386598Y-193721900D02*
X205458026Y-193650471D01*
X205458026Y-193650471D02*
X205458026Y-193793328D01*
X205458026Y-192864757D02*
X205529455Y-192936185D01*
X205529455Y-192936185D02*
X205458026Y-193007614D01*
X205458026Y-193007614D02*
X205386598Y-192936185D01*
X205386598Y-192936185D02*
X205458026Y-192864757D01*
X205458026Y-192864757D02*
X205458026Y-193007614D01*
D10*
D11*
X177002200Y-194507200D02*
X285002200Y-194507200D01*
D10*
D11*
X178458026Y-196593328D02*
X178458026Y-195093328D01*
X179315169Y-196593328D02*
X178672312Y-195736185D01*
X179315169Y-195093328D02*
X178458026Y-195950471D01*
X179958026Y-196593328D02*
X179958026Y-195593328D01*
X179958026Y-195093328D02*
X179886598Y-195164757D01*
X179886598Y-195164757D02*
X179958026Y-195236185D01*
X179958026Y-195236185D02*
X180029455Y-195164757D01*
X180029455Y-195164757D02*
X179958026Y-195093328D01*
X179958026Y-195093328D02*
X179958026Y-195236185D01*
X181529455Y-196450471D02*
X181458027Y-196521900D01*
X181458027Y-196521900D02*
X181243741Y-196593328D01*
X181243741Y-196593328D02*
X181100884Y-196593328D01*
X181100884Y-196593328D02*
X180886598Y-196521900D01*
X180886598Y-196521900D02*
X180743741Y-196379042D01*
X180743741Y-196379042D02*
X180672312Y-196236185D01*
X180672312Y-196236185D02*
X180600884Y-195950471D01*
X180600884Y-195950471D02*
X180600884Y-195736185D01*
X180600884Y-195736185D02*
X180672312Y-195450471D01*
X180672312Y-195450471D02*
X180743741Y-195307614D01*
X180743741Y-195307614D02*
X180886598Y-195164757D01*
X180886598Y-195164757D02*
X181100884Y-195093328D01*
X181100884Y-195093328D02*
X181243741Y-195093328D01*
X181243741Y-195093328D02*
X181458027Y-195164757D01*
X181458027Y-195164757D02*
X181529455Y-195236185D01*
X182815170Y-196593328D02*
X182815170Y-195807614D01*
X182815170Y-195807614D02*
X182743741Y-195664757D01*
X182743741Y-195664757D02*
X182600884Y-195593328D01*
X182600884Y-195593328D02*
X182315170Y-195593328D01*
X182315170Y-195593328D02*
X182172312Y-195664757D01*
X182815170Y-196521900D02*
X182672312Y-196593328D01*
X182672312Y-196593328D02*
X182315170Y-196593328D01*
X182315170Y-196593328D02*
X182172312Y-196521900D01*
X182172312Y-196521900D02*
X182100884Y-196379042D01*
X182100884Y-196379042D02*
X182100884Y-196236185D01*
X182100884Y-196236185D02*
X182172312Y-196093328D01*
X182172312Y-196093328D02*
X182315170Y-196021900D01*
X182315170Y-196021900D02*
X182672312Y-196021900D01*
X182672312Y-196021900D02*
X182815170Y-195950471D01*
X184172313Y-196593328D02*
X184172313Y-195093328D01*
X184172313Y-196521900D02*
X184029455Y-196593328D01*
X184029455Y-196593328D02*
X183743741Y-196593328D01*
X183743741Y-196593328D02*
X183600884Y-196521900D01*
X183600884Y-196521900D02*
X183529455Y-196450471D01*
X183529455Y-196450471D02*
X183458027Y-196307614D01*
X183458027Y-196307614D02*
X183458027Y-195879042D01*
X183458027Y-195879042D02*
X183529455Y-195736185D01*
X183529455Y-195736185D02*
X183600884Y-195664757D01*
X183600884Y-195664757D02*
X183743741Y-195593328D01*
X183743741Y-195593328D02*
X184029455Y-195593328D01*
X184029455Y-195593328D02*
X184172313Y-195664757D01*
X186029455Y-195807614D02*
X186529455Y-195807614D01*
X186743741Y-196593328D02*
X186029455Y-196593328D01*
X186029455Y-196593328D02*
X186029455Y-195093328D01*
X186029455Y-195093328D02*
X186743741Y-195093328D01*
X187386598Y-196450471D02*
X187458027Y-196521900D01*
X187458027Y-196521900D02*
X187386598Y-196593328D01*
X187386598Y-196593328D02*
X187315170Y-196521900D01*
X187315170Y-196521900D02*
X187386598Y-196450471D01*
X187386598Y-196450471D02*
X187386598Y-196593328D01*
X188100884Y-196593328D02*
X188100884Y-195093328D01*
X188100884Y-195093328D02*
X188458027Y-195093328D01*
X188458027Y-195093328D02*
X188672313Y-195164757D01*
X188672313Y-195164757D02*
X188815170Y-195307614D01*
X188815170Y-195307614D02*
X188886599Y-195450471D01*
X188886599Y-195450471D02*
X188958027Y-195736185D01*
X188958027Y-195736185D02*
X188958027Y-195950471D01*
X188958027Y-195950471D02*
X188886599Y-196236185D01*
X188886599Y-196236185D02*
X188815170Y-196379042D01*
X188815170Y-196379042D02*
X188672313Y-196521900D01*
X188672313Y-196521900D02*
X188458027Y-196593328D01*
X188458027Y-196593328D02*
X188100884Y-196593328D01*
X189600884Y-196450471D02*
X189672313Y-196521900D01*
X189672313Y-196521900D02*
X189600884Y-196593328D01*
X189600884Y-196593328D02*
X189529456Y-196521900D01*
X189529456Y-196521900D02*
X189600884Y-196450471D01*
X189600884Y-196450471D02*
X189600884Y-196593328D01*
X190243742Y-196164757D02*
X190958028Y-196164757D01*
X190100885Y-196593328D02*
X190600885Y-195093328D01*
X190600885Y-195093328D02*
X191100885Y-196593328D01*
X191600884Y-196450471D02*
X191672313Y-196521900D01*
X191672313Y-196521900D02*
X191600884Y-196593328D01*
X191600884Y-196593328D02*
X191529456Y-196521900D01*
X191529456Y-196521900D02*
X191600884Y-196450471D01*
X191600884Y-196450471D02*
X191600884Y-196593328D01*
X193529456Y-196593328D02*
X193815170Y-196593328D01*
X193815170Y-196593328D02*
X193958027Y-196521900D01*
X193958027Y-196521900D02*
X194029456Y-196450471D01*
X194029456Y-196450471D02*
X194172313Y-196236185D01*
X194172313Y-196236185D02*
X194243742Y-195950471D01*
X194243742Y-195950471D02*
X194243742Y-195379042D01*
X194243742Y-195379042D02*
X194172313Y-195236185D01*
X194172313Y-195236185D02*
X194100885Y-195164757D01*
X194100885Y-195164757D02*
X193958027Y-195093328D01*
X193958027Y-195093328D02*
X193672313Y-195093328D01*
X193672313Y-195093328D02*
X193529456Y-195164757D01*
X193529456Y-195164757D02*
X193458027Y-195236185D01*
X193458027Y-195236185D02*
X193386599Y-195379042D01*
X193386599Y-195379042D02*
X193386599Y-195736185D01*
X193386599Y-195736185D02*
X193458027Y-195879042D01*
X193458027Y-195879042D02*
X193529456Y-195950471D01*
X193529456Y-195950471D02*
X193672313Y-196021900D01*
X193672313Y-196021900D02*
X193958027Y-196021900D01*
X193958027Y-196021900D02*
X194100885Y-195950471D01*
X194100885Y-195950471D02*
X194172313Y-195879042D01*
X194172313Y-195879042D02*
X194243742Y-195736185D01*
X194886598Y-196450471D02*
X194958027Y-196521900D01*
X194958027Y-196521900D02*
X194886598Y-196593328D01*
X194886598Y-196593328D02*
X194815170Y-196521900D01*
X194815170Y-196521900D02*
X194886598Y-196450471D01*
X194886598Y-196450471D02*
X194886598Y-196593328D01*
X195886599Y-195093328D02*
X196029456Y-195093328D01*
X196029456Y-195093328D02*
X196172313Y-195164757D01*
X196172313Y-195164757D02*
X196243742Y-195236185D01*
X196243742Y-195236185D02*
X196315170Y-195379042D01*
X196315170Y-195379042D02*
X196386599Y-195664757D01*
X196386599Y-195664757D02*
X196386599Y-196021900D01*
X196386599Y-196021900D02*
X196315170Y-196307614D01*
X196315170Y-196307614D02*
X196243742Y-196450471D01*
X196243742Y-196450471D02*
X196172313Y-196521900D01*
X196172313Y-196521900D02*
X196029456Y-196593328D01*
X196029456Y-196593328D02*
X195886599Y-196593328D01*
X195886599Y-196593328D02*
X195743742Y-196521900D01*
X195743742Y-196521900D02*
X195672313Y-196450471D01*
X195672313Y-196450471D02*
X195600884Y-196307614D01*
X195600884Y-196307614D02*
X195529456Y-196021900D01*
X195529456Y-196021900D02*
X195529456Y-195664757D01*
X195529456Y-195664757D02*
X195600884Y-195379042D01*
X195600884Y-195379042D02*
X195672313Y-195236185D01*
X195672313Y-195236185D02*
X195743742Y-195164757D01*
X195743742Y-195164757D02*
X195886599Y-195093328D01*
X197029455Y-196450471D02*
X197100884Y-196521900D01*
X197100884Y-196521900D02*
X197029455Y-196593328D01*
X197029455Y-196593328D02*
X196958027Y-196521900D01*
X196958027Y-196521900D02*
X197029455Y-196450471D01*
X197029455Y-196450471D02*
X197029455Y-196593328D01*
X197672313Y-195236185D02*
X197743741Y-195164757D01*
X197743741Y-195164757D02*
X197886599Y-195093328D01*
X197886599Y-195093328D02*
X198243741Y-195093328D01*
X198243741Y-195093328D02*
X198386599Y-195164757D01*
X198386599Y-195164757D02*
X198458027Y-195236185D01*
X198458027Y-195236185D02*
X198529456Y-195379042D01*
X198529456Y-195379042D02*
X198529456Y-195521900D01*
X198529456Y-195521900D02*
X198458027Y-195736185D01*
X198458027Y-195736185D02*
X197600884Y-196593328D01*
X197600884Y-196593328D02*
X198529456Y-196593328D01*
D10*
D11*
X177002200Y-191507200D02*
X285002200Y-191507200D01*
D10*
D12*
X264413853Y-193785528D02*
X263913853Y-193071242D01*
X263556710Y-193785528D02*
X263556710Y-192285528D01*
X263556710Y-192285528D02*
X264128139Y-192285528D01*
X264128139Y-192285528D02*
X264270996Y-192356957D01*
X264270996Y-192356957D02*
X264342425Y-192428385D01*
X264342425Y-192428385D02*
X264413853Y-192571242D01*
X264413853Y-192571242D02*
X264413853Y-192785528D01*
X264413853Y-192785528D02*
X264342425Y-192928385D01*
X264342425Y-192928385D02*
X264270996Y-192999814D01*
X264270996Y-192999814D02*
X264128139Y-193071242D01*
X264128139Y-193071242D02*
X263556710Y-193071242D01*
X265628139Y-193714100D02*
X265485282Y-193785528D01*
X265485282Y-193785528D02*
X265199568Y-193785528D01*
X265199568Y-193785528D02*
X265056710Y-193714100D01*
X265056710Y-193714100D02*
X264985282Y-193571242D01*
X264985282Y-193571242D02*
X264985282Y-192999814D01*
X264985282Y-192999814D02*
X265056710Y-192856957D01*
X265056710Y-192856957D02*
X265199568Y-192785528D01*
X265199568Y-192785528D02*
X265485282Y-192785528D01*
X265485282Y-192785528D02*
X265628139Y-192856957D01*
X265628139Y-192856957D02*
X265699568Y-192999814D01*
X265699568Y-192999814D02*
X265699568Y-193142671D01*
X265699568Y-193142671D02*
X264985282Y-193285528D01*
X266199567Y-192785528D02*
X266556710Y-193785528D01*
X266556710Y-193785528D02*
X266913853Y-192785528D01*
X267485281Y-193642671D02*
X267556710Y-193714100D01*
X267556710Y-193714100D02*
X267485281Y-193785528D01*
X267485281Y-193785528D02*
X267413853Y-193714100D01*
X267413853Y-193714100D02*
X267485281Y-193642671D01*
X267485281Y-193642671D02*
X267485281Y-193785528D01*
X267485281Y-192856957D02*
X267556710Y-192928385D01*
X267556710Y-192928385D02*
X267485281Y-192999814D01*
X267485281Y-192999814D02*
X267413853Y-192928385D01*
X267413853Y-192928385D02*
X267485281Y-192856957D01*
X267485281Y-192856957D02*
X267485281Y-192999814D01*
D10*
D11*
X178386598Y-193721900D02*
X178600884Y-193793328D01*
X178600884Y-193793328D02*
X178958026Y-193793328D01*
X178958026Y-193793328D02*
X179100884Y-193721900D01*
X179100884Y-193721900D02*
X179172312Y-193650471D01*
X179172312Y-193650471D02*
X179243741Y-193507614D01*
X179243741Y-193507614D02*
X179243741Y-193364757D01*
X179243741Y-193364757D02*
X179172312Y-193221900D01*
X179172312Y-193221900D02*
X179100884Y-193150471D01*
X179100884Y-193150471D02*
X178958026Y-193079042D01*
X178958026Y-193079042D02*
X178672312Y-193007614D01*
X178672312Y-193007614D02*
X178529455Y-192936185D01*
X178529455Y-192936185D02*
X178458026Y-192864757D01*
X178458026Y-192864757D02*
X178386598Y-192721900D01*
X178386598Y-192721900D02*
X178386598Y-192579042D01*
X178386598Y-192579042D02*
X178458026Y-192436185D01*
X178458026Y-192436185D02*
X178529455Y-192364757D01*
X178529455Y-192364757D02*
X178672312Y-192293328D01*
X178672312Y-192293328D02*
X179029455Y-192293328D01*
X179029455Y-192293328D02*
X179243741Y-192364757D01*
X179886597Y-193793328D02*
X179886597Y-192793328D01*
X179886597Y-192293328D02*
X179815169Y-192364757D01*
X179815169Y-192364757D02*
X179886597Y-192436185D01*
X179886597Y-192436185D02*
X179958026Y-192364757D01*
X179958026Y-192364757D02*
X179886597Y-192293328D01*
X179886597Y-192293328D02*
X179886597Y-192436185D01*
X180458026Y-192793328D02*
X181243741Y-192793328D01*
X181243741Y-192793328D02*
X180458026Y-193793328D01*
X180458026Y-193793328D02*
X181243741Y-193793328D01*
X182386598Y-193721900D02*
X182243741Y-193793328D01*
X182243741Y-193793328D02*
X181958027Y-193793328D01*
X181958027Y-193793328D02*
X181815169Y-193721900D01*
X181815169Y-193721900D02*
X181743741Y-193579042D01*
X181743741Y-193579042D02*
X181743741Y-193007614D01*
X181743741Y-193007614D02*
X181815169Y-192864757D01*
X181815169Y-192864757D02*
X181958027Y-192793328D01*
X181958027Y-192793328D02*
X182243741Y-192793328D01*
X182243741Y-192793328D02*
X182386598Y-192864757D01*
X182386598Y-192864757D02*
X182458027Y-193007614D01*
X182458027Y-193007614D02*
X182458027Y-193150471D01*
X182458027Y-193150471D02*
X181743741Y-193293328D01*
X183100883Y-193650471D02*
X183172312Y-193721900D01*
X183172312Y-193721900D02*
X183100883Y-193793328D01*
X183100883Y-193793328D02*
X183029455Y-193721900D01*
X183029455Y-193721900D02*
X183100883Y-193650471D01*
X183100883Y-193650471D02*
X183100883Y-193793328D01*
X183100883Y-192864757D02*
X183172312Y-192936185D01*
X183172312Y-192936185D02*
X183100883Y-193007614D01*
X183100883Y-193007614D02*
X183029455Y-192936185D01*
X183029455Y-192936185D02*
X183100883Y-192864757D01*
X183100883Y-192864757D02*
X183100883Y-193007614D01*
X184886598Y-193364757D02*
X185600884Y-193364757D01*
X184743741Y-193793328D02*
X185243741Y-192293328D01*
X185243741Y-192293328D02*
X185743741Y-193793328D01*
X186886598Y-192793328D02*
X186886598Y-193793328D01*
X186529455Y-192221900D02*
X186172312Y-193293328D01*
X186172312Y-193293328D02*
X187100883Y-193293328D01*
D10*
D11*
X263458026Y-196593328D02*
X263458026Y-195093328D01*
X264815170Y-196593328D02*
X264815170Y-195093328D01*
X264815170Y-196521900D02*
X264672312Y-196593328D01*
X264672312Y-196593328D02*
X264386598Y-196593328D01*
X264386598Y-196593328D02*
X264243741Y-196521900D01*
X264243741Y-196521900D02*
X264172312Y-196450471D01*
X264172312Y-196450471D02*
X264100884Y-196307614D01*
X264100884Y-196307614D02*
X264100884Y-195879042D01*
X264100884Y-195879042D02*
X264172312Y-195736185D01*
X264172312Y-195736185D02*
X264243741Y-195664757D01*
X264243741Y-195664757D02*
X264386598Y-195593328D01*
X264386598Y-195593328D02*
X264672312Y-195593328D01*
X264672312Y-195593328D02*
X264815170Y-195664757D01*
X265529455Y-196450471D02*
X265600884Y-196521900D01*
X265600884Y-196521900D02*
X265529455Y-196593328D01*
X265529455Y-196593328D02*
X265458027Y-196521900D01*
X265458027Y-196521900D02*
X265529455Y-196450471D01*
X265529455Y-196450471D02*
X265529455Y-196593328D01*
X265529455Y-195664757D02*
X265600884Y-195736185D01*
X265600884Y-195736185D02*
X265529455Y-195807614D01*
X265529455Y-195807614D02*
X265458027Y-195736185D01*
X265458027Y-195736185D02*
X265529455Y-195664757D01*
X265529455Y-195664757D02*
X265529455Y-195807614D01*
X267315170Y-195236185D02*
X267386598Y-195164757D01*
X267386598Y-195164757D02*
X267529456Y-195093328D01*
X267529456Y-195093328D02*
X267886598Y-195093328D01*
X267886598Y-195093328D02*
X268029456Y-195164757D01*
X268029456Y-195164757D02*
X268100884Y-195236185D01*
X268100884Y-195236185D02*
X268172313Y-195379042D01*
X268172313Y-195379042D02*
X268172313Y-195521900D01*
X268172313Y-195521900D02*
X268100884Y-195736185D01*
X268100884Y-195736185D02*
X267243741Y-196593328D01*
X267243741Y-196593328D02*
X268172313Y-196593328D01*
X269886598Y-195021900D02*
X268600884Y-196950471D01*
X271172313Y-196593328D02*
X270315170Y-196593328D01*
X270743741Y-196593328D02*
X270743741Y-195093328D01*
X270743741Y-195093328D02*
X270600884Y-195307614D01*
X270600884Y-195307614D02*
X270458027Y-195450471D01*
X270458027Y-195450471D02*
X270315170Y-195521900D01*
X272600884Y-196593328D02*
X271743741Y-196593328D01*
X272172312Y-196593328D02*
X272172312Y-195093328D01*
X272172312Y-195093328D02*
X272029455Y-195307614D01*
X272029455Y-195307614D02*
X271886598Y-195450471D01*
X271886598Y-195450471D02*
X271743741Y-195521900D01*
D10*
D11*
X177002200Y-187507200D02*
X285002200Y-187507200D01*
D10*
D13*
X178693928Y-188211638D02*
X179836785Y-188211638D01*
X179015357Y-190211638D02*
X179265357Y-188211638D01*
X180253452Y-190211638D02*
X180420119Y-188878304D01*
X180503452Y-188211638D02*
X180396309Y-188306876D01*
X180396309Y-188306876D02*
X180479643Y-188402114D01*
X180479643Y-188402114D02*
X180586786Y-188306876D01*
X180586786Y-188306876D02*
X180503452Y-188211638D01*
X180503452Y-188211638D02*
X180479643Y-188402114D01*
X181086786Y-188878304D02*
X181848690Y-188878304D01*
X181455833Y-188211638D02*
X181241548Y-189925923D01*
X181241548Y-189925923D02*
X181312976Y-190116400D01*
X181312976Y-190116400D02*
X181491548Y-190211638D01*
X181491548Y-190211638D02*
X181682024Y-190211638D01*
X182634405Y-190211638D02*
X182455833Y-190116400D01*
X182455833Y-190116400D02*
X182384405Y-189925923D01*
X182384405Y-189925923D02*
X182598690Y-188211638D01*
X184170119Y-190116400D02*
X183967738Y-190211638D01*
X183967738Y-190211638D02*
X183586785Y-190211638D01*
X183586785Y-190211638D02*
X183408214Y-190116400D01*
X183408214Y-190116400D02*
X183336785Y-189925923D01*
X183336785Y-189925923D02*
X183432024Y-189164019D01*
X183432024Y-189164019D02*
X183551071Y-188973542D01*
X183551071Y-188973542D02*
X183753452Y-188878304D01*
X183753452Y-188878304D02*
X184134404Y-188878304D01*
X184134404Y-188878304D02*
X184312976Y-188973542D01*
X184312976Y-188973542D02*
X184384404Y-189164019D01*
X184384404Y-189164019D02*
X184360595Y-189354495D01*
X184360595Y-189354495D02*
X183384404Y-189544971D01*
X185134405Y-190021161D02*
X185217738Y-190116400D01*
X185217738Y-190116400D02*
X185110595Y-190211638D01*
X185110595Y-190211638D02*
X185027262Y-190116400D01*
X185027262Y-190116400D02*
X185134405Y-190021161D01*
X185134405Y-190021161D02*
X185110595Y-190211638D01*
X185265357Y-188973542D02*
X185348690Y-189068780D01*
X185348690Y-189068780D02*
X185241548Y-189164019D01*
X185241548Y-189164019D02*
X185158214Y-189068780D01*
X185158214Y-189068780D02*
X185265357Y-188973542D01*
X185265357Y-188973542D02*
X185241548Y-189164019D01*
D10*
D11*
X178958026Y-185607614D02*
X178458026Y-185607614D01*
X178458026Y-186393328D02*
X178458026Y-184893328D01*
X178458026Y-184893328D02*
X179172312Y-184893328D01*
X179743740Y-186393328D02*
X179743740Y-185393328D01*
X179743740Y-184893328D02*
X179672312Y-184964757D01*
X179672312Y-184964757D02*
X179743740Y-185036185D01*
X179743740Y-185036185D02*
X179815169Y-184964757D01*
X179815169Y-184964757D02*
X179743740Y-184893328D01*
X179743740Y-184893328D02*
X179743740Y-185036185D01*
X180672312Y-186393328D02*
X180529455Y-186321900D01*
X180529455Y-186321900D02*
X180458026Y-186179042D01*
X180458026Y-186179042D02*
X180458026Y-184893328D01*
X181815169Y-186321900D02*
X181672312Y-186393328D01*
X181672312Y-186393328D02*
X181386598Y-186393328D01*
X181386598Y-186393328D02*
X181243740Y-186321900D01*
X181243740Y-186321900D02*
X181172312Y-186179042D01*
X181172312Y-186179042D02*
X181172312Y-185607614D01*
X181172312Y-185607614D02*
X181243740Y-185464757D01*
X181243740Y-185464757D02*
X181386598Y-185393328D01*
X181386598Y-185393328D02*
X181672312Y-185393328D01*
X181672312Y-185393328D02*
X181815169Y-185464757D01*
X181815169Y-185464757D02*
X181886598Y-185607614D01*
X181886598Y-185607614D02*
X181886598Y-185750471D01*
X181886598Y-185750471D02*
X181172312Y-185893328D01*
X182529454Y-186250471D02*
X182600883Y-186321900D01*
X182600883Y-186321900D02*
X182529454Y-186393328D01*
X182529454Y-186393328D02*
X182458026Y-186321900D01*
X182458026Y-186321900D02*
X182529454Y-186250471D01*
X182529454Y-186250471D02*
X182529454Y-186393328D01*
X182529454Y-185464757D02*
X182600883Y-185536185D01*
X182600883Y-185536185D02*
X182529454Y-185607614D01*
X182529454Y-185607614D02*
X182458026Y-185536185D01*
X182458026Y-185536185D02*
X182529454Y-185464757D01*
X182529454Y-185464757D02*
X182529454Y-185607614D01*
X184386597Y-186393328D02*
X184386597Y-184893328D01*
X184386597Y-185464757D02*
X184529455Y-185393328D01*
X184529455Y-185393328D02*
X184815169Y-185393328D01*
X184815169Y-185393328D02*
X184958026Y-185464757D01*
X184958026Y-185464757D02*
X185029455Y-185536185D01*
X185029455Y-185536185D02*
X185100883Y-185679042D01*
X185100883Y-185679042D02*
X185100883Y-186107614D01*
X185100883Y-186107614D02*
X185029455Y-186250471D01*
X185029455Y-186250471D02*
X184958026Y-186321900D01*
X184958026Y-186321900D02*
X184815169Y-186393328D01*
X184815169Y-186393328D02*
X184529455Y-186393328D01*
X184529455Y-186393328D02*
X184386597Y-186321900D01*
X185958026Y-186393328D02*
X185815169Y-186321900D01*
X185815169Y-186321900D02*
X185743740Y-186179042D01*
X185743740Y-186179042D02*
X185743740Y-184893328D01*
X187172312Y-186393328D02*
X187172312Y-184893328D01*
X187172312Y-186321900D02*
X187029454Y-186393328D01*
X187029454Y-186393328D02*
X186743740Y-186393328D01*
X186743740Y-186393328D02*
X186600883Y-186321900D01*
X186600883Y-186321900D02*
X186529454Y-186250471D01*
X186529454Y-186250471D02*
X186458026Y-186107614D01*
X186458026Y-186107614D02*
X186458026Y-185679042D01*
X186458026Y-185679042D02*
X186529454Y-185536185D01*
X186529454Y-185536185D02*
X186600883Y-185464757D01*
X186600883Y-185464757D02*
X186743740Y-185393328D01*
X186743740Y-185393328D02*
X187029454Y-185393328D01*
X187029454Y-185393328D02*
X187172312Y-185464757D01*
X188529455Y-186321900D02*
X188386597Y-186393328D01*
X188386597Y-186393328D02*
X188100883Y-186393328D01*
X188100883Y-186393328D02*
X187958026Y-186321900D01*
X187958026Y-186321900D02*
X187886597Y-186250471D01*
X187886597Y-186250471D02*
X187815169Y-186107614D01*
X187815169Y-186107614D02*
X187815169Y-185679042D01*
X187815169Y-185679042D02*
X187886597Y-185536185D01*
X187886597Y-185536185D02*
X187958026Y-185464757D01*
X187958026Y-185464757D02*
X188100883Y-185393328D01*
X188100883Y-185393328D02*
X188386597Y-185393328D01*
X188386597Y-185393328D02*
X188529455Y-185464757D01*
X188815169Y-186536185D02*
X189958026Y-186536185D01*
X190958026Y-186393328D02*
X190958026Y-184893328D01*
X190958026Y-186321900D02*
X190815168Y-186393328D01*
X190815168Y-186393328D02*
X190529454Y-186393328D01*
X190529454Y-186393328D02*
X190386597Y-186321900D01*
X190386597Y-186321900D02*
X190315168Y-186250471D01*
X190315168Y-186250471D02*
X190243740Y-186107614D01*
X190243740Y-186107614D02*
X190243740Y-185679042D01*
X190243740Y-185679042D02*
X190315168Y-185536185D01*
X190315168Y-185536185D02*
X190386597Y-185464757D01*
X190386597Y-185464757D02*
X190529454Y-185393328D01*
X190529454Y-185393328D02*
X190815168Y-185393328D01*
X190815168Y-185393328D02*
X190958026Y-185464757D01*
X191672311Y-186393328D02*
X191672311Y-185393328D01*
X191672311Y-185679042D02*
X191743740Y-185536185D01*
X191743740Y-185536185D02*
X191815169Y-185464757D01*
X191815169Y-185464757D02*
X191958026Y-185393328D01*
X191958026Y-185393328D02*
X192100883Y-185393328D01*
X192600882Y-186393328D02*
X192600882Y-185393328D01*
X192600882Y-184893328D02*
X192529454Y-184964757D01*
X192529454Y-184964757D02*
X192600882Y-185036185D01*
X192600882Y-185036185D02*
X192672311Y-184964757D01*
X192672311Y-184964757D02*
X192600882Y-184893328D01*
X192600882Y-184893328D02*
X192600882Y-185036185D01*
X193172311Y-185393328D02*
X193529454Y-186393328D01*
X193529454Y-186393328D02*
X193886597Y-185393328D01*
X195029454Y-186321900D02*
X194886597Y-186393328D01*
X194886597Y-186393328D02*
X194600883Y-186393328D01*
X194600883Y-186393328D02*
X194458025Y-186321900D01*
X194458025Y-186321900D02*
X194386597Y-186179042D01*
X194386597Y-186179042D02*
X194386597Y-185607614D01*
X194386597Y-185607614D02*
X194458025Y-185464757D01*
X194458025Y-185464757D02*
X194600883Y-185393328D01*
X194600883Y-185393328D02*
X194886597Y-185393328D01*
X194886597Y-185393328D02*
X195029454Y-185464757D01*
X195029454Y-185464757D02*
X195100883Y-185607614D01*
X195100883Y-185607614D02*
X195100883Y-185750471D01*
X195100883Y-185750471D02*
X194386597Y-185893328D01*
X195743739Y-186393328D02*
X195743739Y-185393328D01*
X195743739Y-185679042D02*
X195815168Y-185536185D01*
X195815168Y-185536185D02*
X195886597Y-185464757D01*
X195886597Y-185464757D02*
X196029454Y-185393328D01*
X196029454Y-185393328D02*
X196172311Y-185393328D01*
X196672310Y-186250471D02*
X196743739Y-186321900D01*
X196743739Y-186321900D02*
X196672310Y-186393328D01*
X196672310Y-186393328D02*
X196600882Y-186321900D01*
X196600882Y-186321900D02*
X196672310Y-186250471D01*
X196672310Y-186250471D02*
X196672310Y-186393328D01*
X197386596Y-186393328D02*
X197386596Y-184893328D01*
X197529454Y-185821900D02*
X197958025Y-186393328D01*
X197958025Y-185393328D02*
X197386596Y-185964757D01*
X198600882Y-186393328D02*
X198600882Y-185393328D01*
X198600882Y-184893328D02*
X198529454Y-184964757D01*
X198529454Y-184964757D02*
X198600882Y-185036185D01*
X198600882Y-185036185D02*
X198672311Y-184964757D01*
X198672311Y-184964757D02*
X198600882Y-184893328D01*
X198600882Y-184893328D02*
X198600882Y-185036185D01*
X199958026Y-186321900D02*
X199815168Y-186393328D01*
X199815168Y-186393328D02*
X199529454Y-186393328D01*
X199529454Y-186393328D02*
X199386597Y-186321900D01*
X199386597Y-186321900D02*
X199315168Y-186250471D01*
X199315168Y-186250471D02*
X199243740Y-186107614D01*
X199243740Y-186107614D02*
X199243740Y-185679042D01*
X199243740Y-185679042D02*
X199315168Y-185536185D01*
X199315168Y-185536185D02*
X199386597Y-185464757D01*
X199386597Y-185464757D02*
X199529454Y-185393328D01*
X199529454Y-185393328D02*
X199815168Y-185393328D01*
X199815168Y-185393328D02*
X199958026Y-185464757D01*
X201243740Y-186393328D02*
X201243740Y-185607614D01*
X201243740Y-185607614D02*
X201172311Y-185464757D01*
X201172311Y-185464757D02*
X201029454Y-185393328D01*
X201029454Y-185393328D02*
X200743740Y-185393328D01*
X200743740Y-185393328D02*
X200600882Y-185464757D01*
X201243740Y-186321900D02*
X201100882Y-186393328D01*
X201100882Y-186393328D02*
X200743740Y-186393328D01*
X200743740Y-186393328D02*
X200600882Y-186321900D01*
X200600882Y-186321900D02*
X200529454Y-186179042D01*
X200529454Y-186179042D02*
X200529454Y-186036185D01*
X200529454Y-186036185D02*
X200600882Y-185893328D01*
X200600882Y-185893328D02*
X200743740Y-185821900D01*
X200743740Y-185821900D02*
X201100882Y-185821900D01*
X201100882Y-185821900D02*
X201243740Y-185750471D01*
X202600883Y-186393328D02*
X202600883Y-184893328D01*
X202600883Y-186321900D02*
X202458025Y-186393328D01*
X202458025Y-186393328D02*
X202172311Y-186393328D01*
X202172311Y-186393328D02*
X202029454Y-186321900D01*
X202029454Y-186321900D02*
X201958025Y-186250471D01*
X201958025Y-186250471D02*
X201886597Y-186107614D01*
X201886597Y-186107614D02*
X201886597Y-185679042D01*
X201886597Y-185679042D02*
X201958025Y-185536185D01*
X201958025Y-185536185D02*
X202029454Y-185464757D01*
X202029454Y-185464757D02*
X202172311Y-185393328D01*
X202172311Y-185393328D02*
X202458025Y-185393328D01*
X202458025Y-185393328D02*
X202600883Y-185464757D01*
X202958026Y-186536185D02*
X204100883Y-186536185D01*
X204458025Y-185393328D02*
X204458025Y-186893328D01*
X204458025Y-185464757D02*
X204600883Y-185393328D01*
X204600883Y-185393328D02*
X204886597Y-185393328D01*
X204886597Y-185393328D02*
X205029454Y-185464757D01*
X205029454Y-185464757D02*
X205100883Y-185536185D01*
X205100883Y-185536185D02*
X205172311Y-185679042D01*
X205172311Y-185679042D02*
X205172311Y-186107614D01*
X205172311Y-186107614D02*
X205100883Y-186250471D01*
X205100883Y-186250471D02*
X205029454Y-186321900D01*
X205029454Y-186321900D02*
X204886597Y-186393328D01*
X204886597Y-186393328D02*
X204600883Y-186393328D01*
X204600883Y-186393328D02*
X204458025Y-186321900D01*
X206458026Y-186321900D02*
X206315168Y-186393328D01*
X206315168Y-186393328D02*
X206029454Y-186393328D01*
X206029454Y-186393328D02*
X205886597Y-186321900D01*
X205886597Y-186321900D02*
X205815168Y-186250471D01*
X205815168Y-186250471D02*
X205743740Y-186107614D01*
X205743740Y-186107614D02*
X205743740Y-185679042D01*
X205743740Y-185679042D02*
X205815168Y-185536185D01*
X205815168Y-185536185D02*
X205886597Y-185464757D01*
X205886597Y-185464757D02*
X206029454Y-185393328D01*
X206029454Y-185393328D02*
X206315168Y-185393328D01*
X206315168Y-185393328D02*
X206458026Y-185464757D01*
X207100882Y-186393328D02*
X207100882Y-184893328D01*
X207100882Y-185464757D02*
X207243740Y-185393328D01*
X207243740Y-185393328D02*
X207529454Y-185393328D01*
X207529454Y-185393328D02*
X207672311Y-185464757D01*
X207672311Y-185464757D02*
X207743740Y-185536185D01*
X207743740Y-185536185D02*
X207815168Y-185679042D01*
X207815168Y-185679042D02*
X207815168Y-186107614D01*
X207815168Y-186107614D02*
X207743740Y-186250471D01*
X207743740Y-186250471D02*
X207672311Y-186321900D01*
X207672311Y-186321900D02*
X207529454Y-186393328D01*
X207529454Y-186393328D02*
X207243740Y-186393328D01*
X207243740Y-186393328D02*
X207100882Y-186321900D01*
D10*
D11*
X177002200Y-181507200D02*
X285002200Y-181507200D01*
D10*
D11*
X178386598Y-183621900D02*
X178600884Y-183693328D01*
X178600884Y-183693328D02*
X178958026Y-183693328D01*
X178958026Y-183693328D02*
X179100884Y-183621900D01*
X179100884Y-183621900D02*
X179172312Y-183550471D01*
X179172312Y-183550471D02*
X179243741Y-183407614D01*
X179243741Y-183407614D02*
X179243741Y-183264757D01*
X179243741Y-183264757D02*
X179172312Y-183121900D01*
X179172312Y-183121900D02*
X179100884Y-183050471D01*
X179100884Y-183050471D02*
X178958026Y-182979042D01*
X178958026Y-182979042D02*
X178672312Y-182907614D01*
X178672312Y-182907614D02*
X178529455Y-182836185D01*
X178529455Y-182836185D02*
X178458026Y-182764757D01*
X178458026Y-182764757D02*
X178386598Y-182621900D01*
X178386598Y-182621900D02*
X178386598Y-182479042D01*
X178386598Y-182479042D02*
X178458026Y-182336185D01*
X178458026Y-182336185D02*
X178529455Y-182264757D01*
X178529455Y-182264757D02*
X178672312Y-182193328D01*
X178672312Y-182193328D02*
X179029455Y-182193328D01*
X179029455Y-182193328D02*
X179243741Y-182264757D01*
X179886597Y-183693328D02*
X179886597Y-182193328D01*
X180529455Y-183693328D02*
X180529455Y-182907614D01*
X180529455Y-182907614D02*
X180458026Y-182764757D01*
X180458026Y-182764757D02*
X180315169Y-182693328D01*
X180315169Y-182693328D02*
X180100883Y-182693328D01*
X180100883Y-182693328D02*
X179958026Y-182764757D01*
X179958026Y-182764757D02*
X179886597Y-182836185D01*
X181815169Y-183621900D02*
X181672312Y-183693328D01*
X181672312Y-183693328D02*
X181386598Y-183693328D01*
X181386598Y-183693328D02*
X181243740Y-183621900D01*
X181243740Y-183621900D02*
X181172312Y-183479042D01*
X181172312Y-183479042D02*
X181172312Y-182907614D01*
X181172312Y-182907614D02*
X181243740Y-182764757D01*
X181243740Y-182764757D02*
X181386598Y-182693328D01*
X181386598Y-182693328D02*
X181672312Y-182693328D01*
X181672312Y-182693328D02*
X181815169Y-182764757D01*
X181815169Y-182764757D02*
X181886598Y-182907614D01*
X181886598Y-182907614D02*
X181886598Y-183050471D01*
X181886598Y-183050471D02*
X181172312Y-183193328D01*
X183100883Y-183621900D02*
X182958026Y-183693328D01*
X182958026Y-183693328D02*
X182672312Y-183693328D01*
X182672312Y-183693328D02*
X182529454Y-183621900D01*
X182529454Y-183621900D02*
X182458026Y-183479042D01*
X182458026Y-183479042D02*
X182458026Y-182907614D01*
X182458026Y-182907614D02*
X182529454Y-182764757D01*
X182529454Y-182764757D02*
X182672312Y-182693328D01*
X182672312Y-182693328D02*
X182958026Y-182693328D01*
X182958026Y-182693328D02*
X183100883Y-182764757D01*
X183100883Y-182764757D02*
X183172312Y-182907614D01*
X183172312Y-182907614D02*
X183172312Y-183050471D01*
X183172312Y-183050471D02*
X182458026Y-183193328D01*
X183600883Y-182693328D02*
X184172311Y-182693328D01*
X183815168Y-182193328D02*
X183815168Y-183479042D01*
X183815168Y-183479042D02*
X183886597Y-183621900D01*
X183886597Y-183621900D02*
X184029454Y-183693328D01*
X184029454Y-183693328D02*
X184172311Y-183693328D01*
X184672311Y-183550471D02*
X184743740Y-183621900D01*
X184743740Y-183621900D02*
X184672311Y-183693328D01*
X184672311Y-183693328D02*
X184600883Y-183621900D01*
X184600883Y-183621900D02*
X184672311Y-183550471D01*
X184672311Y-183550471D02*
X184672311Y-183693328D01*
X184672311Y-182764757D02*
X184743740Y-182836185D01*
X184743740Y-182836185D02*
X184672311Y-182907614D01*
X184672311Y-182907614D02*
X184600883Y-182836185D01*
X184600883Y-182836185D02*
X184672311Y-182764757D01*
X184672311Y-182764757D02*
X184672311Y-182907614D01*
D10*
D11*
X197002200Y-191507200D02*
X197002200Y-194507200D01*
D10*
D11*
X261002200Y-191507200D02*
X261002200Y-198007200D01*
D14*
%TO.N,MOT_A*%
%TO.C,J8*%
X110000000Y-58000000D03*
%TD*%
%TO.N,MOT_C*%
%TO.C,J10*%
X100000000Y-58000000D03*
%TD*%
D15*
%TO.N,GND*%
%TO.C,H4*%
X114192385Y-64557615D03*
%TD*%
D14*
%TO.N,MOT_B*%
%TO.C,J9*%
X105000000Y-58000000D03*
%TD*%
D16*
%TO.N,GND*%
%TO.C,J7*%
X91090109Y-81306275D03*
D17*
%TO.N,CAN_L*%
X90221378Y-78919456D03*
%TO.N,CAN_H*%
X89352647Y-76532636D03*
%TD*%
D18*
%TO.N,GND*%
%TO.C,J5*%
X107600000Y-88885000D03*
D17*
%TO.N,USART_RX*%
X105060000Y-88885000D03*
%TO.N,USART_TX*%
X102520000Y-88885000D03*
%TD*%
D15*
%TO.N,GND*%
%TO.C,H1*%
X95807615Y-82942385D03*
%TD*%
%TO.N,GND*%
%TO.C,H2*%
X114250000Y-83000000D03*
%TD*%
D19*
%TO.N,GND*%
%TO.C,J1*%
X114400000Y-88900000D03*
%TD*%
D20*
%TO.N,VIN*%
%TO.C,J11*%
X117650000Y-86350000D03*
%TD*%
D15*
%TO.N,GND*%
%TO.C,H3*%
X95807615Y-64557615D03*
%TD*%
D21*
%TO.N,GND*%
%TO.C,J3*%
X95493193Y-88792190D03*
D17*
%TO.N,PB4*%
X93547440Y-87159509D03*
%TO.N,PB2*%
X91601687Y-85526829D03*
%TD*%
D16*
%TO.N,GND*%
%TO.C,J6*%
X88608731Y-82206819D03*
D17*
%TO.N,CAN_L*%
X87740000Y-79820000D03*
%TO.N,CAN_H*%
X86871269Y-77433180D03*
%TD*%
D22*
%TO.N,VIN*%
X113950000Y-69300000D03*
X123500000Y-75800000D03*
X109004626Y-70541090D03*
X123500000Y-75100000D03*
X123500000Y-74400000D03*
%TO.N,3V3*%
X94600000Y-68900000D03*
X105210000Y-67800000D03*
X123422614Y-73485681D03*
X117200000Y-76300000D03*
X116700000Y-74500000D03*
X100427500Y-67172500D03*
X105800000Y-81100000D03*
%TO.N,FDCAN_RX*%
X106000000Y-71250000D03*
X96879831Y-69018742D03*
%TO.N,FDCAN_TX*%
X99250000Y-71773303D03*
X93890380Y-72890380D03*
%TO.N,nRST*%
X106600000Y-80900000D03*
X91000000Y-67200000D03*
X97825000Y-67600000D03*
%TO.N,USART_RX*%
X102000000Y-82708869D03*
%TO.N,USART_TX*%
X99600000Y-83600000D03*
%TO.N,CURR_SENS_C*%
X113100000Y-77850000D03*
X96500000Y-70100000D03*
%TO.N,SWD_CLK*%
X106250000Y-76675000D03*
X107401082Y-77942932D03*
%TO.N,~{CAN_EN}*%
X101000000Y-72549997D03*
X95429890Y-74513614D03*
%TO.N,nFAULT*%
X95712627Y-71709401D03*
X116800000Y-73600000D03*
%TO.N,PWM_C_HIGH*%
X106725000Y-74382106D03*
X106000000Y-72750000D03*
%TO.N,SPI_MISO*%
X99860021Y-74096347D03*
%TO.N,SPI_CLK*%
X99470801Y-73340694D03*
%TO.N,SPI_MOSI*%
X103625000Y-72875000D03*
%TO.N,GND*%
X122675000Y-68125000D03*
X99630000Y-61310000D03*
X122625000Y-69800000D03*
X120300000Y-65300000D03*
X97000000Y-90500000D03*
X117300000Y-82200000D03*
X86040000Y-75870000D03*
X111750000Y-71200000D03*
X88430000Y-64310000D03*
X100850000Y-82900000D03*
X119800000Y-83100000D03*
X109000000Y-83600000D03*
X113978515Y-70247974D03*
X100400000Y-70700000D03*
X89800000Y-85300000D03*
X105725000Y-90525000D03*
X120300000Y-66200000D03*
X110733377Y-77787759D03*
X119800000Y-77200000D03*
X102300000Y-65700000D03*
X110800000Y-87600000D03*
X111700000Y-73900000D03*
X103350000Y-90500000D03*
X91700000Y-71200000D03*
X107000000Y-68600000D03*
X113839988Y-67247518D03*
X115230000Y-57760000D03*
X109600000Y-87600000D03*
X119800000Y-80000000D03*
X112390000Y-56800000D03*
X101025000Y-90500000D03*
X115000000Y-67200000D03*
X117200000Y-71600000D03*
X119800000Y-81200000D03*
X98950000Y-84600000D03*
X97530000Y-56850000D03*
X123000000Y-80070000D03*
X114400000Y-79100000D03*
X120000000Y-73400000D03*
X120500000Y-69900000D03*
X101000000Y-73300000D03*
X101360000Y-66440000D03*
X107868705Y-76652632D03*
X112600000Y-72100000D03*
X112600000Y-71200000D03*
X121200000Y-63800000D03*
X91940000Y-59810000D03*
X99400000Y-87619293D03*
X113100000Y-79100000D03*
X109600000Y-88600000D03*
X110800000Y-84600000D03*
X112600000Y-73900000D03*
X111000000Y-90700000D03*
X110900000Y-71200000D03*
X117300000Y-83200000D03*
X119330000Y-61340000D03*
X91800000Y-82700000D03*
X93100000Y-88600000D03*
X106761334Y-75081162D03*
X111700000Y-73000000D03*
X119800000Y-76300000D03*
X102470000Y-56850000D03*
X105080000Y-66810000D03*
X119800000Y-79000000D03*
X100400000Y-62200000D03*
X107520000Y-56870000D03*
X103700000Y-72100000D03*
X104100000Y-79000000D03*
X109500000Y-78100000D03*
X94351075Y-70399928D03*
X110900000Y-73000000D03*
X96200000Y-67500000D03*
X91700000Y-70400000D03*
X115600000Y-79100000D03*
X112150000Y-60750000D03*
X103940000Y-65590000D03*
X117375000Y-77339798D03*
X111750000Y-72100000D03*
X122625000Y-70600000D03*
X86880000Y-67730000D03*
X94400000Y-59200000D03*
X109000000Y-76800000D03*
X119800000Y-78000000D03*
X119800000Y-82100000D03*
X117280000Y-59340000D03*
X110900000Y-72100000D03*
X91500000Y-74000000D03*
X108500000Y-78100000D03*
X87800000Y-66000000D03*
X116500000Y-67200000D03*
X92600000Y-73100000D03*
X100600000Y-87600000D03*
X120300000Y-67000000D03*
X89980000Y-62010000D03*
X99850000Y-84600000D03*
X112600000Y-73000000D03*
X117300000Y-81200000D03*
X87000000Y-73000000D03*
X109400000Y-84600000D03*
X109706286Y-80647982D03*
X107825000Y-90500000D03*
X110800000Y-88600000D03*
X123450000Y-70850000D03*
X103000000Y-64600000D03*
X99400000Y-88500000D03*
X99200000Y-67200000D03*
X123630000Y-77790000D03*
X97590000Y-59070000D03*
X104600000Y-81200000D03*
X91567067Y-87330008D03*
X112340000Y-58850000D03*
X88858341Y-83963087D03*
X96800000Y-77600000D03*
X119600000Y-72500000D03*
X110900000Y-73900000D03*
X100600000Y-88500000D03*
%TO.N,CURR_SENS_B*%
X113100000Y-76776410D03*
X97500000Y-68450000D03*
%TO.N,CURR_SENS_A*%
X114306382Y-76750000D03*
X98275000Y-68425000D03*
%TO.N,PWM_A_HIGH*%
X99500000Y-76750000D03*
X108992002Y-72200000D03*
%TO.N,PWM_B_LOW*%
X103747110Y-76474000D03*
X106105555Y-75326024D03*
%TO.N,SPI_NSS*%
X98253554Y-72996446D03*
%TO.N,PB4*%
X103275000Y-74933521D03*
X98480842Y-79056209D03*
%TO.N,VIN_SENS*%
X106502015Y-75902932D03*
X117300000Y-78100000D03*
%TD*%
%TA.AperFunction,Conductor*%
%TO.N,GND*%
G36*
X97942539Y-56520185D02*
G01*
X97988294Y-56572989D01*
X97999500Y-56624500D01*
X97999500Y-59547868D01*
X97999501Y-59547874D01*
X98005908Y-59607481D01*
X98056202Y-59742327D01*
X98056203Y-59742328D01*
X98056204Y-59742330D01*
X98142454Y-59857546D01*
X98257670Y-59943796D01*
X98257671Y-59943796D01*
X98257672Y-59943797D01*
X98392519Y-59994091D01*
X98392518Y-59994091D01*
X98399446Y-59994835D01*
X98452129Y-60000500D01*
X101547870Y-60000499D01*
X101607481Y-59994091D01*
X101742330Y-59943796D01*
X101857546Y-59857546D01*
X101943796Y-59742330D01*
X101994091Y-59607481D01*
X102000500Y-59547871D01*
X102000499Y-56624499D01*
X102020184Y-56557461D01*
X102072987Y-56511706D01*
X102124499Y-56500500D01*
X102875500Y-56500500D01*
X102942539Y-56520185D01*
X102988294Y-56572989D01*
X102999500Y-56624500D01*
X102999500Y-59547868D01*
X102999501Y-59547874D01*
X103005908Y-59607481D01*
X103056202Y-59742327D01*
X103056203Y-59742328D01*
X103056204Y-59742330D01*
X103142454Y-59857546D01*
X103257670Y-59943796D01*
X103257671Y-59943796D01*
X103257672Y-59943797D01*
X103392519Y-59994091D01*
X103392518Y-59994091D01*
X103399446Y-59994835D01*
X103452129Y-60000500D01*
X106547870Y-60000499D01*
X106607481Y-59994091D01*
X106742330Y-59943796D01*
X106857546Y-59857546D01*
X106943796Y-59742330D01*
X106994091Y-59607481D01*
X107000500Y-59547871D01*
X107000499Y-56624499D01*
X107020184Y-56557461D01*
X107072987Y-56511706D01*
X107124499Y-56500500D01*
X107875500Y-56500500D01*
X107942539Y-56520185D01*
X107988294Y-56572989D01*
X107999500Y-56624500D01*
X107999500Y-59547868D01*
X107999501Y-59547874D01*
X108005908Y-59607481D01*
X108056202Y-59742327D01*
X108056203Y-59742328D01*
X108056204Y-59742330D01*
X108142454Y-59857546D01*
X108257670Y-59943796D01*
X108257671Y-59943796D01*
X108257672Y-59943797D01*
X108392519Y-59994091D01*
X108392518Y-59994091D01*
X108399446Y-59994835D01*
X108452129Y-60000500D01*
X111547870Y-60000499D01*
X111607481Y-59994091D01*
X111742330Y-59943796D01*
X111857546Y-59857546D01*
X111943796Y-59742330D01*
X111994091Y-59607481D01*
X112000500Y-59547871D01*
X112000499Y-56624499D01*
X112020184Y-56557461D01*
X112072987Y-56511706D01*
X112124499Y-56500500D01*
X113843688Y-56500500D01*
X113902187Y-56515166D01*
X113981235Y-56557461D01*
X114524930Y-56848367D01*
X114529644Y-56851025D01*
X115260139Y-57284308D01*
X115264740Y-57287176D01*
X115975432Y-57752209D01*
X115975434Y-57752210D01*
X115979934Y-57755298D01*
X115979936Y-57755300D01*
X115979938Y-57755301D01*
X116669439Y-58251173D01*
X116673803Y-58254460D01*
X117340790Y-58780219D01*
X117345005Y-58783695D01*
X117988181Y-59338317D01*
X117992239Y-59341975D01*
X118610375Y-59924402D01*
X118614267Y-59928235D01*
X119206137Y-60537312D01*
X119209857Y-60541313D01*
X119774319Y-61175862D01*
X119777850Y-61180012D01*
X120313851Y-61838853D01*
X120317182Y-61843135D01*
X120543261Y-62147490D01*
X120823626Y-62524925D01*
X120826787Y-62529382D01*
X121302709Y-63232819D01*
X121305669Y-63237410D01*
X121750126Y-63961093D01*
X121752882Y-63965810D01*
X122165038Y-64708380D01*
X122167584Y-64713214D01*
X122546639Y-65473230D01*
X122548969Y-65478171D01*
X122894180Y-66254151D01*
X122896290Y-66259190D01*
X123182575Y-66987515D01*
X123206980Y-67049601D01*
X123208866Y-67054729D01*
X123484444Y-67858074D01*
X123486102Y-67863279D01*
X123726022Y-68677964D01*
X123727450Y-68683238D01*
X123931256Y-69507714D01*
X123932450Y-69513045D01*
X124099746Y-70345717D01*
X124100703Y-70351095D01*
X124231155Y-71190292D01*
X124231875Y-71195707D01*
X124298766Y-71800500D01*
X124319259Y-71985788D01*
X124325238Y-72039842D01*
X124325719Y-72045285D01*
X124381808Y-72892718D01*
X124382049Y-72898175D01*
X124400758Y-73747268D01*
X124400758Y-73752731D01*
X124382050Y-74601823D01*
X124382043Y-74601843D01*
X124381809Y-74607282D01*
X124325718Y-75454717D01*
X124325237Y-75460159D01*
X124296285Y-75721924D01*
X124269350Y-75786393D01*
X124211836Y-75826066D01*
X124142004Y-75828346D01*
X124082024Y-75792510D01*
X124053521Y-75735130D01*
X124052603Y-75735376D01*
X124051384Y-75730829D01*
X124050941Y-75729936D01*
X124050663Y-75728136D01*
X124050500Y-75727527D01*
X124050500Y-75727525D01*
X124012984Y-75587515D01*
X123969384Y-75511998D01*
X123952912Y-75444101D01*
X123969385Y-75388000D01*
X124012984Y-75312485D01*
X124050500Y-75172475D01*
X124050500Y-75027525D01*
X124012984Y-74887515D01*
X123969384Y-74811998D01*
X123961536Y-74779649D01*
X123952796Y-74747538D01*
X123953332Y-74745835D01*
X123952912Y-74744101D01*
X123969385Y-74688000D01*
X124012984Y-74612485D01*
X124050500Y-74472475D01*
X124050500Y-74327525D01*
X124012984Y-74187515D01*
X124006104Y-74175599D01*
X123940511Y-74061988D01*
X123940506Y-74061982D01*
X123870157Y-73991633D01*
X123836672Y-73930310D01*
X123841656Y-73860618D01*
X123859466Y-73828461D01*
X123863116Y-73823702D01*
X123863123Y-73823696D01*
X123935598Y-73698166D01*
X123973114Y-73558156D01*
X123973114Y-73413206D01*
X123935598Y-73273196D01*
X123929125Y-73261985D01*
X123863125Y-73147669D01*
X123863120Y-73147663D01*
X123760631Y-73045174D01*
X123760625Y-73045169D01*
X123635102Y-72972698D01*
X123635103Y-72972698D01*
X123623620Y-72969621D01*
X123495089Y-72935181D01*
X123350139Y-72935181D01*
X123221607Y-72969621D01*
X123210125Y-72972698D01*
X123084602Y-73045169D01*
X123084596Y-73045174D01*
X122982107Y-73147663D01*
X122982102Y-73147669D01*
X122909631Y-73273192D01*
X122909630Y-73273196D01*
X122872114Y-73413206D01*
X122872114Y-73558156D01*
X122904417Y-73678711D01*
X122909631Y-73698169D01*
X122982102Y-73823692D01*
X122982107Y-73823698D01*
X123052456Y-73894047D01*
X123085941Y-73955370D01*
X123080957Y-74025062D01*
X123063158Y-74057205D01*
X123059495Y-74061978D01*
X123046747Y-74084059D01*
X122987016Y-74187515D01*
X122949500Y-74327525D01*
X122949500Y-74472475D01*
X122986171Y-74609331D01*
X122987017Y-74612488D01*
X123030614Y-74688000D01*
X123047087Y-74755900D01*
X123030614Y-74812000D01*
X122987017Y-74887511D01*
X122987016Y-74887515D01*
X122949500Y-75027525D01*
X122949500Y-75172475D01*
X122986828Y-75311782D01*
X122987017Y-75312488D01*
X123030614Y-75388000D01*
X123047087Y-75455900D01*
X123030614Y-75512000D01*
X122987017Y-75587511D01*
X122987016Y-75587515D01*
X122949500Y-75727525D01*
X122949500Y-75872475D01*
X122987016Y-76012485D01*
X122987017Y-76012488D01*
X123059488Y-76138011D01*
X123059490Y-76138013D01*
X123059491Y-76138015D01*
X123161985Y-76240509D01*
X123161986Y-76240510D01*
X123161988Y-76240511D01*
X123287511Y-76312982D01*
X123287512Y-76312982D01*
X123287515Y-76312984D01*
X123427525Y-76350500D01*
X123427528Y-76350500D01*
X123572472Y-76350500D01*
X123572475Y-76350500D01*
X123712485Y-76312984D01*
X123838015Y-76240509D01*
X123940509Y-76138015D01*
X124012984Y-76012485D01*
X124018239Y-75992870D01*
X124054601Y-75933214D01*
X124117447Y-75902683D01*
X124186823Y-75910977D01*
X124240702Y-75955461D01*
X124261978Y-76022012D01*
X124261261Y-76038597D01*
X124231875Y-76304292D01*
X124231155Y-76309708D01*
X124100703Y-77148905D01*
X124099746Y-77154283D01*
X123932451Y-77986949D01*
X123931257Y-77992281D01*
X123727447Y-78816769D01*
X123726019Y-78822042D01*
X123486101Y-79636721D01*
X123484443Y-79641926D01*
X123208866Y-80445271D01*
X123206980Y-80450399D01*
X122896290Y-81240810D01*
X122894180Y-81245849D01*
X122548969Y-82021828D01*
X122546639Y-82026769D01*
X122167584Y-82786786D01*
X122165038Y-82791620D01*
X121752882Y-83534190D01*
X121750126Y-83538907D01*
X121305660Y-84262606D01*
X121302699Y-84267197D01*
X120826796Y-84970603D01*
X120823636Y-84975060D01*
X120317190Y-85656852D01*
X120313836Y-85661165D01*
X120165690Y-85843262D01*
X120108113Y-85882842D01*
X120038277Y-85885011D01*
X119981821Y-85852688D01*
X117970060Y-83840927D01*
X117970050Y-83840918D01*
X117923379Y-83803306D01*
X117923373Y-83803303D01*
X117792457Y-83743514D01*
X117650000Y-83723033D01*
X117507542Y-83743514D01*
X117376628Y-83803301D01*
X117376626Y-83803303D01*
X117329944Y-83840921D01*
X117329940Y-83840925D01*
X115140927Y-86029939D01*
X115140913Y-86029954D01*
X115125419Y-86049181D01*
X115068025Y-86089027D01*
X115002034Y-86092432D01*
X114935884Y-86077768D01*
X114935883Y-86077768D01*
X114760574Y-86080318D01*
X114590583Y-86123227D01*
X114498302Y-86169572D01*
X113401924Y-86868043D01*
X114201886Y-88123733D01*
X114166649Y-88130743D01*
X114021058Y-88191049D01*
X113890030Y-88278599D01*
X113778654Y-88389974D01*
X112980227Y-87136694D01*
X112980226Y-87136693D01*
X111883850Y-87835164D01*
X111802842Y-87899215D01*
X111692115Y-88035142D01*
X111692114Y-88035144D01*
X111615714Y-88192948D01*
X111615714Y-88192949D01*
X111577768Y-88364117D01*
X111580318Y-88539425D01*
X111623227Y-88709416D01*
X111669572Y-88801697D01*
X112368043Y-89898074D01*
X113623733Y-89098111D01*
X113630743Y-89133351D01*
X113691049Y-89278942D01*
X113778599Y-89409970D01*
X113889973Y-89521344D01*
X112636694Y-90319770D01*
X112636693Y-90319772D01*
X112948288Y-90808875D01*
X112967707Y-90875992D01*
X112947757Y-90942952D01*
X112894772Y-90988498D01*
X112843708Y-90999500D01*
X96156312Y-90999500D01*
X96097813Y-90984834D01*
X95609440Y-90723528D01*
X95559616Y-90674544D01*
X95544184Y-90606400D01*
X95568044Y-90540730D01*
X95623619Y-90498385D01*
X95639662Y-90493461D01*
X95781980Y-90460128D01*
X95907053Y-90389233D01*
X95907056Y-90389231D01*
X95950243Y-90347724D01*
X95950244Y-90347723D01*
X96366655Y-89851464D01*
X95665983Y-89263528D01*
X95686186Y-89258115D01*
X95800200Y-89192289D01*
X95893292Y-89099197D01*
X95959118Y-88985183D01*
X95987204Y-88880363D01*
X96688048Y-89468442D01*
X97104468Y-88972174D01*
X97137834Y-88922451D01*
X97137837Y-88922445D01*
X97181880Y-88798389D01*
X101419500Y-88798389D01*
X101419500Y-88971610D01*
X101446224Y-89140345D01*
X101446598Y-89142701D01*
X101500127Y-89307445D01*
X101578768Y-89461788D01*
X101680586Y-89601928D01*
X101803072Y-89724414D01*
X101943212Y-89826232D01*
X102097555Y-89904873D01*
X102262299Y-89958402D01*
X102433389Y-89985500D01*
X102433390Y-89985500D01*
X102606610Y-89985500D01*
X102606611Y-89985500D01*
X102777701Y-89958402D01*
X102942445Y-89904873D01*
X103096788Y-89826232D01*
X103236928Y-89724414D01*
X103359414Y-89601928D01*
X103461232Y-89461788D01*
X103539873Y-89307445D01*
X103593402Y-89142701D01*
X103620500Y-88971611D01*
X103620500Y-88798389D01*
X103959500Y-88798389D01*
X103959500Y-88971610D01*
X103986224Y-89140345D01*
X103986598Y-89142701D01*
X104040127Y-89307445D01*
X104118768Y-89461788D01*
X104220586Y-89601928D01*
X104343072Y-89724414D01*
X104483212Y-89826232D01*
X104637555Y-89904873D01*
X104802299Y-89958402D01*
X104973389Y-89985500D01*
X104973390Y-89985500D01*
X105146610Y-89985500D01*
X105146611Y-89985500D01*
X105317701Y-89958402D01*
X105482445Y-89904873D01*
X105636788Y-89826232D01*
X105776928Y-89724414D01*
X105899414Y-89601928D01*
X106001232Y-89461788D01*
X106015515Y-89433756D01*
X106063489Y-89382960D01*
X106131309Y-89366164D01*
X106197445Y-89388701D01*
X106240897Y-89443415D01*
X106250000Y-89490050D01*
X106250000Y-89782844D01*
X106256401Y-89842372D01*
X106256403Y-89842379D01*
X106306645Y-89977086D01*
X106306649Y-89977093D01*
X106392809Y-90092187D01*
X106392812Y-90092190D01*
X106507906Y-90178350D01*
X106507913Y-90178354D01*
X106642620Y-90228596D01*
X106642627Y-90228598D01*
X106702155Y-90234999D01*
X106702172Y-90235000D01*
X107350000Y-90235000D01*
X107350000Y-89318012D01*
X107407007Y-89350925D01*
X107534174Y-89385000D01*
X107665826Y-89385000D01*
X107792993Y-89350925D01*
X107850000Y-89318012D01*
X107850000Y-90235000D01*
X108497828Y-90235000D01*
X108497844Y-90234999D01*
X108557372Y-90228598D01*
X108557379Y-90228596D01*
X108692086Y-90178354D01*
X108692093Y-90178350D01*
X108807187Y-90092190D01*
X108807190Y-90092187D01*
X108893350Y-89977093D01*
X108893354Y-89977086D01*
X108943596Y-89842379D01*
X108943598Y-89842372D01*
X108949999Y-89782844D01*
X108950000Y-89782827D01*
X108950000Y-89135000D01*
X108033012Y-89135000D01*
X108065925Y-89077993D01*
X108100000Y-88950826D01*
X108100000Y-88819174D01*
X108065925Y-88692007D01*
X108033012Y-88635000D01*
X108950000Y-88635000D01*
X108950000Y-87987172D01*
X108949999Y-87987155D01*
X108943598Y-87927627D01*
X108943596Y-87927620D01*
X108893354Y-87792913D01*
X108893350Y-87792906D01*
X108807190Y-87677812D01*
X108807187Y-87677809D01*
X108692093Y-87591649D01*
X108692086Y-87591645D01*
X108557379Y-87541403D01*
X108557372Y-87541401D01*
X108497844Y-87535000D01*
X107850000Y-87535000D01*
X107850000Y-88451988D01*
X107792993Y-88419075D01*
X107665826Y-88385000D01*
X107534174Y-88385000D01*
X107407007Y-88419075D01*
X107350000Y-88451988D01*
X107350000Y-87535000D01*
X106702155Y-87535000D01*
X106642627Y-87541401D01*
X106642620Y-87541403D01*
X106507913Y-87591645D01*
X106507906Y-87591649D01*
X106392812Y-87677809D01*
X106392809Y-87677812D01*
X106306649Y-87792906D01*
X106306645Y-87792913D01*
X106256403Y-87927620D01*
X106256401Y-87927627D01*
X106250000Y-87987155D01*
X106250000Y-88279949D01*
X106230315Y-88346988D01*
X106177511Y-88392743D01*
X106108353Y-88402687D01*
X106044797Y-88373662D01*
X106015515Y-88336244D01*
X106001231Y-88308211D01*
X105989591Y-88292190D01*
X105899414Y-88168072D01*
X105776928Y-88045586D01*
X105636788Y-87943768D01*
X105482445Y-87865127D01*
X105317701Y-87811598D01*
X105317699Y-87811597D01*
X105317698Y-87811597D01*
X105186271Y-87790781D01*
X105146611Y-87784500D01*
X104973389Y-87784500D01*
X104933728Y-87790781D01*
X104802302Y-87811597D01*
X104637552Y-87865128D01*
X104483211Y-87943768D01*
X104407302Y-87998920D01*
X104343072Y-88045586D01*
X104343070Y-88045588D01*
X104343069Y-88045588D01*
X104220588Y-88168069D01*
X104220588Y-88168070D01*
X104220586Y-88168072D01*
X104202512Y-88192949D01*
X104118768Y-88308211D01*
X104040128Y-88462552D01*
X103986597Y-88627302D01*
X103959500Y-88798389D01*
X103620500Y-88798389D01*
X103593402Y-88627299D01*
X103539873Y-88462555D01*
X103461232Y-88308212D01*
X103359414Y-88168072D01*
X103236928Y-88045586D01*
X103096788Y-87943768D01*
X102942445Y-87865127D01*
X102777701Y-87811598D01*
X102777699Y-87811597D01*
X102777698Y-87811597D01*
X102646271Y-87790781D01*
X102606611Y-87784500D01*
X102433389Y-87784500D01*
X102393728Y-87790781D01*
X102262302Y-87811597D01*
X102097552Y-87865128D01*
X101943211Y-87943768D01*
X101867302Y-87998920D01*
X101803072Y-88045586D01*
X101803070Y-88045588D01*
X101803069Y-88045588D01*
X101680588Y-88168069D01*
X101680588Y-88168070D01*
X101680586Y-88168072D01*
X101662512Y-88192949D01*
X101578768Y-88308211D01*
X101500128Y-88462552D01*
X101446597Y-88627302D01*
X101419500Y-88798389D01*
X97181880Y-88798389D01*
X97185940Y-88786953D01*
X97185958Y-88786633D01*
X97185958Y-88786632D01*
X97193919Y-88643396D01*
X97161131Y-88503402D01*
X97090236Y-88378329D01*
X97090234Y-88378326D01*
X97048727Y-88335139D01*
X97048726Y-88335138D01*
X96552467Y-87918726D01*
X95964531Y-88619398D01*
X95959118Y-88599197D01*
X95893292Y-88485183D01*
X95800200Y-88392091D01*
X95686186Y-88326265D01*
X95581365Y-88298177D01*
X96169445Y-87597333D01*
X95673177Y-87180914D01*
X95623454Y-87147548D01*
X95623448Y-87147545D01*
X95487956Y-87099442D01*
X95344399Y-87091463D01*
X95204405Y-87124251D01*
X95079332Y-87195146D01*
X95079329Y-87195148D01*
X95036142Y-87236655D01*
X95036141Y-87236656D01*
X94846871Y-87462219D01*
X94788700Y-87500921D01*
X94718839Y-87502029D01*
X94659469Y-87465192D01*
X94629440Y-87402105D01*
X94629409Y-87363120D01*
X94647940Y-87246120D01*
X94647940Y-87072898D01*
X94620842Y-86901808D01*
X94567313Y-86737064D01*
X94488672Y-86582721D01*
X94488671Y-86582719D01*
X94471433Y-86558994D01*
X94424382Y-86494234D01*
X101534500Y-86494234D01*
X101534500Y-86645765D01*
X101573719Y-86792136D01*
X101611602Y-86857750D01*
X101649485Y-86923365D01*
X101756635Y-87030515D01*
X101862200Y-87091463D01*
X101876019Y-87099442D01*
X101887865Y-87106281D01*
X102034234Y-87145500D01*
X102034236Y-87145500D01*
X102185764Y-87145500D01*
X102185766Y-87145500D01*
X102332135Y-87106281D01*
X102463365Y-87030515D01*
X102570515Y-86923365D01*
X102646281Y-86792135D01*
X102685500Y-86645766D01*
X102685500Y-86494234D01*
X107314500Y-86494234D01*
X107314500Y-86645765D01*
X107353719Y-86792136D01*
X107391602Y-86857750D01*
X107429485Y-86923365D01*
X107536635Y-87030515D01*
X107642200Y-87091463D01*
X107656019Y-87099442D01*
X107667865Y-87106281D01*
X107814234Y-87145500D01*
X107814236Y-87145500D01*
X107965764Y-87145500D01*
X107965766Y-87145500D01*
X108112135Y-87106281D01*
X108243365Y-87030515D01*
X108350515Y-86923365D01*
X108426281Y-86792135D01*
X108465500Y-86645766D01*
X108465500Y-86494234D01*
X108426281Y-86347865D01*
X108350515Y-86216635D01*
X108243365Y-86109485D01*
X108169128Y-86066624D01*
X108112136Y-86033719D01*
X108038950Y-86014109D01*
X107965766Y-85994500D01*
X107814234Y-85994500D01*
X107667863Y-86033719D01*
X107536635Y-86109485D01*
X107536632Y-86109487D01*
X107429487Y-86216632D01*
X107429485Y-86216635D01*
X107353719Y-86347863D01*
X107314500Y-86494234D01*
X102685500Y-86494234D01*
X102646281Y-86347865D01*
X102570515Y-86216635D01*
X102463365Y-86109485D01*
X102389128Y-86066624D01*
X102332136Y-86033719D01*
X102258950Y-86014109D01*
X102185766Y-85994500D01*
X102034234Y-85994500D01*
X101887863Y-86033719D01*
X101756635Y-86109485D01*
X101756632Y-86109487D01*
X101649487Y-86216632D01*
X101649485Y-86216635D01*
X101573719Y-86347863D01*
X101534500Y-86494234D01*
X94424382Y-86494234D01*
X94386854Y-86442581D01*
X94264368Y-86320095D01*
X94124228Y-86218277D01*
X93969885Y-86139636D01*
X93805141Y-86086107D01*
X93805139Y-86086106D01*
X93805138Y-86086106D01*
X93673711Y-86065290D01*
X93634051Y-86059009D01*
X93460829Y-86059009D01*
X93421168Y-86065290D01*
X93289742Y-86086106D01*
X93124992Y-86139637D01*
X92970651Y-86218277D01*
X92935579Y-86243759D01*
X92830512Y-86320095D01*
X92830510Y-86320097D01*
X92830509Y-86320097D01*
X92708028Y-86442578D01*
X92708028Y-86442579D01*
X92708026Y-86442581D01*
X92689514Y-86468061D01*
X92606208Y-86582720D01*
X92527568Y-86737061D01*
X92474037Y-86901811D01*
X92446940Y-87072898D01*
X92446940Y-87246119D01*
X92471645Y-87402105D01*
X92474038Y-87417210D01*
X92527567Y-87581954D01*
X92606208Y-87736297D01*
X92708026Y-87876437D01*
X92830512Y-87998923D01*
X92970652Y-88100741D01*
X93124995Y-88179382D01*
X93289739Y-88232911D01*
X93460829Y-88260009D01*
X93460830Y-88260009D01*
X93634050Y-88260009D01*
X93634051Y-88260009D01*
X93805141Y-88232911D01*
X93936988Y-88190070D01*
X94006827Y-88188076D01*
X94066660Y-88224156D01*
X94097488Y-88286857D01*
X94089524Y-88356271D01*
X94070294Y-88387708D01*
X93881913Y-88612211D01*
X93848551Y-88661928D01*
X93848548Y-88661934D01*
X93800445Y-88797426D01*
X93792466Y-88940983D01*
X93825254Y-89080977D01*
X93896149Y-89206050D01*
X93896151Y-89206053D01*
X93937658Y-89249240D01*
X93937659Y-89249241D01*
X94433917Y-89665652D01*
X95021853Y-88964977D01*
X95027268Y-88985183D01*
X95093094Y-89099197D01*
X95186186Y-89192289D01*
X95300200Y-89258115D01*
X95405017Y-89286201D01*
X94816938Y-89987046D01*
X94820595Y-90028840D01*
X94806828Y-90097340D01*
X94758212Y-90147522D01*
X94690183Y-90163455D01*
X94629172Y-90143407D01*
X94558769Y-90097340D01*
X94390211Y-89987046D01*
X94024565Y-89747790D01*
X94020061Y-89744699D01*
X93330560Y-89248826D01*
X93326196Y-89245539D01*
X92659209Y-88719780D01*
X92654994Y-88716304D01*
X92011818Y-88161682D01*
X92007760Y-88158024D01*
X91978806Y-88130743D01*
X91611335Y-87784500D01*
X91389624Y-87575597D01*
X91385732Y-87571764D01*
X90980200Y-87154442D01*
X90793862Y-86962687D01*
X90790142Y-86958686D01*
X90434596Y-86558993D01*
X90225667Y-86324122D01*
X90222152Y-86319991D01*
X89686143Y-85661140D01*
X89682822Y-85656870D01*
X89521890Y-85440218D01*
X90501187Y-85440218D01*
X90501187Y-85613440D01*
X90528285Y-85784530D01*
X90547368Y-85843262D01*
X90581815Y-85949276D01*
X90632719Y-86049181D01*
X90660455Y-86103617D01*
X90762273Y-86243757D01*
X90884759Y-86366243D01*
X91024899Y-86468061D01*
X91179242Y-86546702D01*
X91343986Y-86600231D01*
X91515076Y-86627329D01*
X91515077Y-86627329D01*
X91688297Y-86627329D01*
X91688298Y-86627329D01*
X91859388Y-86600231D01*
X92024132Y-86546702D01*
X92178475Y-86468061D01*
X92318615Y-86366243D01*
X92441101Y-86243757D01*
X92542919Y-86103617D01*
X92621560Y-85949274D01*
X92675089Y-85784530D01*
X92702187Y-85613440D01*
X92702187Y-85440218D01*
X92675089Y-85269128D01*
X92621560Y-85104384D01*
X92542919Y-84950041D01*
X92441101Y-84809901D01*
X92318615Y-84687415D01*
X92178475Y-84585597D01*
X92024132Y-84506956D01*
X91859388Y-84453427D01*
X91859386Y-84453426D01*
X91859385Y-84453426D01*
X91727958Y-84432610D01*
X91688298Y-84426329D01*
X91515076Y-84426329D01*
X91475415Y-84432610D01*
X91343989Y-84453426D01*
X91179239Y-84506957D01*
X91024898Y-84585597D01*
X90982022Y-84616749D01*
X90884759Y-84687415D01*
X90884757Y-84687417D01*
X90884756Y-84687417D01*
X90762275Y-84809898D01*
X90762275Y-84809899D01*
X90762273Y-84809901D01*
X90718546Y-84870085D01*
X90660455Y-84950040D01*
X90581815Y-85104381D01*
X90528284Y-85269131D01*
X90501187Y-85440218D01*
X89521890Y-85440218D01*
X89272425Y-85104381D01*
X89176363Y-84975059D01*
X89173203Y-84970603D01*
X88697291Y-84267183D01*
X88694339Y-84262606D01*
X88447420Y-83860561D01*
X88429110Y-83793135D01*
X88450160Y-83726512D01*
X88503888Y-83681846D01*
X88510674Y-83679147D01*
X88835534Y-83560908D01*
X88835534Y-83560907D01*
X88823384Y-83527525D01*
X99049500Y-83527525D01*
X99049500Y-83672475D01*
X99087016Y-83812485D01*
X99087017Y-83812488D01*
X99159488Y-83938011D01*
X99159490Y-83938013D01*
X99159491Y-83938015D01*
X99261985Y-84040509D01*
X99261986Y-84040510D01*
X99261988Y-84040511D01*
X99387511Y-84112982D01*
X99387512Y-84112982D01*
X99387515Y-84112984D01*
X99527525Y-84150500D01*
X99527528Y-84150500D01*
X99672472Y-84150500D01*
X99672475Y-84150500D01*
X99812485Y-84112984D01*
X99938015Y-84040509D01*
X100040509Y-83938015D01*
X100112984Y-83812485D01*
X100150500Y-83672475D01*
X100150500Y-83527525D01*
X100112984Y-83387515D01*
X100040509Y-83261985D01*
X99938015Y-83159491D01*
X99938013Y-83159490D01*
X99938011Y-83159488D01*
X99812488Y-83087017D01*
X99812489Y-83087017D01*
X99801006Y-83083940D01*
X99672475Y-83049500D01*
X99527525Y-83049500D01*
X99398993Y-83083940D01*
X99387511Y-83087017D01*
X99261988Y-83159488D01*
X99261982Y-83159493D01*
X99159493Y-83261982D01*
X99159488Y-83261988D01*
X99087017Y-83387511D01*
X99087016Y-83387515D01*
X99049500Y-83527525D01*
X88823384Y-83527525D01*
X88522700Y-82701405D01*
X88542905Y-82706819D01*
X88674557Y-82706819D01*
X88801724Y-82672744D01*
X88915738Y-82606918D01*
X88992470Y-82530185D01*
X89305381Y-83389899D01*
X89914130Y-83168332D01*
X89914147Y-83168325D01*
X89967907Y-83141946D01*
X90077310Y-83048657D01*
X90077313Y-83048654D01*
X90156000Y-82928323D01*
X90162033Y-82908364D01*
X90200272Y-82849887D01*
X90264056Y-82821366D01*
X90333133Y-82831857D01*
X90348594Y-82840459D01*
X90368606Y-82853545D01*
X90506231Y-82895145D01*
X90506238Y-82895146D01*
X90650002Y-82896286D01*
X90708156Y-82881934D01*
X90708157Y-82881933D01*
X91316913Y-82660364D01*
X91308189Y-82636394D01*
X101449500Y-82636394D01*
X101449500Y-82781344D01*
X101487016Y-82921354D01*
X101487017Y-82921357D01*
X101559488Y-83046880D01*
X101559490Y-83046882D01*
X101559491Y-83046884D01*
X101661985Y-83149378D01*
X101661986Y-83149379D01*
X101661988Y-83149380D01*
X101787511Y-83221851D01*
X101787512Y-83221851D01*
X101787515Y-83221853D01*
X101927525Y-83259369D01*
X101927528Y-83259369D01*
X102072472Y-83259369D01*
X102072475Y-83259369D01*
X102212485Y-83221853D01*
X102338015Y-83149378D01*
X102440509Y-83046884D01*
X102512984Y-82921354D01*
X102550500Y-82781344D01*
X102550500Y-82636394D01*
X102512984Y-82496384D01*
X102508925Y-82489354D01*
X102440511Y-82370857D01*
X102440506Y-82370851D01*
X102338017Y-82268362D01*
X102338011Y-82268357D01*
X102212488Y-82195886D01*
X102212489Y-82195886D01*
X102201006Y-82192809D01*
X102072475Y-82158369D01*
X101927525Y-82158369D01*
X101798993Y-82192809D01*
X101787511Y-82195886D01*
X101661988Y-82268357D01*
X101661982Y-82268362D01*
X101559493Y-82370851D01*
X101559488Y-82370857D01*
X101487017Y-82496380D01*
X101487016Y-82496384D01*
X101449500Y-82636394D01*
X91308189Y-82636394D01*
X91004078Y-81800861D01*
X91024283Y-81806275D01*
X91155935Y-81806275D01*
X91283102Y-81772200D01*
X91397116Y-81706374D01*
X91473848Y-81629641D01*
X91786758Y-82489354D01*
X91786759Y-82489355D01*
X92395508Y-82267788D01*
X92395525Y-82267781D01*
X92449285Y-82241402D01*
X92558688Y-82148113D01*
X92558691Y-82148110D01*
X92637379Y-82027778D01*
X92637379Y-82027777D01*
X92678979Y-81890152D01*
X92678980Y-81890145D01*
X92680120Y-81746381D01*
X92665768Y-81688227D01*
X92665767Y-81688226D01*
X92444198Y-81079470D01*
X91584695Y-81392303D01*
X91590109Y-81372101D01*
X91590109Y-81240449D01*
X91556034Y-81113282D01*
X91506522Y-81027525D01*
X105249500Y-81027525D01*
X105249500Y-81172475D01*
X105274940Y-81267416D01*
X105287017Y-81312488D01*
X105359488Y-81438011D01*
X105359490Y-81438013D01*
X105359491Y-81438015D01*
X105461985Y-81540509D01*
X105461986Y-81540510D01*
X105461988Y-81540511D01*
X105587511Y-81612982D01*
X105587512Y-81612982D01*
X105587515Y-81612984D01*
X105727525Y-81650500D01*
X105727528Y-81650500D01*
X105872472Y-81650500D01*
X105872475Y-81650500D01*
X105990294Y-81618930D01*
X108917301Y-81618930D01*
X108917301Y-81765849D01*
X108945959Y-81909924D01*
X108945962Y-81909934D01*
X109002179Y-82045656D01*
X109002184Y-82045665D01*
X109083799Y-82167809D01*
X109083802Y-82167813D01*
X109187677Y-82271688D01*
X109187681Y-82271691D01*
X109309825Y-82353306D01*
X109309831Y-82353309D01*
X109309832Y-82353310D01*
X109445559Y-82409530D01*
X109589641Y-82438189D01*
X109589645Y-82438190D01*
X109589646Y-82438190D01*
X109736557Y-82438190D01*
X109736558Y-82438189D01*
X109880643Y-82409530D01*
X110016370Y-82353310D01*
X110138521Y-82271691D01*
X110242402Y-82167810D01*
X110324021Y-82045659D01*
X110380241Y-81909932D01*
X110408901Y-81765845D01*
X110408901Y-81618935D01*
X110380241Y-81474848D01*
X110324021Y-81339121D01*
X110324020Y-81339120D01*
X110324017Y-81339114D01*
X110242402Y-81216970D01*
X110242399Y-81216966D01*
X110138524Y-81113091D01*
X110138520Y-81113088D01*
X110016376Y-81031473D01*
X110016367Y-81031468D01*
X109880645Y-80975251D01*
X109880646Y-80975251D01*
X109880643Y-80975250D01*
X109880639Y-80975249D01*
X109880635Y-80975248D01*
X109736560Y-80946590D01*
X109736556Y-80946590D01*
X109589646Y-80946590D01*
X109589641Y-80946590D01*
X109445566Y-80975248D01*
X109445556Y-80975251D01*
X109309834Y-81031468D01*
X109309825Y-81031473D01*
X109187681Y-81113088D01*
X109187677Y-81113091D01*
X109083802Y-81216966D01*
X109083799Y-81216970D01*
X109002184Y-81339114D01*
X109002179Y-81339123D01*
X108945962Y-81474845D01*
X108945959Y-81474855D01*
X108917301Y-81618930D01*
X105990294Y-81618930D01*
X106012485Y-81612984D01*
X106138015Y-81540509D01*
X106240509Y-81438015D01*
X106240511Y-81438010D01*
X106242904Y-81435618D01*
X106304227Y-81402133D01*
X106373919Y-81407117D01*
X106379962Y-81409964D01*
X106380001Y-81409872D01*
X106387510Y-81412982D01*
X106387512Y-81412982D01*
X106387515Y-81412984D01*
X106527525Y-81450500D01*
X106527528Y-81450500D01*
X106672472Y-81450500D01*
X106672475Y-81450500D01*
X106812485Y-81412984D01*
X106938015Y-81340509D01*
X107040509Y-81238015D01*
X107112984Y-81112485D01*
X107150500Y-80972475D01*
X107150500Y-80827525D01*
X107112984Y-80687515D01*
X107104392Y-80672634D01*
X107040511Y-80561988D01*
X107040506Y-80561982D01*
X106938017Y-80459493D01*
X106938011Y-80459488D01*
X106812488Y-80387017D01*
X106812489Y-80387017D01*
X106801006Y-80383940D01*
X106672475Y-80349500D01*
X106527525Y-80349500D01*
X106398993Y-80383940D01*
X106387511Y-80387017D01*
X106261988Y-80459488D01*
X106261981Y-80459494D01*
X106157092Y-80564382D01*
X106095769Y-80597866D01*
X106026077Y-80592881D01*
X106020033Y-80590033D01*
X106019995Y-80590127D01*
X106012486Y-80587016D01*
X105977482Y-80577637D01*
X105872475Y-80549500D01*
X105727525Y-80549500D01*
X105598993Y-80583940D01*
X105587511Y-80587017D01*
X105461988Y-80659488D01*
X105461982Y-80659493D01*
X105359493Y-80761982D01*
X105359488Y-80761988D01*
X105287017Y-80887511D01*
X105287016Y-80887515D01*
X105249500Y-81027525D01*
X91506522Y-81027525D01*
X91490208Y-80999268D01*
X91413474Y-80922534D01*
X92273188Y-80609623D01*
X92051620Y-80000869D01*
X92051615Y-80000858D01*
X92025236Y-79947098D01*
X91931947Y-79837695D01*
X91931944Y-79837692D01*
X91811612Y-79759004D01*
X91673986Y-79717404D01*
X91673979Y-79717403D01*
X91530215Y-79716263D01*
X91472061Y-79730615D01*
X91472053Y-79730618D01*
X91200985Y-79829278D01*
X91131256Y-79833709D01*
X91070201Y-79799739D01*
X91037203Y-79738152D01*
X91042741Y-79668502D01*
X91058258Y-79639869D01*
X91060784Y-79636391D01*
X91060792Y-79636384D01*
X91162610Y-79496244D01*
X91241251Y-79341901D01*
X91294780Y-79177157D01*
X91321878Y-79006067D01*
X91321878Y-78983734D01*
X97930342Y-78983734D01*
X97930342Y-79128684D01*
X97954203Y-79217733D01*
X97967859Y-79268697D01*
X98040330Y-79394220D01*
X98040332Y-79394222D01*
X98040333Y-79394224D01*
X98142827Y-79496718D01*
X98142828Y-79496719D01*
X98142830Y-79496720D01*
X98268353Y-79569191D01*
X98268354Y-79569191D01*
X98268357Y-79569193D01*
X98408367Y-79606709D01*
X98408370Y-79606709D01*
X98553314Y-79606709D01*
X98553317Y-79606709D01*
X98693327Y-79569193D01*
X98818857Y-79496718D01*
X98921351Y-79394224D01*
X98993826Y-79268694D01*
X99031342Y-79128684D01*
X99031342Y-78983734D01*
X99016070Y-78926739D01*
X104491154Y-78926739D01*
X104491154Y-79073658D01*
X104519812Y-79217733D01*
X104519815Y-79217743D01*
X104576032Y-79353465D01*
X104576037Y-79353474D01*
X104657652Y-79475618D01*
X104657655Y-79475622D01*
X104761530Y-79579497D01*
X104761534Y-79579500D01*
X104883678Y-79661115D01*
X104883684Y-79661118D01*
X104883685Y-79661119D01*
X105019412Y-79717339D01*
X105124049Y-79738152D01*
X105163494Y-79745998D01*
X105163498Y-79745999D01*
X105163499Y-79745999D01*
X105310410Y-79745999D01*
X105310411Y-79745998D01*
X105454496Y-79717339D01*
X105473486Y-79709473D01*
X109612285Y-79709473D01*
X109612285Y-79856392D01*
X109640943Y-80000467D01*
X109640946Y-80000477D01*
X109697163Y-80136199D01*
X109697168Y-80136208D01*
X109778783Y-80258352D01*
X109778786Y-80258356D01*
X109882661Y-80362231D01*
X109882665Y-80362234D01*
X110004809Y-80443849D01*
X110004818Y-80443854D01*
X110020619Y-80450399D01*
X110140543Y-80500073D01*
X110284625Y-80528732D01*
X110284629Y-80528733D01*
X110284630Y-80528733D01*
X110431541Y-80528733D01*
X110431542Y-80528732D01*
X110575627Y-80500073D01*
X110711354Y-80443853D01*
X110833505Y-80362234D01*
X110937386Y-80258353D01*
X111019005Y-80136202D01*
X111075225Y-80000475D01*
X111103885Y-79856388D01*
X111103885Y-79709478D01*
X111075225Y-79565391D01*
X111019005Y-79429664D01*
X111019004Y-79429663D01*
X111019001Y-79429657D01*
X110937386Y-79307513D01*
X110937383Y-79307509D01*
X110833508Y-79203634D01*
X110833504Y-79203631D01*
X110711360Y-79122016D01*
X110711351Y-79122011D01*
X110594615Y-79073658D01*
X110575627Y-79065793D01*
X110575623Y-79065792D01*
X110575619Y-79065791D01*
X110431544Y-79037133D01*
X110431540Y-79037133D01*
X110284630Y-79037133D01*
X110284625Y-79037133D01*
X110140550Y-79065791D01*
X110140540Y-79065794D01*
X110004818Y-79122011D01*
X110004809Y-79122016D01*
X109882665Y-79203631D01*
X109882661Y-79203634D01*
X109778786Y-79307509D01*
X109778783Y-79307513D01*
X109697168Y-79429657D01*
X109697163Y-79429666D01*
X109640946Y-79565388D01*
X109640943Y-79565398D01*
X109612285Y-79709473D01*
X105473486Y-79709473D01*
X105590223Y-79661119D01*
X105622026Y-79639869D01*
X105681269Y-79600284D01*
X105689084Y-79595061D01*
X105712374Y-79579500D01*
X105816255Y-79475619D01*
X105897874Y-79353468D01*
X105954094Y-79217741D01*
X105982754Y-79073654D01*
X105982754Y-78926744D01*
X105954094Y-78782657D01*
X105897874Y-78646930D01*
X105897873Y-78646929D01*
X105897870Y-78646923D01*
X105816255Y-78524779D01*
X105816252Y-78524775D01*
X105712377Y-78420900D01*
X105712373Y-78420897D01*
X105590229Y-78339282D01*
X105590220Y-78339277D01*
X105454498Y-78283060D01*
X105454499Y-78283060D01*
X105454496Y-78283059D01*
X105454492Y-78283058D01*
X105454488Y-78283057D01*
X105310413Y-78254399D01*
X105310409Y-78254399D01*
X105163499Y-78254399D01*
X105163494Y-78254399D01*
X105019419Y-78283057D01*
X105019409Y-78283060D01*
X104883687Y-78339277D01*
X104883678Y-78339282D01*
X104761534Y-78420897D01*
X104761530Y-78420900D01*
X104657655Y-78524775D01*
X104657652Y-78524779D01*
X104576037Y-78646923D01*
X104576032Y-78646932D01*
X104519815Y-78782654D01*
X104519812Y-78782664D01*
X104491154Y-78926739D01*
X99016070Y-78926739D01*
X98993826Y-78843724D01*
X98981307Y-78822041D01*
X98921353Y-78718197D01*
X98921348Y-78718191D01*
X98818859Y-78615702D01*
X98818853Y-78615697D01*
X98693330Y-78543226D01*
X98693331Y-78543226D01*
X98681848Y-78540149D01*
X98553317Y-78505709D01*
X98408367Y-78505709D01*
X98279835Y-78540149D01*
X98268353Y-78543226D01*
X98142830Y-78615697D01*
X98142824Y-78615702D01*
X98040335Y-78718191D01*
X98040330Y-78718197D01*
X97967859Y-78843720D01*
X97967858Y-78843724D01*
X97930342Y-78983734D01*
X91321878Y-78983734D01*
X91321878Y-78832845D01*
X91294780Y-78661755D01*
X91241251Y-78497011D01*
X91162610Y-78342668D01*
X91060792Y-78202528D01*
X90938306Y-78080042D01*
X90798166Y-77978224D01*
X90643823Y-77899583D01*
X90554183Y-77870457D01*
X106850582Y-77870457D01*
X106850582Y-78015407D01*
X106886676Y-78150109D01*
X106888099Y-78155420D01*
X106960570Y-78280943D01*
X106960572Y-78280945D01*
X106960573Y-78280947D01*
X107063067Y-78383441D01*
X107063068Y-78383442D01*
X107063070Y-78383443D01*
X107188593Y-78455914D01*
X107188594Y-78455914D01*
X107188597Y-78455916D01*
X107328607Y-78493432D01*
X107328610Y-78493432D01*
X107473554Y-78493432D01*
X107473557Y-78493432D01*
X107613567Y-78455916D01*
X107739097Y-78383441D01*
X107841591Y-78280947D01*
X107914066Y-78155417D01*
X107951582Y-78015407D01*
X107951582Y-77870457D01*
X107914066Y-77730447D01*
X107891222Y-77690881D01*
X107841593Y-77604920D01*
X107841588Y-77604914D01*
X107739099Y-77502425D01*
X107739093Y-77502420D01*
X107613570Y-77429949D01*
X107613571Y-77429949D01*
X107602088Y-77426872D01*
X107473557Y-77392432D01*
X107328607Y-77392432D01*
X107200075Y-77426872D01*
X107188593Y-77429949D01*
X107063070Y-77502420D01*
X107063064Y-77502425D01*
X106960575Y-77604914D01*
X106960570Y-77604920D01*
X106888099Y-77730443D01*
X106888098Y-77730447D01*
X106850582Y-77870457D01*
X90554183Y-77870457D01*
X90479079Y-77846054D01*
X90479077Y-77846053D01*
X90479076Y-77846053D01*
X90347649Y-77825237D01*
X90307989Y-77818956D01*
X90134767Y-77818956D01*
X90095106Y-77825237D01*
X89963680Y-77846053D01*
X89963677Y-77846054D01*
X89836087Y-77887511D01*
X89798930Y-77899584D01*
X89644589Y-77978224D01*
X89625242Y-77992281D01*
X89504450Y-78080042D01*
X89504448Y-78080044D01*
X89504447Y-78080044D01*
X89381966Y-78202525D01*
X89381966Y-78202526D01*
X89381964Y-78202528D01*
X89346796Y-78250932D01*
X89280146Y-78342667D01*
X89201506Y-78497008D01*
X89147975Y-78661758D01*
X89120878Y-78832845D01*
X89120878Y-79006066D01*
X89140298Y-79128684D01*
X89147976Y-79177157D01*
X89201505Y-79341901D01*
X89280146Y-79496244D01*
X89381964Y-79636384D01*
X89504450Y-79758870D01*
X89644590Y-79860688D01*
X89798933Y-79939329D01*
X89963677Y-79992858D01*
X90039095Y-80004803D01*
X90102226Y-80034730D01*
X90139158Y-80094042D01*
X90138160Y-80163904D01*
X90099551Y-80222137D01*
X90062105Y-80243797D01*
X89784703Y-80344763D01*
X89784692Y-80344768D01*
X89730932Y-80371147D01*
X89621529Y-80464436D01*
X89621526Y-80464439D01*
X89542838Y-80584771D01*
X89542837Y-80584774D01*
X89536804Y-80604734D01*
X89498563Y-80663210D01*
X89434778Y-80691727D01*
X89365701Y-80681234D01*
X89350246Y-80672634D01*
X89330238Y-80659550D01*
X89330233Y-80659548D01*
X89192608Y-80617948D01*
X89192601Y-80617947D01*
X89048837Y-80616807D01*
X88990683Y-80631159D01*
X88990675Y-80631162D01*
X88719607Y-80729822D01*
X88649878Y-80734253D01*
X88588823Y-80700283D01*
X88555825Y-80638696D01*
X88561363Y-80569046D01*
X88576880Y-80540413D01*
X88579406Y-80536935D01*
X88579414Y-80536928D01*
X88681232Y-80396788D01*
X88759873Y-80242445D01*
X88813402Y-80077701D01*
X88840500Y-79906611D01*
X88840500Y-79733389D01*
X88813402Y-79562299D01*
X88759873Y-79397555D01*
X88681232Y-79243212D01*
X88579414Y-79103072D01*
X88456928Y-78980586D01*
X88316788Y-78878768D01*
X88162445Y-78800127D01*
X87997701Y-78746598D01*
X87997699Y-78746597D01*
X87997698Y-78746597D01*
X87866271Y-78725781D01*
X87826611Y-78719500D01*
X87653389Y-78719500D01*
X87613728Y-78725781D01*
X87482302Y-78746597D01*
X87317552Y-78800128D01*
X87163211Y-78878768D01*
X87097186Y-78926739D01*
X87023072Y-78980586D01*
X87023070Y-78980588D01*
X87023069Y-78980588D01*
X86900588Y-79103069D01*
X86900588Y-79103070D01*
X86900586Y-79103072D01*
X86881980Y-79128681D01*
X86798768Y-79243211D01*
X86720128Y-79397550D01*
X86709696Y-79429657D01*
X86699820Y-79460055D01*
X86698751Y-79463344D01*
X86659313Y-79521019D01*
X86594954Y-79548217D01*
X86526108Y-79536302D01*
X86474632Y-79489058D01*
X86461871Y-79460055D01*
X86430483Y-79353474D01*
X86273977Y-78822036D01*
X86272551Y-78816768D01*
X86268438Y-78800128D01*
X86209406Y-78561322D01*
X86212428Y-78491521D01*
X86252709Y-78434431D01*
X86317460Y-78408182D01*
X86386077Y-78421083D01*
X86448818Y-78453050D01*
X86448824Y-78453053D01*
X86613568Y-78506582D01*
X86784658Y-78533680D01*
X86784659Y-78533680D01*
X86957879Y-78533680D01*
X86957880Y-78533680D01*
X87128970Y-78506582D01*
X87293714Y-78453053D01*
X87448057Y-78374412D01*
X87588197Y-78272594D01*
X87710683Y-78150108D01*
X87812501Y-78009968D01*
X87891142Y-77855625D01*
X87944671Y-77690881D01*
X87971769Y-77519791D01*
X87971769Y-77346569D01*
X87944671Y-77175479D01*
X87891142Y-77010735D01*
X87812501Y-76856392D01*
X87710683Y-76716252D01*
X87588197Y-76593766D01*
X87448057Y-76491948D01*
X87357927Y-76446025D01*
X88252147Y-76446025D01*
X88252147Y-76619246D01*
X88279244Y-76790333D01*
X88279244Y-76790335D01*
X88279245Y-76790337D01*
X88332774Y-76955081D01*
X88411415Y-77109424D01*
X88513233Y-77249564D01*
X88635719Y-77372050D01*
X88775859Y-77473868D01*
X88930202Y-77552509D01*
X89094946Y-77606038D01*
X89266036Y-77633136D01*
X89266037Y-77633136D01*
X89439257Y-77633136D01*
X89439258Y-77633136D01*
X89610348Y-77606038D01*
X89775092Y-77552509D01*
X89929435Y-77473868D01*
X90069575Y-77372050D01*
X90192061Y-77249564D01*
X90293879Y-77109424D01*
X90372520Y-76955081D01*
X90426049Y-76790337D01*
X90443917Y-76677525D01*
X98949500Y-76677525D01*
X98949500Y-76822475D01*
X98987016Y-76962485D01*
X98987017Y-76962488D01*
X99059488Y-77088011D01*
X99059490Y-77088013D01*
X99059491Y-77088015D01*
X99161985Y-77190509D01*
X99161986Y-77190510D01*
X99161988Y-77190511D01*
X99287511Y-77262982D01*
X99287512Y-77262982D01*
X99287515Y-77262984D01*
X99427525Y-77300500D01*
X99427528Y-77300500D01*
X99572472Y-77300500D01*
X99572475Y-77300500D01*
X99712485Y-77262984D01*
X99838015Y-77190509D01*
X99940509Y-77088015D01*
X100012984Y-76962485D01*
X100050500Y-76822475D01*
X100050500Y-76677525D01*
X100012984Y-76537515D01*
X99969680Y-76462511D01*
X99965575Y-76455400D01*
X99965574Y-76455399D01*
X99960162Y-76446025D01*
X99940509Y-76411985D01*
X99930049Y-76401525D01*
X103196610Y-76401525D01*
X103196610Y-76546475D01*
X103221139Y-76638017D01*
X103234127Y-76686488D01*
X103306598Y-76812011D01*
X103306600Y-76812013D01*
X103306601Y-76812015D01*
X103409095Y-76914509D01*
X103409096Y-76914510D01*
X103409098Y-76914511D01*
X103534621Y-76986982D01*
X103534622Y-76986982D01*
X103534625Y-76986984D01*
X103674635Y-77024500D01*
X103674638Y-77024500D01*
X103819582Y-77024500D01*
X103819585Y-77024500D01*
X103959595Y-76986984D01*
X104085125Y-76914509D01*
X104187619Y-76812015D01*
X104260094Y-76686485D01*
X104297610Y-76546475D01*
X104297610Y-76401525D01*
X104260094Y-76261515D01*
X104247967Y-76240511D01*
X104187621Y-76135988D01*
X104187616Y-76135982D01*
X104085127Y-76033493D01*
X104085121Y-76033488D01*
X103959598Y-75961017D01*
X103959599Y-75961017D01*
X103940304Y-75955847D01*
X103819585Y-75923500D01*
X103674635Y-75923500D01*
X103553916Y-75955847D01*
X103534621Y-75961017D01*
X103409098Y-76033488D01*
X103409092Y-76033493D01*
X103306603Y-76135982D01*
X103306598Y-76135988D01*
X103234127Y-76261511D01*
X103234126Y-76261515D01*
X103196610Y-76401525D01*
X99930049Y-76401525D01*
X99838015Y-76309491D01*
X99838013Y-76309490D01*
X99838011Y-76309488D01*
X99712488Y-76237017D01*
X99712489Y-76237017D01*
X99701006Y-76233940D01*
X99572475Y-76199500D01*
X99427525Y-76199500D01*
X99298993Y-76233940D01*
X99287511Y-76237017D01*
X99161988Y-76309488D01*
X99161982Y-76309493D01*
X99059493Y-76411982D01*
X99059488Y-76411988D01*
X98987017Y-76537511D01*
X98987016Y-76537515D01*
X98949500Y-76677525D01*
X90443917Y-76677525D01*
X90453147Y-76619247D01*
X90453147Y-76446025D01*
X90426049Y-76274935D01*
X90372520Y-76110191D01*
X90293879Y-75955848D01*
X90192061Y-75815708D01*
X90069575Y-75693222D01*
X89929435Y-75591404D01*
X89775092Y-75512763D01*
X89610348Y-75459234D01*
X89610346Y-75459233D01*
X89610345Y-75459233D01*
X89478918Y-75438417D01*
X89439258Y-75432136D01*
X89266036Y-75432136D01*
X89226375Y-75438417D01*
X89094949Y-75459233D01*
X88930199Y-75512764D01*
X88775858Y-75591404D01*
X88695903Y-75649495D01*
X88635719Y-75693222D01*
X88635717Y-75693224D01*
X88635716Y-75693224D01*
X88513235Y-75815705D01*
X88513235Y-75815706D01*
X88513233Y-75815708D01*
X88502516Y-75830459D01*
X88411415Y-75955847D01*
X88332775Y-76110188D01*
X88279244Y-76274938D01*
X88252147Y-76446025D01*
X87357927Y-76446025D01*
X87293714Y-76413307D01*
X87128970Y-76359778D01*
X87128968Y-76359777D01*
X87128967Y-76359777D01*
X86997540Y-76338961D01*
X86957880Y-76332680D01*
X86784658Y-76332680D01*
X86744997Y-76338961D01*
X86613571Y-76359777D01*
X86613568Y-76359778D01*
X86452884Y-76411988D01*
X86448821Y-76413308D01*
X86294480Y-76491948D01*
X86154342Y-76593765D01*
X86031617Y-76716490D01*
X85970294Y-76749974D01*
X85900602Y-76744990D01*
X85844669Y-76703118D01*
X85821409Y-76647857D01*
X85768842Y-76309697D01*
X85768124Y-76304293D01*
X85768124Y-76304292D01*
X85674757Y-75460114D01*
X85674283Y-75454751D01*
X85620810Y-74646847D01*
X85618191Y-74607281D01*
X85617950Y-74601823D01*
X85614410Y-74441139D01*
X94879390Y-74441139D01*
X94879390Y-74586089D01*
X94916196Y-74723449D01*
X94916907Y-74726102D01*
X94989378Y-74851625D01*
X94989380Y-74851627D01*
X94989381Y-74851629D01*
X95091875Y-74954123D01*
X95091876Y-74954124D01*
X95091878Y-74954125D01*
X95217401Y-75026596D01*
X95217402Y-75026596D01*
X95217405Y-75026598D01*
X95357415Y-75064114D01*
X95357418Y-75064114D01*
X95502362Y-75064114D01*
X95502365Y-75064114D01*
X95642375Y-75026598D01*
X95767905Y-74954123D01*
X95860982Y-74861046D01*
X102724500Y-74861046D01*
X102724500Y-75005996D01*
X102762016Y-75146006D01*
X102762017Y-75146009D01*
X102834488Y-75271532D01*
X102834490Y-75271534D01*
X102834491Y-75271536D01*
X102936985Y-75374030D01*
X102936986Y-75374031D01*
X102936988Y-75374032D01*
X103062511Y-75446503D01*
X103062512Y-75446503D01*
X103062515Y-75446505D01*
X103202525Y-75484021D01*
X103202528Y-75484021D01*
X103347472Y-75484021D01*
X103347475Y-75484021D01*
X103487485Y-75446505D01*
X103613015Y-75374030D01*
X103715509Y-75271536D01*
X103725894Y-75253549D01*
X105555055Y-75253549D01*
X105555055Y-75398499D01*
X105585673Y-75512764D01*
X105592572Y-75538512D01*
X105665043Y-75664035D01*
X105665045Y-75664037D01*
X105665046Y-75664039D01*
X105767540Y-75766533D01*
X105889516Y-75836956D01*
X105937731Y-75887522D01*
X105949206Y-75920521D01*
X105951515Y-75932316D01*
X105951515Y-75975407D01*
X105982816Y-76092222D01*
X105983630Y-76096381D01*
X105980785Y-76127112D01*
X105980051Y-76157958D01*
X105977594Y-76161588D01*
X105977190Y-76165954D01*
X105958185Y-76190264D01*
X105940889Y-76215821D01*
X105935024Y-76219892D01*
X105934159Y-76221000D01*
X105932691Y-76221512D01*
X105923941Y-76227588D01*
X105911988Y-76234489D01*
X105911982Y-76234493D01*
X105809493Y-76336982D01*
X105809488Y-76336988D01*
X105737017Y-76462511D01*
X105737016Y-76462515D01*
X105699500Y-76602525D01*
X105699500Y-76747475D01*
X105728685Y-76856392D01*
X105737017Y-76887488D01*
X105809488Y-77013011D01*
X105809490Y-77013013D01*
X105809491Y-77013015D01*
X105911985Y-77115509D01*
X105911986Y-77115510D01*
X105911988Y-77115511D01*
X106037511Y-77187982D01*
X106037512Y-77187982D01*
X106037515Y-77187984D01*
X106177525Y-77225500D01*
X106177528Y-77225500D01*
X106322472Y-77225500D01*
X106322475Y-77225500D01*
X106462485Y-77187984D01*
X106588015Y-77115509D01*
X106690509Y-77013015D01*
X106762984Y-76887485D01*
X106800500Y-76747475D01*
X106800500Y-76703935D01*
X112549500Y-76703935D01*
X112549500Y-76848885D01*
X112586504Y-76986984D01*
X112587017Y-76988898D01*
X112659488Y-77114421D01*
X112659493Y-77114427D01*
X112767732Y-77222666D01*
X112766144Y-77224253D01*
X112800468Y-77271266D01*
X112804617Y-77341013D01*
X112770400Y-77401930D01*
X112764003Y-77407472D01*
X112659493Y-77511982D01*
X112659488Y-77511988D01*
X112587017Y-77637511D01*
X112587016Y-77637515D01*
X112549500Y-77777525D01*
X112549500Y-77922475D01*
X112577649Y-78027527D01*
X112587017Y-78062488D01*
X112659488Y-78188011D01*
X112659490Y-78188013D01*
X112659491Y-78188015D01*
X112761985Y-78290509D01*
X112761986Y-78290510D01*
X112761988Y-78290511D01*
X112887511Y-78362982D01*
X112887512Y-78362982D01*
X112887515Y-78362984D01*
X113027525Y-78400500D01*
X113027528Y-78400500D01*
X113172472Y-78400500D01*
X113172475Y-78400500D01*
X113312485Y-78362984D01*
X113438015Y-78290509D01*
X113540509Y-78188015D01*
X113612984Y-78062485D01*
X113622352Y-78027525D01*
X116749500Y-78027525D01*
X116749500Y-78172475D01*
X116781128Y-78290511D01*
X116787017Y-78312488D01*
X116859488Y-78438011D01*
X116859490Y-78438013D01*
X116859491Y-78438015D01*
X116961985Y-78540509D01*
X116961986Y-78540510D01*
X116961988Y-78540511D01*
X117087511Y-78612982D01*
X117087512Y-78612982D01*
X117087515Y-78612984D01*
X117227525Y-78650500D01*
X117227528Y-78650500D01*
X117372472Y-78650500D01*
X117372475Y-78650500D01*
X117512485Y-78612984D01*
X117638015Y-78540509D01*
X117740509Y-78438015D01*
X117812984Y-78312485D01*
X117850500Y-78172475D01*
X117850500Y-78027525D01*
X117812984Y-77887515D01*
X117794573Y-77855627D01*
X117740511Y-77761988D01*
X117740506Y-77761982D01*
X117638017Y-77659493D01*
X117638011Y-77659488D01*
X117512488Y-77587017D01*
X117512489Y-77587017D01*
X117501006Y-77583940D01*
X117372475Y-77549500D01*
X117227525Y-77549500D01*
X117098993Y-77583940D01*
X117087511Y-77587017D01*
X116961988Y-77659488D01*
X116961982Y-77659493D01*
X116859493Y-77761982D01*
X116859488Y-77761988D01*
X116787017Y-77887511D01*
X116787016Y-77887515D01*
X116749500Y-78027525D01*
X113622352Y-78027525D01*
X113650500Y-77922475D01*
X113650500Y-77777525D01*
X113612984Y-77637515D01*
X113594165Y-77604920D01*
X113540511Y-77511988D01*
X113540506Y-77511982D01*
X113432268Y-77403744D01*
X113433856Y-77402155D01*
X113399537Y-77355159D01*
X113395379Y-77285413D01*
X113429588Y-77224491D01*
X113435997Y-77218936D01*
X113438012Y-77216920D01*
X113438015Y-77216919D01*
X113540509Y-77114425D01*
X113603428Y-77005445D01*
X113653994Y-76957232D01*
X113722601Y-76944008D01*
X113787465Y-76969976D01*
X113818200Y-77005446D01*
X113864679Y-77085948D01*
X113865873Y-77088015D01*
X113968367Y-77190509D01*
X113968368Y-77190510D01*
X113968370Y-77190511D01*
X114093893Y-77262982D01*
X114093894Y-77262982D01*
X114093897Y-77262984D01*
X114233907Y-77300500D01*
X114233910Y-77300500D01*
X114378854Y-77300500D01*
X114378857Y-77300500D01*
X114518867Y-77262984D01*
X114644397Y-77190509D01*
X114746891Y-77088015D01*
X114819366Y-76962485D01*
X114856882Y-76822475D01*
X114856882Y-76677525D01*
X114819366Y-76537515D01*
X114776062Y-76462511D01*
X114746893Y-76411988D01*
X114746888Y-76411982D01*
X114644399Y-76309493D01*
X114644393Y-76309488D01*
X114518870Y-76237017D01*
X114518871Y-76237017D01*
X114507388Y-76233940D01*
X114483447Y-76227525D01*
X116649500Y-76227525D01*
X116649500Y-76372475D01*
X116677099Y-76475474D01*
X116687017Y-76512488D01*
X116759488Y-76638011D01*
X116759490Y-76638013D01*
X116759491Y-76638015D01*
X116861985Y-76740509D01*
X116861986Y-76740510D01*
X116861988Y-76740511D01*
X116987511Y-76812982D01*
X116987512Y-76812982D01*
X116987515Y-76812984D01*
X117127525Y-76850500D01*
X117127528Y-76850500D01*
X117272472Y-76850500D01*
X117272475Y-76850500D01*
X117412485Y-76812984D01*
X117538015Y-76740509D01*
X117640509Y-76638015D01*
X117712984Y-76512485D01*
X117750500Y-76372475D01*
X117750500Y-76227525D01*
X117712984Y-76087515D01*
X117681794Y-76033493D01*
X117640511Y-75961988D01*
X117640506Y-75961982D01*
X117538017Y-75859493D01*
X117538011Y-75859488D01*
X117412488Y-75787017D01*
X117412489Y-75787017D01*
X117401006Y-75783940D01*
X117272475Y-75749500D01*
X117127525Y-75749500D01*
X116998993Y-75783940D01*
X116987511Y-75787017D01*
X116861988Y-75859488D01*
X116861982Y-75859493D01*
X116759493Y-75961982D01*
X116759488Y-75961988D01*
X116687017Y-76087511D01*
X116687016Y-76087515D01*
X116649500Y-76227525D01*
X114483447Y-76227525D01*
X114378857Y-76199500D01*
X114233907Y-76199500D01*
X114105375Y-76233940D01*
X114093893Y-76237017D01*
X113968370Y-76309488D01*
X113968364Y-76309493D01*
X113865875Y-76411982D01*
X113865873Y-76411985D01*
X113802954Y-76520963D01*
X113752386Y-76569178D01*
X113683779Y-76582400D01*
X113618915Y-76556432D01*
X113588180Y-76520963D01*
X113571428Y-76491948D01*
X113540509Y-76438395D01*
X113438015Y-76335901D01*
X113438013Y-76335900D01*
X113438011Y-76335898D01*
X113312488Y-76263427D01*
X113312489Y-76263427D01*
X113301006Y-76260350D01*
X113172475Y-76225910D01*
X113027525Y-76225910D01*
X112898993Y-76260350D01*
X112887511Y-76263427D01*
X112761988Y-76335898D01*
X112761982Y-76335903D01*
X112659493Y-76438392D01*
X112659488Y-76438398D01*
X112587017Y-76563921D01*
X112587016Y-76563925D01*
X112549500Y-76703935D01*
X106800500Y-76703935D01*
X106800500Y-76602525D01*
X106768401Y-76482734D01*
X106767352Y-76475474D01*
X106771300Y-76447859D01*
X106771964Y-76419973D01*
X106776177Y-76413747D01*
X106777241Y-76406307D01*
X106795489Y-76385213D01*
X106811126Y-76362110D01*
X106822020Y-76354546D01*
X106822954Y-76353467D01*
X106824031Y-76353149D01*
X106828069Y-76350346D01*
X106840030Y-76343441D01*
X106942524Y-76240947D01*
X107014999Y-76115417D01*
X107052515Y-75975407D01*
X107052515Y-75830457D01*
X107014999Y-75690447D01*
X106999753Y-75664041D01*
X106942526Y-75564920D01*
X106942521Y-75564914D01*
X106840032Y-75462425D01*
X106840030Y-75462423D01*
X106787572Y-75432136D01*
X106718054Y-75391999D01*
X106669839Y-75341431D01*
X106659068Y-75311782D01*
X106656055Y-75298365D01*
X106656055Y-75253549D01*
X106618539Y-75113539D01*
X106612008Y-75102228D01*
X106607865Y-75083776D01*
X106608950Y-75067022D01*
X106604992Y-75050708D01*
X106611162Y-75032879D01*
X106612382Y-75014052D01*
X106622352Y-75000545D01*
X106627843Y-74984681D01*
X106642672Y-74973018D01*
X106653878Y-74957839D01*
X106669567Y-74951866D01*
X106682764Y-74941489D01*
X106711264Y-74935995D01*
X106719177Y-74932984D01*
X106722863Y-74933760D01*
X106728852Y-74932606D01*
X106797472Y-74932606D01*
X106797475Y-74932606D01*
X106937485Y-74895090D01*
X107063015Y-74822615D01*
X107165509Y-74720121D01*
X107237984Y-74594591D01*
X107275500Y-74454581D01*
X107275500Y-74427525D01*
X116149500Y-74427525D01*
X116149500Y-74572475D01*
X116172262Y-74657422D01*
X116187017Y-74712488D01*
X116259488Y-74838011D01*
X116259490Y-74838013D01*
X116259491Y-74838015D01*
X116361985Y-74940509D01*
X116361986Y-74940510D01*
X116361988Y-74940511D01*
X116487511Y-75012982D01*
X116487512Y-75012982D01*
X116487515Y-75012984D01*
X116627525Y-75050500D01*
X116627528Y-75050500D01*
X116772472Y-75050500D01*
X116772475Y-75050500D01*
X116912485Y-75012984D01*
X117038015Y-74940509D01*
X117140509Y-74838015D01*
X117212984Y-74712485D01*
X117250500Y-74572475D01*
X117250500Y-74427525D01*
X117212984Y-74287515D01*
X117155248Y-74187513D01*
X117142707Y-74165791D01*
X117126234Y-74097891D01*
X117149086Y-74031864D01*
X117162402Y-74016121D01*
X117240509Y-73938015D01*
X117312984Y-73812485D01*
X117350500Y-73672475D01*
X117350500Y-73527525D01*
X117312984Y-73387515D01*
X117282355Y-73334465D01*
X117240511Y-73261988D01*
X117240506Y-73261982D01*
X117138017Y-73159493D01*
X117138011Y-73159488D01*
X117012488Y-73087017D01*
X117012489Y-73087017D01*
X117001006Y-73083940D01*
X116872475Y-73049500D01*
X116727525Y-73049500D01*
X116598993Y-73083940D01*
X116587511Y-73087017D01*
X116461988Y-73159488D01*
X116461982Y-73159493D01*
X116359493Y-73261982D01*
X116359488Y-73261988D01*
X116287017Y-73387511D01*
X116287016Y-73387515D01*
X116249500Y-73527525D01*
X116249500Y-73672475D01*
X116287016Y-73812485D01*
X116287017Y-73812488D01*
X116357292Y-73934207D01*
X116373765Y-74002107D01*
X116350913Y-74068134D01*
X116337587Y-74083887D01*
X116259494Y-74161981D01*
X116259488Y-74161988D01*
X116187017Y-74287511D01*
X116187016Y-74287515D01*
X116149500Y-74427525D01*
X107275500Y-74427525D01*
X107275500Y-74309631D01*
X107237984Y-74169621D01*
X107233575Y-74161985D01*
X107165511Y-74044094D01*
X107165506Y-74044088D01*
X107063017Y-73941599D01*
X107063011Y-73941594D01*
X106937488Y-73869123D01*
X106937489Y-73869123D01*
X106905748Y-73860618D01*
X106797475Y-73831606D01*
X106652525Y-73831606D01*
X106544252Y-73860618D01*
X106512511Y-73869123D01*
X106386988Y-73941594D01*
X106386982Y-73941599D01*
X106284493Y-74044088D01*
X106284488Y-74044094D01*
X106212017Y-74169617D01*
X106212016Y-74169621D01*
X106174500Y-74309631D01*
X106174500Y-74454581D01*
X106206089Y-74572472D01*
X106212017Y-74594595D01*
X106215128Y-74602105D01*
X106212414Y-74603228D01*
X106225563Y-74657422D01*
X106202712Y-74723449D01*
X106147791Y-74766641D01*
X106101703Y-74775524D01*
X106033080Y-74775524D01*
X105904548Y-74809964D01*
X105893066Y-74813041D01*
X105767543Y-74885512D01*
X105767537Y-74885517D01*
X105665048Y-74988006D01*
X105665043Y-74988012D01*
X105592572Y-75113535D01*
X105592571Y-75113539D01*
X105555055Y-75253549D01*
X103725894Y-75253549D01*
X103787984Y-75146006D01*
X103825500Y-75005996D01*
X103825500Y-74861046D01*
X103787984Y-74721036D01*
X103787453Y-74720117D01*
X103715511Y-74595509D01*
X103715506Y-74595503D01*
X103613017Y-74493014D01*
X103613011Y-74493009D01*
X103487488Y-74420538D01*
X103487489Y-74420538D01*
X103476006Y-74417461D01*
X103347475Y-74383021D01*
X103202525Y-74383021D01*
X103073993Y-74417461D01*
X103062511Y-74420538D01*
X102936988Y-74493009D01*
X102936982Y-74493014D01*
X102834493Y-74595503D01*
X102834488Y-74595509D01*
X102762017Y-74721032D01*
X102762016Y-74721036D01*
X102724500Y-74861046D01*
X95860982Y-74861046D01*
X95870399Y-74851629D01*
X95942874Y-74726099D01*
X95980390Y-74586089D01*
X95980390Y-74441139D01*
X95942874Y-74301129D01*
X95877276Y-74187511D01*
X95870401Y-74175602D01*
X95870396Y-74175596D01*
X95767907Y-74073107D01*
X95767901Y-74073102D01*
X95642378Y-74000631D01*
X95642379Y-74000631D01*
X95630896Y-73997554D01*
X95502365Y-73963114D01*
X95357415Y-73963114D01*
X95228883Y-73997554D01*
X95217401Y-74000631D01*
X95091878Y-74073102D01*
X95091872Y-74073107D01*
X94989383Y-74175596D01*
X94989378Y-74175602D01*
X94916907Y-74301125D01*
X94916906Y-74301129D01*
X94879390Y-74441139D01*
X85614410Y-74441139D01*
X85614291Y-74435743D01*
X85602355Y-73894047D01*
X85599241Y-73752723D01*
X85599241Y-73747268D01*
X85602853Y-73583363D01*
X85617950Y-72898173D01*
X85618191Y-72892717D01*
X85618503Y-72888012D01*
X85622840Y-72822475D01*
X85623143Y-72817905D01*
X93339880Y-72817905D01*
X93339880Y-72962855D01*
X93377396Y-73102865D01*
X93377397Y-73102868D01*
X93449868Y-73228391D01*
X93449870Y-73228393D01*
X93449871Y-73228395D01*
X93552365Y-73330889D01*
X93552366Y-73330890D01*
X93552368Y-73330891D01*
X93677891Y-73403362D01*
X93677892Y-73403362D01*
X93677895Y-73403364D01*
X93817905Y-73440880D01*
X93817908Y-73440880D01*
X93962852Y-73440880D01*
X93962855Y-73440880D01*
X94102865Y-73403364D01*
X94228395Y-73330889D01*
X94330889Y-73228395D01*
X94403364Y-73102865D01*
X94440880Y-72962855D01*
X94440880Y-72923971D01*
X97703054Y-72923971D01*
X97703054Y-73068921D01*
X97740570Y-73208931D01*
X97740571Y-73208934D01*
X97813042Y-73334457D01*
X97813044Y-73334459D01*
X97813045Y-73334461D01*
X97915539Y-73436955D01*
X97915540Y-73436956D01*
X97915542Y-73436957D01*
X98041065Y-73509428D01*
X98041066Y-73509428D01*
X98041069Y-73509430D01*
X98181079Y-73546946D01*
X98181082Y-73546946D01*
X98326026Y-73546946D01*
X98326029Y-73546946D01*
X98466039Y-73509430D01*
X98591569Y-73436955D01*
X98694063Y-73334461D01*
X98694068Y-73334450D01*
X98697923Y-73329429D01*
X98754350Y-73288225D01*
X98824096Y-73284068D01*
X98885017Y-73318279D01*
X98917772Y-73379996D01*
X98920301Y-73404913D01*
X98920301Y-73413169D01*
X98956147Y-73546946D01*
X98957818Y-73553182D01*
X99030289Y-73678705D01*
X99030291Y-73678707D01*
X99030292Y-73678709D01*
X99132786Y-73781203D01*
X99206386Y-73823696D01*
X99259753Y-73854508D01*
X99307969Y-73905075D01*
X99321191Y-73973682D01*
X99317528Y-73993986D01*
X99309521Y-74023867D01*
X99309521Y-74023872D01*
X99309521Y-74168822D01*
X99341324Y-74287511D01*
X99347038Y-74308835D01*
X99419509Y-74434358D01*
X99419511Y-74434360D01*
X99419512Y-74434362D01*
X99522006Y-74536856D01*
X99522007Y-74536857D01*
X99522009Y-74536858D01*
X99647532Y-74609329D01*
X99647533Y-74609329D01*
X99647536Y-74609331D01*
X99787546Y-74646847D01*
X99787549Y-74646847D01*
X99932493Y-74646847D01*
X99932496Y-74646847D01*
X100072506Y-74609331D01*
X100198036Y-74536856D01*
X100300530Y-74434362D01*
X100373005Y-74308832D01*
X100410521Y-74168822D01*
X100410521Y-74023872D01*
X100373005Y-73883862D01*
X100364495Y-73869123D01*
X100300532Y-73758335D01*
X100300527Y-73758329D01*
X100198038Y-73655840D01*
X100198036Y-73655838D01*
X100072506Y-73583363D01*
X100071067Y-73582532D01*
X100022852Y-73531964D01*
X100009630Y-73463357D01*
X100013294Y-73443050D01*
X100021301Y-73413169D01*
X100021301Y-73268219D01*
X99983785Y-73128209D01*
X99969154Y-73102868D01*
X99911312Y-73002682D01*
X99911311Y-73002680D01*
X99911310Y-73002679D01*
X99808816Y-72900185D01*
X99808814Y-72900184D01*
X99808812Y-72900182D01*
X99683289Y-72827711D01*
X99683290Y-72827711D01*
X99646701Y-72817907D01*
X99543276Y-72790194D01*
X99398326Y-72790194D01*
X99294901Y-72817907D01*
X99258312Y-72827711D01*
X99132789Y-72900182D01*
X99132783Y-72900187D01*
X99030290Y-73002680D01*
X99026428Y-73007714D01*
X98970000Y-73048916D01*
X98900254Y-73053069D01*
X98839334Y-73018856D01*
X98806582Y-72957138D01*
X98804054Y-72932226D01*
X98804054Y-72923973D01*
X98804054Y-72923971D01*
X98766538Y-72783961D01*
X98754035Y-72762306D01*
X98694065Y-72658434D01*
X98694060Y-72658428D01*
X98591571Y-72555939D01*
X98591565Y-72555934D01*
X98466042Y-72483463D01*
X98466043Y-72483463D01*
X98443871Y-72477522D01*
X100449500Y-72477522D01*
X100449500Y-72622472D01*
X100486969Y-72762306D01*
X100487017Y-72762485D01*
X100559488Y-72888008D01*
X100559490Y-72888010D01*
X100559491Y-72888012D01*
X100661985Y-72990506D01*
X100661986Y-72990507D01*
X100661988Y-72990508D01*
X100787511Y-73062979D01*
X100787512Y-73062979D01*
X100787515Y-73062981D01*
X100927525Y-73100497D01*
X100927528Y-73100497D01*
X101072472Y-73100497D01*
X101072475Y-73100497D01*
X101212485Y-73062981D01*
X101338015Y-72990506D01*
X101440509Y-72888012D01*
X101489865Y-72802525D01*
X103074500Y-72802525D01*
X103074500Y-72947475D01*
X103111891Y-73087017D01*
X103112017Y-73087488D01*
X103184488Y-73213011D01*
X103184490Y-73213013D01*
X103184491Y-73213015D01*
X103286985Y-73315509D01*
X103286986Y-73315510D01*
X103286988Y-73315511D01*
X103412511Y-73387982D01*
X103412512Y-73387982D01*
X103412515Y-73387984D01*
X103552525Y-73425500D01*
X103552528Y-73425500D01*
X103697472Y-73425500D01*
X103697475Y-73425500D01*
X103837485Y-73387984D01*
X103963015Y-73315509D01*
X104065509Y-73213015D01*
X104137984Y-73087485D01*
X104175500Y-72947475D01*
X104175500Y-72802525D01*
X104142006Y-72677525D01*
X105449500Y-72677525D01*
X105449500Y-72822475D01*
X105476696Y-72923971D01*
X105487017Y-72962488D01*
X105559488Y-73088011D01*
X105559490Y-73088013D01*
X105559491Y-73088015D01*
X105661985Y-73190509D01*
X105661986Y-73190510D01*
X105661988Y-73190511D01*
X105787511Y-73262982D01*
X105787512Y-73262982D01*
X105787515Y-73262984D01*
X105927525Y-73300500D01*
X105927528Y-73300500D01*
X106072472Y-73300500D01*
X106072475Y-73300500D01*
X106212485Y-73262984D01*
X106338015Y-73190509D01*
X106440509Y-73088015D01*
X106512984Y-72962485D01*
X106550500Y-72822475D01*
X106550500Y-72677525D01*
X106512984Y-72537515D01*
X106512676Y-72536982D01*
X106440511Y-72411988D01*
X106440506Y-72411982D01*
X106338017Y-72309493D01*
X106338011Y-72309488D01*
X106212490Y-72237018D01*
X106212487Y-72237017D01*
X106212485Y-72237016D01*
X106072475Y-72199500D01*
X105927525Y-72199500D01*
X105798993Y-72233940D01*
X105787511Y-72237017D01*
X105661988Y-72309488D01*
X105661982Y-72309493D01*
X105559493Y-72411982D01*
X105559488Y-72411988D01*
X105487017Y-72537511D01*
X105487016Y-72537515D01*
X105449500Y-72677525D01*
X104142006Y-72677525D01*
X104137984Y-72662515D01*
X104135624Y-72658428D01*
X104065511Y-72536988D01*
X104065506Y-72536982D01*
X103963017Y-72434493D01*
X103963011Y-72434488D01*
X103837488Y-72362017D01*
X103837489Y-72362017D01*
X103826006Y-72358940D01*
X103697475Y-72324500D01*
X103552525Y-72324500D01*
X103423993Y-72358940D01*
X103412511Y-72362017D01*
X103286988Y-72434488D01*
X103286982Y-72434493D01*
X103184493Y-72536982D01*
X103184488Y-72536988D01*
X103112017Y-72662511D01*
X103107896Y-72677891D01*
X103074500Y-72802525D01*
X101489865Y-72802525D01*
X101512984Y-72762482D01*
X101550500Y-72622472D01*
X101550500Y-72477522D01*
X101512984Y-72337512D01*
X101505471Y-72324500D01*
X101440511Y-72211985D01*
X101440506Y-72211979D01*
X101356052Y-72127525D01*
X108441502Y-72127525D01*
X108441502Y-72272475D01*
X108465495Y-72362016D01*
X108479019Y-72412488D01*
X108551490Y-72538011D01*
X108551492Y-72538013D01*
X108551493Y-72538015D01*
X108653987Y-72640509D01*
X108653988Y-72640510D01*
X108653990Y-72640511D01*
X108779513Y-72712982D01*
X108779514Y-72712982D01*
X108779517Y-72712984D01*
X108919527Y-72750500D01*
X108919530Y-72750500D01*
X109064474Y-72750500D01*
X109064477Y-72750500D01*
X109204487Y-72712984D01*
X109330017Y-72640509D01*
X109432511Y-72538015D01*
X109504986Y-72412485D01*
X109542502Y-72272475D01*
X109542502Y-72127525D01*
X109504986Y-71987515D01*
X109432511Y-71861985D01*
X109330017Y-71759491D01*
X109330015Y-71759490D01*
X109330013Y-71759488D01*
X109204490Y-71687017D01*
X109204491Y-71687017D01*
X109193008Y-71683940D01*
X109064477Y-71649500D01*
X108919527Y-71649500D01*
X108790995Y-71683940D01*
X108779513Y-71687017D01*
X108653990Y-71759488D01*
X108653984Y-71759493D01*
X108551495Y-71861982D01*
X108551490Y-71861988D01*
X108479019Y-71987511D01*
X108479018Y-71987515D01*
X108441502Y-72127525D01*
X101356052Y-72127525D01*
X101338017Y-72109490D01*
X101338011Y-72109485D01*
X101212488Y-72037014D01*
X101212489Y-72037014D01*
X101201006Y-72033937D01*
X101072475Y-71999497D01*
X100927525Y-71999497D01*
X100798993Y-72033937D01*
X100787511Y-72037014D01*
X100661988Y-72109485D01*
X100661982Y-72109490D01*
X100559493Y-72211979D01*
X100559488Y-72211985D01*
X100487017Y-72337508D01*
X100487016Y-72337512D01*
X100449500Y-72477522D01*
X98443871Y-72477522D01*
X98326029Y-72445946D01*
X98181079Y-72445946D01*
X98063237Y-72477522D01*
X98041065Y-72483463D01*
X97915542Y-72555934D01*
X97915536Y-72555939D01*
X97813047Y-72658428D01*
X97813042Y-72658434D01*
X97740571Y-72783957D01*
X97740570Y-72783961D01*
X97703054Y-72923971D01*
X94440880Y-72923971D01*
X94440880Y-72817905D01*
X94403364Y-72677895D01*
X94403150Y-72677525D01*
X94330891Y-72552368D01*
X94330886Y-72552362D01*
X94228397Y-72449873D01*
X94228391Y-72449868D01*
X94102868Y-72377397D01*
X94102869Y-72377397D01*
X94091386Y-72374320D01*
X93962855Y-72339880D01*
X93817905Y-72339880D01*
X93689373Y-72374320D01*
X93677891Y-72377397D01*
X93552368Y-72449868D01*
X93552362Y-72449873D01*
X93449873Y-72552362D01*
X93449868Y-72552368D01*
X93377397Y-72677891D01*
X93377396Y-72677895D01*
X93339880Y-72817905D01*
X85623143Y-72817905D01*
X85624223Y-72801588D01*
X85624223Y-72801587D01*
X85640718Y-72552365D01*
X85674283Y-72045244D01*
X85674756Y-72039889D01*
X85719324Y-71636926D01*
X95162127Y-71636926D01*
X95162127Y-71781876D01*
X95199643Y-71921886D01*
X95199644Y-71921889D01*
X95272115Y-72047412D01*
X95272117Y-72047414D01*
X95272118Y-72047416D01*
X95374612Y-72149910D01*
X95374613Y-72149911D01*
X95374615Y-72149912D01*
X95500138Y-72222383D01*
X95500139Y-72222383D01*
X95500142Y-72222385D01*
X95640152Y-72259901D01*
X95640155Y-72259901D01*
X95785099Y-72259901D01*
X95785102Y-72259901D01*
X95925112Y-72222385D01*
X96050642Y-72149910D01*
X96153136Y-72047416D01*
X96225611Y-71921886D01*
X96263127Y-71781876D01*
X96263127Y-71700828D01*
X98699500Y-71700828D01*
X98699500Y-71845778D01*
X98737016Y-71985788D01*
X98737017Y-71985791D01*
X98809488Y-72111314D01*
X98809490Y-72111316D01*
X98809491Y-72111318D01*
X98911985Y-72213812D01*
X98911986Y-72213813D01*
X98911988Y-72213814D01*
X99037511Y-72286285D01*
X99037512Y-72286285D01*
X99037515Y-72286287D01*
X99177525Y-72323803D01*
X99177528Y-72323803D01*
X99322472Y-72323803D01*
X99322475Y-72323803D01*
X99462485Y-72286287D01*
X99588015Y-72213812D01*
X99690509Y-72111318D01*
X99762984Y-71985788D01*
X99800500Y-71845778D01*
X99800500Y-71700828D01*
X99762984Y-71560818D01*
X99706211Y-71462485D01*
X99690511Y-71435291D01*
X99690506Y-71435285D01*
X99588017Y-71332796D01*
X99588015Y-71332794D01*
X99491005Y-71276785D01*
X99491003Y-71276783D01*
X99462488Y-71260320D01*
X99462489Y-71260320D01*
X99451006Y-71257243D01*
X99322475Y-71222803D01*
X99177525Y-71222803D01*
X99048993Y-71257243D01*
X99037511Y-71260320D01*
X98911988Y-71332791D01*
X98911982Y-71332796D01*
X98809493Y-71435285D01*
X98809488Y-71435291D01*
X98737017Y-71560814D01*
X98737016Y-71560818D01*
X98699500Y-71700828D01*
X96263127Y-71700828D01*
X96263127Y-71636926D01*
X96225611Y-71496916D01*
X96190028Y-71435285D01*
X96153138Y-71371389D01*
X96153133Y-71371383D01*
X96050644Y-71268894D01*
X96050638Y-71268889D01*
X95925115Y-71196418D01*
X95925116Y-71196418D01*
X95902253Y-71190292D01*
X95854607Y-71177525D01*
X105449500Y-71177525D01*
X105449500Y-71322475D01*
X105487016Y-71462485D01*
X105487017Y-71462488D01*
X105559488Y-71588011D01*
X105559490Y-71588013D01*
X105559491Y-71588015D01*
X105661985Y-71690509D01*
X105661986Y-71690510D01*
X105661988Y-71690511D01*
X105787511Y-71762982D01*
X105787512Y-71762982D01*
X105787515Y-71762984D01*
X105927525Y-71800500D01*
X105927528Y-71800500D01*
X106072472Y-71800500D01*
X106072475Y-71800500D01*
X106212485Y-71762984D01*
X106338015Y-71690509D01*
X106440509Y-71588015D01*
X106512984Y-71462485D01*
X106550500Y-71322475D01*
X106550500Y-71177525D01*
X106512984Y-71037515D01*
X106440509Y-70911985D01*
X106338015Y-70809491D01*
X106338013Y-70809490D01*
X106338011Y-70809488D01*
X106212488Y-70737017D01*
X106212489Y-70737017D01*
X106201006Y-70733940D01*
X106072475Y-70699500D01*
X105927525Y-70699500D01*
X105798993Y-70733940D01*
X105787511Y-70737017D01*
X105661988Y-70809488D01*
X105661982Y-70809493D01*
X105559493Y-70911982D01*
X105559488Y-70911988D01*
X105487017Y-71037511D01*
X105487016Y-71037515D01*
X105449500Y-71177525D01*
X95854607Y-71177525D01*
X95785102Y-71158901D01*
X95640152Y-71158901D01*
X95523001Y-71190292D01*
X95500138Y-71196418D01*
X95374615Y-71268889D01*
X95374609Y-71268894D01*
X95272120Y-71371383D01*
X95272115Y-71371389D01*
X95199644Y-71496912D01*
X95199643Y-71496916D01*
X95162127Y-71636926D01*
X85719324Y-71636926D01*
X85768126Y-71195689D01*
X85768844Y-71190291D01*
X85899302Y-70351058D01*
X85900246Y-70345752D01*
X85964183Y-70027525D01*
X95949500Y-70027525D01*
X95949500Y-70172475D01*
X95967990Y-70241479D01*
X95987017Y-70312488D01*
X96059488Y-70438011D01*
X96059490Y-70438013D01*
X96059491Y-70438015D01*
X96161985Y-70540509D01*
X96161986Y-70540510D01*
X96161988Y-70540511D01*
X96287511Y-70612982D01*
X96287512Y-70612982D01*
X96287515Y-70612984D01*
X96427525Y-70650500D01*
X96427528Y-70650500D01*
X96572472Y-70650500D01*
X96572475Y-70650500D01*
X96712485Y-70612984D01*
X96838015Y-70540509D01*
X96909909Y-70468615D01*
X108454126Y-70468615D01*
X108454126Y-70613565D01*
X108491642Y-70753575D01*
X108491643Y-70753578D01*
X108564114Y-70879101D01*
X108564116Y-70879103D01*
X108564117Y-70879105D01*
X108666611Y-70981599D01*
X108666612Y-70981600D01*
X108666614Y-70981601D01*
X108792137Y-71054072D01*
X108792138Y-71054072D01*
X108792141Y-71054074D01*
X108932151Y-71091590D01*
X108932154Y-71091590D01*
X109077098Y-71091590D01*
X109077101Y-71091590D01*
X109217111Y-71054074D01*
X109342641Y-70981599D01*
X109445135Y-70879105D01*
X109517610Y-70753575D01*
X109555126Y-70613565D01*
X109555126Y-70468615D01*
X109517610Y-70328605D01*
X109445135Y-70203075D01*
X109342641Y-70100581D01*
X109342639Y-70100580D01*
X109342637Y-70100578D01*
X109217114Y-70028107D01*
X109217115Y-70028107D01*
X109205632Y-70025030D01*
X109077101Y-69990590D01*
X108932151Y-69990590D01*
X108803619Y-70025030D01*
X108792137Y-70028107D01*
X108666614Y-70100578D01*
X108666608Y-70100583D01*
X108564119Y-70203072D01*
X108564114Y-70203078D01*
X108491643Y-70328601D01*
X108491642Y-70328605D01*
X108454126Y-70468615D01*
X96909909Y-70468615D01*
X96940509Y-70438015D01*
X97012984Y-70312485D01*
X97050500Y-70172475D01*
X97050500Y-70027525D01*
X97012984Y-69887515D01*
X96991613Y-69850500D01*
X96940511Y-69761988D01*
X96935562Y-69755539D01*
X96937319Y-69754190D01*
X96909373Y-69703011D01*
X96914357Y-69633319D01*
X96956229Y-69577386D01*
X96998442Y-69556879D01*
X97092316Y-69531726D01*
X97217846Y-69459251D01*
X97320340Y-69356757D01*
X97388896Y-69238015D01*
X97392813Y-69231231D01*
X97392813Y-69231229D01*
X97392815Y-69231227D01*
X97393807Y-69227525D01*
X113399500Y-69227525D01*
X113399500Y-69372475D01*
X113435738Y-69507714D01*
X113437017Y-69512488D01*
X113509488Y-69638011D01*
X113509490Y-69638013D01*
X113509491Y-69638015D01*
X113611985Y-69740509D01*
X113611986Y-69740510D01*
X113611988Y-69740511D01*
X113737511Y-69812982D01*
X113737512Y-69812982D01*
X113737515Y-69812984D01*
X113877525Y-69850500D01*
X113877528Y-69850500D01*
X114022472Y-69850500D01*
X114022475Y-69850500D01*
X114162485Y-69812984D01*
X114288015Y-69740509D01*
X114390509Y-69638015D01*
X114462984Y-69512485D01*
X114500500Y-69372475D01*
X114500500Y-69227525D01*
X114462984Y-69087515D01*
X114396565Y-68972475D01*
X114390511Y-68961988D01*
X114390506Y-68961982D01*
X114288017Y-68859493D01*
X114288011Y-68859488D01*
X114162488Y-68787017D01*
X114162489Y-68787017D01*
X114151006Y-68783940D01*
X114022475Y-68749500D01*
X113877525Y-68749500D01*
X113748993Y-68783940D01*
X113737511Y-68787017D01*
X113611988Y-68859488D01*
X113611982Y-68859493D01*
X113509493Y-68961982D01*
X113509488Y-68961988D01*
X113437017Y-69087511D01*
X113437016Y-69087515D01*
X113399500Y-69227525D01*
X97393807Y-69227525D01*
X97430012Y-69092404D01*
X97466377Y-69032746D01*
X97529224Y-69002217D01*
X97549787Y-69000500D01*
X97572472Y-69000500D01*
X97572475Y-69000500D01*
X97712485Y-68962984D01*
X97838015Y-68890509D01*
X97838015Y-68890508D01*
X97845054Y-68886445D01*
X97846525Y-68888994D01*
X97898502Y-68868883D01*
X97966951Y-68882902D01*
X97970816Y-68885041D01*
X98062515Y-68937984D01*
X98202525Y-68975500D01*
X98202528Y-68975500D01*
X98347472Y-68975500D01*
X98347475Y-68975500D01*
X98487485Y-68937984D01*
X98613015Y-68865509D01*
X98715509Y-68763015D01*
X98787984Y-68637485D01*
X98825500Y-68497475D01*
X98825500Y-68352525D01*
X98787984Y-68212515D01*
X98744972Y-68138017D01*
X98715511Y-68086988D01*
X98715506Y-68086982D01*
X98613017Y-67984493D01*
X98613011Y-67984488D01*
X98487488Y-67912017D01*
X98487489Y-67912017D01*
X98479564Y-67909893D01*
X98442889Y-67900066D01*
X98383229Y-67863701D01*
X98352701Y-67800854D01*
X98355208Y-67748201D01*
X98360748Y-67727525D01*
X104659500Y-67727525D01*
X104659500Y-67872475D01*
X104696214Y-68009491D01*
X104697017Y-68012488D01*
X104769488Y-68138011D01*
X104769490Y-68138013D01*
X104769491Y-68138015D01*
X104871985Y-68240509D01*
X104871986Y-68240510D01*
X104871988Y-68240511D01*
X104997511Y-68312982D01*
X104997512Y-68312982D01*
X104997515Y-68312984D01*
X105137525Y-68350500D01*
X105137528Y-68350500D01*
X105282472Y-68350500D01*
X105282475Y-68350500D01*
X105422485Y-68312984D01*
X105548015Y-68240509D01*
X105650509Y-68138015D01*
X105722984Y-68012485D01*
X105760500Y-67872475D01*
X105760500Y-67727525D01*
X105722984Y-67587515D01*
X105694406Y-67538017D01*
X105650511Y-67461988D01*
X105650506Y-67461982D01*
X105548017Y-67359493D01*
X105548011Y-67359488D01*
X105422488Y-67287017D01*
X105422489Y-67287017D01*
X105411006Y-67283940D01*
X105282475Y-67249500D01*
X105137525Y-67249500D01*
X105008993Y-67283940D01*
X104997511Y-67287017D01*
X104871988Y-67359488D01*
X104871982Y-67359493D01*
X104769493Y-67461982D01*
X104769488Y-67461988D01*
X104697017Y-67587511D01*
X104697016Y-67587515D01*
X104659500Y-67727525D01*
X98360748Y-67727525D01*
X98375500Y-67672475D01*
X98375500Y-67527525D01*
X98337984Y-67387515D01*
X98336523Y-67384985D01*
X98265511Y-67261988D01*
X98265506Y-67261982D01*
X98163017Y-67159493D01*
X98163011Y-67159488D01*
X98060018Y-67100025D01*
X99877000Y-67100025D01*
X99877000Y-67244975D01*
X99914516Y-67384985D01*
X99914517Y-67384988D01*
X99986988Y-67510511D01*
X99986990Y-67510513D01*
X99986991Y-67510515D01*
X100089485Y-67613009D01*
X100089486Y-67613010D01*
X100089488Y-67613011D01*
X100215011Y-67685482D01*
X100215012Y-67685482D01*
X100215015Y-67685484D01*
X100355025Y-67723000D01*
X100355028Y-67723000D01*
X100499972Y-67723000D01*
X100499975Y-67723000D01*
X100639985Y-67685484D01*
X100765515Y-67613009D01*
X100868009Y-67510515D01*
X100940484Y-67384985D01*
X100978000Y-67244975D01*
X100978000Y-67100025D01*
X100940484Y-66960015D01*
X100883884Y-66861982D01*
X100868011Y-66834488D01*
X100868006Y-66834482D01*
X100765517Y-66731993D01*
X100765511Y-66731988D01*
X100639988Y-66659517D01*
X100639989Y-66659517D01*
X100602605Y-66649500D01*
X100499975Y-66622000D01*
X100355025Y-66622000D01*
X100252395Y-66649500D01*
X100215011Y-66659517D01*
X100089488Y-66731988D01*
X100089482Y-66731993D01*
X99986993Y-66834482D01*
X99986988Y-66834488D01*
X99914517Y-66960011D01*
X99914516Y-66960015D01*
X99877000Y-67100025D01*
X98060018Y-67100025D01*
X98037488Y-67087017D01*
X98037489Y-67087017D01*
X98026006Y-67083940D01*
X97897475Y-67049500D01*
X97752525Y-67049500D01*
X97623993Y-67083940D01*
X97612511Y-67087017D01*
X97486988Y-67159488D01*
X97486982Y-67159493D01*
X97384493Y-67261982D01*
X97384488Y-67261988D01*
X97312017Y-67387511D01*
X97312016Y-67387515D01*
X97274500Y-67527525D01*
X97274500Y-67672475D01*
X97312016Y-67812485D01*
X97312016Y-67812486D01*
X97313005Y-67816174D01*
X97311342Y-67886024D01*
X97272180Y-67943887D01*
X97255231Y-67955655D01*
X97161985Y-68009491D01*
X97161982Y-68009493D01*
X97059493Y-68111982D01*
X97059488Y-68111988D01*
X96987017Y-68237511D01*
X96986214Y-68240509D01*
X96956199Y-68352527D01*
X96949819Y-68376336D01*
X96913454Y-68435996D01*
X96850606Y-68466525D01*
X96830044Y-68468242D01*
X96807356Y-68468242D01*
X96678824Y-68502682D01*
X96667342Y-68505759D01*
X96541819Y-68578230D01*
X96541813Y-68578235D01*
X96439324Y-68680724D01*
X96439319Y-68680730D01*
X96366848Y-68806253D01*
X96366847Y-68806257D01*
X96329331Y-68946267D01*
X96329331Y-69091217D01*
X96365855Y-69227525D01*
X96366848Y-69231230D01*
X96439319Y-69356753D01*
X96444269Y-69363203D01*
X96442511Y-69364551D01*
X96470457Y-69415730D01*
X96465473Y-69485422D01*
X96423601Y-69541355D01*
X96381386Y-69561862D01*
X96287516Y-69587015D01*
X96287511Y-69587017D01*
X96161988Y-69659488D01*
X96161982Y-69659493D01*
X96059493Y-69761982D01*
X96059488Y-69761988D01*
X95987017Y-69887511D01*
X95987016Y-69887515D01*
X95949500Y-70027525D01*
X85964183Y-70027525D01*
X86067556Y-69513011D01*
X86068735Y-69507747D01*
X86236882Y-68827525D01*
X94049500Y-68827525D01*
X94049500Y-68972475D01*
X94081317Y-69091217D01*
X94087017Y-69112488D01*
X94159488Y-69238011D01*
X94159490Y-69238013D01*
X94159491Y-69238015D01*
X94261985Y-69340509D01*
X94261986Y-69340510D01*
X94261988Y-69340511D01*
X94387511Y-69412982D01*
X94387512Y-69412982D01*
X94387515Y-69412984D01*
X94527525Y-69450500D01*
X94527528Y-69450500D01*
X94672472Y-69450500D01*
X94672475Y-69450500D01*
X94812485Y-69412984D01*
X94938015Y-69340509D01*
X95040509Y-69238015D01*
X95112984Y-69112485D01*
X95150500Y-68972475D01*
X95150500Y-68827525D01*
X95112984Y-68687515D01*
X95109063Y-68680724D01*
X95040511Y-68561988D01*
X95040506Y-68561982D01*
X94938017Y-68459493D01*
X94938011Y-68459488D01*
X94812488Y-68387017D01*
X94812489Y-68387017D01*
X94801006Y-68383940D01*
X94672475Y-68349500D01*
X94527525Y-68349500D01*
X94398993Y-68383940D01*
X94387511Y-68387017D01*
X94261988Y-68459488D01*
X94261982Y-68459493D01*
X94159493Y-68561982D01*
X94159488Y-68561988D01*
X94087017Y-68687511D01*
X94087016Y-68687515D01*
X94049500Y-68827525D01*
X86236882Y-68827525D01*
X86272562Y-68683186D01*
X86273966Y-68678002D01*
X86513906Y-67863251D01*
X86515546Y-67858102D01*
X86766162Y-67127525D01*
X90449500Y-67127525D01*
X90449500Y-67272475D01*
X90487016Y-67412485D01*
X90487017Y-67412488D01*
X90559488Y-67538011D01*
X90559490Y-67538013D01*
X90559491Y-67538015D01*
X90661985Y-67640509D01*
X90661986Y-67640510D01*
X90661988Y-67640511D01*
X90787511Y-67712982D01*
X90787512Y-67712982D01*
X90787515Y-67712984D01*
X90927525Y-67750500D01*
X90927528Y-67750500D01*
X91072472Y-67750500D01*
X91072475Y-67750500D01*
X91212485Y-67712984D01*
X91338015Y-67640509D01*
X91440509Y-67538015D01*
X91512984Y-67412485D01*
X91550500Y-67272475D01*
X91550500Y-67127525D01*
X91512984Y-66987515D01*
X91440509Y-66861985D01*
X91338015Y-66759491D01*
X91338013Y-66759490D01*
X91338011Y-66759488D01*
X91212488Y-66687017D01*
X91212489Y-66687017D01*
X91201006Y-66683940D01*
X91072475Y-66649500D01*
X90927525Y-66649500D01*
X90798993Y-66683940D01*
X90787511Y-66687017D01*
X90661988Y-66759488D01*
X90661982Y-66759493D01*
X90559493Y-66861982D01*
X90559488Y-66861988D01*
X90487017Y-66987511D01*
X90487016Y-66987515D01*
X90449500Y-67127525D01*
X86766162Y-67127525D01*
X86791138Y-67054716D01*
X86792999Y-67049654D01*
X87103719Y-66259164D01*
X87105819Y-66254151D01*
X87451054Y-65478119D01*
X87453335Y-65473282D01*
X87832434Y-64713175D01*
X87834940Y-64708417D01*
X88247132Y-63965783D01*
X88249856Y-63961120D01*
X88694361Y-63237357D01*
X88697277Y-63232836D01*
X89173220Y-62529371D01*
X89176363Y-62524940D01*
X89176374Y-62524925D01*
X89682822Y-61843129D01*
X89686125Y-61838880D01*
X90222170Y-61179985D01*
X90225647Y-61175899D01*
X90790157Y-60541296D01*
X90793846Y-60537328D01*
X91385743Y-59928223D01*
X91389612Y-59924413D01*
X92007789Y-59341948D01*
X92011788Y-59338343D01*
X92655009Y-58783682D01*
X92659193Y-58780231D01*
X93326217Y-58254443D01*
X93330538Y-58251189D01*
X94020086Y-57755282D01*
X94024538Y-57752227D01*
X94735279Y-57287163D01*
X94739839Y-57284321D01*
X95470374Y-56851014D01*
X95475049Y-56848378D01*
X96028199Y-56552413D01*
X96097813Y-56515166D01*
X96156312Y-56500500D01*
X97875500Y-56500500D01*
X97942539Y-56520185D01*
G37*
%TD.AperFunction*%
%TA.AperFunction,Conductor*%
G36*
X90590109Y-81240449D02*
G01*
X90590109Y-81372101D01*
X90624184Y-81499268D01*
X90690010Y-81613282D01*
X90766742Y-81690014D01*
X89835436Y-82028983D01*
X89826765Y-82029533D01*
X89103317Y-82292846D01*
X89108731Y-82272645D01*
X89108731Y-82140993D01*
X89074656Y-82013826D01*
X89008830Y-81899812D01*
X88932096Y-81823078D01*
X89863396Y-81484113D01*
X89872065Y-81483562D01*
X90284863Y-81333316D01*
X90595522Y-81220245D01*
X90590109Y-81240449D01*
G37*
%TD.AperFunction*%
%TD*%
M02*
