%TF.GenerationSoftware,KiCad,Pcbnew,9.0.2-9.0.2-0~ubuntu22.04.1*%
%TF.CreationDate,2025-06-19T17:06:25+10:00*%
%TF.ProjectId,bldc_driver,626c6463-5f64-4726-9976-65722e6b6963,rev?*%
%TF.SameCoordinates,Original*%
%TF.FileFunction,Legend,Top*%
%TF.FilePolarity,Positive*%
%FSLAX46Y46*%
G04 Gerber Fmt 4.6, Leading zero omitted, Abs format (unit mm)*
G04 Created by KiCad (PCBNEW 9.0.2-9.0.2-0~ubuntu22.04.1) date 2025-06-19 17:06:25*
%MOMM*%
%LPD*%
G01*
G04 APERTURE LIST*
%ADD10C,0.100000*%
%ADD11C,0.150000*%
%ADD12C,0.300000*%
%ADD13C,0.400000*%
%ADD14C,0.200000*%
%ADD15C,0.120000*%
%ADD16C,0.152400*%
%ADD17C,0.000000*%
G04 APERTURE END LIST*
D10*
D11*
X177002200Y-166007200D02*
X285002200Y-166007200D01*
X285002200Y-198007200D01*
X177002200Y-198007200D01*
X177002200Y-166007200D01*
D10*
D11*
X10000000Y-10000000D02*
X287002200Y-10000000D01*
X287002200Y-200007200D01*
X10000000Y-200007200D01*
X10000000Y-10000000D01*
D10*
D11*
X12000000Y-12000000D02*
X285002200Y-12000000D01*
X285002200Y-198007200D01*
X12000000Y-198007200D01*
X12000000Y-12000000D01*
D10*
D11*
X60000000Y-12000000D02*
X60000000Y-10000000D01*
D10*
D11*
X110000000Y-12000000D02*
X110000000Y-10000000D01*
D10*
D11*
X160000000Y-12000000D02*
X160000000Y-10000000D01*
D10*
D11*
X210000000Y-12000000D02*
X210000000Y-10000000D01*
D10*
D11*
X260000000Y-12000000D02*
X260000000Y-10000000D01*
D10*
D11*
X36089160Y-11593604D02*
X35346303Y-11593604D01*
X35717731Y-11593604D02*
X35717731Y-10293604D01*
X35717731Y-10293604D02*
X35593922Y-10479319D01*
X35593922Y-10479319D02*
X35470112Y-10603128D01*
X35470112Y-10603128D02*
X35346303Y-10665033D01*
D10*
D11*
X85346303Y-10417414D02*
X85408207Y-10355509D01*
X85408207Y-10355509D02*
X85532017Y-10293604D01*
X85532017Y-10293604D02*
X85841541Y-10293604D01*
X85841541Y-10293604D02*
X85965350Y-10355509D01*
X85965350Y-10355509D02*
X86027255Y-10417414D01*
X86027255Y-10417414D02*
X86089160Y-10541223D01*
X86089160Y-10541223D02*
X86089160Y-10665033D01*
X86089160Y-10665033D02*
X86027255Y-10850747D01*
X86027255Y-10850747D02*
X85284398Y-11593604D01*
X85284398Y-11593604D02*
X86089160Y-11593604D01*
D10*
D11*
X135284398Y-10293604D02*
X136089160Y-10293604D01*
X136089160Y-10293604D02*
X135655826Y-10788842D01*
X135655826Y-10788842D02*
X135841541Y-10788842D01*
X135841541Y-10788842D02*
X135965350Y-10850747D01*
X135965350Y-10850747D02*
X136027255Y-10912652D01*
X136027255Y-10912652D02*
X136089160Y-11036461D01*
X136089160Y-11036461D02*
X136089160Y-11345985D01*
X136089160Y-11345985D02*
X136027255Y-11469795D01*
X136027255Y-11469795D02*
X135965350Y-11531700D01*
X135965350Y-11531700D02*
X135841541Y-11593604D01*
X135841541Y-11593604D02*
X135470112Y-11593604D01*
X135470112Y-11593604D02*
X135346303Y-11531700D01*
X135346303Y-11531700D02*
X135284398Y-11469795D01*
D10*
D11*
X185965350Y-10726938D02*
X185965350Y-11593604D01*
X185655826Y-10231700D02*
X185346303Y-11160271D01*
X185346303Y-11160271D02*
X186151064Y-11160271D01*
D10*
D11*
X236027255Y-10293604D02*
X235408207Y-10293604D01*
X235408207Y-10293604D02*
X235346303Y-10912652D01*
X235346303Y-10912652D02*
X235408207Y-10850747D01*
X235408207Y-10850747D02*
X235532017Y-10788842D01*
X235532017Y-10788842D02*
X235841541Y-10788842D01*
X235841541Y-10788842D02*
X235965350Y-10850747D01*
X235965350Y-10850747D02*
X236027255Y-10912652D01*
X236027255Y-10912652D02*
X236089160Y-11036461D01*
X236089160Y-11036461D02*
X236089160Y-11345985D01*
X236089160Y-11345985D02*
X236027255Y-11469795D01*
X236027255Y-11469795D02*
X235965350Y-11531700D01*
X235965350Y-11531700D02*
X235841541Y-11593604D01*
X235841541Y-11593604D02*
X235532017Y-11593604D01*
X235532017Y-11593604D02*
X235408207Y-11531700D01*
X235408207Y-11531700D02*
X235346303Y-11469795D01*
D10*
D11*
X285965350Y-10293604D02*
X285717731Y-10293604D01*
X285717731Y-10293604D02*
X285593922Y-10355509D01*
X285593922Y-10355509D02*
X285532017Y-10417414D01*
X285532017Y-10417414D02*
X285408207Y-10603128D01*
X285408207Y-10603128D02*
X285346303Y-10850747D01*
X285346303Y-10850747D02*
X285346303Y-11345985D01*
X285346303Y-11345985D02*
X285408207Y-11469795D01*
X285408207Y-11469795D02*
X285470112Y-11531700D01*
X285470112Y-11531700D02*
X285593922Y-11593604D01*
X285593922Y-11593604D02*
X285841541Y-11593604D01*
X285841541Y-11593604D02*
X285965350Y-11531700D01*
X285965350Y-11531700D02*
X286027255Y-11469795D01*
X286027255Y-11469795D02*
X286089160Y-11345985D01*
X286089160Y-11345985D02*
X286089160Y-11036461D01*
X286089160Y-11036461D02*
X286027255Y-10912652D01*
X286027255Y-10912652D02*
X285965350Y-10850747D01*
X285965350Y-10850747D02*
X285841541Y-10788842D01*
X285841541Y-10788842D02*
X285593922Y-10788842D01*
X285593922Y-10788842D02*
X285470112Y-10850747D01*
X285470112Y-10850747D02*
X285408207Y-10912652D01*
X285408207Y-10912652D02*
X285346303Y-11036461D01*
D10*
D11*
X60000000Y-198007200D02*
X60000000Y-200007200D01*
D10*
D11*
X110000000Y-198007200D02*
X110000000Y-200007200D01*
D10*
D11*
X160000000Y-198007200D02*
X160000000Y-200007200D01*
D10*
D11*
X210000000Y-198007200D02*
X210000000Y-200007200D01*
D10*
D11*
X260000000Y-198007200D02*
X260000000Y-200007200D01*
D10*
D11*
X36089160Y-199600804D02*
X35346303Y-199600804D01*
X35717731Y-199600804D02*
X35717731Y-198300804D01*
X35717731Y-198300804D02*
X35593922Y-198486519D01*
X35593922Y-198486519D02*
X35470112Y-198610328D01*
X35470112Y-198610328D02*
X35346303Y-198672233D01*
D10*
D11*
X85346303Y-198424614D02*
X85408207Y-198362709D01*
X85408207Y-198362709D02*
X85532017Y-198300804D01*
X85532017Y-198300804D02*
X85841541Y-198300804D01*
X85841541Y-198300804D02*
X85965350Y-198362709D01*
X85965350Y-198362709D02*
X86027255Y-198424614D01*
X86027255Y-198424614D02*
X86089160Y-198548423D01*
X86089160Y-198548423D02*
X86089160Y-198672233D01*
X86089160Y-198672233D02*
X86027255Y-198857947D01*
X86027255Y-198857947D02*
X85284398Y-199600804D01*
X85284398Y-199600804D02*
X86089160Y-199600804D01*
D10*
D11*
X135284398Y-198300804D02*
X136089160Y-198300804D01*
X136089160Y-198300804D02*
X135655826Y-198796042D01*
X135655826Y-198796042D02*
X135841541Y-198796042D01*
X135841541Y-198796042D02*
X135965350Y-198857947D01*
X135965350Y-198857947D02*
X136027255Y-198919852D01*
X136027255Y-198919852D02*
X136089160Y-199043661D01*
X136089160Y-199043661D02*
X136089160Y-199353185D01*
X136089160Y-199353185D02*
X136027255Y-199476995D01*
X136027255Y-199476995D02*
X135965350Y-199538900D01*
X135965350Y-199538900D02*
X135841541Y-199600804D01*
X135841541Y-199600804D02*
X135470112Y-199600804D01*
X135470112Y-199600804D02*
X135346303Y-199538900D01*
X135346303Y-199538900D02*
X135284398Y-199476995D01*
D10*
D11*
X185965350Y-198734138D02*
X185965350Y-199600804D01*
X185655826Y-198238900D02*
X185346303Y-199167471D01*
X185346303Y-199167471D02*
X186151064Y-199167471D01*
D10*
D11*
X236027255Y-198300804D02*
X235408207Y-198300804D01*
X235408207Y-198300804D02*
X235346303Y-198919852D01*
X235346303Y-198919852D02*
X235408207Y-198857947D01*
X235408207Y-198857947D02*
X235532017Y-198796042D01*
X235532017Y-198796042D02*
X235841541Y-198796042D01*
X235841541Y-198796042D02*
X235965350Y-198857947D01*
X235965350Y-198857947D02*
X236027255Y-198919852D01*
X236027255Y-198919852D02*
X236089160Y-199043661D01*
X236089160Y-199043661D02*
X236089160Y-199353185D01*
X236089160Y-199353185D02*
X236027255Y-199476995D01*
X236027255Y-199476995D02*
X235965350Y-199538900D01*
X235965350Y-199538900D02*
X235841541Y-199600804D01*
X235841541Y-199600804D02*
X235532017Y-199600804D01*
X235532017Y-199600804D02*
X235408207Y-199538900D01*
X235408207Y-199538900D02*
X235346303Y-199476995D01*
D10*
D11*
X285965350Y-198300804D02*
X285717731Y-198300804D01*
X285717731Y-198300804D02*
X285593922Y-198362709D01*
X285593922Y-198362709D02*
X285532017Y-198424614D01*
X285532017Y-198424614D02*
X285408207Y-198610328D01*
X285408207Y-198610328D02*
X285346303Y-198857947D01*
X285346303Y-198857947D02*
X285346303Y-199353185D01*
X285346303Y-199353185D02*
X285408207Y-199476995D01*
X285408207Y-199476995D02*
X285470112Y-199538900D01*
X285470112Y-199538900D02*
X285593922Y-199600804D01*
X285593922Y-199600804D02*
X285841541Y-199600804D01*
X285841541Y-199600804D02*
X285965350Y-199538900D01*
X285965350Y-199538900D02*
X286027255Y-199476995D01*
X286027255Y-199476995D02*
X286089160Y-199353185D01*
X286089160Y-199353185D02*
X286089160Y-199043661D01*
X286089160Y-199043661D02*
X286027255Y-198919852D01*
X286027255Y-198919852D02*
X285965350Y-198857947D01*
X285965350Y-198857947D02*
X285841541Y-198796042D01*
X285841541Y-198796042D02*
X285593922Y-198796042D01*
X285593922Y-198796042D02*
X285470112Y-198857947D01*
X285470112Y-198857947D02*
X285408207Y-198919852D01*
X285408207Y-198919852D02*
X285346303Y-199043661D01*
D10*
D11*
X10000000Y-60000000D02*
X12000000Y-60000000D01*
D10*
D11*
X10000000Y-110000000D02*
X12000000Y-110000000D01*
D10*
D11*
X10000000Y-160000000D02*
X12000000Y-160000000D01*
D10*
D11*
X10690476Y-35222176D02*
X11309523Y-35222176D01*
X10566666Y-35593604D02*
X10999999Y-34293604D01*
X10999999Y-34293604D02*
X11433333Y-35593604D01*
D10*
D11*
X11092857Y-84912652D02*
X11278571Y-84974557D01*
X11278571Y-84974557D02*
X11340476Y-85036461D01*
X11340476Y-85036461D02*
X11402380Y-85160271D01*
X11402380Y-85160271D02*
X11402380Y-85345985D01*
X11402380Y-85345985D02*
X11340476Y-85469795D01*
X11340476Y-85469795D02*
X11278571Y-85531700D01*
X11278571Y-85531700D02*
X11154761Y-85593604D01*
X11154761Y-85593604D02*
X10659523Y-85593604D01*
X10659523Y-85593604D02*
X10659523Y-84293604D01*
X10659523Y-84293604D02*
X11092857Y-84293604D01*
X11092857Y-84293604D02*
X11216666Y-84355509D01*
X11216666Y-84355509D02*
X11278571Y-84417414D01*
X11278571Y-84417414D02*
X11340476Y-84541223D01*
X11340476Y-84541223D02*
X11340476Y-84665033D01*
X11340476Y-84665033D02*
X11278571Y-84788842D01*
X11278571Y-84788842D02*
X11216666Y-84850747D01*
X11216666Y-84850747D02*
X11092857Y-84912652D01*
X11092857Y-84912652D02*
X10659523Y-84912652D01*
D10*
D11*
X11402380Y-135469795D02*
X11340476Y-135531700D01*
X11340476Y-135531700D02*
X11154761Y-135593604D01*
X11154761Y-135593604D02*
X11030952Y-135593604D01*
X11030952Y-135593604D02*
X10845238Y-135531700D01*
X10845238Y-135531700D02*
X10721428Y-135407890D01*
X10721428Y-135407890D02*
X10659523Y-135284080D01*
X10659523Y-135284080D02*
X10597619Y-135036461D01*
X10597619Y-135036461D02*
X10597619Y-134850747D01*
X10597619Y-134850747D02*
X10659523Y-134603128D01*
X10659523Y-134603128D02*
X10721428Y-134479319D01*
X10721428Y-134479319D02*
X10845238Y-134355509D01*
X10845238Y-134355509D02*
X11030952Y-134293604D01*
X11030952Y-134293604D02*
X11154761Y-134293604D01*
X11154761Y-134293604D02*
X11340476Y-134355509D01*
X11340476Y-134355509D02*
X11402380Y-134417414D01*
D10*
D11*
X10659523Y-185593604D02*
X10659523Y-184293604D01*
X10659523Y-184293604D02*
X10969047Y-184293604D01*
X10969047Y-184293604D02*
X11154761Y-184355509D01*
X11154761Y-184355509D02*
X11278571Y-184479319D01*
X11278571Y-184479319D02*
X11340476Y-184603128D01*
X11340476Y-184603128D02*
X11402380Y-184850747D01*
X11402380Y-184850747D02*
X11402380Y-185036461D01*
X11402380Y-185036461D02*
X11340476Y-185284080D01*
X11340476Y-185284080D02*
X11278571Y-185407890D01*
X11278571Y-185407890D02*
X11154761Y-185531700D01*
X11154761Y-185531700D02*
X10969047Y-185593604D01*
X10969047Y-185593604D02*
X10659523Y-185593604D01*
D10*
D11*
X287002200Y-60000000D02*
X285002200Y-60000000D01*
D10*
D11*
X287002200Y-110000000D02*
X285002200Y-110000000D01*
D10*
D11*
X287002200Y-160000000D02*
X285002200Y-160000000D01*
D10*
D11*
X285692676Y-35222176D02*
X286311723Y-35222176D01*
X285568866Y-35593604D02*
X286002199Y-34293604D01*
X286002199Y-34293604D02*
X286435533Y-35593604D01*
D10*
D11*
X286095057Y-84912652D02*
X286280771Y-84974557D01*
X286280771Y-84974557D02*
X286342676Y-85036461D01*
X286342676Y-85036461D02*
X286404580Y-85160271D01*
X286404580Y-85160271D02*
X286404580Y-85345985D01*
X286404580Y-85345985D02*
X286342676Y-85469795D01*
X286342676Y-85469795D02*
X286280771Y-85531700D01*
X286280771Y-85531700D02*
X286156961Y-85593604D01*
X286156961Y-85593604D02*
X285661723Y-85593604D01*
X285661723Y-85593604D02*
X285661723Y-84293604D01*
X285661723Y-84293604D02*
X286095057Y-84293604D01*
X286095057Y-84293604D02*
X286218866Y-84355509D01*
X286218866Y-84355509D02*
X286280771Y-84417414D01*
X286280771Y-84417414D02*
X286342676Y-84541223D01*
X286342676Y-84541223D02*
X286342676Y-84665033D01*
X286342676Y-84665033D02*
X286280771Y-84788842D01*
X286280771Y-84788842D02*
X286218866Y-84850747D01*
X286218866Y-84850747D02*
X286095057Y-84912652D01*
X286095057Y-84912652D02*
X285661723Y-84912652D01*
D10*
D11*
X286404580Y-135469795D02*
X286342676Y-135531700D01*
X286342676Y-135531700D02*
X286156961Y-135593604D01*
X286156961Y-135593604D02*
X286033152Y-135593604D01*
X286033152Y-135593604D02*
X285847438Y-135531700D01*
X285847438Y-135531700D02*
X285723628Y-135407890D01*
X285723628Y-135407890D02*
X285661723Y-135284080D01*
X285661723Y-135284080D02*
X285599819Y-135036461D01*
X285599819Y-135036461D02*
X285599819Y-134850747D01*
X285599819Y-134850747D02*
X285661723Y-134603128D01*
X285661723Y-134603128D02*
X285723628Y-134479319D01*
X285723628Y-134479319D02*
X285847438Y-134355509D01*
X285847438Y-134355509D02*
X286033152Y-134293604D01*
X286033152Y-134293604D02*
X286156961Y-134293604D01*
X286156961Y-134293604D02*
X286342676Y-134355509D01*
X286342676Y-134355509D02*
X286404580Y-134417414D01*
D10*
D11*
X285661723Y-185593604D02*
X285661723Y-184293604D01*
X285661723Y-184293604D02*
X285971247Y-184293604D01*
X285971247Y-184293604D02*
X286156961Y-184355509D01*
X286156961Y-184355509D02*
X286280771Y-184479319D01*
X286280771Y-184479319D02*
X286342676Y-184603128D01*
X286342676Y-184603128D02*
X286404580Y-184850747D01*
X286404580Y-184850747D02*
X286404580Y-185036461D01*
X286404580Y-185036461D02*
X286342676Y-185284080D01*
X286342676Y-185284080D02*
X286280771Y-185407890D01*
X286280771Y-185407890D02*
X286156961Y-185531700D01*
X286156961Y-185531700D02*
X285971247Y-185593604D01*
X285971247Y-185593604D02*
X285661723Y-185593604D01*
D10*
D11*
X200458026Y-193793328D02*
X200458026Y-192293328D01*
X200458026Y-192293328D02*
X200815169Y-192293328D01*
X200815169Y-192293328D02*
X201029455Y-192364757D01*
X201029455Y-192364757D02*
X201172312Y-192507614D01*
X201172312Y-192507614D02*
X201243741Y-192650471D01*
X201243741Y-192650471D02*
X201315169Y-192936185D01*
X201315169Y-192936185D02*
X201315169Y-193150471D01*
X201315169Y-193150471D02*
X201243741Y-193436185D01*
X201243741Y-193436185D02*
X201172312Y-193579042D01*
X201172312Y-193579042D02*
X201029455Y-193721900D01*
X201029455Y-193721900D02*
X200815169Y-193793328D01*
X200815169Y-193793328D02*
X200458026Y-193793328D01*
X202600884Y-193793328D02*
X202600884Y-193007614D01*
X202600884Y-193007614D02*
X202529455Y-192864757D01*
X202529455Y-192864757D02*
X202386598Y-192793328D01*
X202386598Y-192793328D02*
X202100884Y-192793328D01*
X202100884Y-192793328D02*
X201958026Y-192864757D01*
X202600884Y-193721900D02*
X202458026Y-193793328D01*
X202458026Y-193793328D02*
X202100884Y-193793328D01*
X202100884Y-193793328D02*
X201958026Y-193721900D01*
X201958026Y-193721900D02*
X201886598Y-193579042D01*
X201886598Y-193579042D02*
X201886598Y-193436185D01*
X201886598Y-193436185D02*
X201958026Y-193293328D01*
X201958026Y-193293328D02*
X202100884Y-193221900D01*
X202100884Y-193221900D02*
X202458026Y-193221900D01*
X202458026Y-193221900D02*
X202600884Y-193150471D01*
X203100884Y-192793328D02*
X203672312Y-192793328D01*
X203315169Y-192293328D02*
X203315169Y-193579042D01*
X203315169Y-193579042D02*
X203386598Y-193721900D01*
X203386598Y-193721900D02*
X203529455Y-193793328D01*
X203529455Y-193793328D02*
X203672312Y-193793328D01*
X204743741Y-193721900D02*
X204600884Y-193793328D01*
X204600884Y-193793328D02*
X204315170Y-193793328D01*
X204315170Y-193793328D02*
X204172312Y-193721900D01*
X204172312Y-193721900D02*
X204100884Y-193579042D01*
X204100884Y-193579042D02*
X204100884Y-193007614D01*
X204100884Y-193007614D02*
X204172312Y-192864757D01*
X204172312Y-192864757D02*
X204315170Y-192793328D01*
X204315170Y-192793328D02*
X204600884Y-192793328D01*
X204600884Y-192793328D02*
X204743741Y-192864757D01*
X204743741Y-192864757D02*
X204815170Y-193007614D01*
X204815170Y-193007614D02*
X204815170Y-193150471D01*
X204815170Y-193150471D02*
X204100884Y-193293328D01*
X205458026Y-193650471D02*
X205529455Y-193721900D01*
X205529455Y-193721900D02*
X205458026Y-193793328D01*
X205458026Y-193793328D02*
X205386598Y-193721900D01*
X205386598Y-193721900D02*
X205458026Y-193650471D01*
X205458026Y-193650471D02*
X205458026Y-193793328D01*
X205458026Y-192864757D02*
X205529455Y-192936185D01*
X205529455Y-192936185D02*
X205458026Y-193007614D01*
X205458026Y-193007614D02*
X205386598Y-192936185D01*
X205386598Y-192936185D02*
X205458026Y-192864757D01*
X205458026Y-192864757D02*
X205458026Y-193007614D01*
D10*
D11*
X177002200Y-194507200D02*
X285002200Y-194507200D01*
D10*
D11*
X178458026Y-196593328D02*
X178458026Y-195093328D01*
X179315169Y-196593328D02*
X178672312Y-195736185D01*
X179315169Y-195093328D02*
X178458026Y-195950471D01*
X179958026Y-196593328D02*
X179958026Y-195593328D01*
X179958026Y-195093328D02*
X179886598Y-195164757D01*
X179886598Y-195164757D02*
X179958026Y-195236185D01*
X179958026Y-195236185D02*
X180029455Y-195164757D01*
X180029455Y-195164757D02*
X179958026Y-195093328D01*
X179958026Y-195093328D02*
X179958026Y-195236185D01*
X181529455Y-196450471D02*
X181458027Y-196521900D01*
X181458027Y-196521900D02*
X181243741Y-196593328D01*
X181243741Y-196593328D02*
X181100884Y-196593328D01*
X181100884Y-196593328D02*
X180886598Y-196521900D01*
X180886598Y-196521900D02*
X180743741Y-196379042D01*
X180743741Y-196379042D02*
X180672312Y-196236185D01*
X180672312Y-196236185D02*
X180600884Y-195950471D01*
X180600884Y-195950471D02*
X180600884Y-195736185D01*
X180600884Y-195736185D02*
X180672312Y-195450471D01*
X180672312Y-195450471D02*
X180743741Y-195307614D01*
X180743741Y-195307614D02*
X180886598Y-195164757D01*
X180886598Y-195164757D02*
X181100884Y-195093328D01*
X181100884Y-195093328D02*
X181243741Y-195093328D01*
X181243741Y-195093328D02*
X181458027Y-195164757D01*
X181458027Y-195164757D02*
X181529455Y-195236185D01*
X182815170Y-196593328D02*
X182815170Y-195807614D01*
X182815170Y-195807614D02*
X182743741Y-195664757D01*
X182743741Y-195664757D02*
X182600884Y-195593328D01*
X182600884Y-195593328D02*
X182315170Y-195593328D01*
X182315170Y-195593328D02*
X182172312Y-195664757D01*
X182815170Y-196521900D02*
X182672312Y-196593328D01*
X182672312Y-196593328D02*
X182315170Y-196593328D01*
X182315170Y-196593328D02*
X182172312Y-196521900D01*
X182172312Y-196521900D02*
X182100884Y-196379042D01*
X182100884Y-196379042D02*
X182100884Y-196236185D01*
X182100884Y-196236185D02*
X182172312Y-196093328D01*
X182172312Y-196093328D02*
X182315170Y-196021900D01*
X182315170Y-196021900D02*
X182672312Y-196021900D01*
X182672312Y-196021900D02*
X182815170Y-195950471D01*
X184172313Y-196593328D02*
X184172313Y-195093328D01*
X184172313Y-196521900D02*
X184029455Y-196593328D01*
X184029455Y-196593328D02*
X183743741Y-196593328D01*
X183743741Y-196593328D02*
X183600884Y-196521900D01*
X183600884Y-196521900D02*
X183529455Y-196450471D01*
X183529455Y-196450471D02*
X183458027Y-196307614D01*
X183458027Y-196307614D02*
X183458027Y-195879042D01*
X183458027Y-195879042D02*
X183529455Y-195736185D01*
X183529455Y-195736185D02*
X183600884Y-195664757D01*
X183600884Y-195664757D02*
X183743741Y-195593328D01*
X183743741Y-195593328D02*
X184029455Y-195593328D01*
X184029455Y-195593328D02*
X184172313Y-195664757D01*
X186029455Y-195807614D02*
X186529455Y-195807614D01*
X186743741Y-196593328D02*
X186029455Y-196593328D01*
X186029455Y-196593328D02*
X186029455Y-195093328D01*
X186029455Y-195093328D02*
X186743741Y-195093328D01*
X187386598Y-196450471D02*
X187458027Y-196521900D01*
X187458027Y-196521900D02*
X187386598Y-196593328D01*
X187386598Y-196593328D02*
X187315170Y-196521900D01*
X187315170Y-196521900D02*
X187386598Y-196450471D01*
X187386598Y-196450471D02*
X187386598Y-196593328D01*
X188100884Y-196593328D02*
X188100884Y-195093328D01*
X188100884Y-195093328D02*
X188458027Y-195093328D01*
X188458027Y-195093328D02*
X188672313Y-195164757D01*
X188672313Y-195164757D02*
X188815170Y-195307614D01*
X188815170Y-195307614D02*
X188886599Y-195450471D01*
X188886599Y-195450471D02*
X188958027Y-195736185D01*
X188958027Y-195736185D02*
X188958027Y-195950471D01*
X188958027Y-195950471D02*
X188886599Y-196236185D01*
X188886599Y-196236185D02*
X188815170Y-196379042D01*
X188815170Y-196379042D02*
X188672313Y-196521900D01*
X188672313Y-196521900D02*
X188458027Y-196593328D01*
X188458027Y-196593328D02*
X188100884Y-196593328D01*
X189600884Y-196450471D02*
X189672313Y-196521900D01*
X189672313Y-196521900D02*
X189600884Y-196593328D01*
X189600884Y-196593328D02*
X189529456Y-196521900D01*
X189529456Y-196521900D02*
X189600884Y-196450471D01*
X189600884Y-196450471D02*
X189600884Y-196593328D01*
X190243742Y-196164757D02*
X190958028Y-196164757D01*
X190100885Y-196593328D02*
X190600885Y-195093328D01*
X190600885Y-195093328D02*
X191100885Y-196593328D01*
X191600884Y-196450471D02*
X191672313Y-196521900D01*
X191672313Y-196521900D02*
X191600884Y-196593328D01*
X191600884Y-196593328D02*
X191529456Y-196521900D01*
X191529456Y-196521900D02*
X191600884Y-196450471D01*
X191600884Y-196450471D02*
X191600884Y-196593328D01*
X193529456Y-196593328D02*
X193815170Y-196593328D01*
X193815170Y-196593328D02*
X193958027Y-196521900D01*
X193958027Y-196521900D02*
X194029456Y-196450471D01*
X194029456Y-196450471D02*
X194172313Y-196236185D01*
X194172313Y-196236185D02*
X194243742Y-195950471D01*
X194243742Y-195950471D02*
X194243742Y-195379042D01*
X194243742Y-195379042D02*
X194172313Y-195236185D01*
X194172313Y-195236185D02*
X194100885Y-195164757D01*
X194100885Y-195164757D02*
X193958027Y-195093328D01*
X193958027Y-195093328D02*
X193672313Y-195093328D01*
X193672313Y-195093328D02*
X193529456Y-195164757D01*
X193529456Y-195164757D02*
X193458027Y-195236185D01*
X193458027Y-195236185D02*
X193386599Y-195379042D01*
X193386599Y-195379042D02*
X193386599Y-195736185D01*
X193386599Y-195736185D02*
X193458027Y-195879042D01*
X193458027Y-195879042D02*
X193529456Y-195950471D01*
X193529456Y-195950471D02*
X193672313Y-196021900D01*
X193672313Y-196021900D02*
X193958027Y-196021900D01*
X193958027Y-196021900D02*
X194100885Y-195950471D01*
X194100885Y-195950471D02*
X194172313Y-195879042D01*
X194172313Y-195879042D02*
X194243742Y-195736185D01*
X194886598Y-196450471D02*
X194958027Y-196521900D01*
X194958027Y-196521900D02*
X194886598Y-196593328D01*
X194886598Y-196593328D02*
X194815170Y-196521900D01*
X194815170Y-196521900D02*
X194886598Y-196450471D01*
X194886598Y-196450471D02*
X194886598Y-196593328D01*
X195886599Y-195093328D02*
X196029456Y-195093328D01*
X196029456Y-195093328D02*
X196172313Y-195164757D01*
X196172313Y-195164757D02*
X196243742Y-195236185D01*
X196243742Y-195236185D02*
X196315170Y-195379042D01*
X196315170Y-195379042D02*
X196386599Y-195664757D01*
X196386599Y-195664757D02*
X196386599Y-196021900D01*
X196386599Y-196021900D02*
X196315170Y-196307614D01*
X196315170Y-196307614D02*
X196243742Y-196450471D01*
X196243742Y-196450471D02*
X196172313Y-196521900D01*
X196172313Y-196521900D02*
X196029456Y-196593328D01*
X196029456Y-196593328D02*
X195886599Y-196593328D01*
X195886599Y-196593328D02*
X195743742Y-196521900D01*
X195743742Y-196521900D02*
X195672313Y-196450471D01*
X195672313Y-196450471D02*
X195600884Y-196307614D01*
X195600884Y-196307614D02*
X195529456Y-196021900D01*
X195529456Y-196021900D02*
X195529456Y-195664757D01*
X195529456Y-195664757D02*
X195600884Y-195379042D01*
X195600884Y-195379042D02*
X195672313Y-195236185D01*
X195672313Y-195236185D02*
X195743742Y-195164757D01*
X195743742Y-195164757D02*
X195886599Y-195093328D01*
X197029455Y-196450471D02*
X197100884Y-196521900D01*
X197100884Y-196521900D02*
X197029455Y-196593328D01*
X197029455Y-196593328D02*
X196958027Y-196521900D01*
X196958027Y-196521900D02*
X197029455Y-196450471D01*
X197029455Y-196450471D02*
X197029455Y-196593328D01*
X197672313Y-195236185D02*
X197743741Y-195164757D01*
X197743741Y-195164757D02*
X197886599Y-195093328D01*
X197886599Y-195093328D02*
X198243741Y-195093328D01*
X198243741Y-195093328D02*
X198386599Y-195164757D01*
X198386599Y-195164757D02*
X198458027Y-195236185D01*
X198458027Y-195236185D02*
X198529456Y-195379042D01*
X198529456Y-195379042D02*
X198529456Y-195521900D01*
X198529456Y-195521900D02*
X198458027Y-195736185D01*
X198458027Y-195736185D02*
X197600884Y-196593328D01*
X197600884Y-196593328D02*
X198529456Y-196593328D01*
D10*
D11*
X177002200Y-191507200D02*
X285002200Y-191507200D01*
D10*
D12*
X264413853Y-193785528D02*
X263913853Y-193071242D01*
X263556710Y-193785528D02*
X263556710Y-192285528D01*
X263556710Y-192285528D02*
X264128139Y-192285528D01*
X264128139Y-192285528D02*
X264270996Y-192356957D01*
X264270996Y-192356957D02*
X264342425Y-192428385D01*
X264342425Y-192428385D02*
X264413853Y-192571242D01*
X264413853Y-192571242D02*
X264413853Y-192785528D01*
X264413853Y-192785528D02*
X264342425Y-192928385D01*
X264342425Y-192928385D02*
X264270996Y-192999814D01*
X264270996Y-192999814D02*
X264128139Y-193071242D01*
X264128139Y-193071242D02*
X263556710Y-193071242D01*
X265628139Y-193714100D02*
X265485282Y-193785528D01*
X265485282Y-193785528D02*
X265199568Y-193785528D01*
X265199568Y-193785528D02*
X265056710Y-193714100D01*
X265056710Y-193714100D02*
X264985282Y-193571242D01*
X264985282Y-193571242D02*
X264985282Y-192999814D01*
X264985282Y-192999814D02*
X265056710Y-192856957D01*
X265056710Y-192856957D02*
X265199568Y-192785528D01*
X265199568Y-192785528D02*
X265485282Y-192785528D01*
X265485282Y-192785528D02*
X265628139Y-192856957D01*
X265628139Y-192856957D02*
X265699568Y-192999814D01*
X265699568Y-192999814D02*
X265699568Y-193142671D01*
X265699568Y-193142671D02*
X264985282Y-193285528D01*
X266199567Y-192785528D02*
X266556710Y-193785528D01*
X266556710Y-193785528D02*
X266913853Y-192785528D01*
X267485281Y-193642671D02*
X267556710Y-193714100D01*
X267556710Y-193714100D02*
X267485281Y-193785528D01*
X267485281Y-193785528D02*
X267413853Y-193714100D01*
X267413853Y-193714100D02*
X267485281Y-193642671D01*
X267485281Y-193642671D02*
X267485281Y-193785528D01*
X267485281Y-192856957D02*
X267556710Y-192928385D01*
X267556710Y-192928385D02*
X267485281Y-192999814D01*
X267485281Y-192999814D02*
X267413853Y-192928385D01*
X267413853Y-192928385D02*
X267485281Y-192856957D01*
X267485281Y-192856957D02*
X267485281Y-192999814D01*
D10*
D11*
X178386598Y-193721900D02*
X178600884Y-193793328D01*
X178600884Y-193793328D02*
X178958026Y-193793328D01*
X178958026Y-193793328D02*
X179100884Y-193721900D01*
X179100884Y-193721900D02*
X179172312Y-193650471D01*
X179172312Y-193650471D02*
X179243741Y-193507614D01*
X179243741Y-193507614D02*
X179243741Y-193364757D01*
X179243741Y-193364757D02*
X179172312Y-193221900D01*
X179172312Y-193221900D02*
X179100884Y-193150471D01*
X179100884Y-193150471D02*
X178958026Y-193079042D01*
X178958026Y-193079042D02*
X178672312Y-193007614D01*
X178672312Y-193007614D02*
X178529455Y-192936185D01*
X178529455Y-192936185D02*
X178458026Y-192864757D01*
X178458026Y-192864757D02*
X178386598Y-192721900D01*
X178386598Y-192721900D02*
X178386598Y-192579042D01*
X178386598Y-192579042D02*
X178458026Y-192436185D01*
X178458026Y-192436185D02*
X178529455Y-192364757D01*
X178529455Y-192364757D02*
X178672312Y-192293328D01*
X178672312Y-192293328D02*
X179029455Y-192293328D01*
X179029455Y-192293328D02*
X179243741Y-192364757D01*
X179886597Y-193793328D02*
X179886597Y-192793328D01*
X179886597Y-192293328D02*
X179815169Y-192364757D01*
X179815169Y-192364757D02*
X179886597Y-192436185D01*
X179886597Y-192436185D02*
X179958026Y-192364757D01*
X179958026Y-192364757D02*
X179886597Y-192293328D01*
X179886597Y-192293328D02*
X179886597Y-192436185D01*
X180458026Y-192793328D02*
X181243741Y-192793328D01*
X181243741Y-192793328D02*
X180458026Y-193793328D01*
X180458026Y-193793328D02*
X181243741Y-193793328D01*
X182386598Y-193721900D02*
X182243741Y-193793328D01*
X182243741Y-193793328D02*
X181958027Y-193793328D01*
X181958027Y-193793328D02*
X181815169Y-193721900D01*
X181815169Y-193721900D02*
X181743741Y-193579042D01*
X181743741Y-193579042D02*
X181743741Y-193007614D01*
X181743741Y-193007614D02*
X181815169Y-192864757D01*
X181815169Y-192864757D02*
X181958027Y-192793328D01*
X181958027Y-192793328D02*
X182243741Y-192793328D01*
X182243741Y-192793328D02*
X182386598Y-192864757D01*
X182386598Y-192864757D02*
X182458027Y-193007614D01*
X182458027Y-193007614D02*
X182458027Y-193150471D01*
X182458027Y-193150471D02*
X181743741Y-193293328D01*
X183100883Y-193650471D02*
X183172312Y-193721900D01*
X183172312Y-193721900D02*
X183100883Y-193793328D01*
X183100883Y-193793328D02*
X183029455Y-193721900D01*
X183029455Y-193721900D02*
X183100883Y-193650471D01*
X183100883Y-193650471D02*
X183100883Y-193793328D01*
X183100883Y-192864757D02*
X183172312Y-192936185D01*
X183172312Y-192936185D02*
X183100883Y-193007614D01*
X183100883Y-193007614D02*
X183029455Y-192936185D01*
X183029455Y-192936185D02*
X183100883Y-192864757D01*
X183100883Y-192864757D02*
X183100883Y-193007614D01*
X184886598Y-193364757D02*
X185600884Y-193364757D01*
X184743741Y-193793328D02*
X185243741Y-192293328D01*
X185243741Y-192293328D02*
X185743741Y-193793328D01*
X186886598Y-192793328D02*
X186886598Y-193793328D01*
X186529455Y-192221900D02*
X186172312Y-193293328D01*
X186172312Y-193293328D02*
X187100883Y-193293328D01*
D10*
D11*
X263458026Y-196593328D02*
X263458026Y-195093328D01*
X264815170Y-196593328D02*
X264815170Y-195093328D01*
X264815170Y-196521900D02*
X264672312Y-196593328D01*
X264672312Y-196593328D02*
X264386598Y-196593328D01*
X264386598Y-196593328D02*
X264243741Y-196521900D01*
X264243741Y-196521900D02*
X264172312Y-196450471D01*
X264172312Y-196450471D02*
X264100884Y-196307614D01*
X264100884Y-196307614D02*
X264100884Y-195879042D01*
X264100884Y-195879042D02*
X264172312Y-195736185D01*
X264172312Y-195736185D02*
X264243741Y-195664757D01*
X264243741Y-195664757D02*
X264386598Y-195593328D01*
X264386598Y-195593328D02*
X264672312Y-195593328D01*
X264672312Y-195593328D02*
X264815170Y-195664757D01*
X265529455Y-196450471D02*
X265600884Y-196521900D01*
X265600884Y-196521900D02*
X265529455Y-196593328D01*
X265529455Y-196593328D02*
X265458027Y-196521900D01*
X265458027Y-196521900D02*
X265529455Y-196450471D01*
X265529455Y-196450471D02*
X265529455Y-196593328D01*
X265529455Y-195664757D02*
X265600884Y-195736185D01*
X265600884Y-195736185D02*
X265529455Y-195807614D01*
X265529455Y-195807614D02*
X265458027Y-195736185D01*
X265458027Y-195736185D02*
X265529455Y-195664757D01*
X265529455Y-195664757D02*
X265529455Y-195807614D01*
X267243741Y-195093328D02*
X268243741Y-195093328D01*
X268243741Y-195093328D02*
X267600884Y-196593328D01*
X269886598Y-195021900D02*
X268600884Y-196950471D01*
X271172313Y-196593328D02*
X270315170Y-196593328D01*
X270743741Y-196593328D02*
X270743741Y-195093328D01*
X270743741Y-195093328D02*
X270600884Y-195307614D01*
X270600884Y-195307614D02*
X270458027Y-195450471D01*
X270458027Y-195450471D02*
X270315170Y-195521900D01*
X272600884Y-196593328D02*
X271743741Y-196593328D01*
X272172312Y-196593328D02*
X272172312Y-195093328D01*
X272172312Y-195093328D02*
X272029455Y-195307614D01*
X272029455Y-195307614D02*
X271886598Y-195450471D01*
X271886598Y-195450471D02*
X271743741Y-195521900D01*
D10*
D11*
X177002200Y-187507200D02*
X285002200Y-187507200D01*
D10*
D13*
X178693928Y-188211638D02*
X179836785Y-188211638D01*
X179015357Y-190211638D02*
X179265357Y-188211638D01*
X180253452Y-190211638D02*
X180420119Y-188878304D01*
X180503452Y-188211638D02*
X180396309Y-188306876D01*
X180396309Y-188306876D02*
X180479643Y-188402114D01*
X180479643Y-188402114D02*
X180586786Y-188306876D01*
X180586786Y-188306876D02*
X180503452Y-188211638D01*
X180503452Y-188211638D02*
X180479643Y-188402114D01*
X181086786Y-188878304D02*
X181848690Y-188878304D01*
X181455833Y-188211638D02*
X181241548Y-189925923D01*
X181241548Y-189925923D02*
X181312976Y-190116400D01*
X181312976Y-190116400D02*
X181491548Y-190211638D01*
X181491548Y-190211638D02*
X181682024Y-190211638D01*
X182634405Y-190211638D02*
X182455833Y-190116400D01*
X182455833Y-190116400D02*
X182384405Y-189925923D01*
X182384405Y-189925923D02*
X182598690Y-188211638D01*
X184170119Y-190116400D02*
X183967738Y-190211638D01*
X183967738Y-190211638D02*
X183586785Y-190211638D01*
X183586785Y-190211638D02*
X183408214Y-190116400D01*
X183408214Y-190116400D02*
X183336785Y-189925923D01*
X183336785Y-189925923D02*
X183432024Y-189164019D01*
X183432024Y-189164019D02*
X183551071Y-188973542D01*
X183551071Y-188973542D02*
X183753452Y-188878304D01*
X183753452Y-188878304D02*
X184134404Y-188878304D01*
X184134404Y-188878304D02*
X184312976Y-188973542D01*
X184312976Y-188973542D02*
X184384404Y-189164019D01*
X184384404Y-189164019D02*
X184360595Y-189354495D01*
X184360595Y-189354495D02*
X183384404Y-189544971D01*
X185134405Y-190021161D02*
X185217738Y-190116400D01*
X185217738Y-190116400D02*
X185110595Y-190211638D01*
X185110595Y-190211638D02*
X185027262Y-190116400D01*
X185027262Y-190116400D02*
X185134405Y-190021161D01*
X185134405Y-190021161D02*
X185110595Y-190211638D01*
X185265357Y-188973542D02*
X185348690Y-189068780D01*
X185348690Y-189068780D02*
X185241548Y-189164019D01*
X185241548Y-189164019D02*
X185158214Y-189068780D01*
X185158214Y-189068780D02*
X185265357Y-188973542D01*
X185265357Y-188973542D02*
X185241548Y-189164019D01*
D10*
D11*
X178958026Y-185607614D02*
X178458026Y-185607614D01*
X178458026Y-186393328D02*
X178458026Y-184893328D01*
X178458026Y-184893328D02*
X179172312Y-184893328D01*
X179743740Y-186393328D02*
X179743740Y-185393328D01*
X179743740Y-184893328D02*
X179672312Y-184964757D01*
X179672312Y-184964757D02*
X179743740Y-185036185D01*
X179743740Y-185036185D02*
X179815169Y-184964757D01*
X179815169Y-184964757D02*
X179743740Y-184893328D01*
X179743740Y-184893328D02*
X179743740Y-185036185D01*
X180672312Y-186393328D02*
X180529455Y-186321900D01*
X180529455Y-186321900D02*
X180458026Y-186179042D01*
X180458026Y-186179042D02*
X180458026Y-184893328D01*
X181815169Y-186321900D02*
X181672312Y-186393328D01*
X181672312Y-186393328D02*
X181386598Y-186393328D01*
X181386598Y-186393328D02*
X181243740Y-186321900D01*
X181243740Y-186321900D02*
X181172312Y-186179042D01*
X181172312Y-186179042D02*
X181172312Y-185607614D01*
X181172312Y-185607614D02*
X181243740Y-185464757D01*
X181243740Y-185464757D02*
X181386598Y-185393328D01*
X181386598Y-185393328D02*
X181672312Y-185393328D01*
X181672312Y-185393328D02*
X181815169Y-185464757D01*
X181815169Y-185464757D02*
X181886598Y-185607614D01*
X181886598Y-185607614D02*
X181886598Y-185750471D01*
X181886598Y-185750471D02*
X181172312Y-185893328D01*
X182529454Y-186250471D02*
X182600883Y-186321900D01*
X182600883Y-186321900D02*
X182529454Y-186393328D01*
X182529454Y-186393328D02*
X182458026Y-186321900D01*
X182458026Y-186321900D02*
X182529454Y-186250471D01*
X182529454Y-186250471D02*
X182529454Y-186393328D01*
X182529454Y-185464757D02*
X182600883Y-185536185D01*
X182600883Y-185536185D02*
X182529454Y-185607614D01*
X182529454Y-185607614D02*
X182458026Y-185536185D01*
X182458026Y-185536185D02*
X182529454Y-185464757D01*
X182529454Y-185464757D02*
X182529454Y-185607614D01*
X184386597Y-186393328D02*
X184386597Y-184893328D01*
X184386597Y-185464757D02*
X184529455Y-185393328D01*
X184529455Y-185393328D02*
X184815169Y-185393328D01*
X184815169Y-185393328D02*
X184958026Y-185464757D01*
X184958026Y-185464757D02*
X185029455Y-185536185D01*
X185029455Y-185536185D02*
X185100883Y-185679042D01*
X185100883Y-185679042D02*
X185100883Y-186107614D01*
X185100883Y-186107614D02*
X185029455Y-186250471D01*
X185029455Y-186250471D02*
X184958026Y-186321900D01*
X184958026Y-186321900D02*
X184815169Y-186393328D01*
X184815169Y-186393328D02*
X184529455Y-186393328D01*
X184529455Y-186393328D02*
X184386597Y-186321900D01*
X185958026Y-186393328D02*
X185815169Y-186321900D01*
X185815169Y-186321900D02*
X185743740Y-186179042D01*
X185743740Y-186179042D02*
X185743740Y-184893328D01*
X187172312Y-186393328D02*
X187172312Y-184893328D01*
X187172312Y-186321900D02*
X187029454Y-186393328D01*
X187029454Y-186393328D02*
X186743740Y-186393328D01*
X186743740Y-186393328D02*
X186600883Y-186321900D01*
X186600883Y-186321900D02*
X186529454Y-186250471D01*
X186529454Y-186250471D02*
X186458026Y-186107614D01*
X186458026Y-186107614D02*
X186458026Y-185679042D01*
X186458026Y-185679042D02*
X186529454Y-185536185D01*
X186529454Y-185536185D02*
X186600883Y-185464757D01*
X186600883Y-185464757D02*
X186743740Y-185393328D01*
X186743740Y-185393328D02*
X187029454Y-185393328D01*
X187029454Y-185393328D02*
X187172312Y-185464757D01*
X188529455Y-186321900D02*
X188386597Y-186393328D01*
X188386597Y-186393328D02*
X188100883Y-186393328D01*
X188100883Y-186393328D02*
X187958026Y-186321900D01*
X187958026Y-186321900D02*
X187886597Y-186250471D01*
X187886597Y-186250471D02*
X187815169Y-186107614D01*
X187815169Y-186107614D02*
X187815169Y-185679042D01*
X187815169Y-185679042D02*
X187886597Y-185536185D01*
X187886597Y-185536185D02*
X187958026Y-185464757D01*
X187958026Y-185464757D02*
X188100883Y-185393328D01*
X188100883Y-185393328D02*
X188386597Y-185393328D01*
X188386597Y-185393328D02*
X188529455Y-185464757D01*
X188815169Y-186536185D02*
X189958026Y-186536185D01*
X190958026Y-186393328D02*
X190958026Y-184893328D01*
X190958026Y-186321900D02*
X190815168Y-186393328D01*
X190815168Y-186393328D02*
X190529454Y-186393328D01*
X190529454Y-186393328D02*
X190386597Y-186321900D01*
X190386597Y-186321900D02*
X190315168Y-186250471D01*
X190315168Y-186250471D02*
X190243740Y-186107614D01*
X190243740Y-186107614D02*
X190243740Y-185679042D01*
X190243740Y-185679042D02*
X190315168Y-185536185D01*
X190315168Y-185536185D02*
X190386597Y-185464757D01*
X190386597Y-185464757D02*
X190529454Y-185393328D01*
X190529454Y-185393328D02*
X190815168Y-185393328D01*
X190815168Y-185393328D02*
X190958026Y-185464757D01*
X191672311Y-186393328D02*
X191672311Y-185393328D01*
X191672311Y-185679042D02*
X191743740Y-185536185D01*
X191743740Y-185536185D02*
X191815169Y-185464757D01*
X191815169Y-185464757D02*
X191958026Y-185393328D01*
X191958026Y-185393328D02*
X192100883Y-185393328D01*
X192600882Y-186393328D02*
X192600882Y-185393328D01*
X192600882Y-184893328D02*
X192529454Y-184964757D01*
X192529454Y-184964757D02*
X192600882Y-185036185D01*
X192600882Y-185036185D02*
X192672311Y-184964757D01*
X192672311Y-184964757D02*
X192600882Y-184893328D01*
X192600882Y-184893328D02*
X192600882Y-185036185D01*
X193172311Y-185393328D02*
X193529454Y-186393328D01*
X193529454Y-186393328D02*
X193886597Y-185393328D01*
X195029454Y-186321900D02*
X194886597Y-186393328D01*
X194886597Y-186393328D02*
X194600883Y-186393328D01*
X194600883Y-186393328D02*
X194458025Y-186321900D01*
X194458025Y-186321900D02*
X194386597Y-186179042D01*
X194386597Y-186179042D02*
X194386597Y-185607614D01*
X194386597Y-185607614D02*
X194458025Y-185464757D01*
X194458025Y-185464757D02*
X194600883Y-185393328D01*
X194600883Y-185393328D02*
X194886597Y-185393328D01*
X194886597Y-185393328D02*
X195029454Y-185464757D01*
X195029454Y-185464757D02*
X195100883Y-185607614D01*
X195100883Y-185607614D02*
X195100883Y-185750471D01*
X195100883Y-185750471D02*
X194386597Y-185893328D01*
X195743739Y-186393328D02*
X195743739Y-185393328D01*
X195743739Y-185679042D02*
X195815168Y-185536185D01*
X195815168Y-185536185D02*
X195886597Y-185464757D01*
X195886597Y-185464757D02*
X196029454Y-185393328D01*
X196029454Y-185393328D02*
X196172311Y-185393328D01*
X196672310Y-186250471D02*
X196743739Y-186321900D01*
X196743739Y-186321900D02*
X196672310Y-186393328D01*
X196672310Y-186393328D02*
X196600882Y-186321900D01*
X196600882Y-186321900D02*
X196672310Y-186250471D01*
X196672310Y-186250471D02*
X196672310Y-186393328D01*
X197386596Y-186393328D02*
X197386596Y-184893328D01*
X197529454Y-185821900D02*
X197958025Y-186393328D01*
X197958025Y-185393328D02*
X197386596Y-185964757D01*
X198600882Y-186393328D02*
X198600882Y-185393328D01*
X198600882Y-184893328D02*
X198529454Y-184964757D01*
X198529454Y-184964757D02*
X198600882Y-185036185D01*
X198600882Y-185036185D02*
X198672311Y-184964757D01*
X198672311Y-184964757D02*
X198600882Y-184893328D01*
X198600882Y-184893328D02*
X198600882Y-185036185D01*
X199958026Y-186321900D02*
X199815168Y-186393328D01*
X199815168Y-186393328D02*
X199529454Y-186393328D01*
X199529454Y-186393328D02*
X199386597Y-186321900D01*
X199386597Y-186321900D02*
X199315168Y-186250471D01*
X199315168Y-186250471D02*
X199243740Y-186107614D01*
X199243740Y-186107614D02*
X199243740Y-185679042D01*
X199243740Y-185679042D02*
X199315168Y-185536185D01*
X199315168Y-185536185D02*
X199386597Y-185464757D01*
X199386597Y-185464757D02*
X199529454Y-185393328D01*
X199529454Y-185393328D02*
X199815168Y-185393328D01*
X199815168Y-185393328D02*
X199958026Y-185464757D01*
X201243740Y-186393328D02*
X201243740Y-185607614D01*
X201243740Y-185607614D02*
X201172311Y-185464757D01*
X201172311Y-185464757D02*
X201029454Y-185393328D01*
X201029454Y-185393328D02*
X200743740Y-185393328D01*
X200743740Y-185393328D02*
X200600882Y-185464757D01*
X201243740Y-186321900D02*
X201100882Y-186393328D01*
X201100882Y-186393328D02*
X200743740Y-186393328D01*
X200743740Y-186393328D02*
X200600882Y-186321900D01*
X200600882Y-186321900D02*
X200529454Y-186179042D01*
X200529454Y-186179042D02*
X200529454Y-186036185D01*
X200529454Y-186036185D02*
X200600882Y-185893328D01*
X200600882Y-185893328D02*
X200743740Y-185821900D01*
X200743740Y-185821900D02*
X201100882Y-185821900D01*
X201100882Y-185821900D02*
X201243740Y-185750471D01*
X202600883Y-186393328D02*
X202600883Y-184893328D01*
X202600883Y-186321900D02*
X202458025Y-186393328D01*
X202458025Y-186393328D02*
X202172311Y-186393328D01*
X202172311Y-186393328D02*
X202029454Y-186321900D01*
X202029454Y-186321900D02*
X201958025Y-186250471D01*
X201958025Y-186250471D02*
X201886597Y-186107614D01*
X201886597Y-186107614D02*
X201886597Y-185679042D01*
X201886597Y-185679042D02*
X201958025Y-185536185D01*
X201958025Y-185536185D02*
X202029454Y-185464757D01*
X202029454Y-185464757D02*
X202172311Y-185393328D01*
X202172311Y-185393328D02*
X202458025Y-185393328D01*
X202458025Y-185393328D02*
X202600883Y-185464757D01*
X202958026Y-186536185D02*
X204100883Y-186536185D01*
X204458025Y-185393328D02*
X204458025Y-186893328D01*
X204458025Y-185464757D02*
X204600883Y-185393328D01*
X204600883Y-185393328D02*
X204886597Y-185393328D01*
X204886597Y-185393328D02*
X205029454Y-185464757D01*
X205029454Y-185464757D02*
X205100883Y-185536185D01*
X205100883Y-185536185D02*
X205172311Y-185679042D01*
X205172311Y-185679042D02*
X205172311Y-186107614D01*
X205172311Y-186107614D02*
X205100883Y-186250471D01*
X205100883Y-186250471D02*
X205029454Y-186321900D01*
X205029454Y-186321900D02*
X204886597Y-186393328D01*
X204886597Y-186393328D02*
X204600883Y-186393328D01*
X204600883Y-186393328D02*
X204458025Y-186321900D01*
X206458026Y-186321900D02*
X206315168Y-186393328D01*
X206315168Y-186393328D02*
X206029454Y-186393328D01*
X206029454Y-186393328D02*
X205886597Y-186321900D01*
X205886597Y-186321900D02*
X205815168Y-186250471D01*
X205815168Y-186250471D02*
X205743740Y-186107614D01*
X205743740Y-186107614D02*
X205743740Y-185679042D01*
X205743740Y-185679042D02*
X205815168Y-185536185D01*
X205815168Y-185536185D02*
X205886597Y-185464757D01*
X205886597Y-185464757D02*
X206029454Y-185393328D01*
X206029454Y-185393328D02*
X206315168Y-185393328D01*
X206315168Y-185393328D02*
X206458026Y-185464757D01*
X207100882Y-186393328D02*
X207100882Y-184893328D01*
X207100882Y-185464757D02*
X207243740Y-185393328D01*
X207243740Y-185393328D02*
X207529454Y-185393328D01*
X207529454Y-185393328D02*
X207672311Y-185464757D01*
X207672311Y-185464757D02*
X207743740Y-185536185D01*
X207743740Y-185536185D02*
X207815168Y-185679042D01*
X207815168Y-185679042D02*
X207815168Y-186107614D01*
X207815168Y-186107614D02*
X207743740Y-186250471D01*
X207743740Y-186250471D02*
X207672311Y-186321900D01*
X207672311Y-186321900D02*
X207529454Y-186393328D01*
X207529454Y-186393328D02*
X207243740Y-186393328D01*
X207243740Y-186393328D02*
X207100882Y-186321900D01*
D10*
D11*
X177002200Y-181507200D02*
X285002200Y-181507200D01*
D10*
D11*
X178386598Y-183621900D02*
X178600884Y-183693328D01*
X178600884Y-183693328D02*
X178958026Y-183693328D01*
X178958026Y-183693328D02*
X179100884Y-183621900D01*
X179100884Y-183621900D02*
X179172312Y-183550471D01*
X179172312Y-183550471D02*
X179243741Y-183407614D01*
X179243741Y-183407614D02*
X179243741Y-183264757D01*
X179243741Y-183264757D02*
X179172312Y-183121900D01*
X179172312Y-183121900D02*
X179100884Y-183050471D01*
X179100884Y-183050471D02*
X178958026Y-182979042D01*
X178958026Y-182979042D02*
X178672312Y-182907614D01*
X178672312Y-182907614D02*
X178529455Y-182836185D01*
X178529455Y-182836185D02*
X178458026Y-182764757D01*
X178458026Y-182764757D02*
X178386598Y-182621900D01*
X178386598Y-182621900D02*
X178386598Y-182479042D01*
X178386598Y-182479042D02*
X178458026Y-182336185D01*
X178458026Y-182336185D02*
X178529455Y-182264757D01*
X178529455Y-182264757D02*
X178672312Y-182193328D01*
X178672312Y-182193328D02*
X179029455Y-182193328D01*
X179029455Y-182193328D02*
X179243741Y-182264757D01*
X179886597Y-183693328D02*
X179886597Y-182193328D01*
X180529455Y-183693328D02*
X180529455Y-182907614D01*
X180529455Y-182907614D02*
X180458026Y-182764757D01*
X180458026Y-182764757D02*
X180315169Y-182693328D01*
X180315169Y-182693328D02*
X180100883Y-182693328D01*
X180100883Y-182693328D02*
X179958026Y-182764757D01*
X179958026Y-182764757D02*
X179886597Y-182836185D01*
X181815169Y-183621900D02*
X181672312Y-183693328D01*
X181672312Y-183693328D02*
X181386598Y-183693328D01*
X181386598Y-183693328D02*
X181243740Y-183621900D01*
X181243740Y-183621900D02*
X181172312Y-183479042D01*
X181172312Y-183479042D02*
X181172312Y-182907614D01*
X181172312Y-182907614D02*
X181243740Y-182764757D01*
X181243740Y-182764757D02*
X181386598Y-182693328D01*
X181386598Y-182693328D02*
X181672312Y-182693328D01*
X181672312Y-182693328D02*
X181815169Y-182764757D01*
X181815169Y-182764757D02*
X181886598Y-182907614D01*
X181886598Y-182907614D02*
X181886598Y-183050471D01*
X181886598Y-183050471D02*
X181172312Y-183193328D01*
X183100883Y-183621900D02*
X182958026Y-183693328D01*
X182958026Y-183693328D02*
X182672312Y-183693328D01*
X182672312Y-183693328D02*
X182529454Y-183621900D01*
X182529454Y-183621900D02*
X182458026Y-183479042D01*
X182458026Y-183479042D02*
X182458026Y-182907614D01*
X182458026Y-182907614D02*
X182529454Y-182764757D01*
X182529454Y-182764757D02*
X182672312Y-182693328D01*
X182672312Y-182693328D02*
X182958026Y-182693328D01*
X182958026Y-182693328D02*
X183100883Y-182764757D01*
X183100883Y-182764757D02*
X183172312Y-182907614D01*
X183172312Y-182907614D02*
X183172312Y-183050471D01*
X183172312Y-183050471D02*
X182458026Y-183193328D01*
X183600883Y-182693328D02*
X184172311Y-182693328D01*
X183815168Y-182193328D02*
X183815168Y-183479042D01*
X183815168Y-183479042D02*
X183886597Y-183621900D01*
X183886597Y-183621900D02*
X184029454Y-183693328D01*
X184029454Y-183693328D02*
X184172311Y-183693328D01*
X184672311Y-183550471D02*
X184743740Y-183621900D01*
X184743740Y-183621900D02*
X184672311Y-183693328D01*
X184672311Y-183693328D02*
X184600883Y-183621900D01*
X184600883Y-183621900D02*
X184672311Y-183550471D01*
X184672311Y-183550471D02*
X184672311Y-183693328D01*
X184672311Y-182764757D02*
X184743740Y-182836185D01*
X184743740Y-182836185D02*
X184672311Y-182907614D01*
X184672311Y-182907614D02*
X184600883Y-182836185D01*
X184600883Y-182836185D02*
X184672311Y-182764757D01*
X184672311Y-182764757D02*
X184672311Y-182907614D01*
D10*
D11*
X197002200Y-191507200D02*
X197002200Y-194507200D01*
D10*
D11*
X261002200Y-191507200D02*
X261002200Y-198007200D01*
D14*
X97435713Y-80353600D02*
X97549999Y-80391695D01*
X97549999Y-80391695D02*
X97740475Y-80391695D01*
X97740475Y-80391695D02*
X97816666Y-80353600D01*
X97816666Y-80353600D02*
X97854761Y-80315504D01*
X97854761Y-80315504D02*
X97892856Y-80239314D01*
X97892856Y-80239314D02*
X97892856Y-80163123D01*
X97892856Y-80163123D02*
X97854761Y-80086933D01*
X97854761Y-80086933D02*
X97816666Y-80048838D01*
X97816666Y-80048838D02*
X97740475Y-80010742D01*
X97740475Y-80010742D02*
X97588094Y-79972647D01*
X97588094Y-79972647D02*
X97511904Y-79934552D01*
X97511904Y-79934552D02*
X97473809Y-79896457D01*
X97473809Y-79896457D02*
X97435713Y-79820266D01*
X97435713Y-79820266D02*
X97435713Y-79744076D01*
X97435713Y-79744076D02*
X97473809Y-79667885D01*
X97473809Y-79667885D02*
X97511904Y-79629790D01*
X97511904Y-79629790D02*
X97588094Y-79591695D01*
X97588094Y-79591695D02*
X97778571Y-79591695D01*
X97778571Y-79591695D02*
X97892856Y-79629790D01*
X98121428Y-79591695D02*
X98578571Y-79591695D01*
X98349999Y-80391695D02*
X98349999Y-79591695D01*
X98845238Y-80391695D02*
X98845238Y-79591695D01*
X98845238Y-79591695D02*
X99111904Y-80163123D01*
X99111904Y-80163123D02*
X99378571Y-79591695D01*
X99378571Y-79591695D02*
X99378571Y-80391695D01*
X99683333Y-79591695D02*
X100178571Y-79591695D01*
X100178571Y-79591695D02*
X99911905Y-79896457D01*
X99911905Y-79896457D02*
X100026190Y-79896457D01*
X100026190Y-79896457D02*
X100102381Y-79934552D01*
X100102381Y-79934552D02*
X100140476Y-79972647D01*
X100140476Y-79972647D02*
X100178571Y-80048838D01*
X100178571Y-80048838D02*
X100178571Y-80239314D01*
X100178571Y-80239314D02*
X100140476Y-80315504D01*
X100140476Y-80315504D02*
X100102381Y-80353600D01*
X100102381Y-80353600D02*
X100026190Y-80391695D01*
X100026190Y-80391695D02*
X99797619Y-80391695D01*
X99797619Y-80391695D02*
X99721428Y-80353600D01*
X99721428Y-80353600D02*
X99683333Y-80315504D01*
X100483333Y-79667885D02*
X100521429Y-79629790D01*
X100521429Y-79629790D02*
X100597619Y-79591695D01*
X100597619Y-79591695D02*
X100788095Y-79591695D01*
X100788095Y-79591695D02*
X100864286Y-79629790D01*
X100864286Y-79629790D02*
X100902381Y-79667885D01*
X100902381Y-79667885D02*
X100940476Y-79744076D01*
X100940476Y-79744076D02*
X100940476Y-79820266D01*
X100940476Y-79820266D02*
X100902381Y-79934552D01*
X100902381Y-79934552D02*
X100445238Y-80391695D01*
X100445238Y-80391695D02*
X100940476Y-80391695D01*
X101702381Y-79629790D02*
X101626191Y-79591695D01*
X101626191Y-79591695D02*
X101511905Y-79591695D01*
X101511905Y-79591695D02*
X101397619Y-79629790D01*
X101397619Y-79629790D02*
X101321429Y-79705980D01*
X101321429Y-79705980D02*
X101283334Y-79782171D01*
X101283334Y-79782171D02*
X101245238Y-79934552D01*
X101245238Y-79934552D02*
X101245238Y-80048838D01*
X101245238Y-80048838D02*
X101283334Y-80201219D01*
X101283334Y-80201219D02*
X101321429Y-80277409D01*
X101321429Y-80277409D02*
X101397619Y-80353600D01*
X101397619Y-80353600D02*
X101511905Y-80391695D01*
X101511905Y-80391695D02*
X101588096Y-80391695D01*
X101588096Y-80391695D02*
X101702381Y-80353600D01*
X101702381Y-80353600D02*
X101740477Y-80315504D01*
X101740477Y-80315504D02*
X101740477Y-80048838D01*
X101740477Y-80048838D02*
X101588096Y-80048838D01*
X102235715Y-79591695D02*
X102311905Y-79591695D01*
X102311905Y-79591695D02*
X102388096Y-79629790D01*
X102388096Y-79629790D02*
X102426191Y-79667885D01*
X102426191Y-79667885D02*
X102464286Y-79744076D01*
X102464286Y-79744076D02*
X102502381Y-79896457D01*
X102502381Y-79896457D02*
X102502381Y-80086933D01*
X102502381Y-80086933D02*
X102464286Y-80239314D01*
X102464286Y-80239314D02*
X102426191Y-80315504D01*
X102426191Y-80315504D02*
X102388096Y-80353600D01*
X102388096Y-80353600D02*
X102311905Y-80391695D01*
X102311905Y-80391695D02*
X102235715Y-80391695D01*
X102235715Y-80391695D02*
X102159524Y-80353600D01*
X102159524Y-80353600D02*
X102121429Y-80315504D01*
X102121429Y-80315504D02*
X102083334Y-80239314D01*
X102083334Y-80239314D02*
X102045238Y-80086933D01*
X102045238Y-80086933D02*
X102045238Y-79896457D01*
X102045238Y-79896457D02*
X102083334Y-79744076D01*
X102083334Y-79744076D02*
X102121429Y-79667885D01*
X102121429Y-79667885D02*
X102159524Y-79629790D01*
X102159524Y-79629790D02*
X102235715Y-79591695D01*
X103111905Y-79972647D02*
X103226191Y-80010742D01*
X103226191Y-80010742D02*
X103264286Y-80048838D01*
X103264286Y-80048838D02*
X103302382Y-80125028D01*
X103302382Y-80125028D02*
X103302382Y-80239314D01*
X103302382Y-80239314D02*
X103264286Y-80315504D01*
X103264286Y-80315504D02*
X103226191Y-80353600D01*
X103226191Y-80353600D02*
X103150001Y-80391695D01*
X103150001Y-80391695D02*
X102845239Y-80391695D01*
X102845239Y-80391695D02*
X102845239Y-79591695D01*
X102845239Y-79591695D02*
X103111905Y-79591695D01*
X103111905Y-79591695D02*
X103188096Y-79629790D01*
X103188096Y-79629790D02*
X103226191Y-79667885D01*
X103226191Y-79667885D02*
X103264286Y-79744076D01*
X103264286Y-79744076D02*
X103264286Y-79820266D01*
X103264286Y-79820266D02*
X103226191Y-79896457D01*
X103226191Y-79896457D02*
X103188096Y-79934552D01*
X103188096Y-79934552D02*
X103111905Y-79972647D01*
X103111905Y-79972647D02*
X102845239Y-79972647D01*
X104064286Y-80391695D02*
X103607143Y-80391695D01*
X103835715Y-80391695D02*
X103835715Y-79591695D01*
X103835715Y-79591695D02*
X103759524Y-79705980D01*
X103759524Y-79705980D02*
X103683334Y-79782171D01*
X103683334Y-79782171D02*
X103607143Y-79820266D01*
X109248809Y-68841695D02*
X109248809Y-68041695D01*
X109248809Y-68041695D02*
X109439285Y-68041695D01*
X109439285Y-68041695D02*
X109553571Y-68079790D01*
X109553571Y-68079790D02*
X109629761Y-68155980D01*
X109629761Y-68155980D02*
X109667856Y-68232171D01*
X109667856Y-68232171D02*
X109705952Y-68384552D01*
X109705952Y-68384552D02*
X109705952Y-68498838D01*
X109705952Y-68498838D02*
X109667856Y-68651219D01*
X109667856Y-68651219D02*
X109629761Y-68727409D01*
X109629761Y-68727409D02*
X109553571Y-68803600D01*
X109553571Y-68803600D02*
X109439285Y-68841695D01*
X109439285Y-68841695D02*
X109248809Y-68841695D01*
X110505952Y-68841695D02*
X110239285Y-68460742D01*
X110048809Y-68841695D02*
X110048809Y-68041695D01*
X110048809Y-68041695D02*
X110353571Y-68041695D01*
X110353571Y-68041695D02*
X110429761Y-68079790D01*
X110429761Y-68079790D02*
X110467856Y-68117885D01*
X110467856Y-68117885D02*
X110505952Y-68194076D01*
X110505952Y-68194076D02*
X110505952Y-68308361D01*
X110505952Y-68308361D02*
X110467856Y-68384552D01*
X110467856Y-68384552D02*
X110429761Y-68422647D01*
X110429761Y-68422647D02*
X110353571Y-68460742D01*
X110353571Y-68460742D02*
X110048809Y-68460742D01*
X110734523Y-68041695D02*
X111001190Y-68841695D01*
X111001190Y-68841695D02*
X111267856Y-68041695D01*
X111648808Y-68384552D02*
X111572618Y-68346457D01*
X111572618Y-68346457D02*
X111534523Y-68308361D01*
X111534523Y-68308361D02*
X111496427Y-68232171D01*
X111496427Y-68232171D02*
X111496427Y-68194076D01*
X111496427Y-68194076D02*
X111534523Y-68117885D01*
X111534523Y-68117885D02*
X111572618Y-68079790D01*
X111572618Y-68079790D02*
X111648808Y-68041695D01*
X111648808Y-68041695D02*
X111801189Y-68041695D01*
X111801189Y-68041695D02*
X111877380Y-68079790D01*
X111877380Y-68079790D02*
X111915475Y-68117885D01*
X111915475Y-68117885D02*
X111953570Y-68194076D01*
X111953570Y-68194076D02*
X111953570Y-68232171D01*
X111953570Y-68232171D02*
X111915475Y-68308361D01*
X111915475Y-68308361D02*
X111877380Y-68346457D01*
X111877380Y-68346457D02*
X111801189Y-68384552D01*
X111801189Y-68384552D02*
X111648808Y-68384552D01*
X111648808Y-68384552D02*
X111572618Y-68422647D01*
X111572618Y-68422647D02*
X111534523Y-68460742D01*
X111534523Y-68460742D02*
X111496427Y-68536933D01*
X111496427Y-68536933D02*
X111496427Y-68689314D01*
X111496427Y-68689314D02*
X111534523Y-68765504D01*
X111534523Y-68765504D02*
X111572618Y-68803600D01*
X111572618Y-68803600D02*
X111648808Y-68841695D01*
X111648808Y-68841695D02*
X111801189Y-68841695D01*
X111801189Y-68841695D02*
X111877380Y-68803600D01*
X111877380Y-68803600D02*
X111915475Y-68765504D01*
X111915475Y-68765504D02*
X111953570Y-68689314D01*
X111953570Y-68689314D02*
X111953570Y-68536933D01*
X111953570Y-68536933D02*
X111915475Y-68460742D01*
X111915475Y-68460742D02*
X111877380Y-68422647D01*
X111877380Y-68422647D02*
X111801189Y-68384552D01*
X112220237Y-68041695D02*
X112715475Y-68041695D01*
X112715475Y-68041695D02*
X112448809Y-68346457D01*
X112448809Y-68346457D02*
X112563094Y-68346457D01*
X112563094Y-68346457D02*
X112639285Y-68384552D01*
X112639285Y-68384552D02*
X112677380Y-68422647D01*
X112677380Y-68422647D02*
X112715475Y-68498838D01*
X112715475Y-68498838D02*
X112715475Y-68689314D01*
X112715475Y-68689314D02*
X112677380Y-68765504D01*
X112677380Y-68765504D02*
X112639285Y-68803600D01*
X112639285Y-68803600D02*
X112563094Y-68841695D01*
X112563094Y-68841695D02*
X112334523Y-68841695D01*
X112334523Y-68841695D02*
X112258332Y-68803600D01*
X112258332Y-68803600D02*
X112220237Y-68765504D01*
X113477380Y-68841695D02*
X113020237Y-68841695D01*
X113248809Y-68841695D02*
X113248809Y-68041695D01*
X113248809Y-68041695D02*
X113172618Y-68155980D01*
X113172618Y-68155980D02*
X113096428Y-68232171D01*
X113096428Y-68232171D02*
X113020237Y-68270266D01*
X113744047Y-68041695D02*
X114277381Y-68041695D01*
X114277381Y-68041695D02*
X113934523Y-68841695D01*
X93268482Y-79914838D02*
X93173244Y-79867219D01*
X93173244Y-79867219D02*
X93030387Y-79867219D01*
X93030387Y-79867219D02*
X92887530Y-79914838D01*
X92887530Y-79914838D02*
X92792292Y-80010076D01*
X92792292Y-80010076D02*
X92744673Y-80105314D01*
X92744673Y-80105314D02*
X92697054Y-80295790D01*
X92697054Y-80295790D02*
X92697054Y-80438647D01*
X92697054Y-80438647D02*
X92744673Y-80629123D01*
X92744673Y-80629123D02*
X92792292Y-80724361D01*
X92792292Y-80724361D02*
X92887530Y-80819600D01*
X92887530Y-80819600D02*
X93030387Y-80867219D01*
X93030387Y-80867219D02*
X93125625Y-80867219D01*
X93125625Y-80867219D02*
X93268482Y-80819600D01*
X93268482Y-80819600D02*
X93316101Y-80771980D01*
X93316101Y-80771980D02*
X93316101Y-80438647D01*
X93316101Y-80438647D02*
X93125625Y-80438647D01*
X101569673Y-64267219D02*
X101569673Y-63267219D01*
X101569673Y-63648171D02*
X101664911Y-63600552D01*
X101664911Y-63600552D02*
X101855387Y-63600552D01*
X101855387Y-63600552D02*
X101950625Y-63648171D01*
X101950625Y-63648171D02*
X101998244Y-63695790D01*
X101998244Y-63695790D02*
X102045863Y-63791028D01*
X102045863Y-63791028D02*
X102045863Y-64076742D01*
X102045863Y-64076742D02*
X101998244Y-64171980D01*
X101998244Y-64171980D02*
X101950625Y-64219600D01*
X101950625Y-64219600D02*
X101855387Y-64267219D01*
X101855387Y-64267219D02*
X101664911Y-64267219D01*
X101664911Y-64267219D02*
X101569673Y-64219600D01*
X102617292Y-64267219D02*
X102522054Y-64219600D01*
X102522054Y-64219600D02*
X102474435Y-64124361D01*
X102474435Y-64124361D02*
X102474435Y-63267219D01*
X103426816Y-64267219D02*
X103426816Y-63267219D01*
X103426816Y-64219600D02*
X103331578Y-64267219D01*
X103331578Y-64267219D02*
X103141102Y-64267219D01*
X103141102Y-64267219D02*
X103045864Y-64219600D01*
X103045864Y-64219600D02*
X102998245Y-64171980D01*
X102998245Y-64171980D02*
X102950626Y-64076742D01*
X102950626Y-64076742D02*
X102950626Y-63791028D01*
X102950626Y-63791028D02*
X102998245Y-63695790D01*
X102998245Y-63695790D02*
X103045864Y-63648171D01*
X103045864Y-63648171D02*
X103141102Y-63600552D01*
X103141102Y-63600552D02*
X103331578Y-63600552D01*
X103331578Y-63600552D02*
X103426816Y-63648171D01*
X104331578Y-64219600D02*
X104236340Y-64267219D01*
X104236340Y-64267219D02*
X104045864Y-64267219D01*
X104045864Y-64267219D02*
X103950626Y-64219600D01*
X103950626Y-64219600D02*
X103903007Y-64171980D01*
X103903007Y-64171980D02*
X103855388Y-64076742D01*
X103855388Y-64076742D02*
X103855388Y-63791028D01*
X103855388Y-63791028D02*
X103903007Y-63695790D01*
X103903007Y-63695790D02*
X103950626Y-63648171D01*
X103950626Y-63648171D02*
X104045864Y-63600552D01*
X104045864Y-63600552D02*
X104236340Y-63600552D01*
X104236340Y-63600552D02*
X104331578Y-63648171D01*
X104760150Y-63886266D02*
X105522055Y-63886266D01*
X106426816Y-64267219D02*
X106426816Y-63267219D01*
X106426816Y-64219600D02*
X106331578Y-64267219D01*
X106331578Y-64267219D02*
X106141102Y-64267219D01*
X106141102Y-64267219D02*
X106045864Y-64219600D01*
X106045864Y-64219600D02*
X105998245Y-64171980D01*
X105998245Y-64171980D02*
X105950626Y-64076742D01*
X105950626Y-64076742D02*
X105950626Y-63791028D01*
X105950626Y-63791028D02*
X105998245Y-63695790D01*
X105998245Y-63695790D02*
X106045864Y-63648171D01*
X106045864Y-63648171D02*
X106141102Y-63600552D01*
X106141102Y-63600552D02*
X106331578Y-63600552D01*
X106331578Y-63600552D02*
X106426816Y-63648171D01*
X106903007Y-64267219D02*
X106903007Y-63600552D01*
X106903007Y-63791028D02*
X106950626Y-63695790D01*
X106950626Y-63695790D02*
X106998245Y-63648171D01*
X106998245Y-63648171D02*
X107093483Y-63600552D01*
X107093483Y-63600552D02*
X107188721Y-63600552D01*
X107522055Y-64267219D02*
X107522055Y-63600552D01*
X107522055Y-63267219D02*
X107474436Y-63314838D01*
X107474436Y-63314838D02*
X107522055Y-63362457D01*
X107522055Y-63362457D02*
X107569674Y-63314838D01*
X107569674Y-63314838D02*
X107522055Y-63267219D01*
X107522055Y-63267219D02*
X107522055Y-63362457D01*
X107903007Y-63600552D02*
X108141102Y-64267219D01*
X108141102Y-64267219D02*
X108379197Y-63600552D01*
X109141102Y-64219600D02*
X109045864Y-64267219D01*
X109045864Y-64267219D02*
X108855388Y-64267219D01*
X108855388Y-64267219D02*
X108760150Y-64219600D01*
X108760150Y-64219600D02*
X108712531Y-64124361D01*
X108712531Y-64124361D02*
X108712531Y-63743409D01*
X108712531Y-63743409D02*
X108760150Y-63648171D01*
X108760150Y-63648171D02*
X108855388Y-63600552D01*
X108855388Y-63600552D02*
X109045864Y-63600552D01*
X109045864Y-63600552D02*
X109141102Y-63648171D01*
X109141102Y-63648171D02*
X109188721Y-63743409D01*
X109188721Y-63743409D02*
X109188721Y-63838647D01*
X109188721Y-63838647D02*
X108712531Y-63933885D01*
X109617293Y-64267219D02*
X109617293Y-63600552D01*
X109617293Y-63791028D02*
X109664912Y-63695790D01*
X109664912Y-63695790D02*
X109712531Y-63648171D01*
X109712531Y-63648171D02*
X109807769Y-63600552D01*
X109807769Y-63600552D02*
X109903007Y-63600552D01*
X95466695Y-79942231D02*
X95466695Y-79485088D01*
X96266695Y-79713660D02*
X95466695Y-79713660D01*
X95847647Y-79218421D02*
X95847647Y-78951755D01*
X96266695Y-78837469D02*
X96266695Y-79218421D01*
X96266695Y-79218421D02*
X95466695Y-79218421D01*
X95466695Y-79218421D02*
X95466695Y-78837469D01*
X96266695Y-78037468D02*
X95885742Y-78304135D01*
X96266695Y-78494611D02*
X95466695Y-78494611D01*
X95466695Y-78494611D02*
X95466695Y-78189849D01*
X95466695Y-78189849D02*
X95504790Y-78113659D01*
X95504790Y-78113659D02*
X95542885Y-78075564D01*
X95542885Y-78075564D02*
X95619076Y-78037468D01*
X95619076Y-78037468D02*
X95733361Y-78037468D01*
X95733361Y-78037468D02*
X95809552Y-78075564D01*
X95809552Y-78075564D02*
X95847647Y-78113659D01*
X95847647Y-78113659D02*
X95885742Y-78189849D01*
X95885742Y-78189849D02*
X95885742Y-78494611D01*
X96266695Y-77694611D02*
X95466695Y-77694611D01*
X95466695Y-77694611D02*
X96038123Y-77427945D01*
X96038123Y-77427945D02*
X95466695Y-77161278D01*
X95466695Y-77161278D02*
X96266695Y-77161278D01*
X104341101Y-90917219D02*
X104007768Y-90441028D01*
X103769673Y-90917219D02*
X103769673Y-89917219D01*
X103769673Y-89917219D02*
X104150625Y-89917219D01*
X104150625Y-89917219D02*
X104245863Y-89964838D01*
X104245863Y-89964838D02*
X104293482Y-90012457D01*
X104293482Y-90012457D02*
X104341101Y-90107695D01*
X104341101Y-90107695D02*
X104341101Y-90250552D01*
X104341101Y-90250552D02*
X104293482Y-90345790D01*
X104293482Y-90345790D02*
X104245863Y-90393409D01*
X104245863Y-90393409D02*
X104150625Y-90441028D01*
X104150625Y-90441028D02*
X103769673Y-90441028D01*
X104674435Y-90917219D02*
X105198244Y-90250552D01*
X104674435Y-90250552D02*
X105198244Y-90917219D01*
X86956359Y-75488856D02*
X86927898Y-75549890D01*
X86927898Y-75549890D02*
X86809943Y-75643497D01*
X86809943Y-75643497D02*
X86720449Y-75676070D01*
X86720449Y-75676070D02*
X86569920Y-75680183D01*
X86569920Y-75680183D02*
X86447852Y-75623262D01*
X86447852Y-75623262D02*
X86370532Y-75550054D01*
X86370532Y-75550054D02*
X86260638Y-75387352D01*
X86260638Y-75387352D02*
X86211778Y-75253110D01*
X86211778Y-75253110D02*
X86191378Y-75057834D01*
X86191378Y-75057834D02*
X86203552Y-74952053D01*
X86203552Y-74952053D02*
X86260473Y-74829985D01*
X86260473Y-74829985D02*
X86378428Y-74736378D01*
X86378428Y-74736378D02*
X86467923Y-74703805D01*
X86467923Y-74703805D02*
X86618451Y-74699692D01*
X86618451Y-74699692D02*
X86679485Y-74728152D01*
X87249190Y-75179573D02*
X87696663Y-75016707D01*
X87257416Y-75480630D02*
X87228627Y-74426931D01*
X87228627Y-74426931D02*
X87883878Y-75252617D01*
X88197109Y-75138610D02*
X87855088Y-74198918D01*
X87855088Y-74198918D02*
X88734076Y-74943170D01*
X88734076Y-74943170D02*
X88392056Y-74003478D01*
X92545863Y-78692219D02*
X92069673Y-78692219D01*
X92069673Y-78692219D02*
X92069673Y-77692219D01*
D13*
G36*
X101802949Y-61502308D02*
G01*
X101956456Y-61537342D01*
X102066902Y-61588678D01*
X102144260Y-61653649D01*
X102189474Y-61719631D01*
X102220993Y-61801747D01*
X102237576Y-61903929D01*
X102236296Y-62031092D01*
X102212770Y-62188907D01*
X102031664Y-63060000D01*
X101549284Y-63060000D01*
X101596423Y-62833342D01*
X101508500Y-62920734D01*
X101422472Y-62987309D01*
X101337770Y-63035697D01*
X101246777Y-63070238D01*
X101145439Y-63091646D01*
X101031978Y-63099078D01*
X100916611Y-63089327D01*
X100822589Y-63062151D01*
X100745745Y-63019347D01*
X100683077Y-62960837D01*
X100636313Y-62889009D01*
X100608530Y-62807291D01*
X100599905Y-62712820D01*
X100609030Y-62634686D01*
X101095923Y-62634686D01*
X101106709Y-62681347D01*
X101131629Y-62718792D01*
X101168464Y-62746156D01*
X101219636Y-62764097D01*
X101289898Y-62770816D01*
X101376330Y-62760200D01*
X101458143Y-62728232D01*
X101537438Y-62672875D01*
X101603615Y-62601898D01*
X101651058Y-62520803D01*
X101680809Y-62427655D01*
X101692288Y-62372212D01*
X101443649Y-62372212D01*
X101344775Y-62378784D01*
X101267602Y-62396615D01*
X101207833Y-62423625D01*
X101157485Y-62463383D01*
X101122240Y-62513135D01*
X101100854Y-62574933D01*
X101095923Y-62634686D01*
X100609030Y-62634686D01*
X100612857Y-62601922D01*
X100651860Y-62472673D01*
X100708632Y-62366196D01*
X100782818Y-62278834D01*
X100875785Y-62208325D01*
X100979595Y-62157708D01*
X101109637Y-62118380D01*
X101271219Y-62092473D01*
X101470394Y-62083028D01*
X101752372Y-62083028D01*
X101760554Y-62043583D01*
X101765017Y-61968775D01*
X101746600Y-61913693D01*
X101706699Y-61871880D01*
X101651181Y-61844531D01*
X101565549Y-61824989D01*
X101438764Y-61817292D01*
X101287465Y-61825254D01*
X101146284Y-61848555D01*
X101010467Y-61887672D01*
X100880914Y-61942344D01*
X100958827Y-61567187D01*
X101120674Y-61533323D01*
X101279762Y-61508935D01*
X101438497Y-61493965D01*
X101593859Y-61489030D01*
X101802949Y-61502308D01*
G37*
G36*
X102645812Y-62059581D02*
G01*
X103485031Y-62059581D01*
X103402233Y-62458185D01*
X102563014Y-62458185D01*
X102645812Y-62059581D01*
G37*
G36*
X104876905Y-61499162D02*
G01*
X105007693Y-61527364D01*
X105115746Y-61571215D01*
X105204818Y-61629565D01*
X105277651Y-61702620D01*
X105333956Y-61789153D01*
X105372651Y-61888529D01*
X105393360Y-62003451D01*
X105394208Y-62137320D01*
X105371929Y-62294054D01*
X105319188Y-62478187D01*
X105244740Y-62635842D01*
X105149218Y-62770724D01*
X105031821Y-62885488D01*
X104895893Y-62977478D01*
X104744613Y-63043843D01*
X104575191Y-63084839D01*
X104384089Y-63099078D01*
X104225379Y-63088947D01*
X104093989Y-63060740D01*
X103985371Y-63016880D01*
X103895776Y-62958525D01*
X103822452Y-62885488D01*
X103765694Y-62798886D01*
X103726673Y-62699477D01*
X103705732Y-62584558D01*
X103704737Y-62450726D01*
X103706051Y-62441461D01*
X104205938Y-62441461D01*
X104212633Y-62550453D01*
X104238886Y-62630621D01*
X104273893Y-62680807D01*
X104320121Y-62716563D01*
X104379878Y-62739161D01*
X104457240Y-62747369D01*
X104556364Y-62734290D01*
X104643065Y-62695934D01*
X104720655Y-62630621D01*
X104781954Y-62547087D01*
X104833447Y-62436916D01*
X104873551Y-62294054D01*
X104893028Y-62146609D01*
X104886539Y-62037613D01*
X104860607Y-61957487D01*
X104825946Y-61907154D01*
X104780351Y-61871418D01*
X104721620Y-61848902D01*
X104645795Y-61840739D01*
X104544788Y-61853883D01*
X104456939Y-61892308D01*
X104378838Y-61957487D01*
X104317186Y-62041071D01*
X104265491Y-62151247D01*
X104225331Y-62294054D01*
X104205938Y-62441461D01*
X103706051Y-62441461D01*
X103726953Y-62294054D01*
X103779745Y-62110002D01*
X103854397Y-61952370D01*
X103950297Y-61817457D01*
X104068283Y-61702620D01*
X104204851Y-61610644D01*
X104356814Y-61544274D01*
X104526959Y-61503271D01*
X104718824Y-61489030D01*
X104876905Y-61499162D01*
G37*
G36*
X107080652Y-61575003D02*
G01*
X107002616Y-61950160D01*
X106861999Y-61891416D01*
X106726622Y-61850509D01*
X106591284Y-61825393D01*
X106463817Y-61817292D01*
X106336113Y-61827295D01*
X106254012Y-61852341D01*
X106210621Y-61880597D01*
X106181798Y-61916011D01*
X106165474Y-61959930D01*
X106167351Y-62012784D01*
X106196615Y-62050422D01*
X106251546Y-62075135D01*
X106366730Y-62097072D01*
X106448429Y-62109284D01*
X106637499Y-62142861D01*
X106768689Y-62181802D01*
X106855739Y-62223470D01*
X106910170Y-62266332D01*
X106950139Y-62323281D01*
X106974361Y-62395926D01*
X106981120Y-62489098D01*
X106965980Y-62609005D01*
X106930191Y-62725846D01*
X106876488Y-62824285D01*
X106804741Y-62907196D01*
X106713189Y-62976224D01*
X106611485Y-63026619D01*
X106488288Y-63065119D01*
X106339657Y-63090089D01*
X106161078Y-63099078D01*
X106012250Y-63093281D01*
X105859193Y-63075631D01*
X105705811Y-63046557D01*
X105548517Y-63005289D01*
X105626552Y-62630132D01*
X105758465Y-62691642D01*
X105897906Y-62735645D01*
X106042985Y-62761915D01*
X106195882Y-62770816D01*
X106327664Y-62759737D01*
X106415334Y-62731493D01*
X106462076Y-62700105D01*
X106493024Y-62661671D01*
X106510467Y-62614867D01*
X106509589Y-62556419D01*
X106481769Y-62517780D01*
X106426213Y-62492755D01*
X106297609Y-62468321D01*
X106215788Y-62457452D01*
X106053762Y-62428015D01*
X105936628Y-62391407D01*
X105854629Y-62350077D01*
X105799598Y-62305411D01*
X105758867Y-62247469D01*
X105734227Y-62175093D01*
X105727055Y-62083959D01*
X105741346Y-61968478D01*
X105776649Y-61850919D01*
X105828056Y-61753373D01*
X105895270Y-61672685D01*
X105979483Y-61606877D01*
X106073985Y-61558770D01*
X106190017Y-61521832D01*
X106331726Y-61497744D01*
X106503872Y-61489030D01*
X106637079Y-61494151D01*
X106777424Y-61509912D01*
X106920729Y-61535878D01*
X107080652Y-61575003D01*
G37*
G36*
X108018667Y-61746950D02*
G01*
X108107044Y-61663658D01*
X108193453Y-61599350D01*
X108278419Y-61551800D01*
X108369140Y-61517150D01*
X108465352Y-61496165D01*
X108568213Y-61489030D01*
X108676560Y-61498693D01*
X108768913Y-61526196D01*
X108848316Y-61570547D01*
X108916910Y-61632446D01*
X108975732Y-61714221D01*
X109026186Y-61827756D01*
X109054234Y-61959294D01*
X109057845Y-62113068D01*
X109033007Y-62294054D01*
X108985043Y-62468043D01*
X108919098Y-62621051D01*
X108835736Y-62755664D01*
X108734665Y-62873886D01*
X108614751Y-62975493D01*
X108492536Y-63044800D01*
X108366265Y-63085483D01*
X108233478Y-63099078D01*
X108130774Y-63091510D01*
X108043782Y-63070158D01*
X107969818Y-63036308D01*
X107904187Y-62988397D01*
X107844753Y-62924206D01*
X107791277Y-62841158D01*
X107745725Y-63060000D01*
X107267376Y-63060000D01*
X107395967Y-62441457D01*
X107885396Y-62441457D01*
X107891633Y-62550469D01*
X107917184Y-62630621D01*
X107951554Y-62681092D01*
X107996591Y-62716810D01*
X108054395Y-62739250D01*
X108128820Y-62747369D01*
X108226141Y-62734389D01*
X108311222Y-62696303D01*
X108387351Y-62631353D01*
X108447321Y-62548356D01*
X108498225Y-62438032D01*
X108538415Y-62294054D01*
X108558318Y-62145525D01*
X108552516Y-62036415D01*
X108527669Y-61956877D01*
X108493889Y-61906730D01*
X108449308Y-61871204D01*
X108391782Y-61848845D01*
X108317376Y-61840739D01*
X108219975Y-61853768D01*
X108134303Y-61892095D01*
X108057135Y-61957609D01*
X107996254Y-62041080D01*
X107945004Y-62151208D01*
X107904972Y-62294054D01*
X107885396Y-62441457D01*
X107395967Y-62441457D01*
X107709333Y-60934110D01*
X108187683Y-60934110D01*
X108018667Y-61746950D01*
G37*
D12*
G36*
X111862176Y-90288354D02*
G01*
X112445031Y-89917034D01*
X112575213Y-90121378D01*
X111992358Y-90492698D01*
X111862176Y-90288354D01*
G37*
D14*
X111297748Y-87426686D02*
X111169231Y-87508561D01*
X111169231Y-87508561D02*
X111125442Y-87581627D01*
X111125442Y-87581627D02*
X111113781Y-87634225D01*
X111113781Y-87634225D02*
X111110928Y-87771549D01*
X111110928Y-87771549D02*
X111160673Y-87920535D01*
X111160673Y-87920535D02*
X111324422Y-88177568D01*
X111324422Y-88177568D02*
X111397488Y-88221358D01*
X111397488Y-88221358D02*
X111450086Y-88233019D01*
X111450086Y-88233019D02*
X111534813Y-88224211D01*
X111534813Y-88224211D02*
X111663330Y-88142337D01*
X111663330Y-88142337D02*
X111707119Y-88069270D01*
X111707119Y-88069270D02*
X111718780Y-88016673D01*
X111718780Y-88016673D02*
X111709972Y-87931946D01*
X111709972Y-87931946D02*
X111607629Y-87771300D01*
X111607629Y-87771300D02*
X111534563Y-87727510D01*
X111534563Y-87727510D02*
X111481965Y-87715849D01*
X111481965Y-87715849D02*
X111397238Y-87724657D01*
X111397238Y-87724657D02*
X111268722Y-87806531D01*
X111268722Y-87806531D02*
X111224932Y-87879598D01*
X111224932Y-87879598D02*
X111213271Y-87932195D01*
X111213271Y-87932195D02*
X111222079Y-88016922D01*
X111917261Y-87619212D02*
X112431328Y-87291715D01*
X112495337Y-86754077D02*
X112506997Y-86701479D01*
X112506997Y-86701479D02*
X112550787Y-86628413D01*
X112550787Y-86628413D02*
X112711433Y-86526070D01*
X112711433Y-86526070D02*
X112796160Y-86517262D01*
X112796160Y-86517262D02*
X112848758Y-86528923D01*
X112848758Y-86528923D02*
X112921824Y-86572712D01*
X112921824Y-86572712D02*
X112962761Y-86636971D01*
X112962761Y-86636971D02*
X112992038Y-86753827D01*
X112992038Y-86753827D02*
X112852110Y-87385000D01*
X112852110Y-87385000D02*
X113269789Y-87118909D01*
X113257630Y-86178104D02*
X113321888Y-86137167D01*
X113321888Y-86137167D02*
X113406615Y-86128359D01*
X113406615Y-86128359D02*
X113459213Y-86140020D01*
X113459213Y-86140020D02*
X113532279Y-86183810D01*
X113532279Y-86183810D02*
X113646282Y-86291858D01*
X113646282Y-86291858D02*
X113748625Y-86452504D01*
X113748625Y-86452504D02*
X113798370Y-86601489D01*
X113798370Y-86601489D02*
X113807178Y-86686216D01*
X113807178Y-86686216D02*
X113795517Y-86738814D01*
X113795517Y-86738814D02*
X113751728Y-86811880D01*
X113751728Y-86811880D02*
X113687469Y-86852817D01*
X113687469Y-86852817D02*
X113602742Y-86861625D01*
X113602742Y-86861625D02*
X113550145Y-86849965D01*
X113550145Y-86849965D02*
X113477078Y-86806175D01*
X113477078Y-86806175D02*
X113363075Y-86698127D01*
X113363075Y-86698127D02*
X113260732Y-86537481D01*
X113260732Y-86537481D02*
X113210987Y-86388495D01*
X113210987Y-86388495D02*
X113202179Y-86303768D01*
X113202179Y-86303768D02*
X113213840Y-86251171D01*
X113213840Y-86251171D02*
X113257630Y-86178104D01*
X113675309Y-85912013D02*
X114330053Y-86443446D01*
X114330053Y-86443446D02*
X114125118Y-85625453D01*
D11*
X90054894Y-85035544D02*
X89442058Y-84521314D01*
X89442058Y-84521314D02*
X89637955Y-84287853D01*
X89637955Y-84287853D02*
X89716112Y-84253975D01*
X89716112Y-84253975D02*
X89769782Y-84249279D01*
X89769782Y-84249279D02*
X89852634Y-84269071D01*
X89852634Y-84269071D02*
X89940182Y-84342532D01*
X89940182Y-84342532D02*
X89974060Y-84420689D01*
X89974060Y-84420689D02*
X89978756Y-84474359D01*
X89978756Y-84474359D02*
X89958964Y-84557212D01*
X89958964Y-84557212D02*
X89763067Y-84790673D01*
X90419525Y-83949072D02*
X90522169Y-83886011D01*
X90522169Y-83886011D02*
X90575838Y-83881315D01*
X90575838Y-83881315D02*
X90658691Y-83901107D01*
X90658691Y-83901107D02*
X90746239Y-83974568D01*
X90746239Y-83974568D02*
X90780117Y-84052725D01*
X90780117Y-84052725D02*
X90784812Y-84106395D01*
X90784812Y-84106395D02*
X90765021Y-84189248D01*
X90765021Y-84189248D02*
X90569124Y-84422709D01*
X90569124Y-84422709D02*
X89956288Y-83908479D01*
X89956288Y-83908479D02*
X90127698Y-83704200D01*
X90127698Y-83704200D02*
X90205855Y-83670322D01*
X90205855Y-83670322D02*
X90259525Y-83665626D01*
X90259525Y-83665626D02*
X90342377Y-83685418D01*
X90342377Y-83685418D02*
X90400743Y-83734392D01*
X90400743Y-83734392D02*
X90434621Y-83812549D01*
X90434621Y-83812549D02*
X90439316Y-83866219D01*
X90439316Y-83866219D02*
X90419525Y-83949072D01*
X90419525Y-83949072D02*
X90248115Y-84153350D01*
X90504396Y-83373800D02*
X90499701Y-83320130D01*
X90499701Y-83320130D02*
X90519492Y-83237278D01*
X90519492Y-83237278D02*
X90641928Y-83091365D01*
X90641928Y-83091365D02*
X90720085Y-83057486D01*
X90720085Y-83057486D02*
X90773755Y-83052791D01*
X90773755Y-83052791D02*
X90856607Y-83072583D01*
X90856607Y-83072583D02*
X90914973Y-83121557D01*
X90914973Y-83121557D02*
X90978033Y-83224201D01*
X90978033Y-83224201D02*
X91034379Y-83868238D01*
X91034379Y-83868238D02*
X91352712Y-83488864D01*
D14*
X91094673Y-76417219D02*
X91094673Y-75417219D01*
X91094673Y-75893409D02*
X91666101Y-75893409D01*
X91666101Y-76417219D02*
X91666101Y-75417219D01*
D12*
G36*
X119145699Y-84911034D02*
G01*
X119519693Y-84537040D01*
X119110726Y-84128072D01*
X119269011Y-83969788D01*
X119677978Y-84378755D01*
X120051886Y-84004847D01*
X120206630Y-84159591D01*
X119832722Y-84533499D01*
X120241690Y-84942466D01*
X120083405Y-85100751D01*
X119674438Y-84691784D01*
X119300443Y-85065778D01*
X119145699Y-84911034D01*
G37*
D14*
X101326816Y-89892219D02*
X101898244Y-89892219D01*
X101612530Y-90892219D02*
X101612530Y-89892219D01*
X102136340Y-90892219D02*
X102660149Y-90225552D01*
X102136340Y-90225552D02*
X102660149Y-90892219D01*
D12*
X107368796Y-65037542D02*
X107654510Y-65837542D01*
X107654510Y-65837542D02*
X107940225Y-65037542D01*
X108625939Y-64637542D02*
X108740225Y-64637542D01*
X108740225Y-64637542D02*
X108854511Y-64694685D01*
X108854511Y-64694685D02*
X108911654Y-64751828D01*
X108911654Y-64751828D02*
X108968796Y-64866114D01*
X108968796Y-64866114D02*
X109025939Y-65094685D01*
X109025939Y-65094685D02*
X109025939Y-65380400D01*
X109025939Y-65380400D02*
X108968796Y-65608971D01*
X108968796Y-65608971D02*
X108911654Y-65723257D01*
X108911654Y-65723257D02*
X108854511Y-65780400D01*
X108854511Y-65780400D02*
X108740225Y-65837542D01*
X108740225Y-65837542D02*
X108625939Y-65837542D01*
X108625939Y-65837542D02*
X108511654Y-65780400D01*
X108511654Y-65780400D02*
X108454511Y-65723257D01*
X108454511Y-65723257D02*
X108397368Y-65608971D01*
X108397368Y-65608971D02*
X108340225Y-65380400D01*
X108340225Y-65380400D02*
X108340225Y-65094685D01*
X108340225Y-65094685D02*
X108397368Y-64866114D01*
X108397368Y-64866114D02*
X108454511Y-64751828D01*
X108454511Y-64751828D02*
X108511654Y-64694685D01*
X108511654Y-64694685D02*
X108625939Y-64637542D01*
X109540225Y-65723257D02*
X109597368Y-65780400D01*
X109597368Y-65780400D02*
X109540225Y-65837542D01*
X109540225Y-65837542D02*
X109483082Y-65780400D01*
X109483082Y-65780400D02*
X109540225Y-65723257D01*
X109540225Y-65723257D02*
X109540225Y-65837542D01*
X110740225Y-65837542D02*
X110054511Y-65837542D01*
X110397368Y-65837542D02*
X110397368Y-64637542D01*
X110397368Y-64637542D02*
X110283082Y-64808971D01*
X110283082Y-64808971D02*
X110168797Y-64923257D01*
X110168797Y-64923257D02*
X110054511Y-64980400D01*
D14*
X96234349Y-59996569D02*
X96335365Y-59424149D01*
X95830288Y-59592508D02*
X96537395Y-58885401D01*
X96537395Y-58885401D02*
X96806769Y-59154775D01*
X96806769Y-59154775D02*
X96840441Y-59255790D01*
X96840441Y-59255790D02*
X96840441Y-59323134D01*
X96840441Y-59323134D02*
X96806769Y-59424149D01*
X96806769Y-59424149D02*
X96705754Y-59525164D01*
X96705754Y-59525164D02*
X96604739Y-59558836D01*
X96604739Y-59558836D02*
X96537395Y-59558836D01*
X96537395Y-59558836D02*
X96436380Y-59525164D01*
X96436380Y-59525164D02*
X96167006Y-59255790D01*
X96907784Y-59929225D02*
X97143487Y-60164927D01*
X96874113Y-60636332D02*
X96537395Y-60299614D01*
X96537395Y-60299614D02*
X97244502Y-59592508D01*
X97244502Y-59592508D02*
X97581219Y-59929225D01*
X97177158Y-60872034D02*
X97244502Y-61006721D01*
X97244502Y-61006721D02*
X97412861Y-61175080D01*
X97412861Y-61175080D02*
X97513876Y-61208752D01*
X97513876Y-61208752D02*
X97581219Y-61208752D01*
X97581219Y-61208752D02*
X97682235Y-61175080D01*
X97682235Y-61175080D02*
X97749578Y-61107737D01*
X97749578Y-61107737D02*
X97783250Y-61006721D01*
X97783250Y-61006721D02*
X97783250Y-60939378D01*
X97783250Y-60939378D02*
X97749578Y-60838363D01*
X97749578Y-60838363D02*
X97648563Y-60670004D01*
X97648563Y-60670004D02*
X97614891Y-60568989D01*
X97614891Y-60568989D02*
X97614891Y-60501645D01*
X97614891Y-60501645D02*
X97648563Y-60400630D01*
X97648563Y-60400630D02*
X97715906Y-60333286D01*
X97715906Y-60333286D02*
X97816922Y-60299614D01*
X97816922Y-60299614D02*
X97884265Y-60299614D01*
X97884265Y-60299614D02*
X97985280Y-60333286D01*
X97985280Y-60333286D02*
X98153639Y-60501645D01*
X98153639Y-60501645D02*
X98220983Y-60636332D01*
X98220983Y-61242424D02*
X98456685Y-61478126D01*
X98187311Y-61949530D02*
X97850593Y-61612813D01*
X97850593Y-61612813D02*
X98557700Y-60905706D01*
X98557700Y-60905706D02*
X98894418Y-61242424D01*
X99096448Y-61444454D02*
X99500509Y-61848515D01*
X98591372Y-62353591D02*
X99298479Y-61646485D01*
X102844673Y-86367219D02*
X102844673Y-87176742D01*
X102844673Y-87176742D02*
X102892292Y-87271980D01*
X102892292Y-87271980D02*
X102939911Y-87319600D01*
X102939911Y-87319600D02*
X103035149Y-87367219D01*
X103035149Y-87367219D02*
X103225625Y-87367219D01*
X103225625Y-87367219D02*
X103320863Y-87319600D01*
X103320863Y-87319600D02*
X103368482Y-87271980D01*
X103368482Y-87271980D02*
X103416101Y-87176742D01*
X103416101Y-87176742D02*
X103416101Y-86367219D01*
X103844673Y-87081504D02*
X104320863Y-87081504D01*
X103749435Y-87367219D02*
X104082768Y-86367219D01*
X104082768Y-86367219D02*
X104416101Y-87367219D01*
X105320863Y-87367219D02*
X104987530Y-86891028D01*
X104749435Y-87367219D02*
X104749435Y-86367219D01*
X104749435Y-86367219D02*
X105130387Y-86367219D01*
X105130387Y-86367219D02*
X105225625Y-86414838D01*
X105225625Y-86414838D02*
X105273244Y-86462457D01*
X105273244Y-86462457D02*
X105320863Y-86557695D01*
X105320863Y-86557695D02*
X105320863Y-86700552D01*
X105320863Y-86700552D02*
X105273244Y-86795790D01*
X105273244Y-86795790D02*
X105225625Y-86843409D01*
X105225625Y-86843409D02*
X105130387Y-86891028D01*
X105130387Y-86891028D02*
X104749435Y-86891028D01*
X105606578Y-86367219D02*
X106178006Y-86367219D01*
X105892292Y-87367219D02*
X105892292Y-86367219D01*
X97431976Y-87318037D02*
X97389628Y-87220341D01*
X97389628Y-87220341D02*
X97280193Y-87128514D01*
X97280193Y-87128514D02*
X97140149Y-87073165D01*
X97140149Y-87073165D02*
X97005975Y-87084904D01*
X97005975Y-87084904D02*
X96908279Y-87127252D01*
X96908279Y-87127252D02*
X96749364Y-87242556D01*
X96749364Y-87242556D02*
X96657538Y-87351991D01*
X96657538Y-87351991D02*
X96571580Y-87528513D01*
X96571580Y-87528513D02*
X96546841Y-87632079D01*
X96546841Y-87632079D02*
X96558579Y-87766253D01*
X96558579Y-87766253D02*
X96637405Y-87894558D01*
X96637405Y-87894558D02*
X96710362Y-87955776D01*
X96710362Y-87955776D02*
X96850406Y-88011125D01*
X96850406Y-88011125D02*
X96917493Y-88005255D01*
X96917493Y-88005255D02*
X97131756Y-87749907D01*
X97131756Y-87749907D02*
X96985842Y-87627471D01*
X107243482Y-89914838D02*
X107148244Y-89867219D01*
X107148244Y-89867219D02*
X107005387Y-89867219D01*
X107005387Y-89867219D02*
X106862530Y-89914838D01*
X106862530Y-89914838D02*
X106767292Y-90010076D01*
X106767292Y-90010076D02*
X106719673Y-90105314D01*
X106719673Y-90105314D02*
X106672054Y-90295790D01*
X106672054Y-90295790D02*
X106672054Y-90438647D01*
X106672054Y-90438647D02*
X106719673Y-90629123D01*
X106719673Y-90629123D02*
X106767292Y-90724361D01*
X106767292Y-90724361D02*
X106862530Y-90819600D01*
X106862530Y-90819600D02*
X107005387Y-90867219D01*
X107005387Y-90867219D02*
X107100625Y-90867219D01*
X107100625Y-90867219D02*
X107243482Y-90819600D01*
X107243482Y-90819600D02*
X107291101Y-90771980D01*
X107291101Y-90771980D02*
X107291101Y-90438647D01*
X107291101Y-90438647D02*
X107100625Y-90438647D01*
D11*
X94364455Y-85954894D02*
X94878685Y-85342058D01*
X94878685Y-85342058D02*
X95112146Y-85537955D01*
X95112146Y-85537955D02*
X95146024Y-85616112D01*
X95146024Y-85616112D02*
X95150720Y-85669782D01*
X95150720Y-85669782D02*
X95130928Y-85752634D01*
X95130928Y-85752634D02*
X95057467Y-85840182D01*
X95057467Y-85840182D02*
X94979310Y-85874060D01*
X94979310Y-85874060D02*
X94925640Y-85878756D01*
X94925640Y-85878756D02*
X94842787Y-85858964D01*
X94842787Y-85858964D02*
X94609326Y-85663067D01*
X95450927Y-86319525D02*
X95513988Y-86422169D01*
X95513988Y-86422169D02*
X95518684Y-86475838D01*
X95518684Y-86475838D02*
X95498892Y-86558691D01*
X95498892Y-86558691D02*
X95425431Y-86646239D01*
X95425431Y-86646239D02*
X95347274Y-86680117D01*
X95347274Y-86680117D02*
X95293604Y-86684812D01*
X95293604Y-86684812D02*
X95210751Y-86665021D01*
X95210751Y-86665021D02*
X94977290Y-86469124D01*
X94977290Y-86469124D02*
X95491520Y-85856288D01*
X95491520Y-85856288D02*
X95695799Y-86027698D01*
X95695799Y-86027698D02*
X95729677Y-86105855D01*
X95729677Y-86105855D02*
X95734373Y-86159525D01*
X95734373Y-86159525D02*
X95714581Y-86242377D01*
X95714581Y-86242377D02*
X95665607Y-86300743D01*
X95665607Y-86300743D02*
X95587450Y-86334621D01*
X95587450Y-86334621D02*
X95533780Y-86339316D01*
X95533780Y-86339316D02*
X95450927Y-86319525D01*
X95450927Y-86319525D02*
X95246649Y-86148115D01*
X96195590Y-86795181D02*
X95852770Y-87203738D01*
X96245574Y-86439284D02*
X95732353Y-86754588D01*
X95732353Y-86754588D02*
X96111728Y-87072921D01*
D14*
X123162800Y-70540596D02*
X123076803Y-70052882D01*
X123076803Y-70052882D02*
X123423241Y-70262576D01*
X123423241Y-70262576D02*
X123403396Y-70150027D01*
X123403396Y-70150027D02*
X123427682Y-70068379D01*
X123427682Y-70068379D02*
X123458583Y-70024247D01*
X123458583Y-70024247D02*
X123527001Y-69973500D01*
X123527001Y-69973500D02*
X123714583Y-69940424D01*
X123714583Y-69940424D02*
X123796231Y-69964710D01*
X123796231Y-69964710D02*
X123840363Y-69995612D01*
X123840363Y-69995612D02*
X123891110Y-70064030D01*
X123891110Y-70064030D02*
X123930801Y-70289128D01*
X123930801Y-70289128D02*
X123906515Y-70370777D01*
X123906515Y-70370777D02*
X123875613Y-70414908D01*
X123037112Y-69827783D02*
X123778652Y-69426249D01*
X123778652Y-69426249D02*
X122944500Y-69302552D01*
X122911424Y-69114970D02*
X122825427Y-68627256D01*
X122825427Y-68627256D02*
X123171865Y-68836950D01*
X123171865Y-68836950D02*
X123152019Y-68724400D01*
X123152019Y-68724400D02*
X123176305Y-68642752D01*
X123176305Y-68642752D02*
X123207207Y-68598621D01*
X123207207Y-68598621D02*
X123275624Y-68547874D01*
X123275624Y-68547874D02*
X123463207Y-68514798D01*
X123463207Y-68514798D02*
X123544855Y-68539084D01*
X123544855Y-68539084D02*
X123588987Y-68569985D01*
X123588987Y-68569985D02*
X123639733Y-68638403D01*
X123639733Y-68638403D02*
X123679424Y-68863502D01*
X123679424Y-68863502D02*
X123655138Y-68945150D01*
X123655138Y-68945150D02*
X123624237Y-68989282D01*
D11*
X114734499Y-75045180D02*
X114734499Y-74807085D01*
X114972594Y-74902323D02*
X114734499Y-74807085D01*
X114734499Y-74807085D02*
X114496404Y-74902323D01*
X114877356Y-74616609D02*
X114734499Y-74807085D01*
X114734499Y-74807085D02*
X114591642Y-74616609D01*
X114734499Y-75045180D02*
X114734499Y-74807085D01*
X114972594Y-74902323D02*
X114734499Y-74807085D01*
X114734499Y-74807085D02*
X114496404Y-74902323D01*
X114877356Y-74616609D02*
X114734499Y-74807085D01*
X114734499Y-74807085D02*
X114591642Y-74616609D01*
X96684483Y-90226937D02*
X97231658Y-90686071D01*
X97231658Y-90686071D02*
X97310484Y-90814376D01*
X97310484Y-90814376D02*
X97322222Y-90948551D01*
X97322222Y-90948551D02*
X97266874Y-91088595D01*
X97266874Y-91088595D02*
X97205656Y-91161551D01*
X96929355Y-89935111D02*
X97327271Y-89460893D01*
X97327271Y-89460893D02*
X97404835Y-89961112D01*
X97404835Y-89961112D02*
X97496662Y-89851677D01*
X97496662Y-89851677D02*
X97594358Y-89809330D01*
X97594358Y-89809330D02*
X97661445Y-89803460D01*
X97661445Y-89803460D02*
X97765010Y-89828200D01*
X97765010Y-89828200D02*
X97947402Y-89981244D01*
X97947402Y-89981244D02*
X97989750Y-90078941D01*
X97989750Y-90078941D02*
X97995619Y-90146028D01*
X97995619Y-90146028D02*
X97970880Y-90249593D01*
X97970880Y-90249593D02*
X97787226Y-90468463D01*
X97787226Y-90468463D02*
X97689530Y-90510811D01*
X97689530Y-90510811D02*
X97622442Y-90516680D01*
D15*
%TO.C,R_nSLEEP1*%
X115332379Y-74720000D02*
X115667621Y-74720000D01*
X115332379Y-75480000D02*
X115667621Y-75480000D01*
%TO.C,R_GAIN1*%
X108120000Y-76917621D02*
X108120000Y-76582379D01*
X108880000Y-76917621D02*
X108880000Y-76582379D01*
%TO.C,R_MODE1*%
X110120000Y-76917621D02*
X110120000Y-76582379D01*
X110880000Y-76917621D02*
X110880000Y-76582379D01*
%TO.C,C_VM2*%
X114490000Y-69146267D02*
X114490000Y-68853733D01*
X115510000Y-69146267D02*
X115510000Y-68853733D01*
%TO.C,R9*%
X114620000Y-76917621D02*
X114620000Y-76582379D01*
X115380000Y-76917621D02*
X115380000Y-76582379D01*
%TO.C,C10*%
X94640000Y-72451665D02*
X94640000Y-72683335D01*
X95360000Y-72451665D02*
X95360000Y-72683335D01*
%TO.C,C2*%
X120773752Y-77240000D02*
X119351248Y-77240000D01*
X120773752Y-79960000D02*
X119351248Y-79960000D01*
%TO.C,C_CP1*%
X115384165Y-71640000D02*
X115615835Y-71640000D01*
X115384165Y-72360000D02*
X115615835Y-72360000D01*
%TO.C,U5*%
X97140000Y-70140000D02*
X97440000Y-70140000D01*
X97140000Y-70440000D02*
X97140000Y-70140000D01*
X97140000Y-77060000D02*
X97140000Y-77360000D01*
X97140000Y-77360000D02*
X97440000Y-77360000D01*
X104360000Y-70140000D02*
X104060000Y-70140000D01*
X104360000Y-70440000D02*
X104360000Y-70140000D01*
X104360000Y-77060000D02*
X104360000Y-77360000D01*
X104360000Y-77360000D02*
X104060000Y-77360000D01*
X104530000Y-69877500D02*
X104060000Y-69537500D01*
X104530000Y-69197500D01*
X104530000Y-69877500D01*
G36*
X104530000Y-69877500D02*
G01*
X104060000Y-69537500D01*
X104530000Y-69197500D01*
X104530000Y-69877500D01*
G37*
%TO.C,J2*%
X100420000Y-88740000D02*
X100420000Y-87330000D01*
X101240000Y-84660000D02*
X101240000Y-84810000D01*
X102040000Y-84660000D02*
X101240000Y-84660000D01*
X109580000Y-88740000D02*
X109580000Y-87330000D01*
%TO.C,C15*%
X112140000Y-78884165D02*
X112140000Y-79115835D01*
X112860000Y-78884165D02*
X112860000Y-79115835D01*
%TO.C,R11*%
X115820000Y-78932379D02*
X115820000Y-79267621D01*
X116580000Y-78932379D02*
X116580000Y-79267621D01*
%TO.C,C_AVDD1*%
X107890000Y-70353733D02*
X107890000Y-70646267D01*
X108910000Y-70353733D02*
X108910000Y-70646267D01*
%TO.C,SW1*%
X88723045Y-62048528D02*
X89571573Y-62897056D01*
X90702944Y-64028427D02*
X91551472Y-64876955D01*
X91551472Y-64876955D02*
X96076955Y-60351472D01*
X93248528Y-57523045D02*
X88723045Y-62048528D01*
X94097056Y-58371573D02*
X93248528Y-57523045D01*
X96076955Y-60351472D02*
X95228427Y-59502944D01*
%TO.C,R6*%
X100032379Y-80820000D02*
X100367621Y-80820000D01*
X100032379Y-81580000D02*
X100367621Y-81580000D01*
%TO.C,C3*%
X120711252Y-74040000D02*
X119288748Y-74040000D01*
X120711252Y-76760000D02*
X119288748Y-76760000D01*
%TO.C,R1*%
X93582379Y-73870000D02*
X93917621Y-73870000D01*
X93582379Y-74630000D02*
X93917621Y-74630000D01*
D10*
%TO.C,D4*%
X101515000Y-82200000D02*
G75*
G02*
X101415000Y-82200000I-50000J0D01*
G01*
X101415000Y-82200000D02*
G75*
G02*
X101515000Y-82200000I50000J0D01*
G01*
D15*
%TO.C,R2*%
X102167621Y-83225000D02*
X101832379Y-83225000D01*
X102167621Y-83985000D02*
X101832379Y-83985000D01*
%TO.C,R_term1*%
X94417621Y-78370000D02*
X94082379Y-78370000D01*
X94417621Y-79130000D02*
X94082379Y-79130000D01*
%TO.C,C_FLY1*%
X115615835Y-72640000D02*
X115384165Y-72640000D01*
X115615835Y-73360000D02*
X115384165Y-73360000D01*
%TO.C,R_nFault1*%
X115667621Y-73720000D02*
X115332379Y-73720000D01*
X115667621Y-74480000D02*
X115332379Y-74480000D01*
D10*
%TO.C,D3*%
X124050000Y-70935000D02*
G75*
G02*
X123950000Y-70935000I-50000J0D01*
G01*
X123950000Y-70935000D02*
G75*
G02*
X124050000Y-70935000I50000J0D01*
G01*
D15*
%TO.C,C11*%
X100395835Y-67440000D02*
X100164165Y-67440000D01*
X100395835Y-68160000D02*
X100164165Y-68160000D01*
%TO.C,R4*%
X91027329Y-65635269D02*
X90790277Y-65872321D01*
X91564731Y-66172671D02*
X91327679Y-66409723D01*
%TO.C,R_SLEW1*%
X109120000Y-76917621D02*
X109120000Y-76582379D01*
X109880000Y-76917621D02*
X109880000Y-76582379D01*
%TO.C,R8*%
X113370000Y-76917621D02*
X113370000Y-76582379D01*
X114130000Y-76917621D02*
X114130000Y-76582379D01*
%TO.C,C_VM1*%
X106840000Y-70115835D02*
X106840000Y-69884165D01*
X107560000Y-70115835D02*
X107560000Y-69884165D01*
%TO.C,J7*%
X89358968Y-80584853D02*
X87583883Y-75707848D01*
X90177435Y-74763873D02*
X87583883Y-75707848D01*
X91952519Y-79640878D02*
X89358968Y-80584853D01*
X91952519Y-79640878D02*
X90177435Y-74763873D01*
X92386885Y-80834287D02*
X92858873Y-82131063D01*
X92858873Y-82131063D02*
X91562097Y-82603051D01*
%TO.C,D1*%
X86350000Y-69750000D02*
X86350000Y-68390000D01*
X87150000Y-68390000D02*
X86350000Y-68390000D01*
X87150000Y-69750000D02*
X87150000Y-68390000D01*
%TO.C,R3*%
X107432379Y-83225000D02*
X107767621Y-83225000D01*
X107432379Y-83985000D02*
X107767621Y-83985000D01*
%TO.C,C_CSAREF1*%
X111140000Y-76865835D02*
X111140000Y-76634165D01*
X111860000Y-76865835D02*
X111860000Y-76634165D01*
%TO.C,J5*%
X101140000Y-87505000D02*
X101140000Y-90265000D01*
X106330000Y-87505000D02*
X101140000Y-87505000D01*
X106330000Y-87505000D02*
X106330000Y-90265000D01*
X106330000Y-90265000D02*
X101140000Y-90265000D01*
X107600000Y-87505000D02*
X108980000Y-87505000D01*
X108980000Y-87505000D02*
X108980000Y-88885000D01*
%TO.C,C_VIN_AVDD1*%
X115384165Y-70640000D02*
X115615835Y-70640000D01*
X115384165Y-71360000D02*
X115615835Y-71360000D01*
%TO.C,R7*%
X112120000Y-76917621D02*
X112120000Y-76582379D01*
X112880000Y-76917621D02*
X112880000Y-76582379D01*
%TO.C,C5*%
X119088748Y-64440000D02*
X120511252Y-64440000D01*
X119088748Y-67160000D02*
X120511252Y-67160000D01*
%TO.C,U3*%
X103840000Y-82070000D02*
X104500000Y-82070000D01*
X103840000Y-83480000D02*
X103840000Y-82070000D01*
X105500000Y-82070000D02*
X106160000Y-82070000D01*
X106160000Y-83480000D02*
X106160000Y-82070000D01*
X103860000Y-83850000D02*
X103530000Y-84090000D01*
X103530000Y-83610000D01*
X103860000Y-83850000D01*
G36*
X103860000Y-83850000D02*
G01*
X103530000Y-84090000D01*
X103530000Y-83610000D01*
X103860000Y-83850000D01*
G37*
%TO.C,C16*%
X113390000Y-78959165D02*
X113390000Y-79190835D01*
X114110000Y-78959165D02*
X114110000Y-79190835D01*
%TO.C,C4*%
X120711252Y-70840000D02*
X119288748Y-70840000D01*
X120711252Y-73560000D02*
X119288748Y-73560000D01*
D16*
%TO.C,U6*%
X109578300Y-69820300D02*
X109578300Y-70265661D01*
X109578300Y-74734339D02*
X109578300Y-75179700D01*
X109578300Y-75179700D02*
X109915660Y-75179700D01*
X109915660Y-69820300D02*
X109578300Y-69820300D01*
X113584340Y-75179700D02*
X113921700Y-75179700D01*
X113921700Y-69820300D02*
X113584340Y-69820300D01*
X113921700Y-70265661D02*
X113921700Y-69820300D01*
X113921700Y-75179700D02*
X113921700Y-74734339D01*
D17*
G36*
X109146500Y-71290500D02*
G01*
X108892500Y-71290500D01*
X108892500Y-70909500D01*
X109146500Y-70909500D01*
X109146500Y-71290500D01*
G37*
G36*
X110940499Y-75865500D02*
G01*
X110559499Y-75865500D01*
X110559499Y-75611500D01*
X110940499Y-75611500D01*
X110940499Y-75865500D01*
G37*
G36*
X114607500Y-70890501D02*
G01*
X114353500Y-70890501D01*
X114353500Y-70509501D01*
X114607500Y-70509501D01*
X114607500Y-70890501D01*
G37*
D15*
%TO.C,C7*%
X94640000Y-70019165D02*
X94640000Y-70250835D01*
X95360000Y-70019165D02*
X95360000Y-70250835D01*
%TO.C,J4*%
X105399293Y-80410791D02*
X105616475Y-79814086D01*
X105995998Y-80627974D02*
X105399293Y-80410791D01*
%TO.C,C_VIN_AVDD2*%
X115990000Y-68853733D02*
X115990000Y-69146267D01*
X117010000Y-68853733D02*
X117010000Y-69146267D01*
%TO.C,Y1*%
X101780000Y-67040000D02*
X101780000Y-67380000D01*
X102820000Y-66100000D02*
X103460000Y-66100000D01*
X102820000Y-68320000D02*
X103460000Y-68320000D01*
X104500000Y-67050000D02*
X104500000Y-67380000D01*
X104700000Y-66830000D02*
X104700000Y-66140000D01*
X104700000Y-66830000D02*
G75*
G02*
X104500000Y-67050001I-320002J90001D01*
G01*
%TO.C,J3*%
X91431593Y-83582641D02*
X89657499Y-85696923D01*
X93633270Y-89032991D02*
X89657499Y-85696923D01*
X95407363Y-86918708D02*
X91431593Y-83582641D01*
X95407363Y-86918708D02*
X93633270Y-89032991D01*
X96380240Y-87735049D02*
X97437381Y-88622096D01*
X97437381Y-88622096D02*
X96550334Y-89679237D01*
%TO.C,D2*%
X86350000Y-71000000D02*
X86350000Y-72360000D01*
X86350000Y-72360000D02*
X87150000Y-72360000D01*
X87150000Y-71000000D02*
X87150000Y-72360000D01*
%TO.C,R12*%
X115820000Y-76634879D02*
X115820000Y-76970121D01*
X116580000Y-76634879D02*
X116580000Y-76970121D01*
%TO.C,C17*%
X114640000Y-78959165D02*
X114640000Y-79190835D01*
X115360000Y-78959165D02*
X115360000Y-79190835D01*
%TO.C,C14*%
X88527349Y-66136466D02*
X88363534Y-65972651D01*
X89036466Y-65627349D02*
X88872651Y-65463534D01*
%TO.C,R5*%
X122720000Y-72367621D02*
X122720000Y-72032379D01*
X123480000Y-72367621D02*
X123480000Y-72032379D01*
%TO.C,JP1*%
X93250000Y-75350000D02*
X95250000Y-75350000D01*
X93250000Y-78150000D02*
X93250000Y-75350000D01*
X95250000Y-75350000D02*
X95250000Y-78150000D01*
X95250000Y-78150000D02*
X93250000Y-78150000D01*
%TO.C,C6*%
X119288748Y-67640000D02*
X120711252Y-67640000D01*
X119288748Y-70360000D02*
X120711252Y-70360000D01*
%TO.C,J6*%
X86877590Y-81485397D02*
X85102505Y-76608392D01*
X87696057Y-75664417D02*
X85102505Y-76608392D01*
X89471141Y-80541422D02*
X86877590Y-81485397D01*
X89471141Y-80541422D02*
X87696057Y-75664417D01*
X89905507Y-81734831D02*
X90377495Y-83031607D01*
X90377495Y-83031607D02*
X89080719Y-83503595D01*
%TO.C,C9*%
X95634165Y-67890000D02*
X95865835Y-67890000D01*
X95634165Y-68610000D02*
X95865835Y-68610000D01*
%TO.C,C1*%
X120611252Y-80440000D02*
X119188748Y-80440000D01*
X120611252Y-83160000D02*
X119188748Y-83160000D01*
%TO.C,U2*%
X90750000Y-67690000D02*
X88800000Y-67690000D01*
X90750000Y-67690000D02*
X92700000Y-67690000D01*
X90750000Y-72810000D02*
X88800000Y-72810000D01*
X90750000Y-72810000D02*
X92700000Y-72810000D01*
X93690000Y-73045000D02*
X93210000Y-73045000D01*
X93450000Y-72715000D01*
X93690000Y-73045000D01*
G36*
X93690000Y-73045000D02*
G01*
X93210000Y-73045000D01*
X93450000Y-72715000D01*
X93690000Y-73045000D01*
G37*
%TD*%
M02*
