%TF.GenerationSoftware,KiCad,Pcbnew,9.0.2-9.0.2-0~ubuntu22.04.1*%
%TF.CreationDate,2025-06-19T17:06:25+10:00*%
%TF.ProjectId,bldc_driver,626c6463-5f64-4726-9976-65722e6b6963,rev?*%
%TF.SameCoordinates,Original*%
%TF.FileFunction,Copper,L4,Bot*%
%TF.FilePolarity,Positive*%
%FSLAX46Y46*%
G04 Gerber Fmt 4.6, Leading zero omitted, Abs format (unit mm)*
G04 Created by KiCad (PCBNEW 9.0.2-9.0.2-0~ubuntu22.04.1) date 2025-06-19 17:06:25*
%MOMM*%
%LPD*%
G01*
G04 APERTURE LIST*
G04 Aperture macros list*
%AMRoundRect*
0 Rectangle with rounded corners*
0 $1 Rounding radius*
0 $2 $3 $4 $5 $6 $7 $8 $9 X,Y pos of 4 corners*
0 Add a 4 corners polygon primitive as box body*
4,1,4,$2,$3,$4,$5,$6,$7,$8,$9,$2,$3,0*
0 Add four circle primitives for the rounded corners*
1,1,$1+$1,$2,$3*
1,1,$1+$1,$4,$5*
1,1,$1+$1,$6,$7*
1,1,$1+$1,$8,$9*
0 Add four rect primitives between the rounded corners*
20,1,$1+$1,$2,$3,$4,$5,0*
20,1,$1+$1,$4,$5,$6,$7,0*
20,1,$1+$1,$6,$7,$8,$9,0*
20,1,$1+$1,$8,$9,$2,$3,0*%
%AMRotRect*
0 Rectangle, with rotation*
0 The origin of the aperture is its center*
0 $1 length*
0 $2 width*
0 $3 Rotation angle, in degrees counterclockwise*
0 Add horizontal line*
21,1,$1,$2,0,0,$3*%
G04 Aperture macros list end*
%ADD10C,0.100000*%
%ADD11C,0.150000*%
%ADD12C,0.300000*%
%ADD13C,0.400000*%
%TA.AperFunction,ComponentPad*%
%ADD14RoundRect,0.250002X-1.499998X-1.499998X1.499998X-1.499998X1.499998X1.499998X-1.499998X1.499998X0*%
%TD*%
%TA.AperFunction,ComponentPad*%
%ADD15C,3.100000*%
%TD*%
%TA.AperFunction,ConnectorPad*%
%ADD16C,4.700000*%
%TD*%
%TA.AperFunction,ComponentPad*%
%ADD17RotRect,1.700000X1.700000X200.000000*%
%TD*%
%TA.AperFunction,ComponentPad*%
%ADD18C,1.700000*%
%TD*%
%TA.AperFunction,ComponentPad*%
%ADD19R,1.700000X1.700000*%
%TD*%
%TA.AperFunction,ComponentPad*%
%ADD20RoundRect,0.250002X-2.071034X0.459137X-0.459137X-2.071034X2.071034X-0.459137X0.459137X2.071034X0*%
%TD*%
%TA.AperFunction,ComponentPad*%
%ADD21RoundRect,0.250002X0.000000X-2.121318X2.121318X0.000000X0.000000X2.121318X-2.121318X0.000000X0*%
%TD*%
%TA.AperFunction,ComponentPad*%
%ADD22RotRect,1.700000X1.700000X230.000000*%
%TD*%
%TA.AperFunction,SMDPad,CuDef*%
%ADD23RoundRect,0.375000X0.375000X-0.625000X0.375000X0.625000X-0.375000X0.625000X-0.375000X-0.625000X0*%
%TD*%
%TA.AperFunction,SMDPad,CuDef*%
%ADD24RoundRect,0.500000X1.400000X-0.500000X1.400000X0.500000X-1.400000X0.500000X-1.400000X-0.500000X0*%
%TD*%
%TA.AperFunction,SMDPad,CuDef*%
%ADD25RoundRect,0.155000X-0.155000X0.212500X-0.155000X-0.212500X0.155000X-0.212500X0.155000X0.212500X0*%
%TD*%
%TA.AperFunction,SMDPad,CuDef*%
%ADD26RoundRect,0.250000X-0.412500X-1.100000X0.412500X-1.100000X0.412500X1.100000X-0.412500X1.100000X0*%
%TD*%
%TA.AperFunction,SMDPad,CuDef*%
%ADD27RoundRect,0.100000X-0.637500X-0.100000X0.637500X-0.100000X0.637500X0.100000X-0.637500X0.100000X0*%
%TD*%
%TA.AperFunction,ViaPad*%
%ADD28C,0.600000*%
%TD*%
%TA.AperFunction,Conductor*%
%ADD29C,0.500000*%
%TD*%
%TA.AperFunction,Conductor*%
%ADD30C,0.200000*%
%TD*%
%TA.AperFunction,Conductor*%
%ADD31C,0.300000*%
%TD*%
%TA.AperFunction,Conductor*%
%ADD32C,0.400000*%
%TD*%
%TA.AperFunction,Conductor*%
%ADD33C,1.000000*%
%TD*%
G04 APERTURE END LIST*
D10*
D11*
X177002200Y-166007200D02*
X285002200Y-166007200D01*
X285002200Y-198007200D01*
X177002200Y-198007200D01*
X177002200Y-166007200D01*
D10*
D11*
X10000000Y-10000000D02*
X287002200Y-10000000D01*
X287002200Y-200007200D01*
X10000000Y-200007200D01*
X10000000Y-10000000D01*
D10*
D11*
X12000000Y-12000000D02*
X285002200Y-12000000D01*
X285002200Y-198007200D01*
X12000000Y-198007200D01*
X12000000Y-12000000D01*
D10*
D11*
X60000000Y-12000000D02*
X60000000Y-10000000D01*
D10*
D11*
X110000000Y-12000000D02*
X110000000Y-10000000D01*
D10*
D11*
X160000000Y-12000000D02*
X160000000Y-10000000D01*
D10*
D11*
X210000000Y-12000000D02*
X210000000Y-10000000D01*
D10*
D11*
X260000000Y-12000000D02*
X260000000Y-10000000D01*
D10*
D11*
X36089160Y-11593604D02*
X35346303Y-11593604D01*
X35717731Y-11593604D02*
X35717731Y-10293604D01*
X35717731Y-10293604D02*
X35593922Y-10479319D01*
X35593922Y-10479319D02*
X35470112Y-10603128D01*
X35470112Y-10603128D02*
X35346303Y-10665033D01*
D10*
D11*
X85346303Y-10417414D02*
X85408207Y-10355509D01*
X85408207Y-10355509D02*
X85532017Y-10293604D01*
X85532017Y-10293604D02*
X85841541Y-10293604D01*
X85841541Y-10293604D02*
X85965350Y-10355509D01*
X85965350Y-10355509D02*
X86027255Y-10417414D01*
X86027255Y-10417414D02*
X86089160Y-10541223D01*
X86089160Y-10541223D02*
X86089160Y-10665033D01*
X86089160Y-10665033D02*
X86027255Y-10850747D01*
X86027255Y-10850747D02*
X85284398Y-11593604D01*
X85284398Y-11593604D02*
X86089160Y-11593604D01*
D10*
D11*
X135284398Y-10293604D02*
X136089160Y-10293604D01*
X136089160Y-10293604D02*
X135655826Y-10788842D01*
X135655826Y-10788842D02*
X135841541Y-10788842D01*
X135841541Y-10788842D02*
X135965350Y-10850747D01*
X135965350Y-10850747D02*
X136027255Y-10912652D01*
X136027255Y-10912652D02*
X136089160Y-11036461D01*
X136089160Y-11036461D02*
X136089160Y-11345985D01*
X136089160Y-11345985D02*
X136027255Y-11469795D01*
X136027255Y-11469795D02*
X135965350Y-11531700D01*
X135965350Y-11531700D02*
X135841541Y-11593604D01*
X135841541Y-11593604D02*
X135470112Y-11593604D01*
X135470112Y-11593604D02*
X135346303Y-11531700D01*
X135346303Y-11531700D02*
X135284398Y-11469795D01*
D10*
D11*
X185965350Y-10726938D02*
X185965350Y-11593604D01*
X185655826Y-10231700D02*
X185346303Y-11160271D01*
X185346303Y-11160271D02*
X186151064Y-11160271D01*
D10*
D11*
X236027255Y-10293604D02*
X235408207Y-10293604D01*
X235408207Y-10293604D02*
X235346303Y-10912652D01*
X235346303Y-10912652D02*
X235408207Y-10850747D01*
X235408207Y-10850747D02*
X235532017Y-10788842D01*
X235532017Y-10788842D02*
X235841541Y-10788842D01*
X235841541Y-10788842D02*
X235965350Y-10850747D01*
X235965350Y-10850747D02*
X236027255Y-10912652D01*
X236027255Y-10912652D02*
X236089160Y-11036461D01*
X236089160Y-11036461D02*
X236089160Y-11345985D01*
X236089160Y-11345985D02*
X236027255Y-11469795D01*
X236027255Y-11469795D02*
X235965350Y-11531700D01*
X235965350Y-11531700D02*
X235841541Y-11593604D01*
X235841541Y-11593604D02*
X235532017Y-11593604D01*
X235532017Y-11593604D02*
X235408207Y-11531700D01*
X235408207Y-11531700D02*
X235346303Y-11469795D01*
D10*
D11*
X285965350Y-10293604D02*
X285717731Y-10293604D01*
X285717731Y-10293604D02*
X285593922Y-10355509D01*
X285593922Y-10355509D02*
X285532017Y-10417414D01*
X285532017Y-10417414D02*
X285408207Y-10603128D01*
X285408207Y-10603128D02*
X285346303Y-10850747D01*
X285346303Y-10850747D02*
X285346303Y-11345985D01*
X285346303Y-11345985D02*
X285408207Y-11469795D01*
X285408207Y-11469795D02*
X285470112Y-11531700D01*
X285470112Y-11531700D02*
X285593922Y-11593604D01*
X285593922Y-11593604D02*
X285841541Y-11593604D01*
X285841541Y-11593604D02*
X285965350Y-11531700D01*
X285965350Y-11531700D02*
X286027255Y-11469795D01*
X286027255Y-11469795D02*
X286089160Y-11345985D01*
X286089160Y-11345985D02*
X286089160Y-11036461D01*
X286089160Y-11036461D02*
X286027255Y-10912652D01*
X286027255Y-10912652D02*
X285965350Y-10850747D01*
X285965350Y-10850747D02*
X285841541Y-10788842D01*
X285841541Y-10788842D02*
X285593922Y-10788842D01*
X285593922Y-10788842D02*
X285470112Y-10850747D01*
X285470112Y-10850747D02*
X285408207Y-10912652D01*
X285408207Y-10912652D02*
X285346303Y-11036461D01*
D10*
D11*
X60000000Y-198007200D02*
X60000000Y-200007200D01*
D10*
D11*
X110000000Y-198007200D02*
X110000000Y-200007200D01*
D10*
D11*
X160000000Y-198007200D02*
X160000000Y-200007200D01*
D10*
D11*
X210000000Y-198007200D02*
X210000000Y-200007200D01*
D10*
D11*
X260000000Y-198007200D02*
X260000000Y-200007200D01*
D10*
D11*
X36089160Y-199600804D02*
X35346303Y-199600804D01*
X35717731Y-199600804D02*
X35717731Y-198300804D01*
X35717731Y-198300804D02*
X35593922Y-198486519D01*
X35593922Y-198486519D02*
X35470112Y-198610328D01*
X35470112Y-198610328D02*
X35346303Y-198672233D01*
D10*
D11*
X85346303Y-198424614D02*
X85408207Y-198362709D01*
X85408207Y-198362709D02*
X85532017Y-198300804D01*
X85532017Y-198300804D02*
X85841541Y-198300804D01*
X85841541Y-198300804D02*
X85965350Y-198362709D01*
X85965350Y-198362709D02*
X86027255Y-198424614D01*
X86027255Y-198424614D02*
X86089160Y-198548423D01*
X86089160Y-198548423D02*
X86089160Y-198672233D01*
X86089160Y-198672233D02*
X86027255Y-198857947D01*
X86027255Y-198857947D02*
X85284398Y-199600804D01*
X85284398Y-199600804D02*
X86089160Y-199600804D01*
D10*
D11*
X135284398Y-198300804D02*
X136089160Y-198300804D01*
X136089160Y-198300804D02*
X135655826Y-198796042D01*
X135655826Y-198796042D02*
X135841541Y-198796042D01*
X135841541Y-198796042D02*
X135965350Y-198857947D01*
X135965350Y-198857947D02*
X136027255Y-198919852D01*
X136027255Y-198919852D02*
X136089160Y-199043661D01*
X136089160Y-199043661D02*
X136089160Y-199353185D01*
X136089160Y-199353185D02*
X136027255Y-199476995D01*
X136027255Y-199476995D02*
X135965350Y-199538900D01*
X135965350Y-199538900D02*
X135841541Y-199600804D01*
X135841541Y-199600804D02*
X135470112Y-199600804D01*
X135470112Y-199600804D02*
X135346303Y-199538900D01*
X135346303Y-199538900D02*
X135284398Y-199476995D01*
D10*
D11*
X185965350Y-198734138D02*
X185965350Y-199600804D01*
X185655826Y-198238900D02*
X185346303Y-199167471D01*
X185346303Y-199167471D02*
X186151064Y-199167471D01*
D10*
D11*
X236027255Y-198300804D02*
X235408207Y-198300804D01*
X235408207Y-198300804D02*
X235346303Y-198919852D01*
X235346303Y-198919852D02*
X235408207Y-198857947D01*
X235408207Y-198857947D02*
X235532017Y-198796042D01*
X235532017Y-198796042D02*
X235841541Y-198796042D01*
X235841541Y-198796042D02*
X235965350Y-198857947D01*
X235965350Y-198857947D02*
X236027255Y-198919852D01*
X236027255Y-198919852D02*
X236089160Y-199043661D01*
X236089160Y-199043661D02*
X236089160Y-199353185D01*
X236089160Y-199353185D02*
X236027255Y-199476995D01*
X236027255Y-199476995D02*
X235965350Y-199538900D01*
X235965350Y-199538900D02*
X235841541Y-199600804D01*
X235841541Y-199600804D02*
X235532017Y-199600804D01*
X235532017Y-199600804D02*
X235408207Y-199538900D01*
X235408207Y-199538900D02*
X235346303Y-199476995D01*
D10*
D11*
X285965350Y-198300804D02*
X285717731Y-198300804D01*
X285717731Y-198300804D02*
X285593922Y-198362709D01*
X285593922Y-198362709D02*
X285532017Y-198424614D01*
X285532017Y-198424614D02*
X285408207Y-198610328D01*
X285408207Y-198610328D02*
X285346303Y-198857947D01*
X285346303Y-198857947D02*
X285346303Y-199353185D01*
X285346303Y-199353185D02*
X285408207Y-199476995D01*
X285408207Y-199476995D02*
X285470112Y-199538900D01*
X285470112Y-199538900D02*
X285593922Y-199600804D01*
X285593922Y-199600804D02*
X285841541Y-199600804D01*
X285841541Y-199600804D02*
X285965350Y-199538900D01*
X285965350Y-199538900D02*
X286027255Y-199476995D01*
X286027255Y-199476995D02*
X286089160Y-199353185D01*
X286089160Y-199353185D02*
X286089160Y-199043661D01*
X286089160Y-199043661D02*
X286027255Y-198919852D01*
X286027255Y-198919852D02*
X285965350Y-198857947D01*
X285965350Y-198857947D02*
X285841541Y-198796042D01*
X285841541Y-198796042D02*
X285593922Y-198796042D01*
X285593922Y-198796042D02*
X285470112Y-198857947D01*
X285470112Y-198857947D02*
X285408207Y-198919852D01*
X285408207Y-198919852D02*
X285346303Y-199043661D01*
D10*
D11*
X10000000Y-60000000D02*
X12000000Y-60000000D01*
D10*
D11*
X10000000Y-110000000D02*
X12000000Y-110000000D01*
D10*
D11*
X10000000Y-160000000D02*
X12000000Y-160000000D01*
D10*
D11*
X10690476Y-35222176D02*
X11309523Y-35222176D01*
X10566666Y-35593604D02*
X10999999Y-34293604D01*
X10999999Y-34293604D02*
X11433333Y-35593604D01*
D10*
D11*
X11092857Y-84912652D02*
X11278571Y-84974557D01*
X11278571Y-84974557D02*
X11340476Y-85036461D01*
X11340476Y-85036461D02*
X11402380Y-85160271D01*
X11402380Y-85160271D02*
X11402380Y-85345985D01*
X11402380Y-85345985D02*
X11340476Y-85469795D01*
X11340476Y-85469795D02*
X11278571Y-85531700D01*
X11278571Y-85531700D02*
X11154761Y-85593604D01*
X11154761Y-85593604D02*
X10659523Y-85593604D01*
X10659523Y-85593604D02*
X10659523Y-84293604D01*
X10659523Y-84293604D02*
X11092857Y-84293604D01*
X11092857Y-84293604D02*
X11216666Y-84355509D01*
X11216666Y-84355509D02*
X11278571Y-84417414D01*
X11278571Y-84417414D02*
X11340476Y-84541223D01*
X11340476Y-84541223D02*
X11340476Y-84665033D01*
X11340476Y-84665033D02*
X11278571Y-84788842D01*
X11278571Y-84788842D02*
X11216666Y-84850747D01*
X11216666Y-84850747D02*
X11092857Y-84912652D01*
X11092857Y-84912652D02*
X10659523Y-84912652D01*
D10*
D11*
X11402380Y-135469795D02*
X11340476Y-135531700D01*
X11340476Y-135531700D02*
X11154761Y-135593604D01*
X11154761Y-135593604D02*
X11030952Y-135593604D01*
X11030952Y-135593604D02*
X10845238Y-135531700D01*
X10845238Y-135531700D02*
X10721428Y-135407890D01*
X10721428Y-135407890D02*
X10659523Y-135284080D01*
X10659523Y-135284080D02*
X10597619Y-135036461D01*
X10597619Y-135036461D02*
X10597619Y-134850747D01*
X10597619Y-134850747D02*
X10659523Y-134603128D01*
X10659523Y-134603128D02*
X10721428Y-134479319D01*
X10721428Y-134479319D02*
X10845238Y-134355509D01*
X10845238Y-134355509D02*
X11030952Y-134293604D01*
X11030952Y-134293604D02*
X11154761Y-134293604D01*
X11154761Y-134293604D02*
X11340476Y-134355509D01*
X11340476Y-134355509D02*
X11402380Y-134417414D01*
D10*
D11*
X10659523Y-185593604D02*
X10659523Y-184293604D01*
X10659523Y-184293604D02*
X10969047Y-184293604D01*
X10969047Y-184293604D02*
X11154761Y-184355509D01*
X11154761Y-184355509D02*
X11278571Y-184479319D01*
X11278571Y-184479319D02*
X11340476Y-184603128D01*
X11340476Y-184603128D02*
X11402380Y-184850747D01*
X11402380Y-184850747D02*
X11402380Y-185036461D01*
X11402380Y-185036461D02*
X11340476Y-185284080D01*
X11340476Y-185284080D02*
X11278571Y-185407890D01*
X11278571Y-185407890D02*
X11154761Y-185531700D01*
X11154761Y-185531700D02*
X10969047Y-185593604D01*
X10969047Y-185593604D02*
X10659523Y-185593604D01*
D10*
D11*
X287002200Y-60000000D02*
X285002200Y-60000000D01*
D10*
D11*
X287002200Y-110000000D02*
X285002200Y-110000000D01*
D10*
D11*
X287002200Y-160000000D02*
X285002200Y-160000000D01*
D10*
D11*
X285692676Y-35222176D02*
X286311723Y-35222176D01*
X285568866Y-35593604D02*
X286002199Y-34293604D01*
X286002199Y-34293604D02*
X286435533Y-35593604D01*
D10*
D11*
X286095057Y-84912652D02*
X286280771Y-84974557D01*
X286280771Y-84974557D02*
X286342676Y-85036461D01*
X286342676Y-85036461D02*
X286404580Y-85160271D01*
X286404580Y-85160271D02*
X286404580Y-85345985D01*
X286404580Y-85345985D02*
X286342676Y-85469795D01*
X286342676Y-85469795D02*
X286280771Y-85531700D01*
X286280771Y-85531700D02*
X286156961Y-85593604D01*
X286156961Y-85593604D02*
X285661723Y-85593604D01*
X285661723Y-85593604D02*
X285661723Y-84293604D01*
X285661723Y-84293604D02*
X286095057Y-84293604D01*
X286095057Y-84293604D02*
X286218866Y-84355509D01*
X286218866Y-84355509D02*
X286280771Y-84417414D01*
X286280771Y-84417414D02*
X286342676Y-84541223D01*
X286342676Y-84541223D02*
X286342676Y-84665033D01*
X286342676Y-84665033D02*
X286280771Y-84788842D01*
X286280771Y-84788842D02*
X286218866Y-84850747D01*
X286218866Y-84850747D02*
X286095057Y-84912652D01*
X286095057Y-84912652D02*
X285661723Y-84912652D01*
D10*
D11*
X286404580Y-135469795D02*
X286342676Y-135531700D01*
X286342676Y-135531700D02*
X286156961Y-135593604D01*
X286156961Y-135593604D02*
X286033152Y-135593604D01*
X286033152Y-135593604D02*
X285847438Y-135531700D01*
X285847438Y-135531700D02*
X285723628Y-135407890D01*
X285723628Y-135407890D02*
X285661723Y-135284080D01*
X285661723Y-135284080D02*
X285599819Y-135036461D01*
X285599819Y-135036461D02*
X285599819Y-134850747D01*
X285599819Y-134850747D02*
X285661723Y-134603128D01*
X285661723Y-134603128D02*
X285723628Y-134479319D01*
X285723628Y-134479319D02*
X285847438Y-134355509D01*
X285847438Y-134355509D02*
X286033152Y-134293604D01*
X286033152Y-134293604D02*
X286156961Y-134293604D01*
X286156961Y-134293604D02*
X286342676Y-134355509D01*
X286342676Y-134355509D02*
X286404580Y-134417414D01*
D10*
D11*
X285661723Y-185593604D02*
X285661723Y-184293604D01*
X285661723Y-184293604D02*
X285971247Y-184293604D01*
X285971247Y-184293604D02*
X286156961Y-184355509D01*
X286156961Y-184355509D02*
X286280771Y-184479319D01*
X286280771Y-184479319D02*
X286342676Y-184603128D01*
X286342676Y-184603128D02*
X286404580Y-184850747D01*
X286404580Y-184850747D02*
X286404580Y-185036461D01*
X286404580Y-185036461D02*
X286342676Y-185284080D01*
X286342676Y-185284080D02*
X286280771Y-185407890D01*
X286280771Y-185407890D02*
X286156961Y-185531700D01*
X286156961Y-185531700D02*
X285971247Y-185593604D01*
X285971247Y-185593604D02*
X285661723Y-185593604D01*
D10*
D11*
X200458026Y-193793328D02*
X200458026Y-192293328D01*
X200458026Y-192293328D02*
X200815169Y-192293328D01*
X200815169Y-192293328D02*
X201029455Y-192364757D01*
X201029455Y-192364757D02*
X201172312Y-192507614D01*
X201172312Y-192507614D02*
X201243741Y-192650471D01*
X201243741Y-192650471D02*
X201315169Y-192936185D01*
X201315169Y-192936185D02*
X201315169Y-193150471D01*
X201315169Y-193150471D02*
X201243741Y-193436185D01*
X201243741Y-193436185D02*
X201172312Y-193579042D01*
X201172312Y-193579042D02*
X201029455Y-193721900D01*
X201029455Y-193721900D02*
X200815169Y-193793328D01*
X200815169Y-193793328D02*
X200458026Y-193793328D01*
X202600884Y-193793328D02*
X202600884Y-193007614D01*
X202600884Y-193007614D02*
X202529455Y-192864757D01*
X202529455Y-192864757D02*
X202386598Y-192793328D01*
X202386598Y-192793328D02*
X202100884Y-192793328D01*
X202100884Y-192793328D02*
X201958026Y-192864757D01*
X202600884Y-193721900D02*
X202458026Y-193793328D01*
X202458026Y-193793328D02*
X202100884Y-193793328D01*
X202100884Y-193793328D02*
X201958026Y-193721900D01*
X201958026Y-193721900D02*
X201886598Y-193579042D01*
X201886598Y-193579042D02*
X201886598Y-193436185D01*
X201886598Y-193436185D02*
X201958026Y-193293328D01*
X201958026Y-193293328D02*
X202100884Y-193221900D01*
X202100884Y-193221900D02*
X202458026Y-193221900D01*
X202458026Y-193221900D02*
X202600884Y-193150471D01*
X203100884Y-192793328D02*
X203672312Y-192793328D01*
X203315169Y-192293328D02*
X203315169Y-193579042D01*
X203315169Y-193579042D02*
X203386598Y-193721900D01*
X203386598Y-193721900D02*
X203529455Y-193793328D01*
X203529455Y-193793328D02*
X203672312Y-193793328D01*
X204743741Y-193721900D02*
X204600884Y-193793328D01*
X204600884Y-193793328D02*
X204315170Y-193793328D01*
X204315170Y-193793328D02*
X204172312Y-193721900D01*
X204172312Y-193721900D02*
X204100884Y-193579042D01*
X204100884Y-193579042D02*
X204100884Y-193007614D01*
X204100884Y-193007614D02*
X204172312Y-192864757D01*
X204172312Y-192864757D02*
X204315170Y-192793328D01*
X204315170Y-192793328D02*
X204600884Y-192793328D01*
X204600884Y-192793328D02*
X204743741Y-192864757D01*
X204743741Y-192864757D02*
X204815170Y-193007614D01*
X204815170Y-193007614D02*
X204815170Y-193150471D01*
X204815170Y-193150471D02*
X204100884Y-193293328D01*
X205458026Y-193650471D02*
X205529455Y-193721900D01*
X205529455Y-193721900D02*
X205458026Y-193793328D01*
X205458026Y-193793328D02*
X205386598Y-193721900D01*
X205386598Y-193721900D02*
X205458026Y-193650471D01*
X205458026Y-193650471D02*
X205458026Y-193793328D01*
X205458026Y-192864757D02*
X205529455Y-192936185D01*
X205529455Y-192936185D02*
X205458026Y-193007614D01*
X205458026Y-193007614D02*
X205386598Y-192936185D01*
X205386598Y-192936185D02*
X205458026Y-192864757D01*
X205458026Y-192864757D02*
X205458026Y-193007614D01*
D10*
D11*
X177002200Y-194507200D02*
X285002200Y-194507200D01*
D10*
D11*
X178458026Y-196593328D02*
X178458026Y-195093328D01*
X179315169Y-196593328D02*
X178672312Y-195736185D01*
X179315169Y-195093328D02*
X178458026Y-195950471D01*
X179958026Y-196593328D02*
X179958026Y-195593328D01*
X179958026Y-195093328D02*
X179886598Y-195164757D01*
X179886598Y-195164757D02*
X179958026Y-195236185D01*
X179958026Y-195236185D02*
X180029455Y-195164757D01*
X180029455Y-195164757D02*
X179958026Y-195093328D01*
X179958026Y-195093328D02*
X179958026Y-195236185D01*
X181529455Y-196450471D02*
X181458027Y-196521900D01*
X181458027Y-196521900D02*
X181243741Y-196593328D01*
X181243741Y-196593328D02*
X181100884Y-196593328D01*
X181100884Y-196593328D02*
X180886598Y-196521900D01*
X180886598Y-196521900D02*
X180743741Y-196379042D01*
X180743741Y-196379042D02*
X180672312Y-196236185D01*
X180672312Y-196236185D02*
X180600884Y-195950471D01*
X180600884Y-195950471D02*
X180600884Y-195736185D01*
X180600884Y-195736185D02*
X180672312Y-195450471D01*
X180672312Y-195450471D02*
X180743741Y-195307614D01*
X180743741Y-195307614D02*
X180886598Y-195164757D01*
X180886598Y-195164757D02*
X181100884Y-195093328D01*
X181100884Y-195093328D02*
X181243741Y-195093328D01*
X181243741Y-195093328D02*
X181458027Y-195164757D01*
X181458027Y-195164757D02*
X181529455Y-195236185D01*
X182815170Y-196593328D02*
X182815170Y-195807614D01*
X182815170Y-195807614D02*
X182743741Y-195664757D01*
X182743741Y-195664757D02*
X182600884Y-195593328D01*
X182600884Y-195593328D02*
X182315170Y-195593328D01*
X182315170Y-195593328D02*
X182172312Y-195664757D01*
X182815170Y-196521900D02*
X182672312Y-196593328D01*
X182672312Y-196593328D02*
X182315170Y-196593328D01*
X182315170Y-196593328D02*
X182172312Y-196521900D01*
X182172312Y-196521900D02*
X182100884Y-196379042D01*
X182100884Y-196379042D02*
X182100884Y-196236185D01*
X182100884Y-196236185D02*
X182172312Y-196093328D01*
X182172312Y-196093328D02*
X182315170Y-196021900D01*
X182315170Y-196021900D02*
X182672312Y-196021900D01*
X182672312Y-196021900D02*
X182815170Y-195950471D01*
X184172313Y-196593328D02*
X184172313Y-195093328D01*
X184172313Y-196521900D02*
X184029455Y-196593328D01*
X184029455Y-196593328D02*
X183743741Y-196593328D01*
X183743741Y-196593328D02*
X183600884Y-196521900D01*
X183600884Y-196521900D02*
X183529455Y-196450471D01*
X183529455Y-196450471D02*
X183458027Y-196307614D01*
X183458027Y-196307614D02*
X183458027Y-195879042D01*
X183458027Y-195879042D02*
X183529455Y-195736185D01*
X183529455Y-195736185D02*
X183600884Y-195664757D01*
X183600884Y-195664757D02*
X183743741Y-195593328D01*
X183743741Y-195593328D02*
X184029455Y-195593328D01*
X184029455Y-195593328D02*
X184172313Y-195664757D01*
X186029455Y-195807614D02*
X186529455Y-195807614D01*
X186743741Y-196593328D02*
X186029455Y-196593328D01*
X186029455Y-196593328D02*
X186029455Y-195093328D01*
X186029455Y-195093328D02*
X186743741Y-195093328D01*
X187386598Y-196450471D02*
X187458027Y-196521900D01*
X187458027Y-196521900D02*
X187386598Y-196593328D01*
X187386598Y-196593328D02*
X187315170Y-196521900D01*
X187315170Y-196521900D02*
X187386598Y-196450471D01*
X187386598Y-196450471D02*
X187386598Y-196593328D01*
X188100884Y-196593328D02*
X188100884Y-195093328D01*
X188100884Y-195093328D02*
X188458027Y-195093328D01*
X188458027Y-195093328D02*
X188672313Y-195164757D01*
X188672313Y-195164757D02*
X188815170Y-195307614D01*
X188815170Y-195307614D02*
X188886599Y-195450471D01*
X188886599Y-195450471D02*
X188958027Y-195736185D01*
X188958027Y-195736185D02*
X188958027Y-195950471D01*
X188958027Y-195950471D02*
X188886599Y-196236185D01*
X188886599Y-196236185D02*
X188815170Y-196379042D01*
X188815170Y-196379042D02*
X188672313Y-196521900D01*
X188672313Y-196521900D02*
X188458027Y-196593328D01*
X188458027Y-196593328D02*
X188100884Y-196593328D01*
X189600884Y-196450471D02*
X189672313Y-196521900D01*
X189672313Y-196521900D02*
X189600884Y-196593328D01*
X189600884Y-196593328D02*
X189529456Y-196521900D01*
X189529456Y-196521900D02*
X189600884Y-196450471D01*
X189600884Y-196450471D02*
X189600884Y-196593328D01*
X190243742Y-196164757D02*
X190958028Y-196164757D01*
X190100885Y-196593328D02*
X190600885Y-195093328D01*
X190600885Y-195093328D02*
X191100885Y-196593328D01*
X191600884Y-196450471D02*
X191672313Y-196521900D01*
X191672313Y-196521900D02*
X191600884Y-196593328D01*
X191600884Y-196593328D02*
X191529456Y-196521900D01*
X191529456Y-196521900D02*
X191600884Y-196450471D01*
X191600884Y-196450471D02*
X191600884Y-196593328D01*
X193529456Y-196593328D02*
X193815170Y-196593328D01*
X193815170Y-196593328D02*
X193958027Y-196521900D01*
X193958027Y-196521900D02*
X194029456Y-196450471D01*
X194029456Y-196450471D02*
X194172313Y-196236185D01*
X194172313Y-196236185D02*
X194243742Y-195950471D01*
X194243742Y-195950471D02*
X194243742Y-195379042D01*
X194243742Y-195379042D02*
X194172313Y-195236185D01*
X194172313Y-195236185D02*
X194100885Y-195164757D01*
X194100885Y-195164757D02*
X193958027Y-195093328D01*
X193958027Y-195093328D02*
X193672313Y-195093328D01*
X193672313Y-195093328D02*
X193529456Y-195164757D01*
X193529456Y-195164757D02*
X193458027Y-195236185D01*
X193458027Y-195236185D02*
X193386599Y-195379042D01*
X193386599Y-195379042D02*
X193386599Y-195736185D01*
X193386599Y-195736185D02*
X193458027Y-195879042D01*
X193458027Y-195879042D02*
X193529456Y-195950471D01*
X193529456Y-195950471D02*
X193672313Y-196021900D01*
X193672313Y-196021900D02*
X193958027Y-196021900D01*
X193958027Y-196021900D02*
X194100885Y-195950471D01*
X194100885Y-195950471D02*
X194172313Y-195879042D01*
X194172313Y-195879042D02*
X194243742Y-195736185D01*
X194886598Y-196450471D02*
X194958027Y-196521900D01*
X194958027Y-196521900D02*
X194886598Y-196593328D01*
X194886598Y-196593328D02*
X194815170Y-196521900D01*
X194815170Y-196521900D02*
X194886598Y-196450471D01*
X194886598Y-196450471D02*
X194886598Y-196593328D01*
X195886599Y-195093328D02*
X196029456Y-195093328D01*
X196029456Y-195093328D02*
X196172313Y-195164757D01*
X196172313Y-195164757D02*
X196243742Y-195236185D01*
X196243742Y-195236185D02*
X196315170Y-195379042D01*
X196315170Y-195379042D02*
X196386599Y-195664757D01*
X196386599Y-195664757D02*
X196386599Y-196021900D01*
X196386599Y-196021900D02*
X196315170Y-196307614D01*
X196315170Y-196307614D02*
X196243742Y-196450471D01*
X196243742Y-196450471D02*
X196172313Y-196521900D01*
X196172313Y-196521900D02*
X196029456Y-196593328D01*
X196029456Y-196593328D02*
X195886599Y-196593328D01*
X195886599Y-196593328D02*
X195743742Y-196521900D01*
X195743742Y-196521900D02*
X195672313Y-196450471D01*
X195672313Y-196450471D02*
X195600884Y-196307614D01*
X195600884Y-196307614D02*
X195529456Y-196021900D01*
X195529456Y-196021900D02*
X195529456Y-195664757D01*
X195529456Y-195664757D02*
X195600884Y-195379042D01*
X195600884Y-195379042D02*
X195672313Y-195236185D01*
X195672313Y-195236185D02*
X195743742Y-195164757D01*
X195743742Y-195164757D02*
X195886599Y-195093328D01*
X197029455Y-196450471D02*
X197100884Y-196521900D01*
X197100884Y-196521900D02*
X197029455Y-196593328D01*
X197029455Y-196593328D02*
X196958027Y-196521900D01*
X196958027Y-196521900D02*
X197029455Y-196450471D01*
X197029455Y-196450471D02*
X197029455Y-196593328D01*
X197672313Y-195236185D02*
X197743741Y-195164757D01*
X197743741Y-195164757D02*
X197886599Y-195093328D01*
X197886599Y-195093328D02*
X198243741Y-195093328D01*
X198243741Y-195093328D02*
X198386599Y-195164757D01*
X198386599Y-195164757D02*
X198458027Y-195236185D01*
X198458027Y-195236185D02*
X198529456Y-195379042D01*
X198529456Y-195379042D02*
X198529456Y-195521900D01*
X198529456Y-195521900D02*
X198458027Y-195736185D01*
X198458027Y-195736185D02*
X197600884Y-196593328D01*
X197600884Y-196593328D02*
X198529456Y-196593328D01*
D10*
D11*
X177002200Y-191507200D02*
X285002200Y-191507200D01*
D10*
D12*
X264413853Y-193785528D02*
X263913853Y-193071242D01*
X263556710Y-193785528D02*
X263556710Y-192285528D01*
X263556710Y-192285528D02*
X264128139Y-192285528D01*
X264128139Y-192285528D02*
X264270996Y-192356957D01*
X264270996Y-192356957D02*
X264342425Y-192428385D01*
X264342425Y-192428385D02*
X264413853Y-192571242D01*
X264413853Y-192571242D02*
X264413853Y-192785528D01*
X264413853Y-192785528D02*
X264342425Y-192928385D01*
X264342425Y-192928385D02*
X264270996Y-192999814D01*
X264270996Y-192999814D02*
X264128139Y-193071242D01*
X264128139Y-193071242D02*
X263556710Y-193071242D01*
X265628139Y-193714100D02*
X265485282Y-193785528D01*
X265485282Y-193785528D02*
X265199568Y-193785528D01*
X265199568Y-193785528D02*
X265056710Y-193714100D01*
X265056710Y-193714100D02*
X264985282Y-193571242D01*
X264985282Y-193571242D02*
X264985282Y-192999814D01*
X264985282Y-192999814D02*
X265056710Y-192856957D01*
X265056710Y-192856957D02*
X265199568Y-192785528D01*
X265199568Y-192785528D02*
X265485282Y-192785528D01*
X265485282Y-192785528D02*
X265628139Y-192856957D01*
X265628139Y-192856957D02*
X265699568Y-192999814D01*
X265699568Y-192999814D02*
X265699568Y-193142671D01*
X265699568Y-193142671D02*
X264985282Y-193285528D01*
X266199567Y-192785528D02*
X266556710Y-193785528D01*
X266556710Y-193785528D02*
X266913853Y-192785528D01*
X267485281Y-193642671D02*
X267556710Y-193714100D01*
X267556710Y-193714100D02*
X267485281Y-193785528D01*
X267485281Y-193785528D02*
X267413853Y-193714100D01*
X267413853Y-193714100D02*
X267485281Y-193642671D01*
X267485281Y-193642671D02*
X267485281Y-193785528D01*
X267485281Y-192856957D02*
X267556710Y-192928385D01*
X267556710Y-192928385D02*
X267485281Y-192999814D01*
X267485281Y-192999814D02*
X267413853Y-192928385D01*
X267413853Y-192928385D02*
X267485281Y-192856957D01*
X267485281Y-192856957D02*
X267485281Y-192999814D01*
D10*
D11*
X178386598Y-193721900D02*
X178600884Y-193793328D01*
X178600884Y-193793328D02*
X178958026Y-193793328D01*
X178958026Y-193793328D02*
X179100884Y-193721900D01*
X179100884Y-193721900D02*
X179172312Y-193650471D01*
X179172312Y-193650471D02*
X179243741Y-193507614D01*
X179243741Y-193507614D02*
X179243741Y-193364757D01*
X179243741Y-193364757D02*
X179172312Y-193221900D01*
X179172312Y-193221900D02*
X179100884Y-193150471D01*
X179100884Y-193150471D02*
X178958026Y-193079042D01*
X178958026Y-193079042D02*
X178672312Y-193007614D01*
X178672312Y-193007614D02*
X178529455Y-192936185D01*
X178529455Y-192936185D02*
X178458026Y-192864757D01*
X178458026Y-192864757D02*
X178386598Y-192721900D01*
X178386598Y-192721900D02*
X178386598Y-192579042D01*
X178386598Y-192579042D02*
X178458026Y-192436185D01*
X178458026Y-192436185D02*
X178529455Y-192364757D01*
X178529455Y-192364757D02*
X178672312Y-192293328D01*
X178672312Y-192293328D02*
X179029455Y-192293328D01*
X179029455Y-192293328D02*
X179243741Y-192364757D01*
X179886597Y-193793328D02*
X179886597Y-192793328D01*
X179886597Y-192293328D02*
X179815169Y-192364757D01*
X179815169Y-192364757D02*
X179886597Y-192436185D01*
X179886597Y-192436185D02*
X179958026Y-192364757D01*
X179958026Y-192364757D02*
X179886597Y-192293328D01*
X179886597Y-192293328D02*
X179886597Y-192436185D01*
X180458026Y-192793328D02*
X181243741Y-192793328D01*
X181243741Y-192793328D02*
X180458026Y-193793328D01*
X180458026Y-193793328D02*
X181243741Y-193793328D01*
X182386598Y-193721900D02*
X182243741Y-193793328D01*
X182243741Y-193793328D02*
X181958027Y-193793328D01*
X181958027Y-193793328D02*
X181815169Y-193721900D01*
X181815169Y-193721900D02*
X181743741Y-193579042D01*
X181743741Y-193579042D02*
X181743741Y-193007614D01*
X181743741Y-193007614D02*
X181815169Y-192864757D01*
X181815169Y-192864757D02*
X181958027Y-192793328D01*
X181958027Y-192793328D02*
X182243741Y-192793328D01*
X182243741Y-192793328D02*
X182386598Y-192864757D01*
X182386598Y-192864757D02*
X182458027Y-193007614D01*
X182458027Y-193007614D02*
X182458027Y-193150471D01*
X182458027Y-193150471D02*
X181743741Y-193293328D01*
X183100883Y-193650471D02*
X183172312Y-193721900D01*
X183172312Y-193721900D02*
X183100883Y-193793328D01*
X183100883Y-193793328D02*
X183029455Y-193721900D01*
X183029455Y-193721900D02*
X183100883Y-193650471D01*
X183100883Y-193650471D02*
X183100883Y-193793328D01*
X183100883Y-192864757D02*
X183172312Y-192936185D01*
X183172312Y-192936185D02*
X183100883Y-193007614D01*
X183100883Y-193007614D02*
X183029455Y-192936185D01*
X183029455Y-192936185D02*
X183100883Y-192864757D01*
X183100883Y-192864757D02*
X183100883Y-193007614D01*
X184886598Y-193364757D02*
X185600884Y-193364757D01*
X184743741Y-193793328D02*
X185243741Y-192293328D01*
X185243741Y-192293328D02*
X185743741Y-193793328D01*
X186886598Y-192793328D02*
X186886598Y-193793328D01*
X186529455Y-192221900D02*
X186172312Y-193293328D01*
X186172312Y-193293328D02*
X187100883Y-193293328D01*
D10*
D11*
X263458026Y-196593328D02*
X263458026Y-195093328D01*
X264815170Y-196593328D02*
X264815170Y-195093328D01*
X264815170Y-196521900D02*
X264672312Y-196593328D01*
X264672312Y-196593328D02*
X264386598Y-196593328D01*
X264386598Y-196593328D02*
X264243741Y-196521900D01*
X264243741Y-196521900D02*
X264172312Y-196450471D01*
X264172312Y-196450471D02*
X264100884Y-196307614D01*
X264100884Y-196307614D02*
X264100884Y-195879042D01*
X264100884Y-195879042D02*
X264172312Y-195736185D01*
X264172312Y-195736185D02*
X264243741Y-195664757D01*
X264243741Y-195664757D02*
X264386598Y-195593328D01*
X264386598Y-195593328D02*
X264672312Y-195593328D01*
X264672312Y-195593328D02*
X264815170Y-195664757D01*
X265529455Y-196450471D02*
X265600884Y-196521900D01*
X265600884Y-196521900D02*
X265529455Y-196593328D01*
X265529455Y-196593328D02*
X265458027Y-196521900D01*
X265458027Y-196521900D02*
X265529455Y-196450471D01*
X265529455Y-196450471D02*
X265529455Y-196593328D01*
X265529455Y-195664757D02*
X265600884Y-195736185D01*
X265600884Y-195736185D02*
X265529455Y-195807614D01*
X265529455Y-195807614D02*
X265458027Y-195736185D01*
X265458027Y-195736185D02*
X265529455Y-195664757D01*
X265529455Y-195664757D02*
X265529455Y-195807614D01*
X268029456Y-195593328D02*
X268029456Y-196593328D01*
X267672313Y-195021900D02*
X267315170Y-196093328D01*
X267315170Y-196093328D02*
X268243741Y-196093328D01*
X269886598Y-195021900D02*
X268600884Y-196950471D01*
X271172313Y-196593328D02*
X270315170Y-196593328D01*
X270743741Y-196593328D02*
X270743741Y-195093328D01*
X270743741Y-195093328D02*
X270600884Y-195307614D01*
X270600884Y-195307614D02*
X270458027Y-195450471D01*
X270458027Y-195450471D02*
X270315170Y-195521900D01*
X272600884Y-196593328D02*
X271743741Y-196593328D01*
X272172312Y-196593328D02*
X272172312Y-195093328D01*
X272172312Y-195093328D02*
X272029455Y-195307614D01*
X272029455Y-195307614D02*
X271886598Y-195450471D01*
X271886598Y-195450471D02*
X271743741Y-195521900D01*
D10*
D11*
X177002200Y-187507200D02*
X285002200Y-187507200D01*
D10*
D13*
X178693928Y-188211638D02*
X179836785Y-188211638D01*
X179015357Y-190211638D02*
X179265357Y-188211638D01*
X180253452Y-190211638D02*
X180420119Y-188878304D01*
X180503452Y-188211638D02*
X180396309Y-188306876D01*
X180396309Y-188306876D02*
X180479643Y-188402114D01*
X180479643Y-188402114D02*
X180586786Y-188306876D01*
X180586786Y-188306876D02*
X180503452Y-188211638D01*
X180503452Y-188211638D02*
X180479643Y-188402114D01*
X181086786Y-188878304D02*
X181848690Y-188878304D01*
X181455833Y-188211638D02*
X181241548Y-189925923D01*
X181241548Y-189925923D02*
X181312976Y-190116400D01*
X181312976Y-190116400D02*
X181491548Y-190211638D01*
X181491548Y-190211638D02*
X181682024Y-190211638D01*
X182634405Y-190211638D02*
X182455833Y-190116400D01*
X182455833Y-190116400D02*
X182384405Y-189925923D01*
X182384405Y-189925923D02*
X182598690Y-188211638D01*
X184170119Y-190116400D02*
X183967738Y-190211638D01*
X183967738Y-190211638D02*
X183586785Y-190211638D01*
X183586785Y-190211638D02*
X183408214Y-190116400D01*
X183408214Y-190116400D02*
X183336785Y-189925923D01*
X183336785Y-189925923D02*
X183432024Y-189164019D01*
X183432024Y-189164019D02*
X183551071Y-188973542D01*
X183551071Y-188973542D02*
X183753452Y-188878304D01*
X183753452Y-188878304D02*
X184134404Y-188878304D01*
X184134404Y-188878304D02*
X184312976Y-188973542D01*
X184312976Y-188973542D02*
X184384404Y-189164019D01*
X184384404Y-189164019D02*
X184360595Y-189354495D01*
X184360595Y-189354495D02*
X183384404Y-189544971D01*
X185134405Y-190021161D02*
X185217738Y-190116400D01*
X185217738Y-190116400D02*
X185110595Y-190211638D01*
X185110595Y-190211638D02*
X185027262Y-190116400D01*
X185027262Y-190116400D02*
X185134405Y-190021161D01*
X185134405Y-190021161D02*
X185110595Y-190211638D01*
X185265357Y-188973542D02*
X185348690Y-189068780D01*
X185348690Y-189068780D02*
X185241548Y-189164019D01*
X185241548Y-189164019D02*
X185158214Y-189068780D01*
X185158214Y-189068780D02*
X185265357Y-188973542D01*
X185265357Y-188973542D02*
X185241548Y-189164019D01*
D10*
D11*
X178958026Y-185607614D02*
X178458026Y-185607614D01*
X178458026Y-186393328D02*
X178458026Y-184893328D01*
X178458026Y-184893328D02*
X179172312Y-184893328D01*
X179743740Y-186393328D02*
X179743740Y-185393328D01*
X179743740Y-184893328D02*
X179672312Y-184964757D01*
X179672312Y-184964757D02*
X179743740Y-185036185D01*
X179743740Y-185036185D02*
X179815169Y-184964757D01*
X179815169Y-184964757D02*
X179743740Y-184893328D01*
X179743740Y-184893328D02*
X179743740Y-185036185D01*
X180672312Y-186393328D02*
X180529455Y-186321900D01*
X180529455Y-186321900D02*
X180458026Y-186179042D01*
X180458026Y-186179042D02*
X180458026Y-184893328D01*
X181815169Y-186321900D02*
X181672312Y-186393328D01*
X181672312Y-186393328D02*
X181386598Y-186393328D01*
X181386598Y-186393328D02*
X181243740Y-186321900D01*
X181243740Y-186321900D02*
X181172312Y-186179042D01*
X181172312Y-186179042D02*
X181172312Y-185607614D01*
X181172312Y-185607614D02*
X181243740Y-185464757D01*
X181243740Y-185464757D02*
X181386598Y-185393328D01*
X181386598Y-185393328D02*
X181672312Y-185393328D01*
X181672312Y-185393328D02*
X181815169Y-185464757D01*
X181815169Y-185464757D02*
X181886598Y-185607614D01*
X181886598Y-185607614D02*
X181886598Y-185750471D01*
X181886598Y-185750471D02*
X181172312Y-185893328D01*
X182529454Y-186250471D02*
X182600883Y-186321900D01*
X182600883Y-186321900D02*
X182529454Y-186393328D01*
X182529454Y-186393328D02*
X182458026Y-186321900D01*
X182458026Y-186321900D02*
X182529454Y-186250471D01*
X182529454Y-186250471D02*
X182529454Y-186393328D01*
X182529454Y-185464757D02*
X182600883Y-185536185D01*
X182600883Y-185536185D02*
X182529454Y-185607614D01*
X182529454Y-185607614D02*
X182458026Y-185536185D01*
X182458026Y-185536185D02*
X182529454Y-185464757D01*
X182529454Y-185464757D02*
X182529454Y-185607614D01*
X184386597Y-186393328D02*
X184386597Y-184893328D01*
X184386597Y-185464757D02*
X184529455Y-185393328D01*
X184529455Y-185393328D02*
X184815169Y-185393328D01*
X184815169Y-185393328D02*
X184958026Y-185464757D01*
X184958026Y-185464757D02*
X185029455Y-185536185D01*
X185029455Y-185536185D02*
X185100883Y-185679042D01*
X185100883Y-185679042D02*
X185100883Y-186107614D01*
X185100883Y-186107614D02*
X185029455Y-186250471D01*
X185029455Y-186250471D02*
X184958026Y-186321900D01*
X184958026Y-186321900D02*
X184815169Y-186393328D01*
X184815169Y-186393328D02*
X184529455Y-186393328D01*
X184529455Y-186393328D02*
X184386597Y-186321900D01*
X185958026Y-186393328D02*
X185815169Y-186321900D01*
X185815169Y-186321900D02*
X185743740Y-186179042D01*
X185743740Y-186179042D02*
X185743740Y-184893328D01*
X187172312Y-186393328D02*
X187172312Y-184893328D01*
X187172312Y-186321900D02*
X187029454Y-186393328D01*
X187029454Y-186393328D02*
X186743740Y-186393328D01*
X186743740Y-186393328D02*
X186600883Y-186321900D01*
X186600883Y-186321900D02*
X186529454Y-186250471D01*
X186529454Y-186250471D02*
X186458026Y-186107614D01*
X186458026Y-186107614D02*
X186458026Y-185679042D01*
X186458026Y-185679042D02*
X186529454Y-185536185D01*
X186529454Y-185536185D02*
X186600883Y-185464757D01*
X186600883Y-185464757D02*
X186743740Y-185393328D01*
X186743740Y-185393328D02*
X187029454Y-185393328D01*
X187029454Y-185393328D02*
X187172312Y-185464757D01*
X188529455Y-186321900D02*
X188386597Y-186393328D01*
X188386597Y-186393328D02*
X188100883Y-186393328D01*
X188100883Y-186393328D02*
X187958026Y-186321900D01*
X187958026Y-186321900D02*
X187886597Y-186250471D01*
X187886597Y-186250471D02*
X187815169Y-186107614D01*
X187815169Y-186107614D02*
X187815169Y-185679042D01*
X187815169Y-185679042D02*
X187886597Y-185536185D01*
X187886597Y-185536185D02*
X187958026Y-185464757D01*
X187958026Y-185464757D02*
X188100883Y-185393328D01*
X188100883Y-185393328D02*
X188386597Y-185393328D01*
X188386597Y-185393328D02*
X188529455Y-185464757D01*
X188815169Y-186536185D02*
X189958026Y-186536185D01*
X190958026Y-186393328D02*
X190958026Y-184893328D01*
X190958026Y-186321900D02*
X190815168Y-186393328D01*
X190815168Y-186393328D02*
X190529454Y-186393328D01*
X190529454Y-186393328D02*
X190386597Y-186321900D01*
X190386597Y-186321900D02*
X190315168Y-186250471D01*
X190315168Y-186250471D02*
X190243740Y-186107614D01*
X190243740Y-186107614D02*
X190243740Y-185679042D01*
X190243740Y-185679042D02*
X190315168Y-185536185D01*
X190315168Y-185536185D02*
X190386597Y-185464757D01*
X190386597Y-185464757D02*
X190529454Y-185393328D01*
X190529454Y-185393328D02*
X190815168Y-185393328D01*
X190815168Y-185393328D02*
X190958026Y-185464757D01*
X191672311Y-186393328D02*
X191672311Y-185393328D01*
X191672311Y-185679042D02*
X191743740Y-185536185D01*
X191743740Y-185536185D02*
X191815169Y-185464757D01*
X191815169Y-185464757D02*
X191958026Y-185393328D01*
X191958026Y-185393328D02*
X192100883Y-185393328D01*
X192600882Y-186393328D02*
X192600882Y-185393328D01*
X192600882Y-184893328D02*
X192529454Y-184964757D01*
X192529454Y-184964757D02*
X192600882Y-185036185D01*
X192600882Y-185036185D02*
X192672311Y-184964757D01*
X192672311Y-184964757D02*
X192600882Y-184893328D01*
X192600882Y-184893328D02*
X192600882Y-185036185D01*
X193172311Y-185393328D02*
X193529454Y-186393328D01*
X193529454Y-186393328D02*
X193886597Y-185393328D01*
X195029454Y-186321900D02*
X194886597Y-186393328D01*
X194886597Y-186393328D02*
X194600883Y-186393328D01*
X194600883Y-186393328D02*
X194458025Y-186321900D01*
X194458025Y-186321900D02*
X194386597Y-186179042D01*
X194386597Y-186179042D02*
X194386597Y-185607614D01*
X194386597Y-185607614D02*
X194458025Y-185464757D01*
X194458025Y-185464757D02*
X194600883Y-185393328D01*
X194600883Y-185393328D02*
X194886597Y-185393328D01*
X194886597Y-185393328D02*
X195029454Y-185464757D01*
X195029454Y-185464757D02*
X195100883Y-185607614D01*
X195100883Y-185607614D02*
X195100883Y-185750471D01*
X195100883Y-185750471D02*
X194386597Y-185893328D01*
X195743739Y-186393328D02*
X195743739Y-185393328D01*
X195743739Y-185679042D02*
X195815168Y-185536185D01*
X195815168Y-185536185D02*
X195886597Y-185464757D01*
X195886597Y-185464757D02*
X196029454Y-185393328D01*
X196029454Y-185393328D02*
X196172311Y-185393328D01*
X196672310Y-186250471D02*
X196743739Y-186321900D01*
X196743739Y-186321900D02*
X196672310Y-186393328D01*
X196672310Y-186393328D02*
X196600882Y-186321900D01*
X196600882Y-186321900D02*
X196672310Y-186250471D01*
X196672310Y-186250471D02*
X196672310Y-186393328D01*
X197386596Y-186393328D02*
X197386596Y-184893328D01*
X197529454Y-185821900D02*
X197958025Y-186393328D01*
X197958025Y-185393328D02*
X197386596Y-185964757D01*
X198600882Y-186393328D02*
X198600882Y-185393328D01*
X198600882Y-184893328D02*
X198529454Y-184964757D01*
X198529454Y-184964757D02*
X198600882Y-185036185D01*
X198600882Y-185036185D02*
X198672311Y-184964757D01*
X198672311Y-184964757D02*
X198600882Y-184893328D01*
X198600882Y-184893328D02*
X198600882Y-185036185D01*
X199958026Y-186321900D02*
X199815168Y-186393328D01*
X199815168Y-186393328D02*
X199529454Y-186393328D01*
X199529454Y-186393328D02*
X199386597Y-186321900D01*
X199386597Y-186321900D02*
X199315168Y-186250471D01*
X199315168Y-186250471D02*
X199243740Y-186107614D01*
X199243740Y-186107614D02*
X199243740Y-185679042D01*
X199243740Y-185679042D02*
X199315168Y-185536185D01*
X199315168Y-185536185D02*
X199386597Y-185464757D01*
X199386597Y-185464757D02*
X199529454Y-185393328D01*
X199529454Y-185393328D02*
X199815168Y-185393328D01*
X199815168Y-185393328D02*
X199958026Y-185464757D01*
X201243740Y-186393328D02*
X201243740Y-185607614D01*
X201243740Y-185607614D02*
X201172311Y-185464757D01*
X201172311Y-185464757D02*
X201029454Y-185393328D01*
X201029454Y-185393328D02*
X200743740Y-185393328D01*
X200743740Y-185393328D02*
X200600882Y-185464757D01*
X201243740Y-186321900D02*
X201100882Y-186393328D01*
X201100882Y-186393328D02*
X200743740Y-186393328D01*
X200743740Y-186393328D02*
X200600882Y-186321900D01*
X200600882Y-186321900D02*
X200529454Y-186179042D01*
X200529454Y-186179042D02*
X200529454Y-186036185D01*
X200529454Y-186036185D02*
X200600882Y-185893328D01*
X200600882Y-185893328D02*
X200743740Y-185821900D01*
X200743740Y-185821900D02*
X201100882Y-185821900D01*
X201100882Y-185821900D02*
X201243740Y-185750471D01*
X202600883Y-186393328D02*
X202600883Y-184893328D01*
X202600883Y-186321900D02*
X202458025Y-186393328D01*
X202458025Y-186393328D02*
X202172311Y-186393328D01*
X202172311Y-186393328D02*
X202029454Y-186321900D01*
X202029454Y-186321900D02*
X201958025Y-186250471D01*
X201958025Y-186250471D02*
X201886597Y-186107614D01*
X201886597Y-186107614D02*
X201886597Y-185679042D01*
X201886597Y-185679042D02*
X201958025Y-185536185D01*
X201958025Y-185536185D02*
X202029454Y-185464757D01*
X202029454Y-185464757D02*
X202172311Y-185393328D01*
X202172311Y-185393328D02*
X202458025Y-185393328D01*
X202458025Y-185393328D02*
X202600883Y-185464757D01*
X202958026Y-186536185D02*
X204100883Y-186536185D01*
X204458025Y-185393328D02*
X204458025Y-186893328D01*
X204458025Y-185464757D02*
X204600883Y-185393328D01*
X204600883Y-185393328D02*
X204886597Y-185393328D01*
X204886597Y-185393328D02*
X205029454Y-185464757D01*
X205029454Y-185464757D02*
X205100883Y-185536185D01*
X205100883Y-185536185D02*
X205172311Y-185679042D01*
X205172311Y-185679042D02*
X205172311Y-186107614D01*
X205172311Y-186107614D02*
X205100883Y-186250471D01*
X205100883Y-186250471D02*
X205029454Y-186321900D01*
X205029454Y-186321900D02*
X204886597Y-186393328D01*
X204886597Y-186393328D02*
X204600883Y-186393328D01*
X204600883Y-186393328D02*
X204458025Y-186321900D01*
X206458026Y-186321900D02*
X206315168Y-186393328D01*
X206315168Y-186393328D02*
X206029454Y-186393328D01*
X206029454Y-186393328D02*
X205886597Y-186321900D01*
X205886597Y-186321900D02*
X205815168Y-186250471D01*
X205815168Y-186250471D02*
X205743740Y-186107614D01*
X205743740Y-186107614D02*
X205743740Y-185679042D01*
X205743740Y-185679042D02*
X205815168Y-185536185D01*
X205815168Y-185536185D02*
X205886597Y-185464757D01*
X205886597Y-185464757D02*
X206029454Y-185393328D01*
X206029454Y-185393328D02*
X206315168Y-185393328D01*
X206315168Y-185393328D02*
X206458026Y-185464757D01*
X207100882Y-186393328D02*
X207100882Y-184893328D01*
X207100882Y-185464757D02*
X207243740Y-185393328D01*
X207243740Y-185393328D02*
X207529454Y-185393328D01*
X207529454Y-185393328D02*
X207672311Y-185464757D01*
X207672311Y-185464757D02*
X207743740Y-185536185D01*
X207743740Y-185536185D02*
X207815168Y-185679042D01*
X207815168Y-185679042D02*
X207815168Y-186107614D01*
X207815168Y-186107614D02*
X207743740Y-186250471D01*
X207743740Y-186250471D02*
X207672311Y-186321900D01*
X207672311Y-186321900D02*
X207529454Y-186393328D01*
X207529454Y-186393328D02*
X207243740Y-186393328D01*
X207243740Y-186393328D02*
X207100882Y-186321900D01*
D10*
D11*
X177002200Y-181507200D02*
X285002200Y-181507200D01*
D10*
D11*
X178386598Y-183621900D02*
X178600884Y-183693328D01*
X178600884Y-183693328D02*
X178958026Y-183693328D01*
X178958026Y-183693328D02*
X179100884Y-183621900D01*
X179100884Y-183621900D02*
X179172312Y-183550471D01*
X179172312Y-183550471D02*
X179243741Y-183407614D01*
X179243741Y-183407614D02*
X179243741Y-183264757D01*
X179243741Y-183264757D02*
X179172312Y-183121900D01*
X179172312Y-183121900D02*
X179100884Y-183050471D01*
X179100884Y-183050471D02*
X178958026Y-182979042D01*
X178958026Y-182979042D02*
X178672312Y-182907614D01*
X178672312Y-182907614D02*
X178529455Y-182836185D01*
X178529455Y-182836185D02*
X178458026Y-182764757D01*
X178458026Y-182764757D02*
X178386598Y-182621900D01*
X178386598Y-182621900D02*
X178386598Y-182479042D01*
X178386598Y-182479042D02*
X178458026Y-182336185D01*
X178458026Y-182336185D02*
X178529455Y-182264757D01*
X178529455Y-182264757D02*
X178672312Y-182193328D01*
X178672312Y-182193328D02*
X179029455Y-182193328D01*
X179029455Y-182193328D02*
X179243741Y-182264757D01*
X179886597Y-183693328D02*
X179886597Y-182193328D01*
X180529455Y-183693328D02*
X180529455Y-182907614D01*
X180529455Y-182907614D02*
X180458026Y-182764757D01*
X180458026Y-182764757D02*
X180315169Y-182693328D01*
X180315169Y-182693328D02*
X180100883Y-182693328D01*
X180100883Y-182693328D02*
X179958026Y-182764757D01*
X179958026Y-182764757D02*
X179886597Y-182836185D01*
X181815169Y-183621900D02*
X181672312Y-183693328D01*
X181672312Y-183693328D02*
X181386598Y-183693328D01*
X181386598Y-183693328D02*
X181243740Y-183621900D01*
X181243740Y-183621900D02*
X181172312Y-183479042D01*
X181172312Y-183479042D02*
X181172312Y-182907614D01*
X181172312Y-182907614D02*
X181243740Y-182764757D01*
X181243740Y-182764757D02*
X181386598Y-182693328D01*
X181386598Y-182693328D02*
X181672312Y-182693328D01*
X181672312Y-182693328D02*
X181815169Y-182764757D01*
X181815169Y-182764757D02*
X181886598Y-182907614D01*
X181886598Y-182907614D02*
X181886598Y-183050471D01*
X181886598Y-183050471D02*
X181172312Y-183193328D01*
X183100883Y-183621900D02*
X182958026Y-183693328D01*
X182958026Y-183693328D02*
X182672312Y-183693328D01*
X182672312Y-183693328D02*
X182529454Y-183621900D01*
X182529454Y-183621900D02*
X182458026Y-183479042D01*
X182458026Y-183479042D02*
X182458026Y-182907614D01*
X182458026Y-182907614D02*
X182529454Y-182764757D01*
X182529454Y-182764757D02*
X182672312Y-182693328D01*
X182672312Y-182693328D02*
X182958026Y-182693328D01*
X182958026Y-182693328D02*
X183100883Y-182764757D01*
X183100883Y-182764757D02*
X183172312Y-182907614D01*
X183172312Y-182907614D02*
X183172312Y-183050471D01*
X183172312Y-183050471D02*
X182458026Y-183193328D01*
X183600883Y-182693328D02*
X184172311Y-182693328D01*
X183815168Y-182193328D02*
X183815168Y-183479042D01*
X183815168Y-183479042D02*
X183886597Y-183621900D01*
X183886597Y-183621900D02*
X184029454Y-183693328D01*
X184029454Y-183693328D02*
X184172311Y-183693328D01*
X184672311Y-183550471D02*
X184743740Y-183621900D01*
X184743740Y-183621900D02*
X184672311Y-183693328D01*
X184672311Y-183693328D02*
X184600883Y-183621900D01*
X184600883Y-183621900D02*
X184672311Y-183550471D01*
X184672311Y-183550471D02*
X184672311Y-183693328D01*
X184672311Y-182764757D02*
X184743740Y-182836185D01*
X184743740Y-182836185D02*
X184672311Y-182907614D01*
X184672311Y-182907614D02*
X184600883Y-182836185D01*
X184600883Y-182836185D02*
X184672311Y-182764757D01*
X184672311Y-182764757D02*
X184672311Y-182907614D01*
D10*
D11*
X197002200Y-191507200D02*
X197002200Y-194507200D01*
D10*
D11*
X261002200Y-191507200D02*
X261002200Y-198007200D01*
D14*
%TO.P,J8,1,Pin_1*%
%TO.N,MOT_A*%
X110000000Y-58000000D03*
%TD*%
%TO.P,J10,1,Pin_1*%
%TO.N,MOT_C*%
X100000000Y-58000000D03*
%TD*%
D15*
%TO.P,H4,1,1*%
%TO.N,GND*%
X114192385Y-64557615D03*
D16*
X114192385Y-64557615D03*
%TD*%
D14*
%TO.P,J9,1,Pin_1*%
%TO.N,MOT_B*%
X105000000Y-58000000D03*
%TD*%
D17*
%TO.P,J7,1,Pin_1*%
%TO.N,GND*%
X91090109Y-81306275D03*
D18*
%TO.P,J7,2,Pin_2*%
%TO.N,CAN_L*%
X90221378Y-78919456D03*
%TO.P,J7,3,Pin_3*%
%TO.N,CAN_H*%
X89352647Y-76532636D03*
%TD*%
D19*
%TO.P,J5,1,Pin_1*%
%TO.N,GND*%
X107600000Y-88885000D03*
D18*
%TO.P,J5,2,Pin_2*%
%TO.N,USART_RX*%
X105060000Y-88885000D03*
%TO.P,J5,3,Pin_3*%
%TO.N,USART_TX*%
X102520000Y-88885000D03*
%TD*%
D15*
%TO.P,H1,1,1*%
%TO.N,GND*%
X95807615Y-82942385D03*
D16*
X95807615Y-82942385D03*
%TD*%
D15*
%TO.P,H2,1,1*%
%TO.N,GND*%
X114250000Y-83000000D03*
D16*
X114250000Y-83000000D03*
%TD*%
D20*
%TO.P,J1,1,Pin_1*%
%TO.N,GND*%
X114400000Y-88900000D03*
%TD*%
D21*
%TO.P,J11,1,Pin_1*%
%TO.N,VIN*%
X117650000Y-86350000D03*
%TD*%
D15*
%TO.P,H3,1,1*%
%TO.N,GND*%
X95807615Y-64557615D03*
D16*
X95807615Y-64557615D03*
%TD*%
D22*
%TO.P,J3,1,Pin_1*%
%TO.N,GND*%
X95493193Y-88792190D03*
D18*
%TO.P,J3,2,Pin_2*%
%TO.N,PB4*%
X93547440Y-87159509D03*
%TO.P,J3,3,Pin_3*%
%TO.N,PB2*%
X91601687Y-85526829D03*
%TD*%
D17*
%TO.P,J6,1,Pin_1*%
%TO.N,GND*%
X88608731Y-82206819D03*
D18*
%TO.P,J6,2,Pin_2*%
%TO.N,CAN_L*%
X87740000Y-79820000D03*
%TO.P,J6,3,Pin_3*%
%TO.N,CAN_H*%
X86871269Y-77433180D03*
%TD*%
D23*
%TO.P,U1,1,IN*%
%TO.N,VIN*%
X122300000Y-74900000D03*
%TO.P,U1,2,GND*%
%TO.N,GND*%
X120000000Y-74900000D03*
D24*
X120000000Y-68600000D03*
D23*
%TO.P,U1,3,OUT*%
%TO.N,3V3*%
X117700000Y-74900000D03*
%TD*%
D25*
%TO.P,C12,1*%
%TO.N,3V3*%
X109500000Y-74182500D03*
%TO.P,C12,2*%
%TO.N,GND*%
X109500000Y-75317500D03*
%TD*%
D26*
%TO.P,C8,1*%
%TO.N,3V3*%
X118437500Y-78250000D03*
%TO.P,C8,2*%
%TO.N,GND*%
X121562500Y-78250000D03*
%TD*%
D27*
%TO.P,U7,1,~{CS}*%
%TO.N,SPI_NSS*%
X102137500Y-75700000D03*
%TO.P,U7,2,CLK*%
%TO.N,SPI_CLK*%
X102137500Y-75050000D03*
%TO.P,U7,3,MISO*%
%TO.N,SPI_MISO*%
X102137500Y-74400000D03*
%TO.P,U7,4,MOSI*%
%TO.N,SPI_MOSI*%
X102137500Y-73750000D03*
%TO.P,U7,5,TST*%
%TO.N,GND*%
X102137500Y-73100000D03*
%TO.P,U7,6,B*%
%TO.N,unconnected-(U7-B-Pad6)*%
X102137500Y-72450000D03*
%TO.P,U7,7,A*%
%TO.N,unconnected-(U7-A-Pad7)*%
X102137500Y-71800000D03*
%TO.P,U7,8,W/PWM*%
%TO.N,unconnected-(U7-W{slash}PWM-Pad8)*%
X107862500Y-71800000D03*
%TO.P,U7,9,V*%
%TO.N,unconnected-(U7-V-Pad9)*%
X107862500Y-72450000D03*
%TO.P,U7,10,U*%
%TO.N,unconnected-(U7-U-Pad10)*%
X107862500Y-73100000D03*
%TO.P,U7,11,VDD*%
%TO.N,3V3*%
X107862500Y-73750000D03*
%TO.P,U7,12,VDD3V3*%
X107862500Y-74400000D03*
%TO.P,U7,13,GND*%
%TO.N,GND*%
X107862500Y-75050000D03*
%TO.P,U7,14,I/PWM*%
%TO.N,unconnected-(U7-I{slash}PWM-Pad14)*%
X107862500Y-75700000D03*
%TD*%
D28*
%TO.N,VIN*%
X113950000Y-69300000D03*
X123500000Y-75800000D03*
X109004626Y-70541090D03*
X123500000Y-75100000D03*
X123500000Y-74400000D03*
%TO.N,3V3*%
X94600000Y-68900000D03*
X105210000Y-67800000D03*
X123422614Y-73485681D03*
X117200000Y-76300000D03*
X116700000Y-74500000D03*
X100427500Y-67172500D03*
X105800000Y-81100000D03*
%TO.N,FDCAN_RX*%
X106000000Y-71250000D03*
X96879831Y-69018742D03*
%TO.N,FDCAN_TX*%
X99250000Y-71773303D03*
X93890380Y-72890380D03*
%TO.N,nRST*%
X106600000Y-80900000D03*
X91000000Y-67200000D03*
X97825000Y-67600000D03*
%TO.N,USART_RX*%
X102000000Y-82708869D03*
%TO.N,USART_TX*%
X99600000Y-83600000D03*
%TO.N,CURR_SENS_C*%
X113100000Y-77850000D03*
X96500000Y-70100000D03*
%TO.N,SWD_CLK*%
X106250000Y-76675000D03*
X107401082Y-77942932D03*
%TO.N,~{CAN_EN}*%
X101000000Y-72549997D03*
X95429890Y-74513614D03*
%TO.N,nFAULT*%
X95712627Y-71709401D03*
X116800000Y-73600000D03*
%TO.N,PWM_C_HIGH*%
X106725000Y-74382106D03*
X106000000Y-72750000D03*
%TO.N,SPI_MISO*%
X99860021Y-74096347D03*
%TO.N,SPI_CLK*%
X99470801Y-73340694D03*
%TO.N,SPI_MOSI*%
X103625000Y-72875000D03*
%TO.N,GND*%
X122675000Y-68125000D03*
X99630000Y-61310000D03*
X122625000Y-69800000D03*
X120300000Y-65300000D03*
X97000000Y-90500000D03*
X117300000Y-82200000D03*
X86040000Y-75870000D03*
X111750000Y-71200000D03*
X88430000Y-64310000D03*
X100850000Y-82900000D03*
X119800000Y-83100000D03*
X109000000Y-83600000D03*
X113978515Y-70247974D03*
X100400000Y-70700000D03*
X89800000Y-85300000D03*
X105725000Y-90525000D03*
X120300000Y-66200000D03*
X110733377Y-77787759D03*
X119800000Y-77200000D03*
X102300000Y-65700000D03*
X110800000Y-87600000D03*
X111700000Y-73900000D03*
X103350000Y-90500000D03*
X91700000Y-71200000D03*
X107000000Y-68600000D03*
X113839988Y-67247518D03*
X115230000Y-57760000D03*
X109600000Y-87600000D03*
X119800000Y-80000000D03*
X112390000Y-56800000D03*
X101025000Y-90500000D03*
X115000000Y-67200000D03*
X117200000Y-71600000D03*
X119800000Y-81200000D03*
X98950000Y-84600000D03*
X97530000Y-56850000D03*
X123000000Y-80070000D03*
X114400000Y-79100000D03*
X120000000Y-73400000D03*
X120500000Y-69900000D03*
X101000000Y-73300000D03*
X101360000Y-66440000D03*
X107868705Y-76652632D03*
X112600000Y-72100000D03*
X112600000Y-71200000D03*
X121200000Y-63800000D03*
X91940000Y-59810000D03*
X99400000Y-87619293D03*
X113100000Y-79100000D03*
X109600000Y-88600000D03*
X110800000Y-84600000D03*
X112600000Y-73900000D03*
X111000000Y-90700000D03*
X110900000Y-71200000D03*
X117300000Y-83200000D03*
X119330000Y-61340000D03*
X91800000Y-82700000D03*
X93100000Y-88600000D03*
X106761334Y-75081162D03*
X111700000Y-73000000D03*
X119800000Y-76300000D03*
X102470000Y-56850000D03*
X105080000Y-66810000D03*
X119800000Y-79000000D03*
X100400000Y-62200000D03*
X107520000Y-56870000D03*
X103700000Y-72100000D03*
X104100000Y-79000000D03*
X109500000Y-78100000D03*
X94351075Y-70399928D03*
X110900000Y-73000000D03*
X96200000Y-67500000D03*
X91700000Y-70400000D03*
X115600000Y-79100000D03*
X112150000Y-60750000D03*
X103940000Y-65590000D03*
X117375000Y-77339798D03*
X111750000Y-72100000D03*
X122625000Y-70600000D03*
X86880000Y-67730000D03*
X94400000Y-59200000D03*
X109000000Y-76800000D03*
X119800000Y-78000000D03*
X119800000Y-82100000D03*
X117280000Y-59340000D03*
X110900000Y-72100000D03*
X91500000Y-74000000D03*
X108500000Y-78100000D03*
X87800000Y-66000000D03*
X116500000Y-67200000D03*
X92600000Y-73100000D03*
X100600000Y-87600000D03*
X120300000Y-67000000D03*
X89980000Y-62010000D03*
X99850000Y-84600000D03*
X112600000Y-73000000D03*
X117300000Y-81200000D03*
X87000000Y-73000000D03*
X109400000Y-84600000D03*
X109706286Y-80647982D03*
X107825000Y-90500000D03*
X110800000Y-88600000D03*
X123450000Y-70850000D03*
X103000000Y-64600000D03*
X99400000Y-88500000D03*
X99200000Y-67200000D03*
X123630000Y-77790000D03*
X97590000Y-59070000D03*
X104600000Y-81200000D03*
X91567067Y-87330008D03*
X112340000Y-58850000D03*
X88858341Y-83963087D03*
X96800000Y-77600000D03*
X119600000Y-72500000D03*
X110900000Y-73900000D03*
X100600000Y-88500000D03*
%TO.N,CURR_SENS_B*%
X113100000Y-76776410D03*
X97500000Y-68450000D03*
%TO.N,CURR_SENS_A*%
X114306382Y-76750000D03*
X98275000Y-68425000D03*
%TO.N,PWM_A_HIGH*%
X99500000Y-76750000D03*
X108992002Y-72200000D03*
%TO.N,PWM_B_LOW*%
X103747110Y-76474000D03*
X106105555Y-75326024D03*
%TO.N,SPI_NSS*%
X98253554Y-72996446D03*
%TO.N,PB4*%
X103275000Y-74933521D03*
X98480842Y-79056209D03*
%TO.N,VIN_SENS*%
X106502015Y-75902932D03*
X117300000Y-78100000D03*
%TD*%
D29*
%TO.N,3V3*%
X117700000Y-75400000D02*
X118437500Y-76137500D01*
D30*
X117700000Y-74900000D02*
X117100000Y-74900000D01*
D31*
X108080000Y-74182500D02*
X107862500Y-74400000D01*
D32*
X117700000Y-75800000D02*
X117200000Y-76300000D01*
D29*
X117700000Y-74900000D02*
X117700000Y-75400000D01*
X118437500Y-76137500D02*
X118437500Y-78250000D01*
D30*
X117100000Y-74900000D02*
X116700000Y-74500000D01*
D29*
X109500000Y-74182500D02*
X109582500Y-74182500D01*
D32*
X117700000Y-74900000D02*
X117700000Y-75800000D01*
D31*
X107862500Y-73750000D02*
X107862500Y-73965000D01*
D29*
X109582500Y-74182500D02*
X110200000Y-74800000D01*
X116400000Y-74800000D02*
X116700000Y-74500000D01*
D31*
X107862500Y-73965000D02*
X108080000Y-74182500D01*
D32*
X118437500Y-77537500D02*
X117200000Y-76300000D01*
D30*
X118437500Y-78250000D02*
X118437500Y-77537500D01*
D31*
X109500000Y-74182500D02*
X108080000Y-74182500D01*
D29*
X110200000Y-74800000D02*
X116400000Y-74800000D01*
D30*
%TO.N,FDCAN_RX*%
X96152341Y-69566899D02*
X96700498Y-69018742D01*
X96700498Y-69018742D02*
X96879831Y-69018742D01*
X95999000Y-69605569D02*
X96585827Y-69018742D01*
X106000000Y-71250000D02*
X105976697Y-71273303D01*
X96700000Y-71200000D02*
X95999000Y-70499000D01*
X96806044Y-71273303D02*
X96732741Y-71200000D01*
X105976697Y-71273303D02*
X96806044Y-71273303D01*
X95999000Y-70499000D02*
X95999000Y-69605569D01*
X96732741Y-71200000D02*
X96700000Y-71200000D01*
X96585827Y-69018742D02*
X96879831Y-69018742D01*
%TO.N,FDCAN_TX*%
X96567964Y-71773303D02*
X95981866Y-72359401D01*
X95233884Y-72890380D02*
X93890380Y-72890380D01*
X95981866Y-72359401D02*
X95764863Y-72359401D01*
X95764863Y-72359401D02*
X95233884Y-72890380D01*
X99250000Y-71773303D02*
X96567964Y-71773303D01*
%TO.N,CAN_L*%
X88661094Y-78919456D02*
X90221378Y-78919456D01*
X87743731Y-79836819D02*
X88661094Y-78919456D01*
%TO.N,CAN_H*%
X86875000Y-77450000D02*
X87792364Y-76532636D01*
X87792364Y-76532636D02*
X89352647Y-76532636D01*
%TO.N,USART_RX*%
X102000000Y-86775000D02*
X102000000Y-82708869D01*
X104460000Y-88885000D02*
X102350000Y-86775000D01*
%TO.N,USART_TX*%
X100250000Y-84250000D02*
X99600000Y-83600000D01*
X101250000Y-87685000D02*
X101250000Y-87330761D01*
X100600000Y-86680761D02*
X100600000Y-84250000D01*
X101250000Y-87330761D02*
X100600000Y-86680761D01*
X101920000Y-88355000D02*
X101250000Y-87685000D01*
%TO.N,SWD_CLK*%
X107401082Y-77942932D02*
X107459507Y-77884507D01*
X107459507Y-77884507D02*
X106250000Y-76675000D01*
%TO.N,~{CAN_EN}*%
X95429890Y-74320110D02*
X97254554Y-72495446D01*
X97254554Y-72495446D02*
X100945449Y-72495446D01*
X100945449Y-72495446D02*
X101000000Y-72549997D01*
X95429890Y-74513614D02*
X95429890Y-74320110D01*
%TO.N,PWM_C_HIGH*%
X106725000Y-74382106D02*
X106250000Y-73907106D01*
X106250000Y-73000000D02*
X106000000Y-72750000D01*
X106250000Y-73907106D02*
X106250000Y-73000000D01*
%TO.N,SPI_MISO*%
X100163674Y-74400000D02*
X99860021Y-74096347D01*
X102137500Y-74400000D02*
X100163674Y-74400000D01*
%TO.N,SPI_CLK*%
X99359021Y-74303868D02*
X99359021Y-73452474D01*
X102137500Y-75050000D02*
X100105153Y-75050000D01*
X99359021Y-73452474D02*
X99470801Y-73340694D01*
X100105153Y-75050000D02*
X99359021Y-74303868D01*
%TO.N,SPI_MOSI*%
X102137500Y-73750000D02*
X102750000Y-73750000D01*
X102750000Y-73750000D02*
X103625000Y-72875000D01*
D33*
%TO.N,GND*%
X112925000Y-86600000D02*
X114400000Y-88075000D01*
D30*
X108075818Y-76652632D02*
X107868705Y-76652632D01*
D33*
X113000000Y-90300000D02*
X111925000Y-90300000D01*
D30*
X107862500Y-75050000D02*
X109232500Y-75050000D01*
X106792496Y-75050000D02*
X106761334Y-75081162D01*
X103076000Y-72677450D02*
X103122550Y-72677450D01*
D29*
X120000000Y-74900000D02*
X120000000Y-75100000D01*
D30*
X107862500Y-75050000D02*
X109500000Y-75050000D01*
X103122550Y-72677450D02*
X103124000Y-72676000D01*
D33*
X111975000Y-86600000D02*
X112925000Y-86600000D01*
D29*
X120000000Y-75100000D02*
X121562500Y-76662500D01*
D30*
X103124000Y-72676000D02*
X103124000Y-72667479D01*
X109500000Y-75228450D02*
X108075818Y-76652632D01*
X103426000Y-72374000D02*
X103700000Y-72100000D01*
X102137500Y-73100000D02*
X102653450Y-73100000D01*
D33*
X111925000Y-90300000D02*
X111825000Y-90400000D01*
D29*
X121562500Y-76662500D02*
X121562500Y-78250000D01*
D30*
X107862500Y-75050000D02*
X106792496Y-75050000D01*
X101200000Y-73100000D02*
X101000000Y-73300000D01*
X103417479Y-72374000D02*
X103426000Y-72374000D01*
D33*
X114400000Y-88900000D02*
X113000000Y-90300000D01*
D30*
X103124000Y-72667479D02*
X103417479Y-72374000D01*
X102653450Y-73100000D02*
X103076000Y-72677450D01*
X102137500Y-73100000D02*
X101200000Y-73100000D01*
X109500000Y-75050000D02*
X109500000Y-75228450D01*
D33*
X114400000Y-88075000D02*
X114400000Y-88900000D01*
D30*
X109232500Y-75050000D02*
X109500000Y-75317500D01*
%TO.N,PWM_A_HIGH*%
X106559521Y-71399000D02*
X104566415Y-73392106D01*
X108801000Y-72008998D02*
X108801000Y-71572550D01*
X108801000Y-71572550D02*
X108627450Y-71399000D01*
X104566415Y-74862713D02*
X102679128Y-76750000D01*
X108992002Y-72200000D02*
X108801000Y-72008998D01*
X104566415Y-73392106D02*
X104566415Y-74862713D01*
X102679128Y-76750000D02*
X99500000Y-76750000D01*
X108627450Y-71399000D02*
X106559521Y-71399000D01*
%TO.N,PWM_B_LOW*%
X104957579Y-76474000D02*
X106105555Y-75326024D01*
X103747110Y-76474000D02*
X104957579Y-76474000D01*
%TO.N,SPI_NSS*%
X99991479Y-75700000D02*
X102137500Y-75700000D01*
X98253554Y-72996446D02*
X98253554Y-73962075D01*
X98253554Y-73962075D02*
X99991479Y-75700000D01*
%TO.N,PB4*%
X103274000Y-74976000D02*
X103274000Y-75729450D01*
X98480842Y-77060637D02*
X98480842Y-79056209D01*
X103275000Y-74975000D02*
X103274000Y-74976000D01*
X103274000Y-75729450D02*
X102902450Y-76101000D01*
X102902450Y-76101000D02*
X99440479Y-76101000D01*
X103275000Y-74933521D02*
X103275000Y-74975000D01*
X99440479Y-76101000D02*
X98480842Y-77060637D01*
%TO.N,VIN_SENS*%
X110201897Y-77400000D02*
X110464138Y-77137759D01*
X106900000Y-76800000D02*
X107500000Y-77400000D01*
X117000000Y-78400000D02*
X117300000Y-78100000D01*
X111337759Y-77137759D02*
X112600000Y-78400000D01*
X107500000Y-77400000D02*
X110201897Y-77400000D01*
X106502015Y-75902932D02*
X106900000Y-76300917D01*
X110464138Y-77137759D02*
X111337759Y-77137759D01*
X106900000Y-76300917D02*
X106900000Y-76800000D01*
X112600000Y-78400000D02*
X117000000Y-78400000D01*
%TD*%
%TA.AperFunction,Conductor*%
%TO.N,VIN*%
G36*
X122974086Y-73819685D02*
G01*
X122994728Y-73836319D01*
X123084599Y-73926190D01*
X123084600Y-73926191D01*
X123084602Y-73926192D01*
X123210125Y-73998663D01*
X123210126Y-73998663D01*
X123210129Y-73998665D01*
X123350139Y-74036181D01*
X123350142Y-74036181D01*
X123495086Y-74036181D01*
X123495089Y-74036181D01*
X123635099Y-73998665D01*
X123760629Y-73926190D01*
X123788319Y-73898500D01*
X123849642Y-73865015D01*
X123919334Y-73869999D01*
X123975267Y-73911871D01*
X123999684Y-73977335D01*
X124000000Y-73986181D01*
X124000000Y-75948638D01*
X123991355Y-75978078D01*
X123984832Y-76008065D01*
X123981077Y-76013080D01*
X123980315Y-76015677D01*
X123963681Y-76036319D01*
X123936319Y-76063681D01*
X123874996Y-76097166D01*
X123848638Y-76100000D01*
X121759176Y-76100000D01*
X121692137Y-76080315D01*
X121671495Y-76063681D01*
X121536319Y-75928505D01*
X121502834Y-75867182D01*
X121500000Y-75840824D01*
X121500000Y-73924000D01*
X121519685Y-73856961D01*
X121572489Y-73811206D01*
X121624000Y-73800000D01*
X122907047Y-73800000D01*
X122974086Y-73819685D01*
G37*
%TD.AperFunction*%
%TD*%
%TA.AperFunction,Conductor*%
%TO.N,GND*%
G36*
X109775363Y-75087185D02*
G01*
X109796005Y-75103819D01*
X109799500Y-75107314D01*
X109892686Y-75200500D01*
X110006814Y-75266392D01*
X110134108Y-75300500D01*
X110134110Y-75300500D01*
X116465889Y-75300500D01*
X116465892Y-75300500D01*
X116543410Y-75279729D01*
X116613256Y-75281392D01*
X116671118Y-75320554D01*
X116698623Y-75384782D01*
X116699500Y-75399503D01*
X116699500Y-75588149D01*
X116699501Y-75588175D01*
X116702291Y-75623627D01*
X116746380Y-75775385D01*
X116746383Y-75775392D01*
X116771752Y-75818290D01*
X116788933Y-75886014D01*
X116766773Y-75952276D01*
X116763401Y-75956888D01*
X116759490Y-75961984D01*
X116687017Y-76087511D01*
X116687016Y-76087515D01*
X116649500Y-76227525D01*
X116649500Y-76372475D01*
X116687016Y-76512485D01*
X116687017Y-76512488D01*
X116759488Y-76638011D01*
X116759490Y-76638013D01*
X116759491Y-76638015D01*
X116861985Y-76740509D01*
X116861986Y-76740510D01*
X116861988Y-76740511D01*
X116911073Y-76768850D01*
X116987515Y-76812984D01*
X117076132Y-76836728D01*
X117131719Y-76868822D01*
X117488181Y-77225284D01*
X117502884Y-77252211D01*
X117519477Y-77278030D01*
X117520368Y-77284230D01*
X117521666Y-77286607D01*
X117524500Y-77312965D01*
X117524500Y-77428635D01*
X117504815Y-77495674D01*
X117452011Y-77541429D01*
X117382853Y-77551373D01*
X117375954Y-77549958D01*
X117372476Y-77549500D01*
X117372475Y-77549500D01*
X117227525Y-77549500D01*
X117098993Y-77583940D01*
X117087511Y-77587017D01*
X116961988Y-77659488D01*
X116961982Y-77659493D01*
X116859493Y-77761982D01*
X116859488Y-77761988D01*
X116787017Y-77887511D01*
X116787016Y-77887515D01*
X116768237Y-77957596D01*
X116731874Y-78017254D01*
X116669027Y-78047783D01*
X116648464Y-78049500D01*
X113774500Y-78049500D01*
X113707461Y-78029815D01*
X113661706Y-77977011D01*
X113650500Y-77925500D01*
X113650500Y-77777527D01*
X113650500Y-77777525D01*
X113612984Y-77637515D01*
X113587833Y-77593953D01*
X113540511Y-77511988D01*
X113540506Y-77511982D01*
X113432268Y-77403744D01*
X113433856Y-77402155D01*
X113399537Y-77355159D01*
X113395379Y-77285413D01*
X113429588Y-77224491D01*
X113435997Y-77218936D01*
X113438012Y-77216920D01*
X113438015Y-77216919D01*
X113540509Y-77114425D01*
X113603428Y-77005445D01*
X113653994Y-76957232D01*
X113722601Y-76944008D01*
X113787465Y-76969976D01*
X113818200Y-77005446D01*
X113864679Y-77085948D01*
X113865873Y-77088015D01*
X113968367Y-77190509D01*
X113968368Y-77190510D01*
X113968370Y-77190511D01*
X114093893Y-77262982D01*
X114093894Y-77262982D01*
X114093897Y-77262984D01*
X114233907Y-77300500D01*
X114233910Y-77300500D01*
X114378854Y-77300500D01*
X114378857Y-77300500D01*
X114518867Y-77262984D01*
X114644397Y-77190509D01*
X114746891Y-77088015D01*
X114819366Y-76962485D01*
X114856882Y-76822475D01*
X114856882Y-76677525D01*
X114819366Y-76537515D01*
X114758840Y-76432682D01*
X114746893Y-76411988D01*
X114746888Y-76411982D01*
X114644399Y-76309493D01*
X114644393Y-76309488D01*
X114518870Y-76237017D01*
X114518871Y-76237017D01*
X114507388Y-76233940D01*
X114378857Y-76199500D01*
X114233907Y-76199500D01*
X114105375Y-76233940D01*
X114093893Y-76237017D01*
X113968370Y-76309488D01*
X113968364Y-76309493D01*
X113865875Y-76411982D01*
X113865873Y-76411985D01*
X113802954Y-76520963D01*
X113752386Y-76569178D01*
X113683779Y-76582400D01*
X113618915Y-76556432D01*
X113588180Y-76520963D01*
X113571428Y-76491948D01*
X113540509Y-76438395D01*
X113438015Y-76335901D01*
X113438013Y-76335900D01*
X113438011Y-76335898D01*
X113312488Y-76263427D01*
X113312489Y-76263427D01*
X113290496Y-76257534D01*
X113172475Y-76225910D01*
X113027525Y-76225910D01*
X112909504Y-76257534D01*
X112887511Y-76263427D01*
X112761988Y-76335898D01*
X112761982Y-76335903D01*
X112659493Y-76438392D01*
X112659488Y-76438398D01*
X112587017Y-76563921D01*
X112585608Y-76569178D01*
X112549500Y-76703935D01*
X112549500Y-76848885D01*
X112586504Y-76986984D01*
X112587017Y-76988898D01*
X112659488Y-77114421D01*
X112659493Y-77114427D01*
X112767732Y-77222666D01*
X112766144Y-77224253D01*
X112800468Y-77271266D01*
X112804617Y-77341013D01*
X112770400Y-77401930D01*
X112764003Y-77407472D01*
X112659493Y-77511982D01*
X112659488Y-77511988D01*
X112587017Y-77637511D01*
X112583908Y-77645019D01*
X112580779Y-77643723D01*
X112552462Y-77690026D01*
X112489569Y-77720460D01*
X112420206Y-77712061D01*
X112381509Y-77685827D01*
X111552972Y-76857290D01*
X111552967Y-76857286D01*
X111473049Y-76811146D01*
X111473048Y-76811145D01*
X111473047Y-76811145D01*
X111383903Y-76787259D01*
X110510282Y-76787259D01*
X110417994Y-76787259D01*
X110328850Y-76811145D01*
X110328847Y-76811146D01*
X110248929Y-76857286D01*
X110248924Y-76857290D01*
X110093034Y-77013181D01*
X110031711Y-77046666D01*
X110005353Y-77049500D01*
X107696544Y-77049500D01*
X107629505Y-77029815D01*
X107608863Y-77013181D01*
X107286819Y-76691137D01*
X107253334Y-76629814D01*
X107250500Y-76603456D01*
X107250500Y-76274500D01*
X107270185Y-76207461D01*
X107322989Y-76161706D01*
X107374500Y-76150500D01*
X108533261Y-76150500D01*
X108555971Y-76147191D01*
X108601393Y-76140573D01*
X108706483Y-76089198D01*
X108754503Y-76041178D01*
X108815826Y-76007692D01*
X108885518Y-76012676D01*
X108929866Y-76041177D01*
X108940349Y-76051660D01*
X108940357Y-76051666D01*
X109082802Y-76135907D01*
X109082805Y-76135909D01*
X109241717Y-76182077D01*
X109241724Y-76182079D01*
X109249998Y-76182729D01*
X109250000Y-76182728D01*
X109750000Y-76182728D01*
X109750001Y-76182729D01*
X109758275Y-76182079D01*
X109758282Y-76182077D01*
X109917194Y-76135909D01*
X109917197Y-76135907D01*
X110059642Y-76051666D01*
X110059650Y-76051660D01*
X110176660Y-75934650D01*
X110176666Y-75934642D01*
X110260907Y-75792197D01*
X110260908Y-75792194D01*
X110307077Y-75633283D01*
X110307078Y-75633277D01*
X110309999Y-75596157D01*
X110310000Y-75596142D01*
X110310000Y-75567500D01*
X109750000Y-75567500D01*
X109750000Y-76182728D01*
X109250000Y-76182728D01*
X109250000Y-75441500D01*
X109269685Y-75374461D01*
X109322489Y-75328706D01*
X109374000Y-75317500D01*
X109500000Y-75317500D01*
X109500000Y-75191500D01*
X109502550Y-75182814D01*
X109501262Y-75173853D01*
X109512240Y-75149812D01*
X109519685Y-75124461D01*
X109526525Y-75118533D01*
X109530287Y-75110297D01*
X109552521Y-75096007D01*
X109572489Y-75078706D01*
X109583003Y-75076418D01*
X109589065Y-75072523D01*
X109624000Y-75067500D01*
X109708324Y-75067500D01*
X109775363Y-75087185D01*
G37*
%TD.AperFunction*%
%TA.AperFunction,Conductor*%
G36*
X100533102Y-72865631D02*
G01*
X100553744Y-72882265D01*
X100559491Y-72888012D01*
X100661985Y-72990506D01*
X100661986Y-72990507D01*
X100661988Y-72990508D01*
X100787511Y-73062979D01*
X100787512Y-73062979D01*
X100787515Y-73062981D01*
X100860764Y-73082608D01*
X100920422Y-73118972D01*
X100950951Y-73181819D01*
X100942656Y-73251195D01*
X100921896Y-73284140D01*
X100907988Y-73299998D01*
X100915442Y-73356627D01*
X100915444Y-73356633D01*
X100975899Y-73502585D01*
X101072076Y-73627925D01*
X101100985Y-73650107D01*
X101102204Y-73651776D01*
X101104108Y-73652584D01*
X101122710Y-73679859D01*
X101142189Y-73706534D01*
X101142679Y-73709137D01*
X101143477Y-73710307D01*
X101146446Y-73729130D01*
X101149454Y-73745091D01*
X101149500Y-73746771D01*
X101149500Y-73883260D01*
X101154099Y-73914830D01*
X101154299Y-73922107D01*
X101147160Y-73949132D01*
X101143235Y-73976801D01*
X101138361Y-73982446D01*
X101136456Y-73989660D01*
X101115841Y-74008534D01*
X101097579Y-74029690D01*
X101090425Y-74031804D01*
X101084923Y-74036843D01*
X101057376Y-74041576D01*
X101030576Y-74049500D01*
X100512536Y-74049500D01*
X100445497Y-74029815D01*
X100399742Y-73977011D01*
X100392763Y-73957601D01*
X100373005Y-73883862D01*
X100372657Y-73883260D01*
X100300532Y-73758335D01*
X100300527Y-73758329D01*
X100198038Y-73655840D01*
X100198036Y-73655838D01*
X100072506Y-73583363D01*
X100071067Y-73582532D01*
X100022852Y-73531964D01*
X100009630Y-73463357D01*
X100013294Y-73443050D01*
X100021301Y-73413169D01*
X100021301Y-73268219D01*
X99983785Y-73128209D01*
X99978452Y-73118972D01*
X99928208Y-73031946D01*
X99911735Y-72964046D01*
X99934588Y-72898019D01*
X99989509Y-72854828D01*
X100035595Y-72845946D01*
X100466063Y-72845946D01*
X100533102Y-72865631D01*
G37*
%TD.AperFunction*%
%TA.AperFunction,Conductor*%
G36*
X102080539Y-72920185D02*
G01*
X102126294Y-72972989D01*
X102137500Y-73024500D01*
X102137500Y-73175500D01*
X102117815Y-73242539D01*
X102065011Y-73288294D01*
X102013500Y-73299500D01*
X101466739Y-73299500D01*
X101464326Y-73299675D01*
X101463518Y-73299500D01*
X101462253Y-73299500D01*
X101462253Y-73299226D01*
X101461780Y-73299123D01*
X101455358Y-73300000D01*
X101263661Y-73300000D01*
X101196622Y-73280315D01*
X101150867Y-73227511D01*
X101140923Y-73158353D01*
X101169948Y-73094797D01*
X101206325Y-73068566D01*
X101205447Y-73067045D01*
X101279136Y-73024500D01*
X101338015Y-72990506D01*
X101391701Y-72936818D01*
X101419398Y-72921694D01*
X101446174Y-72905030D01*
X101449821Y-72905082D01*
X101453024Y-72903334D01*
X101479383Y-72900500D01*
X102013500Y-72900500D01*
X102080539Y-72920185D01*
G37*
%TD.AperFunction*%
%TA.AperFunction,Conductor*%
G36*
X105606712Y-71643488D02*
G01*
X105652467Y-71696292D01*
X105662411Y-71765450D01*
X105633386Y-71829006D01*
X105627354Y-71835484D01*
X104378331Y-73084507D01*
X104317008Y-73117992D01*
X104247316Y-73113008D01*
X104191383Y-73071136D01*
X104166966Y-73005672D01*
X104170876Y-72964731D01*
X104171379Y-72962855D01*
X104175500Y-72947475D01*
X104175500Y-72802525D01*
X104137984Y-72662515D01*
X104124910Y-72639871D01*
X104065511Y-72536988D01*
X104065506Y-72536982D01*
X103963017Y-72434493D01*
X103963011Y-72434488D01*
X103837488Y-72362017D01*
X103837489Y-72362017D01*
X103826006Y-72358940D01*
X103697475Y-72324500D01*
X103552525Y-72324500D01*
X103423993Y-72358940D01*
X103412511Y-72362017D01*
X103311500Y-72420337D01*
X103243600Y-72436810D01*
X103177573Y-72413958D01*
X103134383Y-72359037D01*
X103130720Y-72348549D01*
X103125500Y-72331132D01*
X103125500Y-72316740D01*
X103115573Y-72248607D01*
X103077307Y-72170332D01*
X103074390Y-72160599D01*
X103074249Y-72135415D01*
X103070010Y-72110587D01*
X103074033Y-72096884D01*
X103073999Y-72090731D01*
X103077425Y-72085333D01*
X103081769Y-72070540D01*
X103115573Y-72001393D01*
X103125500Y-71933260D01*
X103125500Y-71747803D01*
X103145185Y-71680764D01*
X103197989Y-71635009D01*
X103249500Y-71623803D01*
X105539673Y-71623803D01*
X105606712Y-71643488D01*
G37*
%TD.AperFunction*%
%TA.AperFunction,Conductor*%
G36*
X97942539Y-56520185D02*
G01*
X97988294Y-56572989D01*
X97999500Y-56624500D01*
X97999500Y-59547868D01*
X97999501Y-59547874D01*
X98005908Y-59607481D01*
X98056202Y-59742327D01*
X98056203Y-59742328D01*
X98056204Y-59742330D01*
X98142454Y-59857546D01*
X98257670Y-59943796D01*
X98257671Y-59943796D01*
X98257672Y-59943797D01*
X98392519Y-59994091D01*
X98392518Y-59994091D01*
X98399446Y-59994835D01*
X98452129Y-60000500D01*
X101547870Y-60000499D01*
X101607481Y-59994091D01*
X101742330Y-59943796D01*
X101857546Y-59857546D01*
X101943796Y-59742330D01*
X101994091Y-59607481D01*
X102000500Y-59547871D01*
X102000499Y-56624499D01*
X102020184Y-56557461D01*
X102072987Y-56511706D01*
X102124499Y-56500500D01*
X102875500Y-56500500D01*
X102942539Y-56520185D01*
X102988294Y-56572989D01*
X102999500Y-56624500D01*
X102999500Y-59547868D01*
X102999501Y-59547874D01*
X103005908Y-59607481D01*
X103056202Y-59742327D01*
X103056203Y-59742328D01*
X103056204Y-59742330D01*
X103142454Y-59857546D01*
X103257670Y-59943796D01*
X103257671Y-59943796D01*
X103257672Y-59943797D01*
X103392519Y-59994091D01*
X103392518Y-59994091D01*
X103399446Y-59994835D01*
X103452129Y-60000500D01*
X106547870Y-60000499D01*
X106607481Y-59994091D01*
X106742330Y-59943796D01*
X106857546Y-59857546D01*
X106943796Y-59742330D01*
X106994091Y-59607481D01*
X107000500Y-59547871D01*
X107000499Y-56624499D01*
X107020184Y-56557461D01*
X107072987Y-56511706D01*
X107124499Y-56500500D01*
X107875500Y-56500500D01*
X107942539Y-56520185D01*
X107988294Y-56572989D01*
X107999500Y-56624500D01*
X107999500Y-59547868D01*
X107999501Y-59547874D01*
X108005908Y-59607481D01*
X108056202Y-59742327D01*
X108056203Y-59742328D01*
X108056204Y-59742330D01*
X108142454Y-59857546D01*
X108257670Y-59943796D01*
X108257671Y-59943796D01*
X108257672Y-59943797D01*
X108392519Y-59994091D01*
X108392518Y-59994091D01*
X108399446Y-59994835D01*
X108452129Y-60000500D01*
X111547870Y-60000499D01*
X111607481Y-59994091D01*
X111742330Y-59943796D01*
X111857546Y-59857546D01*
X111943796Y-59742330D01*
X111994091Y-59607481D01*
X112000500Y-59547871D01*
X112000499Y-56624499D01*
X112020184Y-56557461D01*
X112072987Y-56511706D01*
X112124499Y-56500500D01*
X113843688Y-56500500D01*
X113902187Y-56515166D01*
X113981235Y-56557461D01*
X114524930Y-56848367D01*
X114529644Y-56851025D01*
X115260139Y-57284308D01*
X115264740Y-57287176D01*
X115975432Y-57752209D01*
X115975434Y-57752210D01*
X115979934Y-57755298D01*
X115979936Y-57755300D01*
X115979938Y-57755301D01*
X116669439Y-58251173D01*
X116673803Y-58254460D01*
X117340790Y-58780219D01*
X117345005Y-58783695D01*
X117988181Y-59338317D01*
X117992239Y-59341975D01*
X118610375Y-59924402D01*
X118614267Y-59928235D01*
X119206137Y-60537312D01*
X119209857Y-60541313D01*
X119774319Y-61175862D01*
X119777850Y-61180012D01*
X120313851Y-61838853D01*
X120317182Y-61843135D01*
X120543261Y-62147490D01*
X120823626Y-62524925D01*
X120826787Y-62529382D01*
X121302709Y-63232819D01*
X121305669Y-63237410D01*
X121750126Y-63961093D01*
X121752882Y-63965810D01*
X122165038Y-64708380D01*
X122167584Y-64713214D01*
X122546639Y-65473230D01*
X122548969Y-65478171D01*
X122894180Y-66254151D01*
X122896290Y-66259190D01*
X123182575Y-66987515D01*
X123206980Y-67049601D01*
X123208866Y-67054729D01*
X123484444Y-67858074D01*
X123486102Y-67863279D01*
X123726022Y-68677964D01*
X123727450Y-68683238D01*
X123931256Y-69507714D01*
X123932450Y-69513045D01*
X124099746Y-70345717D01*
X124100703Y-70351095D01*
X124231155Y-71190292D01*
X124231875Y-71195707D01*
X124297091Y-71785351D01*
X124319259Y-71985788D01*
X124325238Y-72039842D01*
X124325719Y-72045285D01*
X124381808Y-72892718D01*
X124382049Y-72898175D01*
X124399335Y-73682673D01*
X124394546Y-73700419D01*
X124394784Y-73718796D01*
X124385633Y-73733448D01*
X124381132Y-73750130D01*
X124367509Y-73762469D01*
X124357774Y-73778059D01*
X124342152Y-73785438D01*
X124329349Y-73797037D01*
X124311218Y-73800052D01*
X124294600Y-73807904D01*
X124277468Y-73805666D01*
X124260426Y-73808502D01*
X124243542Y-73801236D01*
X124225318Y-73798857D01*
X124206769Y-73785412D01*
X124196246Y-73780884D01*
X124195382Y-73780161D01*
X124188836Y-73774636D01*
X124128385Y-73707335D01*
X124072452Y-73665463D01*
X124033699Y-73641524D01*
X124029902Y-73640482D01*
X124017131Y-73629702D01*
X124002719Y-73607903D01*
X123985257Y-73588462D01*
X123982847Y-73577845D01*
X123978599Y-73571418D01*
X123978430Y-73558375D01*
X123973114Y-73534946D01*
X123973114Y-73413208D01*
X123973114Y-73413206D01*
X123935598Y-73273196D01*
X123929125Y-73261985D01*
X123863125Y-73147669D01*
X123863120Y-73147663D01*
X123760631Y-73045174D01*
X123760625Y-73045169D01*
X123635102Y-72972698D01*
X123635103Y-72972698D01*
X123612867Y-72966740D01*
X123495089Y-72935181D01*
X123350139Y-72935181D01*
X123232361Y-72966740D01*
X123210125Y-72972698D01*
X123084602Y-73045169D01*
X123084596Y-73045174D01*
X122982107Y-73147663D01*
X122982102Y-73147669D01*
X122909631Y-73273192D01*
X122909630Y-73273196D01*
X122872114Y-73413206D01*
X122872114Y-73413208D01*
X122872114Y-73420500D01*
X122852429Y-73487539D01*
X122799625Y-73533294D01*
X122748114Y-73544500D01*
X121623997Y-73544500D01*
X121569687Y-73550338D01*
X121518181Y-73561543D01*
X121518172Y-73561546D01*
X121491807Y-73568779D01*
X121491796Y-73568783D01*
X121405181Y-73618105D01*
X121405173Y-73618111D01*
X121352371Y-73663863D01*
X121320743Y-73696640D01*
X121295025Y-73745804D01*
X121246508Y-73796082D01*
X121178511Y-73812148D01*
X121112622Y-73788902D01*
X121088504Y-73766013D01*
X120997367Y-73652633D01*
X120997366Y-73652632D01*
X120849025Y-73533392D01*
X120849022Y-73533390D01*
X120678523Y-73448831D01*
X120493824Y-73402897D01*
X120451097Y-73400000D01*
X120250000Y-73400000D01*
X120250000Y-76400000D01*
X120451097Y-76400000D01*
X120493830Y-76397101D01*
X120524155Y-76389560D01*
X120593963Y-76392482D01*
X120651110Y-76432682D01*
X120677451Y-76497397D01*
X120664623Y-76566079D01*
X120641764Y-76597575D01*
X120557682Y-76681657D01*
X120465643Y-76830875D01*
X120465641Y-76830880D01*
X120410494Y-76997302D01*
X120410493Y-76997309D01*
X120400000Y-77100013D01*
X120400000Y-78000000D01*
X122724999Y-78000000D01*
X122724999Y-77100028D01*
X122724998Y-77100013D01*
X122714505Y-76997302D01*
X122659358Y-76830880D01*
X122659356Y-76830875D01*
X122567315Y-76681654D01*
X122452842Y-76567181D01*
X122419357Y-76505858D01*
X122424341Y-76436166D01*
X122466213Y-76380233D01*
X122531677Y-76355816D01*
X122540523Y-76355500D01*
X123848639Y-76355500D01*
X123850075Y-76355422D01*
X123875952Y-76354036D01*
X123902310Y-76351202D01*
X123997444Y-76321413D01*
X123997451Y-76321409D01*
X123997454Y-76321408D01*
X124030289Y-76303479D01*
X124098562Y-76288626D01*
X124164026Y-76313042D01*
X124205898Y-76368975D01*
X124212245Y-76431357D01*
X124100703Y-77148905D01*
X124099746Y-77154283D01*
X123932451Y-77986949D01*
X123931257Y-77992281D01*
X123727447Y-78816769D01*
X123726019Y-78822042D01*
X123486101Y-79636721D01*
X123484443Y-79641926D01*
X123208866Y-80445271D01*
X123206980Y-80450399D01*
X122896290Y-81240810D01*
X122894180Y-81245849D01*
X122548969Y-82021828D01*
X122546639Y-82026769D01*
X122167584Y-82786786D01*
X122165038Y-82791620D01*
X121752882Y-83534190D01*
X121750126Y-83538907D01*
X121305660Y-84262606D01*
X121302699Y-84267197D01*
X120826796Y-84970603D01*
X120823636Y-84975060D01*
X120317190Y-85656852D01*
X120313836Y-85661165D01*
X120165690Y-85843262D01*
X120108113Y-85882842D01*
X120038277Y-85885011D01*
X119981821Y-85852688D01*
X117970060Y-83840927D01*
X117970050Y-83840918D01*
X117923379Y-83803306D01*
X117923373Y-83803303D01*
X117792457Y-83743514D01*
X117650000Y-83723033D01*
X117507542Y-83743514D01*
X117376628Y-83803301D01*
X117376626Y-83803303D01*
X117329944Y-83840921D01*
X117329940Y-83840925D01*
X115140927Y-86029939D01*
X115140913Y-86029954D01*
X115125419Y-86049181D01*
X115068025Y-86089027D01*
X115002034Y-86092432D01*
X114935884Y-86077768D01*
X114935883Y-86077768D01*
X114760574Y-86080318D01*
X114590583Y-86123227D01*
X114498302Y-86169572D01*
X113401924Y-86868043D01*
X114201886Y-88123733D01*
X114166649Y-88130743D01*
X114021058Y-88191049D01*
X113890030Y-88278599D01*
X113778654Y-88389974D01*
X112980227Y-87136694D01*
X112980226Y-87136693D01*
X111883850Y-87835164D01*
X111802842Y-87899215D01*
X111692115Y-88035142D01*
X111692114Y-88035144D01*
X111615714Y-88192948D01*
X111615714Y-88192949D01*
X111577768Y-88364117D01*
X111580318Y-88539425D01*
X111623227Y-88709416D01*
X111669572Y-88801697D01*
X112368043Y-89898074D01*
X113623733Y-89098111D01*
X113630743Y-89133351D01*
X113691049Y-89278942D01*
X113778599Y-89409970D01*
X113889973Y-89521344D01*
X112636694Y-90319770D01*
X112636693Y-90319772D01*
X112948288Y-90808875D01*
X112967707Y-90875992D01*
X112947757Y-90942952D01*
X112894772Y-90988498D01*
X112843708Y-90999500D01*
X96156312Y-90999500D01*
X96097813Y-90984834D01*
X95609440Y-90723528D01*
X95559616Y-90674544D01*
X95544184Y-90606400D01*
X95568044Y-90540730D01*
X95623619Y-90498385D01*
X95639662Y-90493461D01*
X95781980Y-90460128D01*
X95907053Y-90389233D01*
X95907056Y-90389231D01*
X95950243Y-90347724D01*
X95950244Y-90347723D01*
X96366655Y-89851464D01*
X95665983Y-89263528D01*
X95686186Y-89258115D01*
X95800200Y-89192289D01*
X95893292Y-89099197D01*
X95959118Y-88985183D01*
X95987204Y-88880363D01*
X96688048Y-89468442D01*
X97104468Y-88972174D01*
X97137834Y-88922451D01*
X97137837Y-88922445D01*
X97185940Y-88786953D01*
X97193919Y-88643396D01*
X97161131Y-88503402D01*
X97090236Y-88378329D01*
X97090234Y-88378326D01*
X97048727Y-88335139D01*
X97048726Y-88335138D01*
X96552467Y-87918726D01*
X95964531Y-88619398D01*
X95959118Y-88599197D01*
X95893292Y-88485183D01*
X95800200Y-88392091D01*
X95686186Y-88326265D01*
X95581365Y-88298177D01*
X96169445Y-87597333D01*
X95673177Y-87180914D01*
X95623454Y-87147548D01*
X95623448Y-87147545D01*
X95487956Y-87099442D01*
X95344399Y-87091463D01*
X95204405Y-87124251D01*
X95079332Y-87195146D01*
X95079329Y-87195148D01*
X95036142Y-87236655D01*
X95036141Y-87236656D01*
X94846871Y-87462219D01*
X94788700Y-87500921D01*
X94718839Y-87502029D01*
X94659469Y-87465192D01*
X94629440Y-87402105D01*
X94629409Y-87363120D01*
X94647940Y-87246120D01*
X94647940Y-87072898D01*
X94620842Y-86901808D01*
X94567313Y-86737064D01*
X94488672Y-86582721D01*
X94386854Y-86442581D01*
X94264368Y-86320095D01*
X94124228Y-86218277D01*
X93969885Y-86139636D01*
X93805141Y-86086107D01*
X93805139Y-86086106D01*
X93805138Y-86086106D01*
X93673711Y-86065290D01*
X93634051Y-86059009D01*
X93460829Y-86059009D01*
X93421168Y-86065290D01*
X93289742Y-86086106D01*
X93124992Y-86139637D01*
X92970651Y-86218277D01*
X92890696Y-86276368D01*
X92830512Y-86320095D01*
X92830510Y-86320097D01*
X92830509Y-86320097D01*
X92708028Y-86442578D01*
X92708028Y-86442579D01*
X92708026Y-86442581D01*
X92689514Y-86468061D01*
X92606208Y-86582720D01*
X92527568Y-86737061D01*
X92474037Y-86901811D01*
X92446940Y-87072898D01*
X92446940Y-87246119D01*
X92471645Y-87402105D01*
X92474038Y-87417210D01*
X92527567Y-87581954D01*
X92606208Y-87736297D01*
X92708026Y-87876437D01*
X92830512Y-87998923D01*
X92970652Y-88100741D01*
X93124995Y-88179382D01*
X93289739Y-88232911D01*
X93460829Y-88260009D01*
X93460830Y-88260009D01*
X93634050Y-88260009D01*
X93634051Y-88260009D01*
X93805141Y-88232911D01*
X93936988Y-88190070D01*
X94006827Y-88188076D01*
X94066660Y-88224156D01*
X94097488Y-88286857D01*
X94089524Y-88356271D01*
X94070294Y-88387708D01*
X93881913Y-88612211D01*
X93848551Y-88661928D01*
X93848548Y-88661934D01*
X93800445Y-88797426D01*
X93792466Y-88940983D01*
X93825254Y-89080977D01*
X93896149Y-89206050D01*
X93896151Y-89206053D01*
X93937658Y-89249240D01*
X93937659Y-89249241D01*
X94433917Y-89665652D01*
X95021853Y-88964977D01*
X95027268Y-88985183D01*
X95093094Y-89099197D01*
X95186186Y-89192289D01*
X95300200Y-89258115D01*
X95405017Y-89286201D01*
X94816938Y-89987046D01*
X94820595Y-90028840D01*
X94806828Y-90097340D01*
X94758212Y-90147522D01*
X94690183Y-90163455D01*
X94629172Y-90143407D01*
X94558769Y-90097340D01*
X94390211Y-89987046D01*
X94024565Y-89747790D01*
X94020061Y-89744699D01*
X93330560Y-89248826D01*
X93326196Y-89245539D01*
X92659209Y-88719780D01*
X92654994Y-88716304D01*
X92011818Y-88161682D01*
X92007760Y-88158024D01*
X91978806Y-88130743D01*
X91733083Y-87899215D01*
X91389624Y-87575597D01*
X91385732Y-87571764D01*
X90980200Y-87154442D01*
X90793862Y-86962687D01*
X90790142Y-86958686D01*
X90592996Y-86737061D01*
X90225667Y-86324122D01*
X90222152Y-86319991D01*
X89686143Y-85661140D01*
X89682822Y-85656870D01*
X89521890Y-85440218D01*
X90501187Y-85440218D01*
X90501187Y-85613440D01*
X90528285Y-85784530D01*
X90547368Y-85843262D01*
X90581815Y-85949276D01*
X90630243Y-86044322D01*
X90660455Y-86103617D01*
X90762273Y-86243757D01*
X90884759Y-86366243D01*
X91024899Y-86468061D01*
X91179242Y-86546702D01*
X91343986Y-86600231D01*
X91515076Y-86627329D01*
X91515077Y-86627329D01*
X91688297Y-86627329D01*
X91688298Y-86627329D01*
X91859388Y-86600231D01*
X92024132Y-86546702D01*
X92178475Y-86468061D01*
X92318615Y-86366243D01*
X92441101Y-86243757D01*
X92542919Y-86103617D01*
X92621560Y-85949274D01*
X92675089Y-85784530D01*
X92702187Y-85613440D01*
X92702187Y-85440218D01*
X92675089Y-85269128D01*
X92621560Y-85104384D01*
X92542919Y-84950041D01*
X92441101Y-84809901D01*
X92318615Y-84687415D01*
X92178475Y-84585597D01*
X92024132Y-84506956D01*
X91859388Y-84453427D01*
X91859386Y-84453426D01*
X91859385Y-84453426D01*
X91727958Y-84432610D01*
X91688298Y-84426329D01*
X91515076Y-84426329D01*
X91475415Y-84432610D01*
X91343989Y-84453426D01*
X91179239Y-84506957D01*
X91024898Y-84585597D01*
X90982022Y-84616749D01*
X90884759Y-84687415D01*
X90884757Y-84687417D01*
X90884756Y-84687417D01*
X90762275Y-84809898D01*
X90762275Y-84809899D01*
X90762273Y-84809901D01*
X90718546Y-84870085D01*
X90660455Y-84950040D01*
X90581815Y-85104381D01*
X90528284Y-85269131D01*
X90501187Y-85440218D01*
X89521890Y-85440218D01*
X89272425Y-85104381D01*
X89176363Y-84975059D01*
X89173203Y-84970603D01*
X88697291Y-84267183D01*
X88694339Y-84262606D01*
X88447420Y-83860561D01*
X88429110Y-83793135D01*
X88450160Y-83726512D01*
X88503888Y-83681846D01*
X88510674Y-83679147D01*
X88835534Y-83560908D01*
X88835534Y-83560907D01*
X88823384Y-83527525D01*
X99049500Y-83527525D01*
X99049500Y-83672475D01*
X99087016Y-83812485D01*
X99087017Y-83812488D01*
X99159488Y-83938011D01*
X99159490Y-83938013D01*
X99159491Y-83938015D01*
X99261985Y-84040509D01*
X99261986Y-84040510D01*
X99261988Y-84040511D01*
X99387511Y-84112982D01*
X99387512Y-84112982D01*
X99387515Y-84112984D01*
X99527525Y-84150500D01*
X99603456Y-84150500D01*
X99670495Y-84170185D01*
X99691137Y-84186819D01*
X100034788Y-84530470D01*
X100114712Y-84576614D01*
X100157593Y-84588104D01*
X100217253Y-84624467D01*
X100247783Y-84687314D01*
X100249500Y-84707878D01*
X100249500Y-86726906D01*
X100270160Y-86804013D01*
X100273383Y-86816043D01*
X100273387Y-86816052D01*
X100319527Y-86895969D01*
X100319531Y-86895974D01*
X100863181Y-87439624D01*
X100896666Y-87500947D01*
X100899500Y-87527305D01*
X100899500Y-87731144D01*
X100913797Y-87784500D01*
X100913797Y-87784501D01*
X100923385Y-87820286D01*
X100969527Y-87900208D01*
X100969531Y-87900213D01*
X101454180Y-88384862D01*
X101487665Y-88446185D01*
X101484430Y-88510860D01*
X101446598Y-88627297D01*
X101446597Y-88627301D01*
X101419500Y-88798389D01*
X101419500Y-88971610D01*
X101446224Y-89140345D01*
X101446598Y-89142701D01*
X101500127Y-89307445D01*
X101578768Y-89461788D01*
X101680586Y-89601928D01*
X101803072Y-89724414D01*
X101943212Y-89826232D01*
X102097555Y-89904873D01*
X102262299Y-89958402D01*
X102433389Y-89985500D01*
X102433390Y-89985500D01*
X102606610Y-89985500D01*
X102606611Y-89985500D01*
X102777701Y-89958402D01*
X102942445Y-89904873D01*
X103096788Y-89826232D01*
X103236928Y-89724414D01*
X103359414Y-89601928D01*
X103461232Y-89461788D01*
X103539873Y-89307445D01*
X103593402Y-89142701D01*
X103620500Y-88971611D01*
X103620500Y-88840544D01*
X103626738Y-88819298D01*
X103628318Y-88797210D01*
X103636390Y-88786426D01*
X103640185Y-88773505D01*
X103656918Y-88759005D01*
X103670190Y-88741277D01*
X103682810Y-88736569D01*
X103692989Y-88727750D01*
X103714906Y-88724598D01*
X103735654Y-88716860D01*
X103748814Y-88719722D01*
X103762147Y-88717806D01*
X103782290Y-88727005D01*
X103803927Y-88731712D01*
X103821652Y-88744980D01*
X103825703Y-88746831D01*
X103832181Y-88752863D01*
X103923181Y-88843863D01*
X103956666Y-88905186D01*
X103959500Y-88931544D01*
X103959500Y-88971610D01*
X103986224Y-89140345D01*
X103986598Y-89142701D01*
X104040127Y-89307445D01*
X104118768Y-89461788D01*
X104220586Y-89601928D01*
X104343072Y-89724414D01*
X104483212Y-89826232D01*
X104637555Y-89904873D01*
X104802299Y-89958402D01*
X104973389Y-89985500D01*
X104973390Y-89985500D01*
X105146610Y-89985500D01*
X105146611Y-89985500D01*
X105317701Y-89958402D01*
X105482445Y-89904873D01*
X105636788Y-89826232D01*
X105776928Y-89724414D01*
X105899414Y-89601928D01*
X106001232Y-89461788D01*
X106015515Y-89433756D01*
X106063489Y-89382960D01*
X106131309Y-89366164D01*
X106197445Y-89388701D01*
X106240897Y-89443415D01*
X106250000Y-89490050D01*
X106250000Y-89782844D01*
X106256401Y-89842372D01*
X106256403Y-89842379D01*
X106306645Y-89977086D01*
X106306649Y-89977093D01*
X106392809Y-90092187D01*
X106392812Y-90092190D01*
X106507906Y-90178350D01*
X106507913Y-90178354D01*
X106642620Y-90228596D01*
X106642627Y-90228598D01*
X106702155Y-90234999D01*
X106702172Y-90235000D01*
X107350000Y-90235000D01*
X107350000Y-89318012D01*
X107407007Y-89350925D01*
X107534174Y-89385000D01*
X107665826Y-89385000D01*
X107792993Y-89350925D01*
X107850000Y-89318012D01*
X107850000Y-90235000D01*
X108497828Y-90235000D01*
X108497844Y-90234999D01*
X108557372Y-90228598D01*
X108557379Y-90228596D01*
X108692086Y-90178354D01*
X108692093Y-90178350D01*
X108807187Y-90092190D01*
X108807190Y-90092187D01*
X108893350Y-89977093D01*
X108893354Y-89977086D01*
X108943596Y-89842379D01*
X108943598Y-89842372D01*
X108949999Y-89782844D01*
X108950000Y-89782827D01*
X108950000Y-89135000D01*
X108033012Y-89135000D01*
X108065925Y-89077993D01*
X108100000Y-88950826D01*
X108100000Y-88819174D01*
X108065925Y-88692007D01*
X108033012Y-88635000D01*
X108950000Y-88635000D01*
X108950000Y-87987172D01*
X108949999Y-87987155D01*
X108943598Y-87927627D01*
X108943596Y-87927620D01*
X108893354Y-87792913D01*
X108893350Y-87792906D01*
X108807190Y-87677812D01*
X108807187Y-87677809D01*
X108692093Y-87591649D01*
X108692086Y-87591645D01*
X108557379Y-87541403D01*
X108557372Y-87541401D01*
X108497844Y-87535000D01*
X107850000Y-87535000D01*
X107850000Y-88451988D01*
X107792993Y-88419075D01*
X107665826Y-88385000D01*
X107534174Y-88385000D01*
X107407007Y-88419075D01*
X107350000Y-88451988D01*
X107350000Y-87535000D01*
X106702155Y-87535000D01*
X106642627Y-87541401D01*
X106642620Y-87541403D01*
X106507913Y-87591645D01*
X106507906Y-87591649D01*
X106392812Y-87677809D01*
X106392809Y-87677812D01*
X106306649Y-87792906D01*
X106306645Y-87792913D01*
X106256403Y-87927620D01*
X106256401Y-87927627D01*
X106250000Y-87987155D01*
X106250000Y-88279949D01*
X106230315Y-88346988D01*
X106177511Y-88392743D01*
X106108353Y-88402687D01*
X106044797Y-88373662D01*
X106015515Y-88336244D01*
X106001231Y-88308211D01*
X105989591Y-88292190D01*
X105899414Y-88168072D01*
X105776928Y-88045586D01*
X105636788Y-87943768D01*
X105482445Y-87865127D01*
X105317701Y-87811598D01*
X105317699Y-87811597D01*
X105317698Y-87811597D01*
X105186271Y-87790781D01*
X105146611Y-87784500D01*
X104973389Y-87784500D01*
X104933728Y-87790781D01*
X104802302Y-87811597D01*
X104637552Y-87865128D01*
X104483211Y-87943768D01*
X104407302Y-87998920D01*
X104343072Y-88045586D01*
X104343070Y-88045588D01*
X104343069Y-88045588D01*
X104317351Y-88071307D01*
X104256028Y-88104792D01*
X104186336Y-88099808D01*
X104141989Y-88071307D01*
X102721819Y-86651137D01*
X102707115Y-86624209D01*
X102690523Y-86598391D01*
X102689631Y-86592190D01*
X102688334Y-86589814D01*
X102685500Y-86563456D01*
X102685500Y-86494236D01*
X102685500Y-86494234D01*
X107314500Y-86494234D01*
X107314500Y-86645765D01*
X107353719Y-86792136D01*
X107391602Y-86857750D01*
X107429485Y-86923365D01*
X107536635Y-87030515D01*
X107623544Y-87080692D01*
X107659781Y-87101614D01*
X107667865Y-87106281D01*
X107814234Y-87145500D01*
X107814236Y-87145500D01*
X107965764Y-87145500D01*
X107965766Y-87145500D01*
X108112135Y-87106281D01*
X108243365Y-87030515D01*
X108350515Y-86923365D01*
X108426281Y-86792135D01*
X108465500Y-86645766D01*
X108465500Y-86494234D01*
X108426281Y-86347865D01*
X108350515Y-86216635D01*
X108243365Y-86109485D01*
X108169128Y-86066624D01*
X108112136Y-86033719D01*
X108038950Y-86014109D01*
X107965766Y-85994500D01*
X107814234Y-85994500D01*
X107667863Y-86033719D01*
X107536635Y-86109485D01*
X107536632Y-86109487D01*
X107429487Y-86216632D01*
X107429485Y-86216635D01*
X107353719Y-86347863D01*
X107314500Y-86494234D01*
X102685500Y-86494234D01*
X102646281Y-86347865D01*
X102570515Y-86216635D01*
X102463365Y-86109485D01*
X102433829Y-86092432D01*
X102412498Y-86080116D01*
X102364284Y-86029549D01*
X102350500Y-85972730D01*
X102350500Y-83188255D01*
X102370185Y-83121216D01*
X102386819Y-83100574D01*
X102401579Y-83085814D01*
X102440509Y-83046884D01*
X102512984Y-82921354D01*
X102550500Y-82781344D01*
X102550500Y-82636394D01*
X102512984Y-82496384D01*
X102508925Y-82489354D01*
X102440511Y-82370857D01*
X102440506Y-82370851D01*
X102338017Y-82268362D01*
X102338011Y-82268357D01*
X102212488Y-82195886D01*
X102212489Y-82195886D01*
X102201006Y-82192809D01*
X102072475Y-82158369D01*
X101927525Y-82158369D01*
X101798993Y-82192809D01*
X101787511Y-82195886D01*
X101661988Y-82268357D01*
X101661982Y-82268362D01*
X101559493Y-82370851D01*
X101559488Y-82370857D01*
X101487017Y-82496380D01*
X101487016Y-82496384D01*
X101449500Y-82636394D01*
X101449500Y-82781344D01*
X101487016Y-82921354D01*
X101487017Y-82921357D01*
X101559488Y-83046880D01*
X101559493Y-83046886D01*
X101613181Y-83100574D01*
X101646666Y-83161897D01*
X101649500Y-83188255D01*
X101649500Y-86183383D01*
X101632887Y-86245383D01*
X101573720Y-86347861D01*
X101573720Y-86347862D01*
X101573720Y-86347863D01*
X101573719Y-86347865D01*
X101534500Y-86494234D01*
X101534500Y-86645766D01*
X101564508Y-86757759D01*
X101573720Y-86792137D01*
X101573720Y-86792138D01*
X101603653Y-86843983D01*
X101620126Y-86911883D01*
X101597274Y-86977910D01*
X101542352Y-87021101D01*
X101472799Y-87027742D01*
X101410696Y-86995726D01*
X101408585Y-86993664D01*
X100986819Y-86571898D01*
X100953334Y-86510575D01*
X100950500Y-86484217D01*
X100950500Y-84203858D01*
X100950500Y-84203856D01*
X100926614Y-84114712D01*
X100926611Y-84114706D01*
X100880473Y-84034794D01*
X100880470Y-84034791D01*
X100880469Y-84034788D01*
X100815212Y-83969531D01*
X100815209Y-83969529D01*
X100815205Y-83969526D01*
X100735293Y-83923388D01*
X100735290Y-83923387D01*
X100735289Y-83923386D01*
X100735288Y-83923386D01*
X100646144Y-83899500D01*
X100553856Y-83899500D01*
X100497863Y-83914502D01*
X100428015Y-83912840D01*
X100378091Y-83882409D01*
X100186819Y-83691137D01*
X100153334Y-83629814D01*
X100150500Y-83603456D01*
X100150500Y-83527527D01*
X100150500Y-83527525D01*
X100112984Y-83387515D01*
X100040509Y-83261985D01*
X99938015Y-83159491D01*
X99938013Y-83159490D01*
X99938011Y-83159488D01*
X99812488Y-83087017D01*
X99812489Y-83087017D01*
X99801006Y-83083940D01*
X99672475Y-83049500D01*
X99527525Y-83049500D01*
X99398993Y-83083940D01*
X99387511Y-83087017D01*
X99261988Y-83159488D01*
X99261982Y-83159493D01*
X99159493Y-83261982D01*
X99159488Y-83261988D01*
X99087017Y-83387511D01*
X99087016Y-83387515D01*
X99049500Y-83527525D01*
X88823384Y-83527525D01*
X88522700Y-82701405D01*
X88542905Y-82706819D01*
X88674557Y-82706819D01*
X88801724Y-82672744D01*
X88915738Y-82606918D01*
X88992470Y-82530185D01*
X89305381Y-83389899D01*
X89914130Y-83168332D01*
X89914147Y-83168325D01*
X89967907Y-83141946D01*
X90077310Y-83048657D01*
X90077313Y-83048654D01*
X90156000Y-82928323D01*
X90162033Y-82908364D01*
X90200272Y-82849887D01*
X90264056Y-82821366D01*
X90333133Y-82831857D01*
X90348594Y-82840459D01*
X90368606Y-82853545D01*
X90506231Y-82895145D01*
X90506238Y-82895146D01*
X90650002Y-82896286D01*
X90708156Y-82881934D01*
X90708157Y-82881933D01*
X91316912Y-82660364D01*
X91004078Y-81800861D01*
X91024283Y-81806275D01*
X91155935Y-81806275D01*
X91283102Y-81772200D01*
X91397116Y-81706374D01*
X91473848Y-81629641D01*
X91786758Y-82489354D01*
X91786759Y-82489355D01*
X92395508Y-82267788D01*
X92395525Y-82267781D01*
X92449285Y-82241402D01*
X92558688Y-82148113D01*
X92558691Y-82148110D01*
X92637379Y-82027778D01*
X92637379Y-82027777D01*
X92678979Y-81890152D01*
X92678980Y-81890145D01*
X92680120Y-81746381D01*
X92665768Y-81688227D01*
X92665767Y-81688226D01*
X92444198Y-81079470D01*
X91584695Y-81392303D01*
X91590109Y-81372101D01*
X91590109Y-81240449D01*
X91556034Y-81113282D01*
X91506522Y-81027525D01*
X105249500Y-81027525D01*
X105249500Y-81172475D01*
X105274940Y-81267416D01*
X105287017Y-81312488D01*
X105359488Y-81438011D01*
X105359490Y-81438013D01*
X105359491Y-81438015D01*
X105461985Y-81540509D01*
X105461986Y-81540510D01*
X105461988Y-81540511D01*
X105587511Y-81612982D01*
X105587512Y-81612982D01*
X105587515Y-81612984D01*
X105727525Y-81650500D01*
X105727528Y-81650500D01*
X105872472Y-81650500D01*
X105872475Y-81650500D01*
X105990294Y-81618930D01*
X108917301Y-81618930D01*
X108917301Y-81765849D01*
X108945959Y-81909924D01*
X108945962Y-81909934D01*
X109002179Y-82045656D01*
X109002184Y-82045665D01*
X109083799Y-82167809D01*
X109083802Y-82167813D01*
X109187677Y-82271688D01*
X109187681Y-82271691D01*
X109309825Y-82353306D01*
X109309831Y-82353309D01*
X109309832Y-82353310D01*
X109445559Y-82409530D01*
X109589641Y-82438189D01*
X109589645Y-82438190D01*
X109589646Y-82438190D01*
X109736557Y-82438190D01*
X109736558Y-82438189D01*
X109880643Y-82409530D01*
X110016370Y-82353310D01*
X110138521Y-82271691D01*
X110242402Y-82167810D01*
X110324021Y-82045659D01*
X110380241Y-81909932D01*
X110408901Y-81765845D01*
X110408901Y-81618935D01*
X110380241Y-81474848D01*
X110324021Y-81339121D01*
X110324020Y-81339120D01*
X110324017Y-81339114D01*
X110242402Y-81216970D01*
X110242399Y-81216966D01*
X110138524Y-81113091D01*
X110138520Y-81113088D01*
X110016376Y-81031473D01*
X110016367Y-81031468D01*
X109880645Y-80975251D01*
X109880646Y-80975251D01*
X109880643Y-80975250D01*
X109880639Y-80975249D01*
X109880635Y-80975248D01*
X109736560Y-80946590D01*
X109736556Y-80946590D01*
X109589646Y-80946590D01*
X109589641Y-80946590D01*
X109445566Y-80975248D01*
X109445556Y-80975251D01*
X109309834Y-81031468D01*
X109309825Y-81031473D01*
X109187681Y-81113088D01*
X109187677Y-81113091D01*
X109083802Y-81216966D01*
X109083799Y-81216970D01*
X109002184Y-81339114D01*
X109002179Y-81339123D01*
X108945962Y-81474845D01*
X108945959Y-81474855D01*
X108917301Y-81618930D01*
X105990294Y-81618930D01*
X106012485Y-81612984D01*
X106138015Y-81540509D01*
X106240509Y-81438015D01*
X106240511Y-81438010D01*
X106242904Y-81435618D01*
X106304227Y-81402133D01*
X106373919Y-81407117D01*
X106379962Y-81409964D01*
X106380001Y-81409872D01*
X106387510Y-81412982D01*
X106387512Y-81412982D01*
X106387515Y-81412984D01*
X106527525Y-81450500D01*
X106527528Y-81450500D01*
X106672472Y-81450500D01*
X106672475Y-81450500D01*
X106812485Y-81412984D01*
X106938015Y-81340509D01*
X107040509Y-81238015D01*
X107112984Y-81112485D01*
X107150500Y-80972475D01*
X107150500Y-80827525D01*
X107112984Y-80687515D01*
X107104392Y-80672634D01*
X107040511Y-80561988D01*
X107040506Y-80561982D01*
X106938017Y-80459493D01*
X106938011Y-80459488D01*
X106812488Y-80387017D01*
X106812489Y-80387017D01*
X106801006Y-80383940D01*
X106672475Y-80349500D01*
X106527525Y-80349500D01*
X106398993Y-80383940D01*
X106387511Y-80387017D01*
X106261988Y-80459488D01*
X106261981Y-80459494D01*
X106157092Y-80564382D01*
X106095769Y-80597866D01*
X106026077Y-80592881D01*
X106020033Y-80590033D01*
X106019995Y-80590127D01*
X106012486Y-80587016D01*
X105977482Y-80577637D01*
X105872475Y-80549500D01*
X105727525Y-80549500D01*
X105598993Y-80583940D01*
X105587511Y-80587017D01*
X105461988Y-80659488D01*
X105461982Y-80659493D01*
X105359493Y-80761982D01*
X105359488Y-80761988D01*
X105287017Y-80887511D01*
X105287016Y-80887515D01*
X105249500Y-81027525D01*
X91506522Y-81027525D01*
X91490208Y-80999268D01*
X91413474Y-80922534D01*
X92273188Y-80609623D01*
X92051620Y-80000869D01*
X92051615Y-80000858D01*
X92025236Y-79947098D01*
X91931947Y-79837695D01*
X91931944Y-79837692D01*
X91811612Y-79759004D01*
X91673986Y-79717404D01*
X91673979Y-79717403D01*
X91530215Y-79716263D01*
X91472061Y-79730615D01*
X91472053Y-79730618D01*
X91200985Y-79829278D01*
X91131256Y-79833709D01*
X91070201Y-79799739D01*
X91037203Y-79738152D01*
X91042741Y-79668502D01*
X91058258Y-79639869D01*
X91060784Y-79636391D01*
X91060792Y-79636384D01*
X91162610Y-79496244D01*
X91241251Y-79341901D01*
X91294780Y-79177157D01*
X91321878Y-79006067D01*
X91321878Y-78832845D01*
X91294780Y-78661755D01*
X91241251Y-78497011D01*
X91162610Y-78342668D01*
X91060792Y-78202528D01*
X90938306Y-78080042D01*
X90798166Y-77978224D01*
X90643823Y-77899583D01*
X90479079Y-77846054D01*
X90479077Y-77846053D01*
X90479076Y-77846053D01*
X90347649Y-77825237D01*
X90307989Y-77818956D01*
X90134767Y-77818956D01*
X90095106Y-77825237D01*
X89963680Y-77846053D01*
X89963677Y-77846054D01*
X89836087Y-77887511D01*
X89798930Y-77899584D01*
X89644589Y-77978224D01*
X89600898Y-78009968D01*
X89504450Y-78080042D01*
X89504448Y-78080044D01*
X89504447Y-78080044D01*
X89381966Y-78202525D01*
X89381966Y-78202526D01*
X89381964Y-78202528D01*
X89346796Y-78250932D01*
X89280146Y-78342667D01*
X89199344Y-78501251D01*
X89151369Y-78552047D01*
X89088859Y-78568956D01*
X88614950Y-78568956D01*
X88525806Y-78592842D01*
X88525803Y-78592843D01*
X88445885Y-78638983D01*
X88445884Y-78638984D01*
X88307164Y-78777703D01*
X88245840Y-78811187D01*
X88176149Y-78806202D01*
X88163187Y-78800505D01*
X88162451Y-78800130D01*
X88162447Y-78800128D01*
X88162445Y-78800127D01*
X87997701Y-78746598D01*
X87997699Y-78746597D01*
X87997698Y-78746597D01*
X87866271Y-78725781D01*
X87826611Y-78719500D01*
X87653389Y-78719500D01*
X87613728Y-78725781D01*
X87482302Y-78746597D01*
X87317552Y-78800128D01*
X87163211Y-78878768D01*
X87097186Y-78926739D01*
X87023072Y-78980586D01*
X87023070Y-78980588D01*
X87023069Y-78980588D01*
X86900588Y-79103069D01*
X86900588Y-79103070D01*
X86900586Y-79103072D01*
X86881980Y-79128681D01*
X86798768Y-79243211D01*
X86720128Y-79397550D01*
X86720020Y-79397883D01*
X86699820Y-79460055D01*
X86698751Y-79463344D01*
X86659313Y-79521019D01*
X86594954Y-79548217D01*
X86526108Y-79536302D01*
X86474632Y-79489058D01*
X86461871Y-79460055D01*
X86461113Y-79457482D01*
X86273977Y-78822036D01*
X86272551Y-78816768D01*
X86209406Y-78561322D01*
X86212428Y-78491521D01*
X86252709Y-78434431D01*
X86317460Y-78408182D01*
X86386077Y-78421083D01*
X86440159Y-78448638D01*
X86448824Y-78453053D01*
X86613568Y-78506582D01*
X86784658Y-78533680D01*
X86784659Y-78533680D01*
X86957879Y-78533680D01*
X86957880Y-78533680D01*
X87128970Y-78506582D01*
X87293714Y-78453053D01*
X87448057Y-78374412D01*
X87588197Y-78272594D01*
X87710683Y-78150108D01*
X87812501Y-78009968D01*
X87891142Y-77855625D01*
X87944671Y-77690881D01*
X87971769Y-77519791D01*
X87971769Y-77346569D01*
X87944671Y-77175479D01*
X87902423Y-77045454D01*
X87901619Y-77017334D01*
X87897616Y-76989489D01*
X87900635Y-76982877D01*
X87900428Y-76975613D01*
X87914954Y-76951523D01*
X87926641Y-76925933D01*
X87932754Y-76922003D01*
X87936508Y-76915780D01*
X87961754Y-76903367D01*
X87985419Y-76888159D01*
X87995689Y-76886682D01*
X87999209Y-76884952D01*
X88020354Y-76883136D01*
X88220128Y-76883136D01*
X88287167Y-76902821D01*
X88330613Y-76950841D01*
X88406868Y-77100500D01*
X88411415Y-77109424D01*
X88513233Y-77249564D01*
X88635719Y-77372050D01*
X88775859Y-77473868D01*
X88930202Y-77552509D01*
X89094946Y-77606038D01*
X89266036Y-77633136D01*
X89266037Y-77633136D01*
X89439257Y-77633136D01*
X89439258Y-77633136D01*
X89610348Y-77606038D01*
X89775092Y-77552509D01*
X89929435Y-77473868D01*
X90069575Y-77372050D01*
X90192061Y-77249564D01*
X90293879Y-77109424D01*
X90372520Y-76955081D01*
X90426049Y-76790337D01*
X90453147Y-76619247D01*
X90453147Y-76446025D01*
X90426049Y-76274935D01*
X90372520Y-76110191D01*
X90293879Y-75955848D01*
X90192061Y-75815708D01*
X90069575Y-75693222D01*
X89929435Y-75591404D01*
X89775092Y-75512763D01*
X89610348Y-75459234D01*
X89610346Y-75459233D01*
X89610345Y-75459233D01*
X89478918Y-75438417D01*
X89439258Y-75432136D01*
X89266036Y-75432136D01*
X89226375Y-75438417D01*
X89094949Y-75459233D01*
X88930199Y-75512764D01*
X88775858Y-75591404D01*
X88695903Y-75649495D01*
X88635719Y-75693222D01*
X88635717Y-75693224D01*
X88635716Y-75693224D01*
X88513235Y-75815705D01*
X88513235Y-75815706D01*
X88513233Y-75815708D01*
X88475140Y-75868138D01*
X88411415Y-75955847D01*
X88330613Y-76114431D01*
X88282638Y-76165227D01*
X88220128Y-76182136D01*
X87746220Y-76182136D01*
X87666887Y-76203393D01*
X87666886Y-76203393D01*
X87657078Y-76206020D01*
X87657077Y-76206021D01*
X87577155Y-76252163D01*
X87577154Y-76252164D01*
X87438434Y-76390883D01*
X87377110Y-76424367D01*
X87307419Y-76419382D01*
X87294466Y-76413690D01*
X87293712Y-76413306D01*
X87293713Y-76413306D01*
X87128967Y-76359777D01*
X86997540Y-76338961D01*
X86957880Y-76332680D01*
X86784658Y-76332680D01*
X86744997Y-76338961D01*
X86613571Y-76359777D01*
X86613568Y-76359778D01*
X86452884Y-76411988D01*
X86448821Y-76413308D01*
X86294480Y-76491948D01*
X86154342Y-76593765D01*
X86031617Y-76716490D01*
X85970294Y-76749974D01*
X85900602Y-76744990D01*
X85844669Y-76703118D01*
X85821409Y-76647857D01*
X85775963Y-76355500D01*
X85768844Y-76309705D01*
X85768124Y-76304290D01*
X85763957Y-76266610D01*
X85674757Y-75460114D01*
X85674283Y-75454751D01*
X85620113Y-74636318D01*
X85618191Y-74607281D01*
X85617950Y-74601824D01*
X85614706Y-74454578D01*
X85599241Y-73752723D01*
X85599241Y-73747268D01*
X85599869Y-73718796D01*
X85617950Y-72898173D01*
X85618191Y-72892717D01*
X85618503Y-72888012D01*
X85621134Y-72848256D01*
X85623143Y-72817905D01*
X93339880Y-72817905D01*
X93339880Y-72962855D01*
X93377396Y-73102865D01*
X93377397Y-73102868D01*
X93449868Y-73228391D01*
X93449870Y-73228393D01*
X93449871Y-73228395D01*
X93552365Y-73330889D01*
X93552366Y-73330890D01*
X93552368Y-73330891D01*
X93677891Y-73403362D01*
X93677892Y-73403362D01*
X93677895Y-73403364D01*
X93817905Y-73440880D01*
X93817908Y-73440880D01*
X93962852Y-73440880D01*
X93962855Y-73440880D01*
X94102865Y-73403364D01*
X94228395Y-73330889D01*
X94282085Y-73277199D01*
X94343408Y-73243714D01*
X94369766Y-73240880D01*
X95280026Y-73240880D01*
X95280028Y-73240880D01*
X95369172Y-73216994D01*
X95449096Y-73170850D01*
X95873726Y-72746220D01*
X95935049Y-72712735D01*
X95935347Y-72712670D01*
X95948228Y-72709901D01*
X96028010Y-72709901D01*
X96117154Y-72686015D01*
X96134559Y-72675966D01*
X96197078Y-72639871D01*
X96676827Y-72160122D01*
X96703754Y-72145418D01*
X96729573Y-72128826D01*
X96735773Y-72127934D01*
X96738150Y-72126637D01*
X96764508Y-72123803D01*
X96831153Y-72123803D01*
X96898192Y-72143488D01*
X96943947Y-72196292D01*
X96953891Y-72265450D01*
X96924866Y-72329006D01*
X96918834Y-72335484D01*
X95290461Y-73963855D01*
X95234876Y-73995948D01*
X95217406Y-74000629D01*
X95217401Y-74000631D01*
X95091878Y-74073102D01*
X95091872Y-74073107D01*
X94989383Y-74175596D01*
X94989378Y-74175602D01*
X94916907Y-74301125D01*
X94916906Y-74301129D01*
X94879390Y-74441139D01*
X94879390Y-74586089D01*
X94916196Y-74723449D01*
X94916907Y-74726102D01*
X94989378Y-74851625D01*
X94989380Y-74851627D01*
X94989381Y-74851629D01*
X95091875Y-74954123D01*
X95091876Y-74954124D01*
X95091878Y-74954125D01*
X95217401Y-75026596D01*
X95217402Y-75026596D01*
X95217405Y-75026598D01*
X95357415Y-75064114D01*
X95357418Y-75064114D01*
X95502362Y-75064114D01*
X95502365Y-75064114D01*
X95642375Y-75026598D01*
X95767905Y-74954123D01*
X95870399Y-74851629D01*
X95942874Y-74726099D01*
X95980390Y-74586089D01*
X95980390Y-74441139D01*
X95961757Y-74371602D01*
X95963420Y-74301755D01*
X95993849Y-74251831D01*
X97363417Y-72882265D01*
X97390344Y-72867561D01*
X97416163Y-72850969D01*
X97422363Y-72850077D01*
X97424740Y-72848780D01*
X97451098Y-72845946D01*
X97579054Y-72845946D01*
X97646093Y-72865631D01*
X97691848Y-72918435D01*
X97703054Y-72969946D01*
X97703054Y-73068921D01*
X97740570Y-73208931D01*
X97740571Y-73208934D01*
X97813042Y-73334457D01*
X97813047Y-73334463D01*
X97866735Y-73388151D01*
X97900220Y-73449474D01*
X97903054Y-73475832D01*
X97903054Y-74008219D01*
X97925910Y-74093517D01*
X97926940Y-74097362D01*
X97926941Y-74097365D01*
X97973081Y-74177283D01*
X97973085Y-74177288D01*
X99362315Y-75566518D01*
X99395800Y-75627841D01*
X99390816Y-75697533D01*
X99348944Y-75753466D01*
X99312628Y-75771108D01*
X99312698Y-75771277D01*
X99309878Y-75772445D01*
X99306737Y-75773971D01*
X99305197Y-75774383D01*
X99305188Y-75774387D01*
X99225270Y-75820527D01*
X99225265Y-75820531D01*
X98200374Y-76845422D01*
X98200369Y-76845428D01*
X98156788Y-76920912D01*
X98156789Y-76920913D01*
X98154229Y-76925345D01*
X98151406Y-76935877D01*
X98130342Y-77014493D01*
X98130342Y-77014495D01*
X98130342Y-78576823D01*
X98110657Y-78643862D01*
X98094023Y-78664504D01*
X98040335Y-78718191D01*
X98040330Y-78718197D01*
X97967859Y-78843720D01*
X97967858Y-78843724D01*
X97930342Y-78983734D01*
X97930342Y-79128684D01*
X97954203Y-79217733D01*
X97967859Y-79268697D01*
X98040330Y-79394220D01*
X98040332Y-79394222D01*
X98040333Y-79394224D01*
X98142827Y-79496718D01*
X98142828Y-79496719D01*
X98142830Y-79496720D01*
X98268353Y-79569191D01*
X98268354Y-79569191D01*
X98268357Y-79569193D01*
X98408367Y-79606709D01*
X98408370Y-79606709D01*
X98553314Y-79606709D01*
X98553317Y-79606709D01*
X98693327Y-79569193D01*
X98818857Y-79496718D01*
X98921351Y-79394224D01*
X98993826Y-79268694D01*
X99031342Y-79128684D01*
X99031342Y-78983734D01*
X99016070Y-78926739D01*
X104491154Y-78926739D01*
X104491154Y-79073658D01*
X104519812Y-79217733D01*
X104519815Y-79217743D01*
X104576032Y-79353465D01*
X104576037Y-79353474D01*
X104657652Y-79475618D01*
X104657655Y-79475622D01*
X104761530Y-79579497D01*
X104761534Y-79579500D01*
X104883678Y-79661115D01*
X104883684Y-79661118D01*
X104883685Y-79661119D01*
X105019412Y-79717339D01*
X105124049Y-79738152D01*
X105163494Y-79745998D01*
X105163498Y-79745999D01*
X105163499Y-79745999D01*
X105310410Y-79745999D01*
X105310411Y-79745998D01*
X105454496Y-79717339D01*
X105473486Y-79709473D01*
X109612285Y-79709473D01*
X109612285Y-79856392D01*
X109640943Y-80000467D01*
X109640946Y-80000477D01*
X109697163Y-80136199D01*
X109697168Y-80136208D01*
X109778783Y-80258352D01*
X109778786Y-80258356D01*
X109882661Y-80362231D01*
X109882665Y-80362234D01*
X110004809Y-80443849D01*
X110004818Y-80443854D01*
X110020619Y-80450399D01*
X110140543Y-80500073D01*
X110284625Y-80528732D01*
X110284629Y-80528733D01*
X110284630Y-80528733D01*
X110431541Y-80528733D01*
X110431542Y-80528732D01*
X110575627Y-80500073D01*
X110711354Y-80443853D01*
X110833505Y-80362234D01*
X110937386Y-80258353D01*
X111019005Y-80136202D01*
X111075225Y-80000475D01*
X111103885Y-79856388D01*
X111103885Y-79709478D01*
X111075225Y-79565391D01*
X111019005Y-79429664D01*
X111019004Y-79429663D01*
X111019001Y-79429657D01*
X110937386Y-79307513D01*
X110937383Y-79307509D01*
X110833508Y-79203634D01*
X110833504Y-79203631D01*
X110711360Y-79122016D01*
X110711351Y-79122011D01*
X110594615Y-79073658D01*
X110575627Y-79065793D01*
X110575623Y-79065792D01*
X110575619Y-79065791D01*
X110431544Y-79037133D01*
X110431540Y-79037133D01*
X110284630Y-79037133D01*
X110284625Y-79037133D01*
X110140550Y-79065791D01*
X110140540Y-79065794D01*
X110004818Y-79122011D01*
X110004809Y-79122016D01*
X109882665Y-79203631D01*
X109882661Y-79203634D01*
X109778786Y-79307509D01*
X109778783Y-79307513D01*
X109697168Y-79429657D01*
X109697163Y-79429666D01*
X109640946Y-79565388D01*
X109640943Y-79565398D01*
X109612285Y-79709473D01*
X105473486Y-79709473D01*
X105590223Y-79661119D01*
X105622026Y-79639869D01*
X105681269Y-79600284D01*
X105693171Y-79592331D01*
X105712374Y-79579500D01*
X105816255Y-79475619D01*
X105897874Y-79353468D01*
X105954094Y-79217741D01*
X105982754Y-79073654D01*
X105982754Y-78926744D01*
X105954094Y-78782657D01*
X105897874Y-78646930D01*
X105897873Y-78646929D01*
X105897870Y-78646923D01*
X105816255Y-78524779D01*
X105816252Y-78524775D01*
X105712377Y-78420900D01*
X105712373Y-78420897D01*
X105590229Y-78339282D01*
X105590220Y-78339277D01*
X105454498Y-78283060D01*
X105454499Y-78283060D01*
X105454496Y-78283059D01*
X105454492Y-78283058D01*
X105454488Y-78283057D01*
X105310413Y-78254399D01*
X105310409Y-78254399D01*
X105163499Y-78254399D01*
X105163494Y-78254399D01*
X105019419Y-78283057D01*
X105019409Y-78283060D01*
X104883687Y-78339277D01*
X104883678Y-78339282D01*
X104761534Y-78420897D01*
X104761530Y-78420900D01*
X104657655Y-78524775D01*
X104657652Y-78524779D01*
X104576037Y-78646923D01*
X104576032Y-78646932D01*
X104519815Y-78782654D01*
X104519812Y-78782664D01*
X104491154Y-78926739D01*
X99016070Y-78926739D01*
X98993826Y-78843724D01*
X98981307Y-78822041D01*
X98921353Y-78718197D01*
X98921348Y-78718191D01*
X98867661Y-78664504D01*
X98834176Y-78603181D01*
X98831342Y-78576823D01*
X98831342Y-77257180D01*
X98839985Y-77227743D01*
X98846509Y-77197754D01*
X98850264Y-77192737D01*
X98851027Y-77190141D01*
X98867656Y-77169504D01*
X98916638Y-77120522D01*
X98977958Y-77087038D01*
X99047649Y-77092022D01*
X99091998Y-77120522D01*
X99161985Y-77190509D01*
X99161987Y-77190510D01*
X99161988Y-77190511D01*
X99287511Y-77262982D01*
X99287512Y-77262982D01*
X99287515Y-77262984D01*
X99427525Y-77300500D01*
X99427528Y-77300500D01*
X99572472Y-77300500D01*
X99572475Y-77300500D01*
X99712485Y-77262984D01*
X99838015Y-77190509D01*
X99891705Y-77136819D01*
X99953028Y-77103334D01*
X99979386Y-77100500D01*
X102725270Y-77100500D01*
X102725272Y-77100500D01*
X102814416Y-77076614D01*
X102894340Y-77030470D01*
X103122474Y-76802334D01*
X103183797Y-76768850D01*
X103253488Y-76773834D01*
X103299367Y-76807754D01*
X103300854Y-76806268D01*
X103306601Y-76812015D01*
X103409095Y-76914509D01*
X103409096Y-76914510D01*
X103409098Y-76914511D01*
X103534621Y-76986982D01*
X103534622Y-76986982D01*
X103534625Y-76986984D01*
X103674635Y-77024500D01*
X103674638Y-77024500D01*
X103819582Y-77024500D01*
X103819585Y-77024500D01*
X103959595Y-76986984D01*
X104085125Y-76914509D01*
X104138815Y-76860819D01*
X104200138Y-76827334D01*
X104226496Y-76824500D01*
X105003721Y-76824500D01*
X105003723Y-76824500D01*
X105092867Y-76800614D01*
X105103491Y-76794480D01*
X105172791Y-76754470D01*
X105509446Y-76417814D01*
X105570766Y-76384331D01*
X105640457Y-76389315D01*
X105696391Y-76431186D01*
X105720808Y-76496651D01*
X105716899Y-76537590D01*
X105701847Y-76593765D01*
X105699500Y-76602525D01*
X105699500Y-76747475D01*
X105729871Y-76860819D01*
X105737017Y-76887488D01*
X105809488Y-77013011D01*
X105809490Y-77013013D01*
X105809491Y-77013015D01*
X105911985Y-77115509D01*
X105911986Y-77115510D01*
X105911988Y-77115511D01*
X106037511Y-77187982D01*
X106037512Y-77187982D01*
X106037515Y-77187984D01*
X106177525Y-77225500D01*
X106253456Y-77225500D01*
X106320495Y-77245185D01*
X106341137Y-77261819D01*
X106820921Y-77741603D01*
X106854406Y-77802926D01*
X106853015Y-77861375D01*
X106850582Y-77870452D01*
X106850582Y-77870457D01*
X106850582Y-78015407D01*
X106886676Y-78150109D01*
X106888099Y-78155420D01*
X106960570Y-78280943D01*
X106960572Y-78280945D01*
X106960573Y-78280947D01*
X107063067Y-78383441D01*
X107063068Y-78383442D01*
X107063070Y-78383443D01*
X107188593Y-78455914D01*
X107188594Y-78455914D01*
X107188597Y-78455916D01*
X107328607Y-78493432D01*
X107328610Y-78493432D01*
X107473554Y-78493432D01*
X107473557Y-78493432D01*
X107613567Y-78455916D01*
X107739097Y-78383441D01*
X107841591Y-78280947D01*
X107914066Y-78155417D01*
X107951582Y-78015407D01*
X107951582Y-77874500D01*
X107971267Y-77807461D01*
X108024071Y-77761706D01*
X108075582Y-77750500D01*
X110248039Y-77750500D01*
X110248041Y-77750500D01*
X110337185Y-77726614D01*
X110417109Y-77680470D01*
X110573001Y-77524578D01*
X110634324Y-77491093D01*
X110660682Y-77488259D01*
X111141215Y-77488259D01*
X111208254Y-77507944D01*
X111228896Y-77524578D01*
X112319531Y-78615212D01*
X112384788Y-78680469D01*
X112384791Y-78680470D01*
X112384794Y-78680473D01*
X112464706Y-78726611D01*
X112464707Y-78726611D01*
X112464712Y-78726614D01*
X112553856Y-78750500D01*
X112553858Y-78750500D01*
X117046142Y-78750500D01*
X117046144Y-78750500D01*
X117135288Y-78726614D01*
X117152993Y-78716392D01*
X117215212Y-78680470D01*
X117219754Y-78675927D01*
X117232126Y-78668435D01*
X117259568Y-78661165D01*
X117286044Y-78650930D01*
X117296362Y-78650500D01*
X117372473Y-78650500D01*
X117372475Y-78650500D01*
X117372476Y-78650499D01*
X117380531Y-78649439D01*
X117380853Y-78651888D01*
X117438238Y-78653246D01*
X117496107Y-78692400D01*
X117523621Y-78756624D01*
X117524500Y-78771364D01*
X117524500Y-79397870D01*
X117524501Y-79397876D01*
X117530908Y-79457483D01*
X117581202Y-79592328D01*
X117581206Y-79592335D01*
X117667452Y-79707544D01*
X117667455Y-79707547D01*
X117782664Y-79793793D01*
X117782671Y-79793797D01*
X117917517Y-79844091D01*
X117917516Y-79844091D01*
X117924444Y-79844835D01*
X117977127Y-79850500D01*
X118897872Y-79850499D01*
X118957483Y-79844091D01*
X119092331Y-79793796D01*
X119207546Y-79707546D01*
X119293796Y-79592331D01*
X119344091Y-79457483D01*
X119350273Y-79399986D01*
X120400001Y-79399986D01*
X120410494Y-79502697D01*
X120465641Y-79669119D01*
X120465643Y-79669124D01*
X120557684Y-79818345D01*
X120681654Y-79942315D01*
X120830875Y-80034356D01*
X120830880Y-80034358D01*
X120997302Y-80089505D01*
X120997309Y-80089506D01*
X121100019Y-80099999D01*
X121312499Y-80099999D01*
X121812500Y-80099999D01*
X122024972Y-80099999D01*
X122024986Y-80099998D01*
X122127697Y-80089505D01*
X122294119Y-80034358D01*
X122294124Y-80034356D01*
X122443345Y-79942315D01*
X122567315Y-79818345D01*
X122659356Y-79669124D01*
X122659358Y-79669119D01*
X122714505Y-79502697D01*
X122714506Y-79502690D01*
X122724999Y-79399986D01*
X122725000Y-79399973D01*
X122725000Y-78500000D01*
X121812500Y-78500000D01*
X121812500Y-80099999D01*
X121312499Y-80099999D01*
X121312500Y-80099998D01*
X121312500Y-78500000D01*
X120400001Y-78500000D01*
X120400001Y-79399986D01*
X119350273Y-79399986D01*
X119350500Y-79397873D01*
X119350499Y-78202528D01*
X119350499Y-77102129D01*
X119350498Y-77102123D01*
X119350323Y-77100499D01*
X119344091Y-77042517D01*
X119339353Y-77029815D01*
X119293797Y-76907671D01*
X119293793Y-76907664D01*
X119207547Y-76792455D01*
X119207544Y-76792452D01*
X119092335Y-76706206D01*
X119092328Y-76706202D01*
X119018667Y-76678729D01*
X119000940Y-76665459D01*
X118980797Y-76656260D01*
X118973515Y-76644929D01*
X118962733Y-76636858D01*
X118954994Y-76616109D01*
X118943023Y-76597482D01*
X118939871Y-76575565D01*
X118938316Y-76571394D01*
X118938000Y-76562547D01*
X118938000Y-76354181D01*
X118957685Y-76287142D01*
X119010489Y-76241387D01*
X119079647Y-76231443D01*
X119139688Y-76257534D01*
X119150978Y-76266610D01*
X119321476Y-76351168D01*
X119506175Y-76397102D01*
X119548903Y-76400000D01*
X119750000Y-76400000D01*
X119750000Y-73400000D01*
X119548903Y-73400000D01*
X119506175Y-73402897D01*
X119321476Y-73448831D01*
X119150977Y-73533390D01*
X119150974Y-73533392D01*
X119002633Y-73652632D01*
X119002632Y-73652633D01*
X118883392Y-73800974D01*
X118819780Y-73929236D01*
X118772358Y-73980549D01*
X118704723Y-73998077D01*
X118638348Y-73976257D01*
X118601961Y-73937263D01*
X118573170Y-73888580D01*
X118573165Y-73888574D01*
X118461425Y-73776834D01*
X118461416Y-73776827D01*
X118325390Y-73696382D01*
X118325385Y-73696380D01*
X118173633Y-73652292D01*
X118173620Y-73652290D01*
X118138170Y-73649500D01*
X118138163Y-73649500D01*
X117474500Y-73649500D01*
X117407461Y-73629815D01*
X117361706Y-73577011D01*
X117352662Y-73535439D01*
X117351561Y-73535585D01*
X117350500Y-73527528D01*
X117350500Y-73527527D01*
X117350500Y-73527525D01*
X117312984Y-73387515D01*
X117303183Y-73370540D01*
X117240511Y-73261988D01*
X117240506Y-73261982D01*
X117138017Y-73159493D01*
X117138011Y-73159488D01*
X117012488Y-73087017D01*
X117012489Y-73087017D01*
X117000572Y-73083824D01*
X116872475Y-73049500D01*
X116727525Y-73049500D01*
X116599428Y-73083824D01*
X116587511Y-73087017D01*
X116461988Y-73159488D01*
X116461982Y-73159493D01*
X116359493Y-73261982D01*
X116359488Y-73261988D01*
X116287017Y-73387511D01*
X116287016Y-73387515D01*
X116249500Y-73527525D01*
X116249500Y-73672475D01*
X116283685Y-73800052D01*
X116287017Y-73812488D01*
X116357292Y-73934207D01*
X116362194Y-73954414D01*
X116371697Y-73972909D01*
X116370265Y-73987682D01*
X116373765Y-74002107D01*
X116366964Y-74021756D01*
X116364959Y-74042453D01*
X116354125Y-74058852D01*
X116350913Y-74068134D01*
X116347269Y-74072994D01*
X116342742Y-74078733D01*
X116259491Y-74161985D01*
X116211415Y-74245254D01*
X116205869Y-74252287D01*
X116184390Y-74267536D01*
X116165325Y-74285716D01*
X116155392Y-74288125D01*
X116148899Y-74292736D01*
X116133440Y-74293450D01*
X116108505Y-74299500D01*
X110458676Y-74299500D01*
X110391637Y-74279815D01*
X110370995Y-74263181D01*
X110091737Y-73983923D01*
X110058252Y-73922600D01*
X110056950Y-73915674D01*
X110045461Y-73843132D01*
X109987146Y-73728682D01*
X109987144Y-73728680D01*
X109987141Y-73728676D01*
X109896323Y-73637858D01*
X109896319Y-73637855D01*
X109896318Y-73637854D01*
X109781868Y-73579539D01*
X109781866Y-73579538D01*
X109781863Y-73579537D01*
X109686916Y-73564500D01*
X109313084Y-73564500D01*
X109218136Y-73579537D01*
X109103680Y-73637855D01*
X109103676Y-73637858D01*
X109060134Y-73681400D01*
X108998811Y-73714884D01*
X108929119Y-73709899D01*
X108873186Y-73668027D01*
X108854413Y-73631697D01*
X108850500Y-73619535D01*
X108850500Y-73616740D01*
X108840573Y-73548607D01*
X108802856Y-73471455D01*
X108800129Y-73462979D01*
X108799451Y-73436601D01*
X108795010Y-73410587D01*
X108798479Y-73398770D01*
X108798335Y-73393132D01*
X108801822Y-73387385D01*
X108806769Y-73370540D01*
X108840573Y-73301393D01*
X108850500Y-73233260D01*
X108850500Y-72966740D01*
X108840573Y-72898607D01*
X108840572Y-72898606D01*
X108839665Y-72892377D01*
X108849479Y-72823200D01*
X108895135Y-72770311D01*
X108962137Y-72750500D01*
X109064474Y-72750500D01*
X109064477Y-72750500D01*
X109204487Y-72712984D01*
X109330017Y-72640509D01*
X109432511Y-72538015D01*
X109504986Y-72412485D01*
X109542502Y-72272475D01*
X109542502Y-72127525D01*
X109504986Y-71987515D01*
X109479017Y-71942536D01*
X109432513Y-71861988D01*
X109432508Y-71861982D01*
X109330019Y-71759493D01*
X109330017Y-71759491D01*
X109228410Y-71700828D01*
X109213499Y-71692219D01*
X109165284Y-71641651D01*
X109154824Y-71613349D01*
X109151500Y-71599282D01*
X109151500Y-71526406D01*
X109127614Y-71437262D01*
X109112337Y-71410802D01*
X109089582Y-71371389D01*
X109081472Y-71357341D01*
X109081468Y-71357336D01*
X109022825Y-71298693D01*
X108989340Y-71237370D01*
X108994324Y-71167678D01*
X109036196Y-71111745D01*
X109078406Y-71091240D01*
X109217111Y-71054074D01*
X109342641Y-70981599D01*
X109445135Y-70879105D01*
X109517610Y-70753575D01*
X109555126Y-70613565D01*
X109555126Y-70468615D01*
X109517610Y-70328605D01*
X109445135Y-70203075D01*
X109342641Y-70100581D01*
X109342639Y-70100580D01*
X109342637Y-70100578D01*
X109217114Y-70028107D01*
X109217115Y-70028107D01*
X109205632Y-70025030D01*
X109077101Y-69990590D01*
X108932151Y-69990590D01*
X108803619Y-70025030D01*
X108792137Y-70028107D01*
X108666614Y-70100578D01*
X108666608Y-70100583D01*
X108564119Y-70203072D01*
X108564114Y-70203078D01*
X108491643Y-70328601D01*
X108491642Y-70328605D01*
X108454126Y-70468615D01*
X108454126Y-70613565D01*
X108491642Y-70753575D01*
X108554530Y-70862500D01*
X108571003Y-70930400D01*
X108548151Y-70996427D01*
X108493230Y-71039617D01*
X108447143Y-71048500D01*
X106590917Y-71048500D01*
X106523878Y-71028815D01*
X106483530Y-70986500D01*
X106480702Y-70981601D01*
X106440509Y-70911985D01*
X106338015Y-70809491D01*
X106338013Y-70809490D01*
X106338011Y-70809488D01*
X106212488Y-70737017D01*
X106212489Y-70737017D01*
X106201006Y-70733940D01*
X106072475Y-70699500D01*
X105927525Y-70699500D01*
X105798993Y-70733940D01*
X105787511Y-70737017D01*
X105661988Y-70809488D01*
X105584991Y-70886485D01*
X105523667Y-70919969D01*
X105497310Y-70922803D01*
X96986847Y-70922803D01*
X96971359Y-70918653D01*
X96957612Y-70919308D01*
X96924847Y-70906190D01*
X96884624Y-70882967D01*
X96858943Y-70863261D01*
X96760934Y-70765252D01*
X96727449Y-70703929D01*
X96732433Y-70634237D01*
X96774305Y-70578304D01*
X96786599Y-70570193D01*
X96838015Y-70540509D01*
X96940509Y-70438015D01*
X97012984Y-70312485D01*
X97050500Y-70172475D01*
X97050500Y-70027525D01*
X97012984Y-69887515D01*
X96991613Y-69850500D01*
X96940511Y-69761988D01*
X96935562Y-69755539D01*
X96937319Y-69754190D01*
X96909373Y-69703011D01*
X96914357Y-69633319D01*
X96956229Y-69577386D01*
X96998442Y-69556879D01*
X97092316Y-69531726D01*
X97217846Y-69459251D01*
X97320340Y-69356757D01*
X97356577Y-69293992D01*
X97392813Y-69231231D01*
X97392813Y-69231229D01*
X97392815Y-69231227D01*
X97393807Y-69227525D01*
X113399500Y-69227525D01*
X113399500Y-69372475D01*
X113435738Y-69507714D01*
X113437017Y-69512488D01*
X113509488Y-69638011D01*
X113509490Y-69638013D01*
X113509491Y-69638015D01*
X113611985Y-69740509D01*
X113611986Y-69740510D01*
X113611988Y-69740511D01*
X113737511Y-69812982D01*
X113737512Y-69812982D01*
X113737515Y-69812984D01*
X113877525Y-69850500D01*
X113877528Y-69850500D01*
X114022472Y-69850500D01*
X114022475Y-69850500D01*
X114162485Y-69812984D01*
X114288015Y-69740509D01*
X114390509Y-69638015D01*
X114462984Y-69512485D01*
X114500500Y-69372475D01*
X114500500Y-69227525D01*
X114481871Y-69158000D01*
X117600000Y-69158000D01*
X117610608Y-69277325D01*
X117610609Y-69277328D01*
X117666557Y-69472861D01*
X117760721Y-69653129D01*
X117889246Y-69810753D01*
X118046870Y-69939278D01*
X118227138Y-70033442D01*
X118422671Y-70089390D01*
X118422674Y-70089391D01*
X118541999Y-70099999D01*
X118542002Y-70100000D01*
X119750000Y-70100000D01*
X120250000Y-70100000D01*
X121457998Y-70100000D01*
X121458000Y-70099999D01*
X121577325Y-70089391D01*
X121577328Y-70089390D01*
X121772861Y-70033442D01*
X121953129Y-69939278D01*
X122110753Y-69810753D01*
X122239278Y-69653129D01*
X122333442Y-69472861D01*
X122389390Y-69277328D01*
X122389391Y-69277325D01*
X122399999Y-69158000D01*
X122400000Y-69157998D01*
X122400000Y-68850000D01*
X120250000Y-68850000D01*
X120250000Y-70100000D01*
X119750000Y-70100000D01*
X119750000Y-68850000D01*
X117600000Y-68850000D01*
X117600000Y-69158000D01*
X114481871Y-69158000D01*
X114462984Y-69087515D01*
X114396565Y-68972475D01*
X114390511Y-68961988D01*
X114390506Y-68961982D01*
X114288017Y-68859493D01*
X114288011Y-68859488D01*
X114162488Y-68787017D01*
X114162489Y-68787017D01*
X114151006Y-68783940D01*
X114022475Y-68749500D01*
X113877525Y-68749500D01*
X113748993Y-68783940D01*
X113737511Y-68787017D01*
X113611988Y-68859488D01*
X113611982Y-68859493D01*
X113509493Y-68961982D01*
X113509488Y-68961988D01*
X113437017Y-69087511D01*
X113437016Y-69087515D01*
X113399500Y-69227525D01*
X97393807Y-69227525D01*
X97430012Y-69092404D01*
X97466377Y-69032746D01*
X97529224Y-69002217D01*
X97549787Y-69000500D01*
X97572472Y-69000500D01*
X97572475Y-69000500D01*
X97712485Y-68962984D01*
X97838015Y-68890509D01*
X97838015Y-68890508D01*
X97845054Y-68886445D01*
X97846525Y-68888994D01*
X97898502Y-68868883D01*
X97966951Y-68882902D01*
X97970816Y-68885041D01*
X98062515Y-68937984D01*
X98202525Y-68975500D01*
X98202528Y-68975500D01*
X98347472Y-68975500D01*
X98347475Y-68975500D01*
X98487485Y-68937984D01*
X98613015Y-68865509D01*
X98715509Y-68763015D01*
X98787984Y-68637485D01*
X98825500Y-68497475D01*
X98825500Y-68352525D01*
X98787984Y-68212515D01*
X98744972Y-68138017D01*
X98715511Y-68086988D01*
X98715506Y-68086982D01*
X98613017Y-67984493D01*
X98613011Y-67984488D01*
X98487488Y-67912017D01*
X98487489Y-67912017D01*
X98479564Y-67909893D01*
X98442889Y-67900066D01*
X98383229Y-67863701D01*
X98352701Y-67800854D01*
X98355208Y-67748201D01*
X98360748Y-67727525D01*
X104659500Y-67727525D01*
X104659500Y-67872475D01*
X104695587Y-68007153D01*
X104697017Y-68012488D01*
X104769488Y-68138011D01*
X104769490Y-68138013D01*
X104769491Y-68138015D01*
X104871985Y-68240509D01*
X104871986Y-68240510D01*
X104871988Y-68240511D01*
X104997511Y-68312982D01*
X104997512Y-68312982D01*
X104997515Y-68312984D01*
X105137525Y-68350500D01*
X105137528Y-68350500D01*
X105282472Y-68350500D01*
X105282475Y-68350500D01*
X105422485Y-68312984D01*
X105548015Y-68240509D01*
X105650509Y-68138015D01*
X105705944Y-68041999D01*
X117600000Y-68041999D01*
X117600000Y-68350000D01*
X119750000Y-68350000D01*
X120250000Y-68350000D01*
X122400000Y-68350000D01*
X122400000Y-68042002D01*
X122399999Y-68041999D01*
X122389391Y-67922674D01*
X122389390Y-67922671D01*
X122333442Y-67727138D01*
X122239278Y-67546870D01*
X122110753Y-67389246D01*
X121953129Y-67260721D01*
X121772861Y-67166557D01*
X121577328Y-67110609D01*
X121577325Y-67110608D01*
X121458000Y-67100000D01*
X120250000Y-67100000D01*
X120250000Y-68350000D01*
X119750000Y-68350000D01*
X119750000Y-67100000D01*
X118541999Y-67100000D01*
X118422674Y-67110608D01*
X118422671Y-67110609D01*
X118227138Y-67166557D01*
X118046870Y-67260721D01*
X117889246Y-67389246D01*
X117760721Y-67546870D01*
X117666557Y-67727138D01*
X117610609Y-67922671D01*
X117610608Y-67922674D01*
X117600000Y-68041999D01*
X105705944Y-68041999D01*
X105722984Y-68012485D01*
X105760500Y-67872475D01*
X105760500Y-67727525D01*
X105722984Y-67587515D01*
X105694406Y-67538017D01*
X105650511Y-67461988D01*
X105650506Y-67461982D01*
X105548017Y-67359493D01*
X105548011Y-67359488D01*
X105422488Y-67287017D01*
X105422489Y-67287017D01*
X105411006Y-67283940D01*
X105282475Y-67249500D01*
X105137525Y-67249500D01*
X105008993Y-67283940D01*
X104997511Y-67287017D01*
X104871988Y-67359488D01*
X104871982Y-67359493D01*
X104769493Y-67461982D01*
X104769488Y-67461988D01*
X104697017Y-67587511D01*
X104697016Y-67587515D01*
X104659500Y-67727525D01*
X98360748Y-67727525D01*
X98375500Y-67672475D01*
X98375500Y-67527525D01*
X98337984Y-67387515D01*
X98336523Y-67384985D01*
X98265511Y-67261988D01*
X98265506Y-67261982D01*
X98163017Y-67159493D01*
X98163011Y-67159488D01*
X98060018Y-67100025D01*
X99877000Y-67100025D01*
X99877000Y-67244975D01*
X99914516Y-67384985D01*
X99914517Y-67384988D01*
X99986988Y-67510511D01*
X99986990Y-67510513D01*
X99986991Y-67510515D01*
X100089485Y-67613009D01*
X100089486Y-67613010D01*
X100089488Y-67613011D01*
X100215011Y-67685482D01*
X100215012Y-67685482D01*
X100215015Y-67685484D01*
X100355025Y-67723000D01*
X100355028Y-67723000D01*
X100499972Y-67723000D01*
X100499975Y-67723000D01*
X100639985Y-67685484D01*
X100765515Y-67613009D01*
X100868009Y-67510515D01*
X100940484Y-67384985D01*
X100978000Y-67244975D01*
X100978000Y-67100025D01*
X100940484Y-66960015D01*
X100883884Y-66861982D01*
X100868011Y-66834488D01*
X100868006Y-66834482D01*
X100765517Y-66731993D01*
X100765511Y-66731988D01*
X100639988Y-66659517D01*
X100639989Y-66659517D01*
X100602605Y-66649500D01*
X100499975Y-66622000D01*
X100355025Y-66622000D01*
X100252395Y-66649500D01*
X100215011Y-66659517D01*
X100089488Y-66731988D01*
X100089482Y-66731993D01*
X99986993Y-66834482D01*
X99986988Y-66834488D01*
X99914517Y-66960011D01*
X99914516Y-66960015D01*
X99877000Y-67100025D01*
X98060018Y-67100025D01*
X98037488Y-67087017D01*
X98037489Y-67087017D01*
X98026006Y-67083940D01*
X97897475Y-67049500D01*
X97752525Y-67049500D01*
X97623993Y-67083940D01*
X97612511Y-67087017D01*
X97486988Y-67159488D01*
X97486982Y-67159493D01*
X97384493Y-67261982D01*
X97384488Y-67261988D01*
X97312017Y-67387511D01*
X97312016Y-67387515D01*
X97274500Y-67527525D01*
X97274500Y-67672475D01*
X97312016Y-67812485D01*
X97312016Y-67812486D01*
X97313005Y-67816174D01*
X97311342Y-67886024D01*
X97272180Y-67943887D01*
X97255231Y-67955655D01*
X97161985Y-68009491D01*
X97161982Y-68009493D01*
X97059493Y-68111982D01*
X97059488Y-68111988D01*
X96987017Y-68237511D01*
X96986214Y-68240509D01*
X96956199Y-68352527D01*
X96949819Y-68376336D01*
X96913454Y-68435996D01*
X96850606Y-68466525D01*
X96830044Y-68468242D01*
X96807356Y-68468242D01*
X96678824Y-68502682D01*
X96667342Y-68505759D01*
X96541819Y-68578230D01*
X96541813Y-68578235D01*
X96439323Y-68680726D01*
X96434376Y-68687173D01*
X96433061Y-68686164D01*
X96395070Y-68724152D01*
X96370614Y-68738272D01*
X96370611Y-68738274D01*
X95718531Y-69390355D01*
X95718529Y-69390357D01*
X95683809Y-69450497D01*
X95683807Y-69450499D01*
X95672387Y-69470278D01*
X95672386Y-69470280D01*
X95672386Y-69470281D01*
X95648500Y-69559425D01*
X95648500Y-70545144D01*
X95672373Y-70634237D01*
X95672386Y-70634287D01*
X95672387Y-70634290D01*
X95718527Y-70714208D01*
X95718531Y-70714213D01*
X95974389Y-70970071D01*
X96007874Y-71031394D01*
X96002890Y-71101086D01*
X95961018Y-71157019D01*
X95895554Y-71181436D01*
X95854615Y-71177527D01*
X95817858Y-71167678D01*
X95785102Y-71158901D01*
X95640152Y-71158901D01*
X95523001Y-71190292D01*
X95500138Y-71196418D01*
X95374615Y-71268889D01*
X95374609Y-71268894D01*
X95272120Y-71371383D01*
X95272115Y-71371389D01*
X95199644Y-71496912D01*
X95199643Y-71496916D01*
X95162127Y-71636926D01*
X95162127Y-71781876D01*
X95187213Y-71875497D01*
X95199644Y-71921889D01*
X95272115Y-72047412D01*
X95272120Y-72047418D01*
X95338960Y-72114258D01*
X95372445Y-72175581D01*
X95367461Y-72245273D01*
X95338960Y-72289620D01*
X95125019Y-72503562D01*
X95063699Y-72537046D01*
X95037340Y-72539880D01*
X94369766Y-72539880D01*
X94302727Y-72520195D01*
X94282085Y-72503561D01*
X94228397Y-72449873D01*
X94228391Y-72449868D01*
X94102868Y-72377397D01*
X94102869Y-72377397D01*
X94091386Y-72374320D01*
X93962855Y-72339880D01*
X93817905Y-72339880D01*
X93689373Y-72374320D01*
X93677891Y-72377397D01*
X93552368Y-72449868D01*
X93552362Y-72449873D01*
X93449873Y-72552362D01*
X93449868Y-72552368D01*
X93377397Y-72677891D01*
X93377396Y-72677895D01*
X93339880Y-72817905D01*
X85623143Y-72817905D01*
X85624223Y-72801588D01*
X85624223Y-72801587D01*
X85640718Y-72552365D01*
X85674283Y-72045244D01*
X85674756Y-72039889D01*
X85768126Y-71195683D01*
X85768844Y-71190291D01*
X85899302Y-70351058D01*
X85900246Y-70345752D01*
X86067556Y-69513011D01*
X86068735Y-69507747D01*
X86236882Y-68827525D01*
X94049500Y-68827525D01*
X94049500Y-68972475D01*
X94081317Y-69091217D01*
X94087017Y-69112488D01*
X94159488Y-69238011D01*
X94159490Y-69238013D01*
X94159491Y-69238015D01*
X94261985Y-69340509D01*
X94261986Y-69340510D01*
X94261988Y-69340511D01*
X94387511Y-69412982D01*
X94387512Y-69412982D01*
X94387515Y-69412984D01*
X94527525Y-69450500D01*
X94527528Y-69450500D01*
X94672472Y-69450500D01*
X94672475Y-69450500D01*
X94812485Y-69412984D01*
X94938015Y-69340509D01*
X95040509Y-69238015D01*
X95112984Y-69112485D01*
X95150500Y-68972475D01*
X95150500Y-68827525D01*
X95112984Y-68687515D01*
X95109064Y-68680726D01*
X95040511Y-68561988D01*
X95040506Y-68561982D01*
X94938017Y-68459493D01*
X94938011Y-68459488D01*
X94812488Y-68387017D01*
X94812489Y-68387017D01*
X94801006Y-68383940D01*
X94672475Y-68349500D01*
X94527525Y-68349500D01*
X94398993Y-68383940D01*
X94387511Y-68387017D01*
X94261988Y-68459488D01*
X94261982Y-68459493D01*
X94159493Y-68561982D01*
X94159488Y-68561988D01*
X94087017Y-68687511D01*
X94087016Y-68687515D01*
X94049500Y-68827525D01*
X86236882Y-68827525D01*
X86272562Y-68683186D01*
X86273966Y-68678002D01*
X86513906Y-67863251D01*
X86515546Y-67858102D01*
X86766162Y-67127525D01*
X90449500Y-67127525D01*
X90449500Y-67272475D01*
X90480789Y-67389246D01*
X90487017Y-67412488D01*
X90559488Y-67538011D01*
X90559490Y-67538013D01*
X90559491Y-67538015D01*
X90661985Y-67640509D01*
X90661986Y-67640510D01*
X90661988Y-67640511D01*
X90787511Y-67712982D01*
X90787512Y-67712982D01*
X90787515Y-67712984D01*
X90927525Y-67750500D01*
X90927528Y-67750500D01*
X91072472Y-67750500D01*
X91072475Y-67750500D01*
X91212485Y-67712984D01*
X91338015Y-67640509D01*
X91440509Y-67538015D01*
X91512984Y-67412485D01*
X91550500Y-67272475D01*
X91550500Y-67127525D01*
X91512984Y-66987515D01*
X91440509Y-66861985D01*
X91338015Y-66759491D01*
X91338013Y-66759490D01*
X91338011Y-66759488D01*
X91212488Y-66687017D01*
X91212489Y-66687017D01*
X91201006Y-66683940D01*
X91072475Y-66649500D01*
X90927525Y-66649500D01*
X90798993Y-66683940D01*
X90787511Y-66687017D01*
X90661988Y-66759488D01*
X90661982Y-66759493D01*
X90559493Y-66861982D01*
X90559488Y-66861988D01*
X90487017Y-66987511D01*
X90487016Y-66987515D01*
X90449500Y-67127525D01*
X86766162Y-67127525D01*
X86791138Y-67054716D01*
X86792999Y-67049654D01*
X87103719Y-66259164D01*
X87105819Y-66254151D01*
X87451054Y-65478119D01*
X87453335Y-65473282D01*
X87832434Y-64713175D01*
X87834940Y-64708417D01*
X88247132Y-63965783D01*
X88249856Y-63961120D01*
X88694361Y-63237357D01*
X88697277Y-63232836D01*
X89173220Y-62529371D01*
X89176363Y-62524940D01*
X89176374Y-62524925D01*
X89682822Y-61843129D01*
X89686125Y-61838880D01*
X90222170Y-61179985D01*
X90225647Y-61175899D01*
X90790157Y-60541296D01*
X90793846Y-60537328D01*
X91385743Y-59928223D01*
X91389612Y-59924413D01*
X92007789Y-59341948D01*
X92011788Y-59338343D01*
X92655009Y-58783682D01*
X92659193Y-58780231D01*
X93326217Y-58254443D01*
X93330538Y-58251189D01*
X94020086Y-57755282D01*
X94024538Y-57752227D01*
X94735279Y-57287163D01*
X94739839Y-57284321D01*
X95470374Y-56851014D01*
X95475049Y-56848378D01*
X96028199Y-56552413D01*
X96097813Y-56515166D01*
X96156312Y-56500500D01*
X97875500Y-56500500D01*
X97942539Y-56520185D01*
G37*
%TD.AperFunction*%
%TA.AperFunction,Conductor*%
G36*
X90590109Y-81240449D02*
G01*
X90590109Y-81372101D01*
X90624184Y-81499268D01*
X90690010Y-81613282D01*
X90766742Y-81690014D01*
X89835436Y-82028983D01*
X89826765Y-82029533D01*
X89103317Y-82292846D01*
X89108731Y-82272645D01*
X89108731Y-82140993D01*
X89074656Y-82013826D01*
X89008830Y-81899812D01*
X88932096Y-81823078D01*
X89863396Y-81484113D01*
X89872065Y-81483562D01*
X90284863Y-81333316D01*
X90595522Y-81220245D01*
X90590109Y-81240449D01*
G37*
%TD.AperFunction*%
%TA.AperFunction,Conductor*%
G36*
X121286994Y-76013142D02*
G01*
X121305175Y-76038323D01*
X121312068Y-76050947D01*
X121312073Y-76050955D01*
X121352278Y-76104663D01*
X121355653Y-76109171D01*
X121434802Y-76188320D01*
X121468286Y-76249641D01*
X121463302Y-76319333D01*
X121421431Y-76375267D01*
X121355967Y-76399684D01*
X121347120Y-76400000D01*
X121100029Y-76400000D01*
X121100010Y-76400001D01*
X121039352Y-76406198D01*
X120970659Y-76393428D01*
X120919775Y-76345547D01*
X120902855Y-76277757D01*
X120925271Y-76211581D01*
X120949065Y-76186192D01*
X120997364Y-76147368D01*
X121099695Y-76020063D01*
X121157039Y-75980144D01*
X121226861Y-75977564D01*
X121286994Y-76013142D01*
G37*
%TD.AperFunction*%
%TD*%
M02*
